<?xml version="1.0" standalone="no"?>
<!DOCTYPE svg PUBLIC "-//W3C//DTD SVG 20010904//EN"
 "http://www.w3.org/TR/2001/REC-SVG-20010904/DTD/svg10.dtd">
<svg version="1.0" xmlns="http://www.w3.org/2000/svg"
 width="1888.000000pt" height="1888.000000pt" viewBox="0 0 1888.000000 1888.000000"
 preserveAspectRatio="xMidYMid meet">
<metadata>
Created by potrace 1.14, written by Peter Selinger 2001-2017
</metadata>
<g transform="translate(0.000000,1888.000000) scale(0.100000,-0.100000)"
fill="#000000" stroke="none">
<path d="M17109 14216 c-2 -2 -35 -6 -74 -10 -38 -3 -101 -13 -140 -21 -38 -9
-81 -18 -95 -21 -112 -22 -304 -102 -470 -196 -58 -33 -240 -129 -358 -189
-51 -26 -99 -52 -107 -59 -8 -7 -15 -9 -15 -5 0 4 -6 3 -12 -3 -7 -5 -65 -36
-128 -69 -155 -81 -450 -234 -530 -275 -36 -18 -67 -36 -70 -39 -3 -4 -16 -10
-30 -14 -14 -4 -27 -11 -30 -14 -3 -3 -45 -27 -95 -52 -49 -25 -148 -77 -220
-114 -71 -37 -182 -95 -245 -128 -63 -32 -164 -85 -225 -117 -141 -74 -373
-194 -450 -234 -33 -17 -62 -34 -65 -37 -3 -3 -16 -10 -30 -14 -14 -4 -33 -15
-44 -24 -10 -9 -20 -15 -22 -13 -3 2 -46 -19 -97 -46 -85 -46 -313 -164 -537
-278 -52 -27 -97 -51 -100 -54 -3 -3 -63 -35 -135 -71 -234 -118 -470 -241
-482 -252 -7 -5 -13 -6 -13 -1 0 5 -4 4 -8 -1 -4 -6 -61 -37 -127 -70 -66 -33
-122 -62 -125 -65 -9 -9 -97 -48 -145 -65 -87 -30 -199 -24 -340 19 -5 1 -30
8 -55 15 -25 7 -54 17 -65 22 -18 8 -127 40 -150 45 -5 1 -37 11 -70 22 -33
11 -94 30 -135 42 -41 11 -82 24 -90 27 -8 3 -24 8 -35 10 -11 1 -29 7 -40 12
-16 8 -108 36 -150 47 -5 1 -29 9 -53 18 -23 8 -45 15 -47 15 -7 0 -176 51
-195 58 -8 3 -20 7 -25 8 -6 2 -69 21 -140 44 -71 22 -137 41 -147 41 -10 0
-18 5 -18 11 0 6 -9 9 -20 6 -11 -3 -20 -1 -20 4 0 5 -3 8 -7 7 -5 -1 -28 5
-53 12 -25 7 -49 14 -55 16 -5 1 -54 16 -108 34 -54 17 -106 33 -115 35 -9 2
-30 9 -47 15 -16 7 -41 14 -54 16 -14 3 -29 8 -35 12 -6 3 -22 8 -36 10 -13 2
-30 8 -37 14 -7 6 -13 8 -13 5 0 -3 -33 5 -72 19 -40 13 -82 26 -93 29 -11 2
-46 13 -77 24 -32 11 -58 17 -58 14 0 -3 -6 -1 -12 5 -7 5 -24 12 -38 14 -14
1 -28 6 -31 10 -3 5 -17 9 -32 10 -15 1 -27 7 -27 12 0 5 -3 7 -6 4 -3 -4 -24
0 -47 7 -141 46 -243 78 -252 79 -17 3 -189 57 -210 65 -11 5 -83 27 -160 50
-77 23 -147 45 -155 48 -8 4 -22 7 -32 8 -9 1 -25 6 -35 10 -10 5 -21 9 -25
10 -5 2 -10 4 -13 5 -3 1 -8 3 -12 4 -5 1 -19 5 -33 10 -188 58 -252 78 -263
80 -6 2 -19 6 -27 9 -8 3 -37 13 -65 22 -27 8 -57 18 -65 22 -8 3 -22 7 -30 8
-15 2 -82 22 -110 32 -8 4 -18 7 -22 8 -5 2 -9 3 -10 4 -2 2 -13 4 -25 7 -12
2 -61 17 -108 33 -47 17 -85 27 -85 24 0 -3 -7 0 -15 7 -8 7 -15 9 -15 5 0 -4
-7 -2 -15 5 -8 7 -15 10 -15 7 0 -3 -15 0 -32 8 -18 7 -36 14 -40 14 -5 1 -9
1 -10 2 -2 0 -10 2 -18 4 -8 2 -34 10 -58 19 -23 8 -46 16 -50 17 -4 1 -17 5
-30 10 -13 5 -27 9 -31 9 -13 0 -175 50 -191 59 -13 7 -68 23 -90 26 -3 0 -18
6 -35 12 -26 10 -197 64 -217 69 -5 1 -10 3 -13 4 -3 1 -9 4 -15 5 -5 1 -12 4
-15 5 -3 1 -8 3 -12 4 -56 15 -102 28 -118 35 -11 5 -67 23 -125 41 -58 17
-112 34 -120 38 -8 3 -19 7 -25 7 -5 1 -23 7 -38 13 -16 7 -32 12 -35 12 -9 0
-258 78 -287 89 -39 16 -136 44 -150 44 -8 0 -15 4 -15 9 0 4 -3 7 -7 6 -8 -2
-172 47 -208 62 -11 4 -67 22 -125 40 -58 17 -111 33 -118 35 -7 3 -14 5 -17
5 -3 0 -22 7 -42 14 -36 14 -384 126 -410 133 -7 2 -19 4 -25 6 -7 2 -23 9
-36 15 -12 7 -22 10 -22 7 0 -2 -24 4 -54 16 -30 11 -63 22 -73 24 -10 2 -57
17 -105 33 -49 17 -88 28 -88 26 0 -3 -13 2 -30 11 -16 9 -30 12 -30 8 0 -4
-5 -2 -12 5 -7 7 -21 12 -33 12 -12 0 -25 4 -30 9 -6 5 -28 14 -50 21 -22 7
-56 20 -75 28 -19 9 -44 17 -55 19 -11 2 -32 8 -47 14 -15 6 -32 8 -37 4 -6
-3 -11 -1 -11 4 0 6 -3 10 -8 9 -4 -1 -32 2 -62 7 -30 5 -62 9 -70 10 -8 0
-19 3 -25 6 -16 10 -346 3 -400 -9 -27 -6 -53 -8 -57 -6 -5 3 -8 0 -8 -6 0 -6
-4 -9 -8 -6 -17 10 -204 -49 -322 -101 -66 -29 -214 -114 -218 -125 -2 -4 -10
-8 -18 -8 -8 0 -14 -4 -14 -10 0 -5 -4 -10 -10 -10 -5 0 -40 -19 -77 -42 -79
-48 -127 -76 -165 -95 -15 -8 -30 -19 -33 -24 -4 -5 -11 -7 -16 -4 -5 4 -9 1
-9 -4 0 -6 -4 -11 -9 -11 -5 0 -52 -24 -103 -53 -52 -29 -129 -70 -171 -91
-43 -21 -80 -43 -83 -47 -3 -5 -14 -9 -24 -9 -10 0 -20 -3 -22 -7 -3 -7 -114
-65 -128 -68 -3 0 -45 -20 -94 -44 l-89 -43 42 -24 c24 -13 47 -24 51 -24 4 0
13 -7 20 -15 7 -9 15 -13 18 -11 3 3 17 -3 31 -13 14 -10 94 -55 176 -101 83
-46 166 -92 185 -103 19 -11 47 -27 62 -34 15 -8 30 -19 33 -24 4 -5 10 -7 15
-4 4 3 13 -2 20 -10 7 -8 16 -15 21 -15 5 0 43 -20 85 -45 41 -25 77 -45 80
-45 2 0 38 -20 80 -45 41 -25 78 -45 81 -45 2 0 35 -17 71 -39 37 -21 88 -50
114 -65 27 -14 69 -38 95 -52 27 -15 54 -31 61 -37 6 -5 12 -6 12 -3 0 4 7 0
16 -8 8 -9 22 -16 30 -16 8 0 14 -4 14 -8 0 -4 12 -13 27 -20 35 -15 126 -65
133 -72 3 -3 30 -18 60 -34 30 -16 69 -38 85 -47 17 -10 44 -25 60 -34 17 -8
45 -24 63 -35 17 -11 32 -16 32 -12 0 4 4 2 8 -4 4 -5 52 -35 107 -66 55 -30
118 -66 140 -78 43 -25 113 -63 185 -101 25 -13 47 -27 48 -31 2 -5 8 -8 12
-8 5 0 35 -15 67 -34 59 -34 125 -71 198 -111 89 -48 161 -89 185 -104 14 -8
27 -16 30 -16 5 0 137 -75 170 -96 8 -5 35 -19 60 -32 68 -35 94 -51 102 -62
4 -5 8 -6 8 -1 0 5 8 3 18 -5 9 -8 35 -24 57 -36 22 -11 56 -30 75 -41 19 -12
53 -30 75 -42 49 -27 138 -76 185 -103 19 -11 55 -31 80 -45 25 -14 80 -45
122 -68 43 -24 82 -44 88 -44 5 0 10 -4 10 -9 0 -5 16 -15 35 -22 19 -7 35
-17 35 -21 0 -4 5 -8 10 -8 13 0 168 -87 193 -108 9 -8 17 -12 17 -9 0 5 40
-16 160 -86 19 -11 62 -34 95 -52 33 -18 129 -71 212 -119 84 -47 157 -86 162
-86 6 0 11 -4 11 -9 0 -5 8 -11 18 -14 17 -6 76 -38 222 -121 41 -24 102 -58
135 -76 33 -18 94 -52 136 -76 42 -24 81 -44 87 -44 6 0 12 -4 14 -8 5 -12 77
-52 94 -52 8 0 14 -4 14 -9 0 -5 10 -13 22 -17 12 -3 28 -13 36 -20 7 -8 18
-12 23 -9 5 4 9 2 9 -2 0 -5 28 -23 63 -41 34 -18 76 -41 92 -51 17 -10 57
-33 90 -51 115 -63 150 -84 157 -95 4 -5 8 -7 8 -3 0 8 29 -7 140 -72 36 -21
90 -51 120 -66 30 -16 57 -32 58 -36 2 -4 10 -8 18 -8 8 0 14 -4 14 -10 0 -5
6 -10 14 -10 7 0 41 -17 75 -37 l62 -37 -53 -33 c-29 -19 -69 -41 -88 -50 -19
-10 -38 -21 -41 -26 -3 -5 -9 -8 -13 -8 -3 1 -48 -20 -99 -46 -50 -26 -110
-56 -132 -67 -22 -10 -43 -23 -46 -28 -3 -5 -9 -9 -13 -8 -7 1 -197 -91 -206
-100 -3 -3 -27 -16 -55 -29 -27 -14 -53 -29 -56 -34 -3 -5 -9 -8 -13 -7 -6 1
-85 -38 -366 -182 -36 -18 -66 -36 -68 -40 -2 -5 -9 -8 -15 -8 -7 0 -28 -8
-47 -19 -19 -10 -91 -47 -160 -83 -69 -35 -132 -68 -140 -73 -8 -5 -17 -10
-20 -10 -3 -1 -23 -10 -45 -22 -145 -76 -175 -91 -175 -85 0 4 -4 1 -9 -6 -4
-7 -15 -14 -23 -16 -9 -1 -22 -6 -29 -12 -8 -5 -50 -28 -94 -50 -44 -21 -83
-43 -87 -49 -4 -5 -8 -6 -8 -2 0 5 -13 -1 -30 -13 -16 -12 -30 -18 -30 -13 0
4 -4 4 -8 -2 -4 -5 -92 -53 -197 -106 -497 -253 -626 -318 -637 -326 -7 -4
-15 -8 -18 -9 -8 -1 -111 -53 -158 -79 -23 -13 -42 -20 -42 -17 0 4 -4 2 -8
-4 -8 -11 -71 -43 -86 -42 -5 0 -12 -4 -15 -9 -7 -11 -134 -73 -159 -78 -9 -2
-17 -4 -17 -5 0 -9 -160 -16 -195 -8 -8 2 -21 7 -27 11 -7 5 -13 6 -13 2 0 -3
-16 1 -35 9 -19 8 -35 13 -35 11 0 -3 -17 2 -37 9 -21 8 -72 24 -113 36 -41
12 -82 25 -90 28 -8 3 -20 6 -27 8 -6 1 -27 7 -45 12 -18 6 -73 23 -123 37
-167 50 -320 96 -335 102 -8 4 -17 7 -20 7 -3 1 -23 7 -45 13 -195 60 -276 84
-282 84 -5 1 -24 7 -43 14 -19 7 -48 17 -65 21 -41 10 -45 11 -47 14 -2 1 -10
3 -18 5 -8 2 -82 24 -165 50 -82 26 -154 48 -160 49 -5 2 -17 6 -25 9 -8 4
-40 13 -70 21 -30 8 -74 21 -98 30 -23 8 -44 15 -47 16 -3 0 -6 0 -7 1 -2 0
-10 2 -18 4 -8 2 -76 22 -150 45 -74 23 -142 44 -150 45 -8 2 -16 4 -17 5 -2
2 -6 3 -10 4 -9 2 -62 18 -252 77 -68 21 -128 36 -133 33 -4 -3 -8 0 -8 7 0 7
-3 9 -6 6 -4 -3 -16 -1 -27 4 -19 11 -136 15 -167 6 -8 -2 -28 -7 -45 -12 -16
-4 -42 -16 -57 -26 -14 -11 -29 -19 -32 -19 -3 0 -52 -25 -108 -56 -57 -31
-128 -70 -158 -86 -67 -35 -159 -86 -220 -120 -25 -14 -72 -40 -105 -58 -33
-18 -62 -36 -65 -39 -3 -3 -11 -7 -19 -9 -8 -2 -27 -12 -42 -23 -15 -10 -30
-19 -34 -19 -3 0 -37 -17 -73 -39 -37 -21 -89 -51 -117 -66 -80 -44 -140 -79
-145 -85 -3 -3 -9 -6 -15 -7 -5 -1 -46 -22 -89 -47 -44 -25 -85 -47 -90 -50
-6 -2 0 -12 13 -22 13 -11 38 -31 56 -46 18 -16 37 -28 43 -28 6 0 12 -4 14
-8 1 -5 66 -51 143 -103 77 -51 142 -97 143 -101 2 -5 10 -8 17 -8 7 0 15 -3
17 -7 5 -12 66 -53 78 -53 5 0 10 -4 10 -10 0 -5 5 -10 10 -10 6 0 16 -5 23
-11 7 -6 104 -73 217 -149 113 -76 210 -143 217 -149 7 -6 15 -11 19 -11 3 0
23 -13 44 -30 21 -17 42 -30 47 -30 6 0 18 -9 28 -20 10 -11 24 -20 32 -20 7
0 13 -4 13 -9 0 -5 8 -12 18 -15 10 -4 27 -14 38 -24 10 -9 47 -35 81 -57 35
-22 63 -44 63 -48 0 -5 4 -6 9 -3 5 3 19 -4 33 -17 13 -12 36 -28 51 -36 15
-8 27 -18 27 -23 0 -4 5 -8 10 -8 12 0 73 -41 78 -52 2 -5 9 -8 15 -8 6 0 20
-9 31 -19 12 -11 35 -27 53 -38 17 -10 101 -65 185 -123 84 -57 207 -141 273
-185 66 -44 128 -88 139 -97 11 -10 25 -18 32 -18 7 0 14 -4 16 -8 2 -7 393
-275 446 -307 9 -5 19 -12 22 -15 3 -3 68 -48 145 -100 77 -51 142 -98 143
-102 2 -4 9 -8 15 -8 7 0 36 -18 65 -40 28 -22 52 -37 52 -34 0 3 7 -1 15 -8
30 -28 44 -38 51 -38 3 0 23 -14 44 -30 21 -17 43 -30 49 -30 6 0 11 -4 11 -8
0 -5 12 -15 27 -23 16 -8 30 -16 33 -19 3 -3 75 -52 160 -110 85 -57 160 -108
165 -112 11 -10 217 -148 243 -163 9 -5 19 -12 22 -15 6 -6 30 -22 235 -160
77 -52 145 -100 150 -106 40 -43 320 -184 366 -184 10 0 19 -5 19 -12 0 -6 2
-9 6 -6 3 3 26 -1 52 -8 26 -8 58 -17 72 -19 14 -3 36 -7 49 -10 75 -15 141
-19 276 -19 145 0 190 4 285 26 25 5 56 12 70 14 13 3 29 9 36 15 6 5 14 6 17
2 4 -3 13 0 22 7 8 7 15 10 15 6 0 -4 14 0 30 9 17 9 30 13 30 10 0 -3 11 2
25 11 14 9 25 12 25 8 0 -5 4 -4 8 1 4 6 70 41 147 79 77 39 163 83 190 99 28
16 51 29 53 28 6 -3 108 53 114 63 4 6 8 7 8 3 0 -4 24 5 53 21 74 42 121 66
127 67 3 0 12 4 20 10 8 5 59 32 115 60 182 94 418 216 545 282 69 36 185 96
259 134 74 39 141 75 149 82 8 7 17 11 18 10 5 -3 38 9 44 17 7 9 76 40 89 40
6 0 11 3 11 8 0 4 51 32 113 62 61 30 114 57 117 60 3 4 30 18 60 33 64 31
652 335 775 400 22 12 43 20 48 19 4 -1 7 2 7 7 0 5 14 12 30 16 16 4 30 10
30 14 0 4 19 16 43 26 23 10 58 28 77 40 19 12 38 23 43 23 4 1 30 13 57 27
27 14 53 25 56 24 4 0 10 3 13 8 3 5 69 41 146 80 77 39 157 80 178 92 20 11
37 18 37 14 0 -3 8 0 18 8 9 8 40 27 67 41 28 14 149 77 270 139 121 62 279
143 350 180 72 37 182 93 245 125 63 33 136 71 163 86 26 15 47 25 47 23 0 -3
17 5 38 18 20 13 69 39 107 58 39 18 73 38 77 44 4 5 8 7 8 3 0 -3 31 10 68
30 37 20 104 55 148 77 43 22 82 45 86 50 4 6 8 6 8 2 0 -5 14 1 30 13 17 12
30 18 30 14 0 -3 6 -2 13 4 12 10 109 61 467 244 107 55 210 109 228 120 17
11 32 16 32 11 0 -4 4 -3 8 3 4 6 45 30 92 53 47 24 100 52 118 63 17 11 32
16 32 11 0 -4 4 -3 8 2 4 6 52 33 107 60 54 28 104 53 110 57 5 5 73 40 150
79 370 188 421 215 433 227 8 7 18 10 23 7 5 -4 9 -2 9 3 0 6 12 13 27 17 15
3 30 10 33 14 5 6 102 57 370 193 69 34 127 65 130 69 3 3 21 11 40 19 19 7
46 21 60 30 14 9 70 38 125 66 55 27 102 51 105 54 3 3 55 30 115 60 61 30
112 58 113 63 2 4 9 7 15 7 7 0 26 7 42 16 17 9 72 38 123 65 51 26 99 52 106
58 7 6 16 8 19 4 4 -3 7 -1 7 6 0 7 4 10 9 6 5 -3 16 2 24 10 9 8 22 15 30 15
9 0 17 3 19 8 2 4 41 26 88 50 220 111 346 178 351 185 3 5 9 8 13 8 7 -1 138
61 146 69 3 3 66 36 140 74 74 37 150 77 168 88 17 11 32 16 32 11 0 -4 4 -3
8 2 4 6 21 17 37 25 17 8 41 22 55 31 14 9 28 17 33 18 13 2 152 73 157 81 3
5 14 10 25 12 11 1 22 6 25 9 3 4 28 18 55 31 50 24 275 141 435 226 47 24 89
48 94 53 6 5 18 9 27 9 9 0 22 6 28 14 7 8 23 17 38 21 14 3 32 13 40 21 8 8
19 12 24 8 5 -3 12 2 15 10 3 9 14 16 24 16 10 0 25 6 32 13 7 7 16 14 21 15
4 1 39 18 77 38 38 20 72 35 76 34 4 -1 10 2 13 7 3 5 29 20 56 34 28 13 52
26 55 29 3 3 77 41 165 85 88 44 162 82 165 85 3 3 59 32 125 65 66 33 122 62
125 65 3 3 38 25 79 49 231 136 536 392 662 556 13 17 31 36 41 43 10 7 18 20
18 28 0 8 6 14 14 14 8 0 16 6 19 14 3 8 30 48 60 88 93 125 192 325 231 468
10 36 21 72 23 80 3 8 7 26 9 40 2 14 11 59 18 100 19 100 14 425 -8 530 -8
41 -18 89 -21 105 -4 17 -9 37 -13 45 -3 8 -7 20 -8 25 -1 6 -3 13 -4 18 -1 4
-3 10 -5 15 -29 105 -154 353 -210 419 -5 6 -21 28 -35 48 -39 56 -127 152
-202 221 -154 140 -330 243 -567 330 -35 13 -68 21 -73 18 -4 -3 -8 -1 -8 4 0
5 -6 9 -12 9 -7 0 -33 6 -58 12 -25 7 -57 14 -72 16 -16 3 -40 7 -55 10 -86
14 -121 17 -254 21 -80 2 -148 2 -150 0z"/>
</g>
</svg>
