<?xml version="1.0" encoding="UTF-8"?>
<svg id="Layer_2" data-name="Layer 2" xmlns="http://www.w3.org/2000/svg" xmlns:xlink="http://www.w3.org/1999/xlink" viewBox="0 0 663.98 687.27">
  <defs>
    <style>
      .cls-1 {
        fill: #5d3e8a;
      }

      .cls-2 {
        fill: #fdb515;
      }

      .cls-3 {
        fill: #fdea34;
      }

      .cls-4, .cls-5, .cls-6 {
        fill: none;
      }

      .cls-5 {
        clip-path: url(#clippath);
      }

      .cls-6 {
        clip-path: url(#clippath-1);
      }

      .cls-7 {
        fill: #47a374;
      }
    </style>
    <clipPath id="clippath">
      <rect class="cls-4" x="190.35" width="375" height="599.56"/>
    </clipPath>
    <clipPath id="clippath-1">
      <rect class="cls-4" x="379.11" y="333.34" width="284.86" height="349.26"/>
    </clipPath>
  </defs>
  <g id="Background">
    <g id="Footer">
      <g id="Q2_Buildings" data-name="Q2 Buildings">
        <g class="cls-5">
          <g id="Mask_Group_24" data-name="Mask Group 24">
            <g id="Group_200" data-name="Group 200">
              <path id="Path_893" data-name="Path 893" class="cls-2" d="m483.68,467.06v7.35h-25.15v28.34h-21.41v-4.5h-3.32v-3.85h-11.86v-9.41h-6.91v3.44h-7.02v3.53h-22.92v-15.07h-21.09v4.77h-18.83v-7.18h-23.8v-.44h-34.07v-3.71h-3.52v3.7l-54.23-.02.19,19.28h-34.11s-.18-19.3-.18-19.3h-18.31v-6.93h-16.72v7.35h-25.15v28.34h-21.41v-4.5h-2.31v101.31h533.09v-125.51l-91.82-.03.19,19.28h-34.12s-.17-19.3-.17-19.3h-18.31v-6.93h-16.72Z"/>
              <path id="Path_893-2" data-name="Path 893" class="cls-3" d="m372.14,510.12v7.35h-25.15v28.34h-21.41v-4.5h-3.32v-3.85h-11.86v-9.41h-6.91v3.44h-7.02v3.53h-22.92v-15.07h-21.09v4.77h-18.83v-7.18h-23.8v-.44h-34.07v-3.71h-3.52v3.7l-54.23-.02.19,19.28h-34.11s-.18-19.3-.18-19.3h-18.31v-6.93h-16.72v7.35h-25.15v28.34H2.31v-4.5H0v101.31h533.09v-125.51l-91.82-.03.19,19.28h-34.12s-.17-19.3-.17-19.3h-18.31v-6.93h-16.72Z"/>
              <path id="Path_141" data-name="Path 141" class="cls-7" d="m274.18,512.29c14.56-.8,45.29,8.86,45.29,8.86-32.35-26.58-51.76-24.96-51.76-24.96,15.36-9.66,48.52-10.47,48.52-10.47-30.73-16.91-49.33-7.25-49.33-7.25l13.75-24.96c-15.96,1.17-30.66,9.08-40.44,21.74-3.06-20.58-13.36-43.3-14.45-45.66l-.02-.24s-.03.07-.05.1l-.04-.1v.24c-1.11,2.36-11.4,25.08-14.46,45.66-9.78-12.67-24.48-20.57-40.44-21.74l13.75,24.96s-18.6-9.66-49.33,7.25c0,0,33.15.8,48.52,10.47,0,0-19.41-1.61-51.76,24.96,0,0,30.73-9.66,45.28-8.86,0,0-29.11,14.5-37.2,36.24l36.39-12.08c-9.63,9.71-15.38,22.59-16.18,36.24,0,0,37.13-15.47,61.58-41.46v156.04h7.73v-156.06c24.46,26,61.6,41.48,61.6,41.48-.8-13.65-6.55-26.53-16.17-36.24l36.39,12.08c-8.1-21.74-37.2-36.24-37.2-36.24"/>
              <g id="Group_199" data-name="Group 199">
                <g class="cls-6">
                  <g id="Group_198" data-name="Group 198">
                    <path id="Path_922" data-name="Path 922" class="cls-1" d="m568.89,587.51v-11.36s31.7-1.79,47.84-13.16c0,0-22.13-14.95-50.24-17.94v-10.77c12.62,1,25.22-2.15,35.88-8.97,0,0-20.93-15.55-35.88-16.15v-8.97c9.2-.38,18.2-2.83,26.31-7.18,0,0-11.36-11.96-26.91-13.16v-7.18s14.95-1.2,22.13-7.18c0,0-13.16-11.36-22.13-13.16v-6.58s9.57-1.19,16.75-5.98c0,0-10.77-9.57-17.34-9.57,0,0,8.37-7.18,12.56-11.36,0,0-8.97-9.57-18.54-11.36,0,0,12.56-4.79,15.55-8.37,0,0-10.17-8.37-18.54-9.57,0,0,10.17-2.99,14.35-5.98,0,0-9.57-8.37-16.74-8.97,0,0,7.77-2.99,11.96-5.98,0,0-8.37-10.17-16.15-10.76,0,0,8.97-2.99,13.16-5.98,0,0-9.88-17.38-23.32-18.47v-.07c-.1,0-.2.03-.3.04-.1,0-.2-.03-.3-.04v.07c-13.45,1.09-23.32,18.47-23.32,18.47,4.19,2.99,13.16,5.98,13.16,5.98-7.77.6-16.15,10.76-16.15,10.76,4.19,2.99,11.96,5.98,11.96,5.98-7.18.6-16.74,8.97-16.74,8.97,4.19,2.99,14.35,5.98,14.35,5.98-8.37,1.19-18.54,9.57-18.54,9.57,2.99,3.59,15.55,8.37,15.55,8.37-9.57,1.79-18.54,11.36-18.54,11.36,4.19,4.19,12.56,11.36,12.56,11.36-6.58,0-17.34,9.57-17.34,9.57,7.18,4.79,16.74,5.98,16.74,5.98v6.58c-8.97,1.79-22.12,13.16-22.12,13.16,7.18,5.98,22.12,7.18,22.12,7.18v7.18c-15.55,1.2-26.91,13.16-26.91,13.16,8.12,4.35,17.11,6.8,26.32,7.18v8.97c-14.95.6-35.88,16.15-35.88,16.15,10.66,6.82,23.26,9.97,35.88,8.97v10.77c-28.11,2.99-50.24,17.94-50.24,17.94,16.15,11.37,47.84,13.16,47.84,13.16v11.36c-68.77-1.19-130.57,66.86-130.57,66.86l38.83,21.31,73.8,6.92h95.09v-52.03h53.23l23.92-14.35s-26.31-29.9-95.09-28.71"/>
                  </g>
                </g>
              </g>
            </g>
          </g>
        </g>
      </g>
    </g>
  </g>
</svg>