<?xml version="1.0" encoding="UTF-8"?>
<svg xmlns="http://www.w3.org/2000/svg" viewBox="0 0 505.83 510.65" >
  <defs>
    <style>
      .cls-1 {
        mix-blend-mode: multiply;
        opacity: .5;
      }

      .cls-1, .cls-2 {
        fill: none;
      }

      .cls-2 {
        isolation: isolate;
      }

      .cls-3 {
        fill: #E8A734;
      }
    </style>
  </defs>
  <g class="cls-2">
    <g id="Layer_2" data-name="Layer 2">
      <g id="Layer_1-2" data-name="Layer 1">
        <g class="cls-1">
          <g>
            <path class="cls-3" d="m490.6,15.75c0,13.34-12.22,15.05-15.13,15.05-3.21,0-15.33-2.41-15.33-14.95s-10.02-15.85-15.63-15.85c-5.99,0-15.33,4.99-15.33,15.75,0,13.34-12.22,15.05-15.13,15.05-3.21,0-15.33-2.41-15.33-14.95S388.89.07,383.26,0h0s-.02,0-.06,0c-.03,0-.06,0-.08,0-2.64,0-6.09.99-9.05,3.21-2.56,1.79-4.86,4.57-5.7,8.89-.31,1.33-.48,2.78-.48,4.36v1.57c-1.29,11.26-12.26,12.77-14.99,12.77-3.21,0-15.33-2.41-15.33-14.95s-10.02-15.85-15.63-15.85c-5.99,0-15.32,4.99-15.32,15.75,0,13.34-12.22,15.05-15.13,15.05-3.21,0-15.33-2.41-15.33-14.95s-10.02-15.85-15.63-15.85c0,0-.01,0-.02,0h0s-.04,0-.05,0c-2.18.01-4.9.69-7.44,2.17-3.85,2.04-7.74,5.97-7.74,13.58,0,13.34-12.22,15.05-15.13,15.05-3.21,0-15.33-2.41-15.33-14.95s-10.02-15.85-15.63-15.85c-5.99,0-15.33,4.99-15.33,15.75,0,13.34-12.22,15.05-15.13,15.05-3.21,0-15.33-2.41-15.33-14.95S143.58.07,137.94,0h0s-.02,0-.06,0c-.03,0-.06,0-.08,0-2.64,0-6.09.99-9.05,3.21-2.56,1.79-4.86,4.57-5.7,8.89-.3,1.33-.48,2.78-.48,4.36v1.57c-1.29,11.26-12.26,12.77-14.99,12.77-3.21,0-15.33-2.41-15.33-14.95S82.25,0,76.64,0c-6,0-15.33,4.99-15.33,15.75,0,13.34-12.22,15.05-15.13,15.05-3.21,0-15.33-2.41-15.33-14.95S20.84,0,15.23,0,0,4.52,0,16.45l.1,14.04s1.5-15.25,15.22-15.25,15.53,13.94,15.53,15.45,1,15.15,15.13,15.15,15.53-13.14,15.53-14.65c0-4.64,4.27-15.95,15.23-15.95,14.02,0,15.53,13.94,15.53,15.45s1,15.15,15.13,15.15,15.53-13.14,15.53-14.65c0-2.55.9-6.54,3.21-9.91.02-.03.04-.06.06-.09.25-.36.52-.7.8-1.04.1-.12.21-.24.31-.36.18-.2.37-.4.56-.59.34-.34.7-.67,1.09-.99.01-.01.03-.02.04-.03,2.17-1.73,5.06-2.94,8.91-2.94,14.03,0,15.53,13.94,15.53,15.45s1,15.15,15.13,15.15,15.53-13.14,15.53-14.65c0-4.64,4.27-15.95,15.23-15.95,14.02,0,15.53,13.94,15.53,15.45s1,15.15,15.13,15.15,15.53-13.14,15.53-14.65c0-.76.09-1.66.26-2.62.92-4.09,4.19-13.32,14.88-13.32,14.02,0,15.53,13.94,15.53,15.45s1,15.15,15.13,15.15,15.53-13.14,15.53-14.65c0-4.64,4.27-15.95,15.23-15.95,14.03,0,15.53,13.94,15.53,15.45s1,15.15,15.13,15.15,15.53-13.14,15.53-14.65c0-2.55.9-6.54,3.21-9.91.02-.03.04-.06.07-.09.25-.36.52-.7.8-1.04.1-.12.21-.24.31-.36.18-.2.37-.4.56-.59.34-.34.7-.67,1.09-.99.02-.01.03-.02.04-.03,2.17-1.73,5.06-2.94,8.92-2.94,14.02,0,15.53,13.94,15.53,15.45s1,15.15,15.13,15.15,15.53-13.14,15.53-14.65c0-4.64,4.27-15.95,15.22-15.95,14.02,0,15.53,13.94,15.53,15.45s1,15.15,15.13,15.15,15.53-13.14,15.53-14.65c0-5.12,3.61-16.05,15.03-16.05V0s-15.23.7-15.23,15.75"/>
            <path class="cls-3" d="m490.6,108.71c0,13.34-12.22,15.05-15.13,15.05-3.21,0-15.33-2.41-15.33-14.95s-10.02-15.85-15.63-15.85c-5.99,0-15.33,4.99-15.33,15.75,0,13.34-12.22,15.05-15.13,15.05-3.21,0-15.33-2.41-15.33-14.95s-9.85-15.78-15.49-15.84h0s-.02,0-.06,0c-.03,0-.06,0-.08,0-2.64,0-6.09.98-9.05,3.21-2.56,1.79-4.86,4.57-5.7,8.89-.31,1.33-.48,2.77-.48,4.36h0s.01,1.57.01,1.57c-1.31,11.26-12.27,12.77-15,12.77-3.21,0-15.33-2.41-15.33-14.95s-10.02-15.85-15.63-15.85c-5.99,0-15.32,4.99-15.32,15.75,0,13.34-12.22,15.05-15.13,15.05-3.21,0-15.33-2.41-15.33-14.95s-10.02-15.85-15.63-15.85c0,0-.01,0-.02,0h0s-.04,0-.05,0c-2.18.01-4.9.69-7.44,2.17-3.85,2.04-7.74,5.97-7.74,13.58,0,13.34-12.22,15.05-15.13,15.05-3.21,0-15.33-2.41-15.33-14.95s-10.02-15.85-15.63-15.85c-5.99,0-15.33,4.99-15.33,15.75,0,13.34-12.22,15.05-15.13,15.05-3.21,0-15.33-2.41-15.33-14.95s-9.86-15.78-15.49-15.84h0s-.02,0-.06,0c-.03,0-.06,0-.08,0-2.64,0-6.09.98-9.05,3.21-2.56,1.79-4.86,4.57-5.7,8.89-.3,1.33-.48,2.77-.48,4.36h0s.01,1.57.01,1.57c-1.31,11.26-12.27,12.77-15,12.77-3.21,0-15.33-2.41-15.33-14.95s-10.02-15.85-15.63-15.85c-6,0-15.33,4.99-15.33,15.75,0,13.34-12.22,15.05-15.13,15.05-3.21,0-15.33-2.41-15.33-14.95s-10.02-15.85-15.63-15.85S0,97.48,0,109.41h0s.1,14.04.1,14.04c0,0,1.5-15.24,15.22-15.24s15.53,13.94,15.53,15.45,1,15.15,15.13,15.15,15.53-13.14,15.53-14.65c0-4.64,4.27-15.95,15.23-15.95,14.02,0,15.53,13.94,15.53,15.45s1,15.15,15.13,15.15,15.53-13.14,15.53-14.65c0-2.55.9-6.55,3.21-9.91.02-.03.04-.06.06-.09.25-.36.52-.7.8-1.04.1-.12.21-.24.31-.36.17-.2.36-.39.55-.59.34-.34.7-.68,1.09-.99.01-.01.03-.02.04-.03,2.17-1.73,5.06-2.94,8.91-2.94,14.03,0,15.53,13.94,15.53,15.45s1,15.15,15.13,15.15,15.53-13.14,15.53-14.65c0-4.64,4.27-15.95,15.23-15.95,14.02,0,15.53,13.94,15.53,15.45s1,15.15,15.13,15.15,15.53-13.14,15.53-14.65c0-.76.09-1.66.26-2.62.92-4.09,4.19-13.32,14.88-13.32,14.02,0,15.53,13.94,15.53,15.45s1,15.15,15.13,15.15,15.53-13.14,15.53-14.65c0-4.64,4.27-15.95,15.23-15.95,14.03,0,15.53,13.94,15.53,15.45s1,15.15,15.13,15.15,15.53-13.14,15.53-14.65c0-2.55.9-6.55,3.21-9.91.02-.03.04-.06.07-.09.25-.36.52-.7.8-1.04.1-.12.21-.24.31-.36.18-.2.37-.39.56-.59.34-.34.7-.68,1.09-.99.01-.01.03-.02.04-.03,2.17-1.73,5.06-2.94,8.92-2.94,14.02,0,15.53,13.94,15.53,15.45s1,15.15,15.13,15.15,15.53-13.14,15.53-14.65c0-4.64,4.27-15.95,15.22-15.95,14.02,0,15.53,13.94,15.53,15.45s1,15.15,15.13,15.15,15.53-13.14,15.53-14.65c0-5.12,3.61-16.05,15.03-16.05v-15.15h0s-15.23.7-15.23,15.75"/>
            <path class="cls-3" d="m490.6,77.72c0,13.34-12.22,15.05-15.13,15.05-3.21,0-15.33-2.41-15.33-14.95s-10.02-15.85-15.63-15.85c-5.99,0-15.33,4.99-15.33,15.75,0,13.34-12.22,15.05-15.13,15.05-3.21,0-15.33-2.41-15.33-14.95s-9.85-15.78-15.49-15.84h0s-.02,0-.06,0c-.03,0-.06,0-.08,0-2.64,0-6.09.98-9.05,3.2-2.56,1.79-4.86,4.57-5.7,8.89-.31,1.33-.48,2.78-.48,4.36v1.57c-1.29,11.26-12.26,12.77-14.99,12.77-3.21,0-15.33-2.41-15.33-14.95s-10.02-15.85-15.63-15.85c-5.99,0-15.32,4.99-15.32,15.75,0,13.34-12.22,15.05-15.13,15.05-3.21,0-15.33-2.41-15.33-14.95s-10.02-15.85-15.63-15.85h-.02s-.04,0-.05,0c-2.18.01-4.9.69-7.44,2.17-3.85,2.04-7.74,5.97-7.74,13.58,0,13.34-12.22,15.05-15.13,15.05-3.21,0-15.33-2.41-15.33-14.95s-10.02-15.85-15.63-15.85c-5.99,0-15.33,4.99-15.33,15.75,0,13.34-12.22,15.05-15.13,15.05-3.21,0-15.33-2.41-15.33-14.95s-9.86-15.78-15.49-15.84h0s-.02,0-.06,0c-.03,0-.06,0-.08,0-2.64,0-6.09.98-9.05,3.2-2.56,1.79-4.86,4.57-5.7,8.89-.3,1.33-.48,2.78-.48,4.36v1.57c-1.29,11.26-12.26,12.77-14.99,12.77-3.21,0-15.33-2.41-15.33-14.95s-10.02-15.85-15.63-15.85c-6,0-15.33,4.99-15.33,15.75,0,13.34-12.22,15.05-15.13,15.05-3.21,0-15.33-2.41-15.33-14.95s-10.02-15.85-15.63-15.85S0,66.49,0,78.43l.1,14.04s1.5-15.25,15.22-15.25,15.53,13.94,15.53,15.45,1,15.15,15.13,15.15,15.53-13.14,15.53-14.65c0-4.64,4.27-15.95,15.23-15.95,14.02,0,15.53,13.94,15.53,15.45s1,15.15,15.13,15.15,15.53-13.14,15.53-14.65c0-2.55.9-6.54,3.21-9.91.02-.03.04-.06.06-.09.25-.36.52-.7.8-1.04.1-.12.21-.24.31-.36.17-.2.36-.4.55-.59.34-.34.7-.67,1.09-.99.01-.01.03-.02.04-.03,2.17-1.73,5.06-2.94,8.91-2.94,14.03,0,15.53,13.94,15.53,15.45s1,15.15,15.13,15.15,15.53-13.14,15.53-14.65c0-4.64,4.27-15.95,15.23-15.95,14.02,0,15.53,13.94,15.53,15.45s1,15.15,15.13,15.15,15.53-13.14,15.53-14.65c0-.76.09-1.66.26-2.62.92-4.09,4.19-13.32,14.88-13.32,14.02,0,15.53,13.94,15.53,15.45s1,15.15,15.13,15.15,15.53-13.14,15.53-14.65c0-4.64,4.27-15.95,15.23-15.95,14.03,0,15.53,13.94,15.53,15.45s1,15.15,15.13,15.15,15.53-13.14,15.53-14.65c0-2.55.9-6.54,3.21-9.91.02-.03.04-.06.07-.09.25-.36.52-.7.8-1.04.1-.12.21-.24.31-.36.18-.2.37-.4.56-.59.34-.34.7-.67,1.09-.99.02-.01.03-.02.04-.03,2.17-1.73,5.06-2.94,8.92-2.94,14.02,0,15.53,13.94,15.53,15.45s1,15.15,15.13,15.15,15.53-13.14,15.53-14.65c0-4.64,4.27-15.95,15.22-15.95,14.02,0,15.53,13.94,15.53,15.45s1,15.15,15.13,15.15,15.53-13.14,15.53-14.65c0-5.12,3.61-16.05,15.03-16.05v-15.15s-15.23.7-15.23,15.75"/>
            <path class="cls-3" d="m490.6,46.74c0,13.34-12.22,15.05-15.13,15.05-3.21,0-15.33-2.41-15.33-14.95s-10.02-15.85-15.63-15.85c-5.99,0-15.33,4.99-15.33,15.75,0,13.34-12.22,15.05-15.13,15.05-3.21,0-15.33-2.41-15.33-14.95s-9.85-15.78-15.49-15.84h0s-.02,0-.06,0c-.03,0-.06,0-.08,0-2.64,0-6.09.98-9.05,3.21-2.56,1.79-4.86,4.57-5.7,8.89-.31,1.33-.48,2.77-.48,4.36v1.57c-1.29,11.26-12.26,12.77-14.99,12.77-3.21,0-15.33-2.41-15.33-14.95s-10.02-15.85-15.63-15.85c-5.99,0-15.32,4.99-15.32,15.75,0,13.34-12.22,15.05-15.13,15.05-3.21,0-15.33-2.41-15.33-14.95s-10.02-15.85-15.63-15.85h-.02s-.04,0-.05,0c-2.18.01-4.9.69-7.44,2.17-3.85,2.04-7.74,5.97-7.74,13.58,0,13.34-12.22,15.05-15.13,15.05-3.21,0-15.33-2.41-15.33-14.95s-10.02-15.85-15.63-15.85c-5.99,0-15.33,4.99-15.33,15.75,0,13.34-12.22,15.05-15.13,15.05-3.21,0-15.33-2.41-15.33-14.95s-9.86-15.78-15.49-15.84h0s-.02,0-.06,0c-.03,0-.06,0-.08,0-2.65,0-6.1.98-9.05,3.21-2.56,1.79-4.86,4.57-5.7,8.89-.3,1.33-.48,2.77-.48,4.36v1.57c-1.29,11.26-12.26,12.77-14.99,12.77-3.21,0-15.33-2.41-15.33-14.95s-10.02-15.85-15.63-15.85c-6,0-15.33,4.99-15.33,15.75,0,13.34-12.22,15.05-15.13,15.05-3.21,0-15.33-2.41-15.33-14.95s-10.02-15.85-15.63-15.85S0,35.5,0,47.44l.1,14.04s1.5-15.24,15.22-15.24,15.53,13.94,15.53,15.45,1,15.15,15.13,15.15,15.53-13.14,15.53-14.65c0-4.64,4.27-15.95,15.23-15.95,14.02,0,15.53,13.94,15.53,15.45s1,15.15,15.13,15.15,15.53-13.14,15.53-14.65c0-2.55.9-6.55,3.21-9.91.02-.03.04-.06.06-.09.25-.36.52-.7.8-1.04.1-.12.21-.24.31-.36.18-.2.37-.4.56-.59.34-.34.7-.68,1.09-.99.01-.01.03-.02.04-.03,2.17-1.73,5.06-2.94,8.91-2.94,14.03,0,15.53,13.94,15.53,15.45s1,15.15,15.13,15.15,15.53-13.14,15.53-14.65c0-4.64,4.27-15.95,15.23-15.95,14.02,0,15.53,13.94,15.53,15.45s1,15.15,15.13,15.15,15.53-13.14,15.53-14.65c0-.76.09-1.66.26-2.62.92-4.09,4.19-13.32,14.88-13.32,14.02,0,15.53,13.94,15.53,15.45s1,15.15,15.13,15.15,15.53-13.14,15.53-14.65c0-4.64,4.27-15.95,15.23-15.95,14.03,0,15.53,13.94,15.53,15.45s1,15.15,15.13,15.15,15.53-13.14,15.53-14.65c0-2.55.9-6.55,3.21-9.91.02-.03.04-.06.07-.09.25-.36.52-.7.8-1.04.1-.12.21-.24.31-.36.18-.2.37-.4.56-.59.34-.34.71-.68,1.09-.99.01-.01.03-.02.04-.03,2.17-1.73,5.06-2.94,8.92-2.94,14.02,0,15.53,13.94,15.53,15.45s1,15.15,15.13,15.15,15.53-13.14,15.53-14.65c0-4.64,4.27-15.95,15.22-15.95,14.02,0,15.53,13.94,15.53,15.45s1,15.15,15.13,15.15,15.53-13.14,15.53-14.65c0-5.12,3.61-16.05,15.03-16.05v-15.14s-15.23.7-15.23,15.75"/>
            <path class="cls-3" d="m490.6,201.67c0,13.34-12.22,15.05-15.13,15.05-3.21,0-15.33-2.41-15.33-14.95s-10.02-15.85-15.63-15.85c-5.99,0-15.33,4.99-15.33,15.75,0,13.34-12.22,15.05-15.13,15.05-3.21,0-15.33-2.41-15.33-14.95s-9.85-15.78-15.49-15.84h0s-.02,0-.06,0c-.03,0-.06,0-.08,0-2.64,0-6.09.98-9.05,3.21-2.56,1.79-4.86,4.57-5.7,8.89-.31,1.33-.48,2.78-.48,4.36v1.57c-1.29,11.26-12.26,12.77-14.99,12.77-3.21,0-15.33-2.41-15.33-14.95s-10.02-15.85-15.63-15.85c-5.99,0-15.32,4.99-15.32,15.75,0,13.34-12.22,15.05-15.13,15.05-3.21,0-15.33-2.41-15.33-14.95s-10.02-15.85-15.63-15.85c0,0-.01,0-.02,0h0s-.04,0-.05,0c-2.18.01-4.9.69-7.44,2.17-3.85,2.04-7.74,5.97-7.74,13.58,0,13.34-12.22,15.05-15.13,15.05-3.21,0-15.33-2.41-15.33-14.95s-10.02-15.85-15.63-15.85c-5.99,0-15.33,4.99-15.33,15.75,0,13.34-12.22,15.05-15.13,15.05-3.21,0-15.33-2.41-15.33-14.95s-9.86-15.78-15.49-15.84h0s-.02,0-.06,0c-.03,0-.06,0-.08,0-2.65,0-6.1.98-9.05,3.21-2.56,1.79-4.86,4.57-5.7,8.89-.3,1.33-.48,2.78-.48,4.36v1.57c-1.29,11.26-12.26,12.77-14.99,12.77-3.21,0-15.33-2.41-15.33-14.95s-10.02-15.85-15.63-15.85c-6,0-15.33,4.99-15.33,15.75,0,13.34-12.22,15.05-15.13,15.05-3.21,0-15.33-2.41-15.33-14.95s-10.02-15.85-15.63-15.85-15.23,4.51-15.23,16.45l.1,14.04s1.5-15.25,15.22-15.25,15.53,13.94,15.53,15.45,1,15.15,15.13,15.15,15.53-13.14,15.53-14.65c0-4.64,4.27-15.95,15.23-15.95,14.02,0,15.53,13.94,15.53,15.45s1,15.15,15.13,15.15,15.53-13.14,15.53-14.65c0-2.55.9-6.55,3.21-9.91.02-.03.04-.06.06-.09.25-.36.52-.7.8-1.04.1-.12.21-.24.31-.36.17-.2.36-.4.55-.59.34-.34.7-.68,1.09-.99.01-.01.03-.02.04-.03,2.17-1.73,5.06-2.94,8.91-2.94,14.03,0,15.53,13.94,15.53,15.45s1,15.15,15.13,15.15,15.53-13.14,15.53-14.65c0-4.64,4.27-15.95,15.23-15.95,14.02,0,15.53,13.94,15.53,15.45s1,15.15,15.13,15.15,15.53-13.14,15.53-14.65c0-.76.09-1.66.26-2.63.92-4.09,4.19-13.32,14.88-13.32,14.02,0,15.53,13.94,15.53,15.45s1,15.15,15.13,15.15,15.53-13.14,15.53-14.65c0-4.64,4.27-15.95,15.23-15.95,14.03,0,15.53,13.94,15.53,15.45s1,15.15,15.13,15.15,15.53-13.14,15.53-14.65c0-2.55.9-6.55,3.21-9.91.02-.03.04-.06.07-.09.25-.36.52-.7.8-1.04.1-.12.21-.24.31-.36.18-.2.37-.4.56-.59.34-.34.7-.68,1.09-.99.02-.01.03-.02.04-.03,2.17-1.73,5.06-2.94,8.92-2.94,14.02,0,15.53,13.94,15.53,15.45s1,15.15,15.13,15.15,15.53-13.14,15.53-14.65c0-4.64,4.27-15.95,15.22-15.95,14.02,0,15.53,13.94,15.53,15.45s1,15.15,15.13,15.15,15.53-13.14,15.53-14.65c0-5.12,3.61-16.05,15.03-16.05v-15.15s-15.23.7-15.23,15.75"/>
            <path class="cls-3" d="m490.6,170.69c0,13.34-12.22,15.05-15.13,15.05-3.21,0-15.33-2.41-15.33-14.95s-10.02-15.85-15.63-15.85c-5.99,0-15.33,4.99-15.33,15.75,0,13.34-12.22,15.05-15.13,15.05-3.21,0-15.33-2.41-15.33-14.95s-9.85-15.78-15.49-15.84h0s-.02,0-.06,0c-.03,0-.06,0-.08,0-2.64,0-6.09.98-9.05,3.21-2.56,1.79-4.86,4.57-5.7,8.89-.31,1.33-.48,2.78-.48,4.36v1.57c-1.29,11.26-12.26,12.77-14.99,12.77-3.21,0-15.33-2.41-15.33-14.95s-10.02-15.85-15.63-15.85c-5.99,0-15.32,4.99-15.32,15.75,0,13.34-12.22,15.05-15.13,15.05-3.21,0-15.33-2.41-15.33-14.95s-10.02-15.85-15.63-15.85c0,0-.01,0-.02,0h0s-.04,0-.05,0c-2.18.01-4.9.69-7.44,2.17-3.85,2.04-7.74,5.97-7.74,13.58,0,13.34-12.22,15.05-15.13,15.05-3.21,0-15.33-2.41-15.33-14.95s-10.02-15.85-15.63-15.85c-5.99,0-15.33,4.99-15.33,15.75,0,13.34-12.22,15.05-15.13,15.05-3.21,0-15.33-2.41-15.33-14.95s-9.86-15.78-15.49-15.84h0s-.02,0-.06,0c-.03,0-.06,0-.08,0-2.64,0-6.09.98-9.05,3.21-2.56,1.79-4.86,4.57-5.7,8.89-.3,1.33-.48,2.78-.48,4.36v1.57c-1.29,11.26-12.26,12.77-14.99,12.77-3.21,0-15.33-2.41-15.33-14.95s-10.02-15.85-15.63-15.85c-6,0-15.33,4.99-15.33,15.75,0,13.34-12.22,15.05-15.13,15.05-3.21,0-15.33-2.41-15.33-14.95s-10.02-15.85-15.63-15.85-15.23,4.51-15.23,16.45l.1,14.04s1.5-15.24,15.22-15.24,15.53,13.94,15.53,15.45,1,15.15,15.13,15.15,15.53-13.14,15.53-14.64c0-4.64,4.27-15.95,15.23-15.95,14.02,0,15.53,13.94,15.53,15.45s1,15.15,15.13,15.15,15.53-13.14,15.53-14.64c0-2.55.9-6.55,3.21-9.91.02-.03.04-.06.06-.09.25-.36.52-.7.8-1.04.1-.12.21-.24.31-.36.18-.2.37-.4.56-.59.34-.34.7-.67,1.09-.99.01-.01.03-.02.04-.03,2.17-1.73,5.06-2.94,8.91-2.94,14.03,0,15.53,13.94,15.53,15.45s1,15.15,15.13,15.15,15.53-13.14,15.53-14.64c0-4.64,4.27-15.95,15.23-15.95,14.02,0,15.53,13.94,15.53,15.45s1,15.15,15.13,15.15,15.53-13.14,15.53-14.64c0-.76.09-1.66.26-2.63.92-4.09,4.19-13.32,14.88-13.32,14.02,0,15.53,13.94,15.53,15.45s1,15.15,15.13,15.15,15.53-13.14,15.53-14.64c0-4.64,4.27-15.95,15.23-15.95,14.03,0,15.53,13.94,15.53,15.45s1,15.15,15.13,15.15,15.53-13.14,15.53-14.64c0-2.55.9-6.55,3.21-9.91.02-.03.04-.06.07-.09.25-.36.52-.7.8-1.04.1-.12.21-.24.31-.36.18-.2.37-.4.56-.59.34-.34.7-.67,1.09-.99.02-.01.03-.02.04-.03,2.17-1.73,5.06-2.94,8.92-2.94,14.02,0,15.53,13.94,15.53,15.45s1,15.15,15.13,15.15,15.53-13.14,15.53-14.64c0-4.64,4.27-15.95,15.22-15.95,14.02,0,15.53,13.94,15.53,15.45s1,15.15,15.13,15.15,15.53-13.14,15.53-14.64c0-5.12,3.61-16.05,15.03-16.05v-15.15s-15.23.7-15.23,15.75"/>
            <path class="cls-3" d="m490.6,139.7c0,13.34-12.22,15.05-15.13,15.05-3.21,0-15.33-2.41-15.33-14.95s-10.02-15.85-15.63-15.85c-5.99,0-15.33,4.99-15.33,15.75,0,13.34-12.22,15.05-15.13,15.05-3.21,0-15.33-2.41-15.33-14.95s-9.85-15.78-15.49-15.84h0s-.02,0-.06,0c-.03,0-.06,0-.08,0-2.64,0-6.09.98-9.05,3.21-2.56,1.79-4.86,4.57-5.7,8.88-.31,1.33-.48,2.78-.48,4.36v1.57c-1.29,11.26-12.26,12.77-14.99,12.77-3.21,0-15.33-2.41-15.33-14.95s-10.02-15.85-15.63-15.85c-5.99,0-15.32,4.99-15.32,15.75,0,13.34-12.22,15.05-15.13,15.05-3.21,0-15.33-2.41-15.33-14.95s-10.02-15.85-15.63-15.85c0,0-.01,0-.02,0h0s-.04,0-.05,0c-2.18.01-4.9.69-7.44,2.17-3.85,2.04-7.74,5.97-7.74,13.58,0,13.34-12.22,15.05-15.13,15.05-3.21,0-15.33-2.41-15.33-14.95s-10.02-15.85-15.63-15.85c-5.99,0-15.33,4.99-15.33,15.75,0,13.34-12.22,15.05-15.13,15.05-3.21,0-15.33-2.41-15.33-14.95s-9.86-15.78-15.49-15.84h0s-.02,0-.06,0c-.03,0-.06,0-.08,0-2.65,0-6.1.98-9.05,3.21-2.56,1.79-4.86,4.57-5.7,8.88-.3,1.33-.48,2.78-.48,4.36v1.57c-1.29,11.26-12.26,12.77-14.99,12.77-3.21,0-15.33-2.41-15.33-14.95s-10.02-15.85-15.63-15.85c-6,0-15.33,4.99-15.33,15.75,0,13.34-12.22,15.05-15.13,15.05-3.21,0-15.33-2.41-15.33-14.95s-10.02-15.85-15.63-15.85-15.23,4.52-15.23,16.45l.1,14.04s1.5-15.25,15.22-15.25,15.53,13.94,15.53,15.45,1,15.15,15.13,15.15,15.53-13.14,15.53-14.65c0-4.64,4.27-15.95,15.23-15.95,14.02,0,15.53,13.94,15.53,15.45s1,15.15,15.13,15.15,15.53-13.14,15.53-14.65c0-2.55.9-6.54,3.21-9.91.02-.03.04-.06.06-.09.25-.36.52-.7.8-1.04.1-.12.21-.24.31-.36.17-.2.36-.4.55-.59.34-.34.7-.67,1.09-.99.01-.01.03-.02.04-.03,2.17-1.73,5.06-2.94,8.91-2.94,14.03,0,15.53,13.94,15.53,15.45s1,15.15,15.13,15.15,15.53-13.14,15.53-14.65c0-4.64,4.27-15.95,15.23-15.95,14.02,0,15.53,13.94,15.53,15.45s1,15.15,15.13,15.15,15.53-13.14,15.53-14.65c0-.76.09-1.66.26-2.62.92-4.09,4.19-13.32,14.88-13.32,14.02,0,15.53,13.94,15.53,15.45s1,15.15,15.13,15.15,15.53-13.14,15.53-14.65c0-4.64,4.27-15.95,15.23-15.95,14.03,0,15.53,13.94,15.53,15.45s1,15.15,15.13,15.15,15.53-13.14,15.53-14.65c0-2.55.9-6.54,3.21-9.91.02-.03.04-.06.07-.09.25-.36.52-.7.8-1.04.1-.12.21-.24.31-.36.18-.2.37-.4.56-.59.34-.34.7-.67,1.09-.99.02-.01.03-.02.04-.03,2.17-1.73,5.06-2.94,8.92-2.94,14.02,0,15.53,13.94,15.53,15.45s1,15.15,15.13,15.15,15.53-13.14,15.53-14.65c0-4.64,4.27-15.95,15.22-15.95,14.02,0,15.53,13.94,15.53,15.45s1,15.15,15.13,15.15,15.53-13.14,15.53-14.65c0-5.11,3.61-16.05,15.03-16.05v-15.15s-15.23.7-15.23,15.75"/>
            <path class="cls-3" d="m490.6,325.62c0,13.34-12.22,15.05-15.13,15.05-3.21,0-15.33-2.41-15.33-14.95s-10.02-15.85-15.63-15.85c-5.99,0-15.33,4.99-15.33,15.75,0,13.34-12.22,15.05-15.13,15.05-3.21,0-15.33-2.41-15.33-14.95s-9.85-15.78-15.49-15.84h0s-.02,0-.06,0c-.03,0-.06,0-.08,0-2.64,0-6.09.98-9.05,3.2-2.56,1.79-4.86,4.57-5.7,8.89-.31,1.33-.48,2.78-.48,4.36v1.57c-1.29,11.26-12.26,12.77-14.99,12.77-3.21,0-15.33-2.41-15.33-14.95s-10.02-15.85-15.63-15.85c-5.99,0-15.32,4.99-15.32,15.75,0,13.34-12.22,15.05-15.13,15.05-3.21,0-15.33-2.41-15.33-14.95s-10.02-15.85-15.63-15.85h-.02s-.04,0-.05,0c-2.18.01-4.9.69-7.44,2.17-3.85,2.04-7.74,5.97-7.74,13.58,0,13.34-12.22,15.05-15.13,15.05-3.21,0-15.33-2.41-15.33-14.95s-10.02-15.85-15.63-15.85c-5.99,0-15.33,4.99-15.33,15.75,0,13.34-12.22,15.05-15.13,15.05-3.21,0-15.33-2.41-15.33-14.95s-9.86-15.78-15.49-15.84h0s-.02,0-.06,0c-.03,0-.06,0-.08,0-2.64,0-6.09.98-9.05,3.2-2.56,1.79-4.86,4.57-5.7,8.89-.3,1.33-.48,2.78-.48,4.36v1.57c-1.29,11.26-12.26,12.77-14.99,12.77-3.21,0-15.33-2.41-15.33-14.95s-10.02-15.85-15.63-15.85c-6,0-15.33,4.99-15.33,15.75,0,13.34-12.22,15.05-15.13,15.05-3.21,0-15.33-2.41-15.33-14.95s-10.02-15.85-15.63-15.85-15.23,4.51-15.23,16.45l.1,14.04s1.5-15.25,15.22-15.25,15.53,13.94,15.53,15.45,1,15.15,15.13,15.15,15.53-13.14,15.53-14.64c0-4.64,4.27-15.95,15.23-15.95,14.02,0,15.53,13.94,15.53,15.45s1,15.15,15.13,15.15,15.53-13.14,15.53-14.64c0-2.55.9-6.55,3.21-9.91.02-.03.04-.06.06-.09.25-.36.52-.7.8-1.04.1-.12.21-.24.31-.36.17-.2.36-.39.55-.59.34-.34.7-.68,1.09-.99.01-.01.03-.02.04-.03,2.17-1.73,5.06-2.94,8.91-2.94,14.03,0,15.53,13.94,15.53,15.45s1,15.15,15.13,15.15,15.53-13.14,15.53-14.64c0-4.64,4.27-15.95,15.23-15.95,14.02,0,15.53,13.94,15.53,15.45s1,15.15,15.13,15.15,15.53-13.14,15.53-14.64c0-.76.09-1.66.26-2.63.92-4.09,4.19-13.32,14.88-13.32,14.02,0,15.53,13.94,15.53,15.45s1,15.15,15.13,15.15,15.53-13.14,15.53-14.64c0-4.64,4.27-15.95,15.23-15.95,14.03,0,15.53,13.94,15.53,15.45s1,15.15,15.13,15.15,15.53-13.14,15.53-14.64c0-2.55.9-6.55,3.21-9.91.02-.03.04-.06.07-.09.25-.36.52-.7.8-1.04.1-.12.21-.24.31-.36.18-.2.37-.39.56-.59.34-.34.7-.68,1.09-.99.01-.01.03-.02.04-.03,2.17-1.73,5.06-2.94,8.92-2.94,14.02,0,15.53,13.94,15.53,15.45s1,15.15,15.13,15.15,15.53-13.14,15.53-14.64c0-4.64,4.27-15.95,15.22-15.95,14.02,0,15.53,13.94,15.53,15.45s1,15.15,15.13,15.15,15.53-13.14,15.53-14.64c0-5.12,3.61-16.05,15.03-16.05v-15.14h0s-15.23.7-15.23,15.75"/>
            <path class="cls-3" d="m490.6,294.63c0,13.34-12.22,15.05-15.13,15.05-3.21,0-15.33-2.41-15.33-14.95s-10.02-15.85-15.63-15.85c-5.99,0-15.33,4.99-15.33,15.75,0,13.34-12.22,15.05-15.13,15.05-3.21,0-15.33-2.41-15.33-14.95s-9.85-15.78-15.49-15.84h0s-.02,0-.06,0c-.03,0-.06,0-.08,0-2.64,0-6.09.98-9.05,3.21-2.56,1.79-4.86,4.57-5.7,8.89-.31,1.33-.48,2.78-.48,4.36v1.57c-1.29,11.26-12.26,12.77-14.99,12.77-3.21,0-15.33-2.41-15.33-14.95s-10.02-15.85-15.63-15.85c-5.99,0-15.32,4.99-15.32,15.75,0,13.34-12.22,15.05-15.13,15.05-3.21,0-15.33-2.41-15.33-14.95s-10.02-15.85-15.63-15.85c0,0-.01,0-.02,0h0s-.04,0-.05,0c-2.18.01-4.9.69-7.44,2.17-3.85,2.04-7.74,5.97-7.74,13.58,0,13.34-12.22,15.05-15.13,15.05-3.21,0-15.33-2.41-15.33-14.95s-10.02-15.85-15.63-15.85c-5.99,0-15.33,4.99-15.33,15.75,0,13.34-12.22,15.05-15.13,15.05-3.21,0-15.33-2.41-15.33-14.95s-9.86-15.78-15.49-15.84h0s-.02,0-.06,0c-.03,0-.06,0-.08,0-2.64,0-6.09.98-9.05,3.21-2.56,1.79-4.86,4.57-5.7,8.89-.3,1.33-.48,2.78-.48,4.36v1.57c-1.29,11.26-12.26,12.77-14.99,12.77-3.21,0-15.33-2.41-15.33-14.95s-10.02-15.85-15.63-15.85c-6,0-15.33,4.99-15.33,15.75,0,13.34-12.22,15.05-15.13,15.05-3.21,0-15.33-2.41-15.33-14.95s-10.02-15.85-15.63-15.85-15.23,4.52-15.23,16.45l.1,14.04s1.5-15.25,15.22-15.25,15.53,13.94,15.53,15.45,1,15.15,15.13,15.15,15.53-13.14,15.53-14.65c0-4.64,4.27-15.95,15.23-15.95,14.02,0,15.53,13.94,15.53,15.45s1,15.15,15.13,15.15,15.53-13.14,15.53-14.65c0-2.55.9-6.55,3.21-9.91.02-.03.04-.06.06-.09.25-.36.52-.7.8-1.04.1-.12.21-.24.31-.36.17-.2.36-.4.55-.59.34-.34.7-.68,1.09-.99.01,0,.03-.02.04-.03,2.17-1.73,5.06-2.94,8.91-2.94,14.03,0,15.53,13.94,15.53,15.45s1,15.15,15.13,15.15,15.53-13.14,15.53-14.65c0-4.64,4.27-15.95,15.23-15.95,14.02,0,15.53,13.94,15.53,15.45s1,15.15,15.13,15.15,15.53-13.14,15.53-14.65c0-.76.09-1.66.26-2.62.92-4.09,4.19-13.33,14.88-13.33,14.02,0,15.53,13.94,15.53,15.45s1,15.15,15.13,15.15,15.53-13.14,15.53-14.65c0-4.64,4.27-15.95,15.23-15.95,14.03,0,15.53,13.94,15.53,15.45s1,15.15,15.13,15.15,15.53-13.14,15.53-14.65c0-2.55.9-6.55,3.21-9.91.02-.03.04-.06.07-.09.25-.36.52-.7.8-1.04.1-.12.21-.24.31-.36.18-.2.37-.4.56-.59.34-.34.7-.68,1.09-.99.02,0,.03-.02.04-.03,2.17-1.73,5.06-2.94,8.92-2.94,14.02,0,15.53,13.94,15.53,15.45s1,15.15,15.13,15.15,15.53-13.14,15.53-14.65c0-4.64,4.27-15.95,15.22-15.95,14.02,0,15.53,13.94,15.53,15.45s1,15.15,15.13,15.15,15.53-13.14,15.53-14.65c0-5.11,3.61-16.05,15.03-16.05v-15.15s-15.23.7-15.23,15.75"/>
            <path class="cls-3" d="m490.6,263.65c0,13.34-12.22,15.05-15.13,15.05-3.21,0-15.33-2.41-15.33-14.95s-10.02-15.85-15.63-15.85c-5.99,0-15.33,4.99-15.33,15.75,0,13.34-12.22,15.05-15.13,15.05-3.21,0-15.33-2.41-15.33-14.95s-9.85-15.78-15.49-15.84h0s-.02,0-.06,0c-.03,0-.06,0-.08,0-2.64,0-6.09.98-9.05,3.21-2.56,1.79-4.86,4.57-5.7,8.89-.31,1.33-.48,2.78-.48,4.36v1.57c-1.29,11.26-12.26,12.77-14.99,12.77-3.21,0-15.33-2.41-15.33-14.95s-10.02-15.85-15.63-15.85c-5.99,0-15.32,4.99-15.32,15.75,0,13.34-12.22,15.05-15.13,15.05-3.21,0-15.33-2.41-15.33-14.95s-10.02-15.85-15.63-15.85c0,0-.01,0-.02,0h0s-.04,0-.05,0c-2.18.01-4.9.69-7.44,2.17-3.85,2.04-7.74,5.97-7.74,13.58,0,13.34-12.22,15.05-15.13,15.05-3.21,0-15.33-2.41-15.33-14.95s-10.02-15.85-15.63-15.85c-5.99,0-15.33,4.99-15.33,15.75,0,13.34-12.22,15.05-15.13,15.05-3.21,0-15.33-2.41-15.33-14.95s-9.86-15.78-15.49-15.84h0s-.02,0-.06,0c-.03,0-.06,0-.08,0-2.65,0-6.1.98-9.05,3.21-2.56,1.79-4.86,4.57-5.7,8.89-.3,1.33-.48,2.78-.48,4.36v1.57c-1.29,11.26-12.26,12.77-14.99,12.77-3.21,0-15.33-2.41-15.33-14.95s-10.02-15.85-15.63-15.85c-6,0-15.33,4.99-15.33,15.75,0,13.34-12.22,15.05-15.13,15.05-3.21,0-15.33-2.41-15.33-14.95s-10.02-15.85-15.63-15.85-15.23,4.51-15.23,16.45l.1,14.04s1.5-15.25,15.22-15.25,15.53,13.94,15.53,15.45,1,15.15,15.13,15.15,15.53-13.14,15.53-14.65c0-4.64,4.27-15.95,15.23-15.95,14.02,0,15.53,13.94,15.53,15.45s1,15.15,15.13,15.15,15.53-13.14,15.53-14.65c0-2.55.9-6.55,3.21-9.91.02-.03.04-.06.06-.09.25-.36.52-.7.8-1.04.1-.12.21-.24.31-.36.18-.2.37-.4.56-.59.34-.34.7-.68,1.09-.99.01,0,.03-.02.04-.03,2.17-1.73,5.06-2.94,8.91-2.94,14.03,0,15.53,13.94,15.53,15.45s1,15.15,15.13,15.15,15.53-13.14,15.53-14.65c0-4.64,4.27-15.95,15.23-15.95,14.02,0,15.53,13.94,15.53,15.45s1,15.15,15.13,15.15,15.53-13.14,15.53-14.65c0-.76.09-1.66.26-2.62.92-4.09,4.19-13.33,14.88-13.33,14.02,0,15.53,13.94,15.53,15.45s1,15.15,15.13,15.15,15.53-13.14,15.53-14.65c0-4.64,4.27-15.95,15.23-15.95,14.03,0,15.53,13.94,15.53,15.45s1,15.15,15.13,15.15,15.53-13.14,15.53-14.65c0-2.55.9-6.55,3.21-9.91.02-.03.04-.06.07-.09.25-.36.52-.7.8-1.04.1-.12.21-.24.31-.36.18-.2.37-.4.56-.59.34-.34.71-.68,1.09-.99.01,0,.03-.02.04-.03,2.17-1.73,5.06-2.94,8.92-2.94,14.02,0,15.53,13.94,15.53,15.45s1,15.15,15.13,15.15,15.53-13.14,15.53-14.65c0-4.64,4.27-15.95,15.22-15.95,14.02,0,15.53,13.94,15.53,15.45s1,15.15,15.13,15.15,15.53-13.14,15.53-14.65c0-5.11,3.61-16.05,15.03-16.05v-15.15s-15.23.7-15.23,15.75"/>
            <path class="cls-3" d="m490.6,232.66c0,13.34-12.22,15.05-15.13,15.05-3.21,0-15.33-2.41-15.33-14.95s-10.02-15.85-15.63-15.85c-5.99,0-15.33,4.99-15.33,15.75,0,13.34-12.22,15.05-15.13,15.05-3.21,0-15.33-2.41-15.33-14.95s-9.85-15.78-15.49-15.84h0s-.02,0-.06,0c-.03,0-.06,0-.08,0-2.64,0-6.09.98-9.05,3.21-2.56,1.79-4.86,4.57-5.7,8.89-.31,1.33-.48,2.77-.48,4.36v1.57c-1.29,11.26-12.26,12.77-14.99,12.77-3.21,0-15.33-2.41-15.33-14.95s-10.02-15.85-15.63-15.85c-5.99,0-15.32,4.99-15.32,15.75,0,13.34-12.22,15.05-15.13,15.05-3.21,0-15.33-2.41-15.33-14.95s-10.02-15.85-15.63-15.85c0,0-.01,0-.02,0h0s-.04,0-.05,0c-2.18.01-4.9.69-7.44,2.17-3.85,2.04-7.74,5.97-7.74,13.58,0,13.34-12.22,15.05-15.13,15.05-3.21,0-15.33-2.41-15.33-14.95s-10.02-15.85-15.63-15.85c-5.99,0-15.33,4.99-15.33,15.75,0,13.34-12.22,15.05-15.13,15.05-3.21,0-15.33-2.41-15.33-14.95s-9.86-15.78-15.49-15.84h0s-.02,0-.06,0c-.03,0-.06,0-.08,0-2.64,0-6.09.98-9.05,3.21-2.56,1.79-4.86,4.57-5.7,8.89-.3,1.33-.48,2.77-.48,4.36v1.57c-1.29,11.26-12.26,12.77-14.99,12.77-3.21,0-15.33-2.41-15.33-14.95s-10.02-15.85-15.63-15.85c-6,0-15.33,4.99-15.33,15.75,0,13.34-12.22,15.05-15.13,15.05-3.21,0-15.33-2.41-15.33-14.95s-10.02-15.85-15.63-15.85-15.23,4.51-15.23,16.45l.1,14.04s1.5-15.25,15.22-15.25,15.53,13.94,15.53,15.45,1,15.15,15.13,15.15,15.53-13.14,15.53-14.64c0-4.64,4.27-15.95,15.23-15.95,14.02,0,15.53,13.94,15.53,15.45s1,15.15,15.13,15.15,15.53-13.14,15.53-14.64c0-2.55.9-6.55,3.21-9.91.02-.03.04-.06.06-.09.25-.36.52-.7.8-1.04.1-.12.21-.24.31-.36.17-.2.36-.4.55-.59.34-.34.7-.67,1.09-.99.01-.01.03-.02.04-.03,2.17-1.73,5.06-2.94,8.91-2.94,14.03,0,15.53,13.94,15.53,15.45s1,15.15,15.13,15.15,15.53-13.14,15.53-14.64c0-4.64,4.27-15.95,15.23-15.95,14.02,0,15.53,13.94,15.53,15.45s1,15.15,15.13,15.15,15.53-13.14,15.53-14.64c0-.76.09-1.66.26-2.62.92-4.09,4.19-13.33,14.88-13.33,14.02,0,15.53,13.94,15.53,15.45s1,15.15,15.13,15.15,15.53-13.14,15.53-14.64c0-4.64,4.27-15.95,15.23-15.95,14.03,0,15.53,13.94,15.53,15.45s1,15.15,15.13,15.15,15.53-13.14,15.53-14.64c0-2.55.9-6.55,3.21-9.91.02-.03.04-.06.07-.09.25-.36.52-.7.8-1.04.1-.12.21-.24.31-.36.18-.2.37-.4.56-.59.34-.34.7-.67,1.09-.99.02-.01.03-.02.04-.03,2.17-1.73,5.06-2.94,8.92-2.94,14.02,0,15.53,13.94,15.53,15.45s1,15.15,15.13,15.15,15.53-13.14,15.53-14.64c0-4.64,4.27-15.95,15.22-15.95,14.02,0,15.53,13.94,15.53,15.45s1,15.15,15.13,15.15,15.53-13.14,15.53-14.64c0-5.12,3.61-16.05,15.03-16.05v-15.15s-15.23.7-15.23,15.75"/>
            <path class="cls-3" d="m490.6,418.58c0,13.34-12.22,15.05-15.13,15.05-3.21,0-15.33-2.41-15.33-14.95s-10.02-15.85-15.63-15.85c-5.99,0-15.33,4.99-15.33,15.75,0,13.34-12.22,15.05-15.13,15.05-3.21,0-15.33-2.41-15.33-14.95s-9.85-15.78-15.49-15.84h0s-.02,0-.06,0c-.03,0-.06,0-.08,0-2.64,0-6.09.98-9.05,3.21-2.56,1.79-4.86,4.57-5.7,8.88-.31,1.33-.48,2.78-.48,4.36v1.57c-1.29,11.26-12.26,12.77-14.99,12.77-3.21,0-15.33-2.41-15.33-14.95s-10.02-15.85-15.63-15.85c-5.99,0-15.32,4.99-15.32,15.75,0,13.34-12.22,15.05-15.13,15.05-3.21,0-15.33-2.41-15.33-14.95s-10.02-15.85-15.63-15.85c0,0-.01,0-.02,0h0s-.04,0-.05,0c-2.18.01-4.9.69-7.44,2.17-3.85,2.04-7.74,5.97-7.74,13.58,0,13.34-12.22,15.05-15.13,15.05-3.21,0-15.33-2.41-15.33-14.95s-10.02-15.85-15.63-15.85c-5.99,0-15.33,4.99-15.33,15.75,0,13.34-12.22,15.05-15.13,15.05-3.21,0-15.33-2.41-15.33-14.95s-9.86-15.78-15.49-15.84h0s-.02,0-.06,0c-.03,0-.06,0-.08,0-2.65,0-6.1.98-9.05,3.21-2.56,1.79-4.86,4.57-5.7,8.88-.3,1.33-.48,2.78-.48,4.36v1.57c-1.29,11.26-12.26,12.77-14.99,12.77-3.21,0-15.33-2.41-15.33-14.95s-10.02-15.85-15.63-15.85c-6,0-15.33,4.99-15.33,15.75,0,13.34-12.22,15.05-15.13,15.05-3.21,0-15.33-2.41-15.33-14.95s-10.02-15.85-15.63-15.85-15.23,4.51-15.23,16.45l.1,14.04s1.5-15.24,15.22-15.24,15.53,13.94,15.53,15.45,1,15.15,15.13,15.15,15.53-13.14,15.53-14.64c0-4.64,4.27-15.95,15.23-15.95,14.02,0,15.53,13.94,15.53,15.45s1,15.15,15.13,15.15,15.53-13.14,15.53-14.64c0-2.55.9-6.55,3.21-9.91.02-.03.04-.06.06-.09.25-.36.52-.7.8-1.04.1-.12.21-.24.31-.36.17-.2.36-.39.55-.59.34-.34.7-.67,1.09-.99.01-.01.03-.02.04-.03,2.17-1.73,5.06-2.94,8.91-2.94,14.03,0,15.53,13.94,15.53,15.45s1,15.15,15.13,15.15,15.53-13.14,15.53-14.64c0-4.64,4.27-15.95,15.23-15.95,14.02,0,15.53,13.94,15.53,15.45s1,15.15,15.13,15.15,15.53-13.14,15.53-14.64c0-.76.09-1.66.26-2.62.92-4.09,4.19-13.32,14.88-13.32,14.02,0,15.53,13.94,15.53,15.45s1,15.15,15.13,15.15,15.53-13.14,15.53-14.64c0-4.64,4.27-15.95,15.23-15.95,14.03,0,15.53,13.94,15.53,15.45s1,15.15,15.13,15.15,15.53-13.14,15.53-14.64c0-2.55.9-6.55,3.21-9.91.02-.03.04-.06.07-.09.25-.36.52-.7.8-1.04.1-.12.21-.24.31-.36.18-.2.37-.39.56-.59.34-.34.7-.67,1.09-.99.02-.01.03-.02.04-.03,2.17-1.73,5.06-2.94,8.92-2.94,14.02,0,15.53,13.94,15.53,15.45s1,15.15,15.13,15.15,15.53-13.14,15.53-14.64c0-4.64,4.27-15.95,15.22-15.95,14.02,0,15.53,13.94,15.53,15.45s1,15.15,15.13,15.15,15.53-13.14,15.53-14.64c0-5.12,3.61-16.05,15.03-16.05v-15.15s-15.23.7-15.23,15.75"/>
            <path class="cls-3" d="m490.6,387.6c0,13.34-12.22,15.05-15.13,15.05-3.21,0-15.33-2.41-15.33-14.95s-10.02-15.85-15.63-15.85c-5.99,0-15.33,4.99-15.33,15.75,0,13.34-12.22,15.05-15.13,15.05-3.21,0-15.33-2.41-15.33-14.95s-9.85-15.78-15.49-15.84h0s-.02,0-.06,0c-.03,0-.06,0-.08,0-2.64,0-6.09.99-9.05,3.21-2.56,1.79-4.86,4.57-5.7,8.89-.31,1.33-.48,2.77-.48,4.36v1.57c-1.29,11.26-12.26,12.77-14.99,12.77-3.21,0-15.33-2.41-15.33-14.95s-10.02-15.85-15.63-15.85c-5.99,0-15.32,4.99-15.32,15.75,0,13.34-12.22,15.05-15.13,15.05-3.21,0-15.33-2.41-15.33-14.95s-10.02-15.85-15.63-15.85c0,0-.01,0-.02,0h0s-.04,0-.05,0c-2.18.01-4.9.69-7.44,2.17-3.85,2.04-7.74,5.97-7.74,13.58,0,13.34-12.22,15.05-15.13,15.05-3.21,0-15.33-2.41-15.33-14.95s-10.02-15.85-15.63-15.85c-5.99,0-15.33,4.99-15.33,15.75,0,13.34-12.22,15.05-15.13,15.05-3.21,0-15.33-2.41-15.33-14.95s-9.86-15.78-15.49-15.84h0s-.02,0-.06,0c-.03,0-.06,0-.08,0-2.64,0-6.09.99-9.05,3.21-2.56,1.79-4.86,4.57-5.7,8.89-.3,1.33-.48,2.77-.48,4.36v1.57c-1.29,11.26-12.26,12.77-14.99,12.77-3.21,0-15.33-2.41-15.33-14.95s-10.02-15.85-15.63-15.85c-6,0-15.33,4.99-15.33,15.75,0,13.34-12.22,15.05-15.13,15.05-3.21,0-15.33-2.41-15.33-14.95s-10.02-15.85-15.63-15.85-15.23,4.52-15.23,16.45l.1,14.04s1.5-15.25,15.22-15.25,15.53,13.94,15.53,15.45,1,15.15,15.13,15.15,15.53-13.14,15.53-14.65c0-4.64,4.27-15.95,15.23-15.95,14.02,0,15.53,13.94,15.53,15.45s1,15.15,15.13,15.15,15.53-13.14,15.53-14.65c0-2.55.9-6.54,3.21-9.91.02-.03.04-.06.06-.09.25-.36.52-.7.8-1.04.1-.12.21-.24.31-.36.18-.2.37-.4.56-.59.34-.34.7-.67,1.09-.99.01-.01.03-.02.04-.03,2.17-1.73,5.06-2.94,8.91-2.94,14.03,0,15.53,13.94,15.53,15.45s1,15.15,15.13,15.15,15.53-13.14,15.53-14.65c0-4.64,4.27-15.95,15.23-15.95,14.02,0,15.53,13.94,15.53,15.45s1,15.15,15.13,15.15,15.53-13.14,15.53-14.65c0-.76.09-1.66.26-2.62.92-4.09,4.19-13.32,14.88-13.32,14.02,0,15.53,13.94,15.53,15.45s1,15.15,15.13,15.15,15.53-13.14,15.53-14.65c0-4.64,4.27-15.95,15.23-15.95,14.03,0,15.53,13.94,15.53,15.45s1,15.15,15.13,15.15,15.53-13.14,15.53-14.65c0-2.55.9-6.54,3.21-9.91.02-.03.04-.06.07-.09.25-.36.52-.7.8-1.04.1-.12.21-.24.31-.36.18-.2.37-.4.56-.59.34-.34.7-.67,1.09-.99.02-.01.03-.02.04-.03,2.17-1.73,5.06-2.94,8.92-2.94,14.02,0,15.53,13.94,15.53,15.45s1,15.15,15.13,15.15,15.53-13.14,15.53-14.65c0-4.64,4.27-15.95,15.22-15.95,14.02,0,15.53,13.94,15.53,15.45s1,15.15,15.13,15.15,15.53-13.14,15.53-14.65c0-5.12,3.61-16.05,15.03-16.05v-15.15s-15.23.7-15.23,15.75"/>
            <path class="cls-3" d="m490.6,356.61c0,13.34-12.22,15.05-15.13,15.05-3.21,0-15.33-2.41-15.33-14.95s-10.02-15.85-15.63-15.85c-5.99,0-15.33,4.99-15.33,15.75,0,13.34-12.22,15.05-15.13,15.05-3.21,0-15.33-2.41-15.33-14.95s-9.85-15.78-15.49-15.84h0s-.02,0-.06,0c-.03,0-.06,0-.08,0-2.64,0-6.09.98-9.05,3.21-2.56,1.79-4.86,4.57-5.7,8.89-.31,1.33-.48,2.78-.48,4.36v1.57c-1.29,11.26-12.26,12.77-14.99,12.77-3.21,0-15.33-2.41-15.33-14.95s-10.02-15.85-15.63-15.85c-5.99,0-15.32,4.99-15.32,15.75,0,13.34-12.22,15.05-15.13,15.05-3.21,0-15.33-2.41-15.33-14.95s-10.02-15.85-15.63-15.85h-.02s-.04,0-.05,0c-2.18.01-4.9.69-7.44,2.17-3.85,2.04-7.74,5.97-7.74,13.58,0,13.34-12.22,15.05-15.13,15.05-3.21,0-15.33-2.41-15.33-14.95s-10.02-15.85-15.63-15.85c-5.99,0-15.33,4.99-15.33,15.75,0,13.34-12.22,15.05-15.13,15.05-3.21,0-15.33-2.41-15.33-14.95s-9.86-15.78-15.49-15.84h0s-.02,0-.06,0c-.03,0-.06,0-.08,0-2.65,0-6.1.98-9.05,3.21-2.56,1.79-4.86,4.57-5.7,8.89-.3,1.33-.48,2.78-.48,4.36v1.57c-1.29,11.26-12.26,12.77-14.99,12.77-3.21,0-15.33-2.41-15.33-14.95s-10.02-15.85-15.63-15.85c-6,0-15.33,4.99-15.33,15.75,0,13.34-12.22,15.05-15.13,15.05-3.21,0-15.33-2.41-15.33-14.95s-10.02-15.85-15.63-15.85-15.23,4.51-15.23,16.45l.1,14.04s1.5-15.24,15.22-15.24,15.53,13.94,15.53,15.45,1,15.15,15.13,15.15,15.53-13.14,15.53-14.64c0-4.64,4.27-15.95,15.23-15.95,14.02,0,15.53,13.94,15.53,15.45s1,15.15,15.13,15.15,15.53-13.14,15.53-14.64c0-2.55.9-6.55,3.21-9.91.02-.03.04-.06.06-.09.25-.36.52-.7.8-1.04.1-.12.21-.24.31-.36.17-.2.36-.4.55-.59.34-.34.7-.68,1.09-.99.01-.01.03-.02.04-.03,2.17-1.73,5.06-2.94,8.91-2.94,14.03,0,15.53,13.94,15.53,15.45s1,15.15,15.13,15.15,15.53-13.14,15.53-14.64c0-4.64,4.27-15.95,15.23-15.95,14.02,0,15.53,13.94,15.53,15.45s1,15.15,15.13,15.15,15.53-13.14,15.53-14.64c0-.76.09-1.66.26-2.63.92-4.09,4.19-13.32,14.88-13.32,14.02,0,15.53,13.94,15.53,15.45s1,15.15,15.13,15.15,15.53-13.14,15.53-14.64c0-4.64,4.27-15.95,15.23-15.95,14.03,0,15.53,13.94,15.53,15.45s1,15.15,15.13,15.15,15.53-13.14,15.53-14.64c0-2.55.9-6.55,3.21-9.91.02-.03.04-.06.07-.09.25-.36.52-.7.8-1.04.1-.12.21-.24.31-.36.18-.2.37-.4.56-.59.34-.34.7-.68,1.09-.99.02-.01.03-.02.04-.03,2.17-1.73,5.06-2.94,8.92-2.94,14.02,0,15.53,13.94,15.53,15.45s1,15.15,15.13,15.15,15.53-13.14,15.53-14.64c0-4.64,4.27-15.95,15.22-15.95,14.02,0,15.53,13.94,15.53,15.45s1,15.15,15.13,15.15,15.53-13.14,15.53-14.64c0-5.12,3.61-16.05,15.03-16.05v-15.14s-15.23.7-15.23,15.75"/>
            <path class="cls-3" d="m490.6,480.56c0,13.34-12.22,15.05-15.13,15.05-3.21,0-15.33-2.41-15.33-14.95s-10.02-15.85-15.63-15.85c-5.99,0-15.33,4.99-15.33,15.75,0,13.34-12.22,15.05-15.13,15.05-3.21,0-15.33-2.41-15.33-14.95s-9.85-15.78-15.49-15.84h0s-.02,0-.06,0c-.03,0-.06,0-.08,0-2.64,0-6.09.98-9.05,3.21-2.56,1.79-4.86,4.57-5.7,8.89-.31,1.33-.48,2.77-.48,4.36v1.57c-1.29,11.26-12.26,12.77-14.99,12.77-3.21,0-15.33-2.41-15.33-14.95s-10.02-15.85-15.63-15.85c-5.99,0-15.32,4.99-15.32,15.75,0,13.34-12.22,15.05-15.13,15.05-3.21,0-15.33-2.41-15.33-14.95s-10.02-15.85-15.63-15.85h-.02s-.04,0-.05,0c-2.18.01-4.9.69-7.44,2.17-3.85,2.04-7.74,5.97-7.74,13.58,0,13.34-12.22,15.05-15.13,15.05-3.21,0-15.33-2.41-15.33-14.95s-10.02-15.85-15.63-15.85c-5.99,0-15.33,4.99-15.33,15.75,0,13.34-12.22,15.05-15.13,15.05-3.21,0-15.33-2.41-15.33-14.95s-9.86-15.78-15.49-15.84h0s-.02,0-.06,0c-.03,0-.06,0-.08,0-2.65,0-6.1.98-9.05,3.21-2.56,1.79-4.86,4.57-5.7,8.89-.3,1.33-.48,2.77-.48,4.36v1.57c-1.29,11.26-12.26,12.77-14.99,12.77-3.21,0-15.33-2.41-15.33-14.95s-10.02-15.85-15.63-15.85c-6,0-15.33,4.99-15.33,15.75,0,13.34-12.22,15.05-15.13,15.05-3.21,0-15.33-2.41-15.33-14.95s-10.02-15.85-15.63-15.85-15.23,4.51-15.23,16.45l.1,14.04s1.5-15.24,15.22-15.24,15.53,13.94,15.53,15.45,1,15.15,15.13,15.15,15.53-13.14,15.53-14.64c0-4.64,4.27-15.95,15.23-15.95,14.02,0,15.53,13.94,15.53,15.45s1,15.15,15.13,15.15,15.53-13.14,15.53-14.64c0-2.55.9-6.55,3.21-9.91.02-.03.04-.06.06-.09.25-.36.52-.7.8-1.04.1-.12.21-.24.31-.36.18-.2.37-.4.56-.59.34-.34.7-.68,1.09-.99.01-.01.03-.02.04-.03,2.17-1.73,5.06-2.94,8.91-2.94,14.03,0,15.53,13.94,15.53,15.45s1,15.15,15.13,15.15,15.53-13.14,15.53-14.64c0-4.64,4.27-15.95,15.23-15.95,14.02,0,15.53,13.94,15.53,15.45s1,15.15,15.13,15.15,15.53-13.14,15.53-14.64c0-.76.09-1.66.26-2.62.92-4.09,4.19-13.32,14.88-13.32,14.02,0,15.53,13.94,15.53,15.45s1,15.15,15.13,15.15,15.53-13.14,15.53-14.64c0-4.64,4.27-15.95,15.23-15.95,14.03,0,15.53,13.94,15.53,15.45s1,15.15,15.13,15.15,15.53-13.14,15.53-14.64c0-2.55.9-6.55,3.21-9.91.02-.03.04-.06.07-.09.25-.36.52-.7.8-1.04.1-.12.21-.24.31-.36.18-.2.37-.4.56-.59.34-.34.71-.68,1.09-.99.01-.01.03-.02.04-.03,2.17-1.73,5.06-2.94,8.92-2.94,14.02,0,15.53,13.94,15.53,15.45s1,15.15,15.13,15.15,15.53-13.14,15.53-14.64c0-4.64,4.27-15.95,15.22-15.95,14.02,0,15.53,13.94,15.53,15.45s1,15.15,15.13,15.15,15.53-13.14,15.53-14.64c0-5.12,3.61-16.05,15.03-16.05v-15.14s-15.23.7-15.23,15.75"/>
            <path class="cls-3" d="m490.6,449.57c0,13.34-12.22,15.05-15.13,15.05-3.21,0-15.33-2.41-15.33-14.95s-10.02-15.85-15.63-15.85c-5.99,0-15.33,4.99-15.33,15.75,0,13.34-12.22,15.05-15.13,15.05-3.21,0-15.33-2.41-15.33-14.95s-9.85-15.78-15.49-15.84h0s-.02,0-.06,0c-.03,0-.06,0-.08,0-2.64,0-6.09.98-9.05,3.2-2.56,1.79-4.86,4.57-5.7,8.89-.31,1.33-.48,2.78-.48,4.36v1.57c-1.29,11.26-12.26,12.77-14.99,12.77-3.21,0-15.33-2.41-15.33-14.95s-10.02-15.85-15.63-15.85c-5.99,0-15.32,4.99-15.32,15.75,0,13.34-12.22,15.05-15.13,15.05-3.21,0-15.33-2.41-15.33-14.95s-10.02-15.85-15.63-15.85h-.02s-.04,0-.05,0c-2.18.01-4.9.69-7.44,2.17-3.85,2.04-7.74,5.97-7.74,13.58,0,13.34-12.22,15.05-15.13,15.05-3.21,0-15.33-2.41-15.33-14.95s-10.02-15.85-15.63-15.85c-5.99,0-15.33,4.99-15.33,15.75,0,13.34-12.22,15.05-15.13,15.05-3.21,0-15.33-2.41-15.33-14.95s-9.86-15.78-15.49-15.84h0s-.02,0-.06,0c-.03,0-.06,0-.08,0-2.64,0-6.09.98-9.05,3.2-2.56,1.79-4.86,4.57-5.7,8.89-.3,1.33-.48,2.78-.48,4.36v1.57c-1.29,11.26-12.26,12.77-14.99,12.77-3.21,0-15.33-2.41-15.33-14.95s-10.02-15.85-15.63-15.85c-6,0-15.33,4.99-15.33,15.75,0,13.34-12.22,15.05-15.13,15.05-3.21,0-15.33-2.41-15.33-14.95s-10.02-15.85-15.63-15.85-15.23,4.51-15.23,16.45l.1,14.04s1.5-15.25,15.22-15.25,15.53,13.94,15.53,15.45,1,15.15,15.13,15.15,15.53-13.14,15.53-14.65c0-4.64,4.27-15.95,15.23-15.95,14.02,0,15.53,13.94,15.53,15.45s1,15.15,15.13,15.15,15.53-13.14,15.53-14.65c0-2.55.9-6.55,3.21-9.91.02-.03.04-.06.06-.09.25-.36.52-.7.8-1.04.1-.12.21-.24.31-.36.17-.2.36-.39.55-.59.34-.34.7-.68,1.09-.99.01,0,.03-.02.04-.03,2.17-1.73,5.06-2.94,8.91-2.94,14.03,0,15.53,13.94,15.53,15.45s1,15.15,15.13,15.15,15.53-13.14,15.53-14.65c0-4.64,4.27-15.95,15.23-15.95,14.02,0,15.53,13.94,15.53,15.45s1,15.15,15.13,15.15,15.53-13.14,15.53-14.65c0-.76.09-1.66.26-2.62.92-4.09,4.19-13.33,14.88-13.33,14.02,0,15.53,13.94,15.53,15.45s1,15.15,15.13,15.15,15.53-13.14,15.53-14.65c0-4.64,4.27-15.95,15.23-15.95,14.03,0,15.53,13.94,15.53,15.45s1,15.15,15.13,15.15,15.53-13.14,15.53-14.65c0-2.55.9-6.55,3.21-9.91.02-.03.04-.06.07-.09.25-.36.52-.7.8-1.04.1-.12.21-.24.31-.36.18-.2.37-.39.56-.59.34-.34.7-.68,1.09-.99.02,0,.03-.02.04-.03,2.17-1.73,5.06-2.94,8.92-2.94,14.02,0,15.53,13.94,15.53,15.45s1,15.15,15.13,15.15,15.53-13.14,15.53-14.65c0-4.64,4.27-15.95,15.22-15.95,14.02,0,15.53,13.94,15.53,15.45s1,15.15,15.13,15.15,15.53-13.14,15.53-14.65c0-5.12,3.61-16.05,15.03-16.05v-15.15s-15.23.7-15.23,15.75"/>
          </g>
        </g>
      </g>
    </g>
  </g>
</svg>