<?xml version="1.0" encoding="UTF-8"?>
<svg id="Layer_2" data-name="Layer 2" xmlns="http://www.w3.org/2000/svg" xmlns:xlink="http://www.w3.org/1999/xlink" viewBox="0 0 466.28 374.52">
  <defs>
    <style>
      .cls-1 {
        clip-path: url(#clippath-2);
      }

      .cls-1, .cls-2, .cls-3, .cls-4, .cls-5 {
        fill: none;
      }

      .cls-6 {
        fill: #d02027;
      }

      .cls-2 {
        clip-path: url(#clippath-3);
      }

      .cls-4 {
        clip-path: url(#clippath);
      }

      .cls-5 {
        clip-path: url(#clippath-1);
      }

      .cls-7 {
        fill: #47a374;
      }

      .cls-8 {
        fill: #7f1827;
      }

      .cls-9 {
        fill: #e6e06e;
      }
    </style>
    <clipPath id="clippath">
      <rect class="cls-3" x="75.8" y="98.5" width="366.93" height="223.28"/>
    </clipPath>
    <clipPath id="clippath-1">
      <rect class="cls-3" x="71.77" width="375" height="319"/>
    </clipPath>
    <clipPath id="clippath-2">
      <path class="cls-3" d="m450.54,162.23h0c-.1-32.38-26.42-58.54-58.79-58.44-32.37-.1-58.69,26.06-58.79,58.43,0,0,0,0,0,0,.07,28.5,20.67,52.81,48.77,57.57v154.73h68.81v-212.29Z"/>
    </clipPath>
    <clipPath id="clippath-3">
      <path class="cls-3" d="m86.65,64.54c-1.57-.35-3.2.16-4.29,1.34-2,1.76-2.03,4.58.56,6.86.91.81,1.99,1.4,3.16,1.74v2.31h-4.56v6.25c-39.92,35.04-15.16,82.16-15.16,82.16v25.87h-32.46v136.72h172.14l-7.11-41.25-.38-20.88c-.5-27.76-27.5-50.14-60.87-50.45l9.76-32.11h-24.69v-17.9s25.23-48-16.3-83.13v-5.28h-4.56v-2.31c1.17-.34,2.25-.93,3.16-1.74,2.59-2.28,2.53-5,.53-6.76-1.19-1.05-2.44-1.87-4.26-1.44-1.96-1.91-4.6-2.94-7.34-2.88-2.73-.07-5.38.97-7.34,2.88"/>
    </clipPath>
  </defs>
  <g id="Background">
    <g id="Footer">
      <g id="Q3_Buildings" data-name="Q3 Buildings">
        <g class="cls-4">
          <g id="Group_214" data-name="Group 214">
            <path id="Path_980" data-name="Path 980" class="cls-7" d="m75.8,216.25h31.05l.02-15.73h8.76l22.97-11.51,23.18,11.75h8.36v7.29h11.58v-3.45h-4.38l13.14-12.28,14.37,12.31h-4.78v3.35h17.88l-.06,5.62h18.73l-.18-15.68h37.57v7.13l14.46.07v-8.59h-3.58v-5.19h4.38v-15.17h-3.18v-4.32h8.36v-9.81h-4.38v-5.9h3.58s-.77-11.76,9.87-11.76,9.87,11.77,9.87,11.77h3.58v5.9h-4.38v9.81h8.36v4.32h-3.19v15.17h4.38v5.19h-3.58l.02,5.37,16.82.34v-21.95h106.55c-1.19,0,.8,187.36.8,187.36l-366.94-1.18v-150.24Z"/>
          </g>
        </g>
        <g class="cls-5">
          <g id="Mask_Group_6" data-name="Mask Group 6">
            <g id="Group_74" data-name="Group 74">
              <g id="Group_45" data-name="Group 45">
                <g id="Group_41" data-name="Group 41">
                  <path id="Path_142" data-name="Path 142" class="cls-7" d="m450.54,162.23h0c-.1-32.38-26.42-58.54-58.79-58.44-32.37-.1-58.69,26.06-58.79,58.43,0,0,0,0,0,0,.07,28.5,20.67,52.81,48.77,57.57v154.73h68.81v-212.29Z"/>
                </g>
                <g id="Group_44" data-name="Group 44">
                  <g class="cls-1">
                    <g id="Group_43" data-name="Group 43">
                      <g id="Group_42" data-name="Group 42">
                        <path id="Path_143" data-name="Path 143" class="cls-9" d="m445.79,156.44l-20.4-13.24-20.4,13.24,20.4,13.24,20.4-13.24Zm0,26.57l-20.4-13.24-20.4,13.24,20.4,13.24,20.4-13.24Zm0,26.57l-20.4-13.24-20.4,13.24,20.4,13.24,20.4-13.24Zm-.48,26.26l-19.92-12.93-19.92,12.93,19.92,12.93,19.92-12.93Zm.48,26.27l-20.4-13.24-20.4,13.24,20.4,13.24,20.4-13.24Zm0,26.57l-20.4-13.24-20.4,13.24,20.4,13.24,20.4-13.24Zm0,26.57l-20.4-13.24-20.4,13.24,20.4,13.24,20.4-13.24Zm-40.8,26.57l20.4,13.24,20.4-13.24-20.4-13.24-20.4,13.24Zm-40.81,0l20.4,13.24,20.4-13.24-20.4-13.24-20.4,13.24Zm-40.81,0l20.4,13.24,20.4-13.24-20.4-13.24-20.4,13.24Zm0-26.57l20.4,13.24,20.4-13.24-20.4-13.24-20.4,13.24Zm0-26.57l20.4,13.24,20.4-13.24-20.4-13.24-20.4,13.24Zm0-26.57l20.4,13.24,20.4-13.24-20.4-13.24-20.4,13.24Zm.48-26.27l19.92,12.93,19.93-12.93-19.93-12.93-19.92,12.93Zm-.47-26.26l20.4,13.24,20.4-13.24-20.4-13.24-20.4,13.24Zm0-26.57l20.4,13.24,20.4-13.24-20.4-13.24-20.4,13.24Zm0-26.57l20.4,13.24,20.4-13.24-20.4-13.24-20.4,13.24Zm40.8-26.57l-20.4-13.24-20.4,13.24,20.4,13.24,20.4-13.24Zm40.81,0l-20.4-13.24-20.4,13.24,20.4,13.24,20.4-13.24Zm0,53.15l-20.4-13.24-20.4,13.24,20.4,13.24,20.4-13.24Zm0,26.57l-20.4-13.24-20.4,13.24,20.4,13.24,20.4-13.24Zm-.48,26.26l-19.92-12.93-19.92,12.93,19.92,12.93,19.92-12.93Zm.48,26.27l-20.4-13.24-20.4,13.24,20.4,13.24,20.4-13.24Zm0,26.57l-20.4-13.24-20.4,13.24,20.4,13.24,20.4-13.24Zm-40.81-132.25l20.4,13.24,20.4-13.24-20.4-13.24-20.4,13.24Zm40.8,158.82l-20.4-13.24-20.4,13.24,20.4,13.24,20.4-13.24Zm40.82-185.39l-20.4-13.24-20.4,13.24,20.4,13.24,20.4-13.24Zm20.49,13.29l-20.48,13.28,20.47,13.29-20.48,13.29,20.48,13.29-20.48,13.28,20.48,13.29-20,12.97,20,12.98-20.48,13.29,20.48,13.28-20.48,13.28,20.48,13.29-20.48,13.29,20.48,13.29-20.48,13.29,20.48,13.28-20.48,13.29-20.41-13.24-20.41,13.24-20.41-13.24-20.41,13.24-20.41-13.24-20.41,13.24-20.48-13.29,20.47-13.28-20.47-13.29,20.47-13.29-20.47-13.29,20.47-13.29-20.47-13.29,20.47-13.29-20.47-13.28,20-12.98-20-12.97,20.47-13.29-20.47-13.28,20.47-13.29-20.47-13.29,20.47-13.29-20.47-13.28,20.47-13.29-20.47-13.29,20.48-13.29,20.41,13.24,20.41-13.24,20.41,13.24,20.41-13.24,20.41,13.24,20.41-13.24,20.48,13.29-20.48,13.29,20.48,13.29Z"/>
                      </g>
                    </g>
                  </g>
                </g>
              </g>
              <g id="Group_75" data-name="Group 75">
                <g id="Group_34" data-name="Group 34">
                  <path id="Path_65" data-name="Path 65" class="cls-8" d="m198.93,286.54l-.38-20.88c-.5-27.76-27.5-50.14-60.87-50.45l9.76-32.11h-24.69v-17.9s25.23-48-16.3-83.13v-5.28h-4.56v-2.3c1.17-.34,2.25-.93,3.16-1.74,2.59-2.28,2.53-5,.53-6.76-1.19-1.05-2.44-1.87-4.25-1.44-1.96-1.91-4.6-2.94-7.34-2.88-2.73-.07-5.38.97-7.34,2.88-1.57-.35-3.2.16-4.29,1.34-2,1.76-2.03,4.58.56,6.86.91.8,1.99,1.4,3.16,1.74v2.3h-4.56v6.26c-39.92,35.04-15.16,82.15-15.16,82.15v25.87h-32.46v136.72h172.14l-7.11-41.25Z"/>
                </g>
                <g id="Group_36" data-name="Group 36">
                  <g class="cls-2">
                    <g id="Group_35" data-name="Group 35">
                      <rect id="Rectangle_23" data-name="Rectangle 23" class="cls-6" y="61.48" width="224.46" height="13.78"/>
                      <rect id="Rectangle_24" data-name="Rectangle 24" class="cls-6" y="91.39" width="224.46" height="13.78"/>
                      <rect id="Rectangle_25" data-name="Rectangle 25" class="cls-6" y="121.31" width="224.46" height="13.78"/>
                      <rect id="Rectangle_26" data-name="Rectangle 26" class="cls-6" y="151.23" width="224.46" height="13.78"/>
                      <rect id="Rectangle_27" data-name="Rectangle 27" class="cls-6" y="181.15" width="224.46" height="13.78"/>
                      <rect id="Rectangle_28" data-name="Rectangle 28" class="cls-6" y="181.19" width="224.46" height="13.78"/>
                      <rect id="Rectangle_29" data-name="Rectangle 29" class="cls-6" y="211.11" width="224.46" height="13.78"/>
                      <rect id="Rectangle_30" data-name="Rectangle 30" class="cls-6" y="241.03" width="224.46" height="13.78"/>
                      <rect id="Rectangle_31" data-name="Rectangle 31" class="cls-6" y="270.95" width="224.46" height="13.78"/>
                      <rect id="Rectangle_32" data-name="Rectangle 32" class="cls-6" y="300.86" width="224.46" height="13.78"/>
                    </g>
                  </g>
                </g>
              </g>
            </g>
          </g>
        </g>
      </g>
    </g>
  </g>
</svg>