<?xml version="1.0" encoding="UTF-8"?>
<svg id="Layer_2" data-name="Layer 2" xmlns="http://www.w3.org/2000/svg" xmlns:xlink="http://www.w3.org/1999/xlink" viewBox="0 0 1440.4 700.06">
  <defs>
    <style>
      .cls-1 {
        clip-path: url(#clippath-2);
      }

      .cls-1, .cls-2, .cls-3, .cls-4, .cls-5 {
        fill: none;
      }

      .cls-6 {
        fill: #fff;
      }

      .cls-7 {
        fill: #6cb6e1;
      }

      .cls-2 {
        clip-path: url(#clippath-3);
      }

      .cls-4 {
        clip-path: url(#clippath);
      }

      .cls-8 {
        fill: #7fb6df;
      }

      .cls-9 {
        fill: #a6d6ed;
      }

      .cls-5 {
        clip-path: url(#clippath-1);
      }

      .cls-10 {
        fill: #70b1da;
      }
    </style>
    <clipPath id="clippath">
      <rect class="cls-3" x="355.46" y="177.55" width="375.46" height="285.54"/>
    </clipPath>
    <clipPath id="clippath-1">
      <rect class="cls-3" x="341.46" y="181.34" width="556" height="327"/>
    </clipPath>
    <clipPath id="clippath-2">
      <path class="cls-3" d="m310.44,428.91s199.48-95.37,203.02-95.58,42.38-10.36,46.46-10.86,11.13-5.3,13.31-5.73c4.92-.66,9.49-2.94,12.99-6.47,0,0,51.49-31.94,52.57-32.37s9.39-1.45,9.93-2.3-.16-7.53.93-8.39,34.82-19.46,36.17-21.17c.89-1.13,6.35-3.17,9.74-4.36,1.52-.63,2.91-1.55,4.1-2.69.27-.64.54-8.98,2.72-10.69s6.24-4.92,7.06-4.28,13.08,11.83,13.58,12.61c1.23,1.95,12.24,17.71,14.17,20.31.69.92,1.3,13.26,2.39,14.55s9.91,5.12,11.92,5.97c2.72,1.15,7.69.39,10.73,2.14,3.86,2.23,23.35,13.9,23.35,13.9,0,0,34.78,28.83,37.64,30.59,1,.61,111.43,31.57,184.97,50.9,108.94,38.3,183.43,78.66,183.43,78.66l-340.83-2.84h-375.56l-164.78-21.91Z"/>
    </clipPath>
    <clipPath id="clippath-3">
      <path class="cls-6" d="m678.93,349.64c-18.08,10.78-31.61,27.71-43.53,45.07-9.07,13.2-17.63,27.35-20.18,43.16-2.55,15.82,2.19,33.75,15.31,42.92,9.44,6.61,21.54,7.79,33.04,8.49,27.12,1.65,54.33,1.76,81.46.35,4.79-.25,9.86-.39,15.06-.53,17.89-.5,37.4-1.06,53.18-6.42,36.45-12.37,12.99-70.22-8.53-86.89-8.88-6.88-19.32-11.53-28.23-18.36-13.11-10.06-22.72-24.66-37.32-32.38-8.24-4.35-17.44-6.07-26.7-5.69-11.68.47-23.46,4.26-33.54,10.27"/>
    </clipPath>
  </defs>
  <g id="Background">
    <g id="Footer">
      <g id="Q1_Buildings" data-name="Q1 Buildings">
        <g class="cls-4">
          <g class="cls-5">
            <g id="Mask_Group_5" data-name="Mask Group 5">
              <g id="Group_60" data-name="Group 60">
                <g id="Group_55" data-name="Group 55">
                  <g class="cls-1">
                    <g id="Group_54" data-name="Group 54">
                      <rect id="Rectangle_39" data-name="Rectangle 39" class="cls-6" width="1440.4" height="700.06"/>
                      <path id="Path_153" data-name="Path 153" class="cls-10" d="m633.11,285.52s3.8,19.4,4.89,22.18,7.75,3.05,12.64,2.63,4.74,5.77-7.48,7.27c-7.32.9-45.12,2.59-45.12,2.59l18.78-32.1,16.29-2.56Z"/>
                      <path id="Path_154" data-name="Path 154" class="cls-7" d="m709.73,224.14c-5.97-4.3-12.49-8.15-10.32-14.14,2.17-5.99,1.27-18.1-5.54-15.54-4.19,1.58-16.73,15.54-16.73,15.54-.14,2.23.36,4.46,1.45,6.42,3.29,6.12,2.56,17.8,3.26,25.22.24,2.61.55,5.14.86,7.51l-33.07,9.4-26.95,7.34-144.03,47.83s66.32,15.13,84.38,15c24.63-.17,78.87,13.28,64.69-.73-17.85-17.65,82.9,1.63,106.79-30.85,7.72-10.49-35.58-21.16-44.8-26.91-12.8-7.98-.42-21.66,8.42-26.52,17.33-9.52,14.91-17.18,11.59-19.58Z"/>
                    </g>
                  </g>
                </g>
                <rect id="Rectangle_40" data-name="Rectangle 40" class="cls-3" x="436.09" y="208.58" width="506.54" height="341.17"/>
                <g id="Group_59" data-name="Group 59">
                  <g id="Group_58" data-name="Group 58">
                    <g id="Group_56" data-name="Group 56">
                      <path id="Path_156" data-name="Path 156" class="cls-6" d="m1395.64,524.25l-296.71-181.85-49.34,19.75-22.06-19.75-63.27-40.87-338.42,222.72-69.66-52.44v59.83h839.45v-7.4Z"/>
                      <path id="Path_157" data-name="Path 157" class="cls-6" d="m1207.37,416.31l53.64,87.73-87.62-87.73-64.29-25.82-10.34-45.17,108.61,70.99Z"/>
                      <path id="Path_158" data-name="Path 158" class="cls-6" d="m1049.6,362.15l74.88,98.18-99.22-82.18-185.42,102.2,23.19-31.21-167.5,22.89,95.25-56.56,173.32-113.72,61.84,37.03,23.67,23.38Z"/>
                      <path id="Path_159" data-name="Path 159" class="cls-6" d="m1033.23,401.53l-60.6,84.44,65.93-33.33-5.33-51.11Z"/>
                    </g>
                    <g id="Group_57" data-name="Group 57">
                      <path id="Path_160" data-name="Path 160" class="cls-6" d="m160.16,411.2l159.27-97.61,26.49,10.6,11.84-10.6,33.96-21.94,181.65,119.55,56.92-2.34,73.75,98.78H160.16v-96.44Z"/>
                      <path id="Path_161" data-name="Path 161" class="cls-6" d="m345.91,324.19l15.29,2.69,19.98,34.25,55.81,31.56-15.75-41.02,162.81,60.79-91.05-59.66-101.19-61.03-33.19,19.88-12.71,12.55Z"/>
                      <path id="Path_162" data-name="Path 162" class="cls-9" d="m380.22,313.56l46.61,31.77-32.89-37.18,16.37,10.14-18.25-22.17-11.84,17.44Z"/>
                    </g>
                  </g>
                  <rect id="Rectangle_41" data-name="Rectangle 41" class="cls-6" x="447.47" y="354.29" width="489.32" height="177.36"/>
                </g>
              </g>
            </g>
          </g>
          <path id="Path_893" data-name="Path 893" class="cls-9" d="m749.69,392.8v8.37h-28.64v32.27h-24.38v-5.12h-3.78v-4.38h-13.5v-10.71h-7.87v3.92h-8v4.02h-26.1v-17.16h-24.01v5.44h-21.45v-8.18h-27.1v-.5h-38.79v-4.23h-4.01v4.21l-61.74-.03.21,21.95h-38.84s-.2-21.97-.2-21.97h-20.84v-7.89h-19.04v8.37h-28.64v32.27h-24.38v-5.12h-2.63v115.36h607v-142.91l-104.55-.04.22,21.95h-38.85s-.19-21.97-.19-21.97h-20.85v-7.89h-19.04Z"/>
          <g>
            <path class="cls-6" d="m678.93,349.64c-18.08,10.78-31.61,27.71-43.53,45.07-9.07,13.2-17.63,27.35-20.18,43.16-2.55,15.82,2.19,33.75,15.31,42.92,9.44,6.61,21.54,7.79,33.04,8.49,27.12,1.65,54.33,1.76,81.46.35,4.79-.25,9.86-.39,15.06-.53,17.89-.5,37.4-1.06,53.18-6.42,36.45-12.37,12.99-70.22-8.53-86.89-8.88-6.88-19.32-11.53-28.23-18.36-13.11-10.06-22.72-24.66-37.32-32.38-8.24-4.35-17.44-6.07-26.7-5.69-11.68.47-23.46,4.26-33.54,10.27"/>
            <g class="cls-2">
              <g>
                <path class="cls-8" d="m1011.58,355.52c-6.41-3.98-12.83-7.96-19.24-11.95-11.49-7.15-19.31-6.9-30.39,1.1-3.44,2.49-6.74,5.16-10.1,7.75-14.17,10.91-23.12,10.86-37.53.01-3.81-2.87-7.8-5.54-11.91-7.97-7.37-4.35-14.96-4.58-22.08.42-5.74,4.03-11.08,8.64-16.62,12.96-11.26,8.78-19.4,9.13-31.2,1.28-3.76-2.5-7.39-5.21-11.09-7.8-12.55-8.8-22.03-8.37-33.86,1.4-4.7,3.88-9.4,7.8-14.39,11.31-7.42,5.23-15.35,5.44-23.14.85-5.59-3.31-10.87-7.14-16.33-10.66-12.08-7.8-20.59-7.39-31.96,1.5-4.6,3.6-9.05,7.4-13.75,10.87-8.36,6.16-17.08,6.48-25.9.92-5.49-3.47-10.91-7.07-16.35-10.62-9.67-6.32-19.14-6.11-28.35.92-4.54,3.46-8.95,7.09-13.52,10.5-11.04,8.23-18.57,8.61-30.28,1.46-4.75-2.9-9.34-6.07-13.98-9.15-10.28-6.83-20.18-5.97-29.78,1.39-4.53,3.47-8.92,7.13-13.58,10.42-10.68,7.56-20.09,7.38-30.81-.25-4.54-3.24-9.06-6.53-13.75-9.53-8.66-5.53-17.3-5.25-25.53.92-4.46,3.34-8.62,7.06-12.99,10.51-5.22,4.12-10.49,7.96-17.68,7.98-6.23.02-11.13-3-16.02-6.13-3.02-1.93-5.81-4.23-8.77-6.26-5.74-3.92-11.67-7.4-19.03-7.47l-.36-8.9c4.31,1.41,8.38,2.11,11.8,3.99,5.33,2.93,10.29,6.56,15.29,10.07,13.21,9.26,22.44,8.85,34.75-1.57,4.15-3.52,8.32-7.03,12.66-10.3,8.21-6.18,16.8-6.54,25.48-.99,4.25,2.72,8.44,5.56,12.5,8.55,12.46,9.2,22.29,9.09,34.65-.45,5.04-3.89,10.01-7.92,15.34-11.37,6.86-4.45,14.32-4.77,21.49-.79,6.14,3.4,11.9,7.48,17.9,11.15,11.46,7.01,19.7,6.64,30.42-1.39,4.67-3.5,9.12-7.31,13.81-10.78,9-6.66,18.28-6.97,27.71-.83,5.22,3.4,10.45,6.78,15.65,10.21,9.75,6.43,19.19,5.74,28.3-1.26,4.84-3.71,9.6-7.53,14.37-11.34,9.27-7.4,18.82-7.41,28.56-1.06,5.33,3.48,10.52,7.17,15.88,10.61,9.01,5.78,17.94,5.72,26.55-.89,5.26-4.04,10.32-8.35,15.64-12.3,10.13-7.52,17.44-7.79,28.14-1.1,4.16,2.61,8.12,5.53,12.2,8.28,14.43,9.71,22.92,9.08,35.96-2.33,4.29-3.75,8.78-7.3,13.45-10.55,7.26-5.06,14.92-4.93,22.37-.41,4.99,3.02,9.8,6.36,14.56,9.74,11.73,8.32,20.73,8.37,32.35-.12,4.93-3.6,9.69-7.43,14.63-11,8.44-6.1,17.22-6.2,26.03-.9,5.46,3.28,10.68,6.95,16.1,10.3,1.63,1,3.56,1.52,5.35,2.25l.36,8.79Z"/>
                <path class="cls-8" d="m1014.19,419.48c-6.41-3.98-12.83-7.96-19.24-11.95-11.49-7.15-19.3-6.9-30.39,1.1-3.44,2.48-6.74,5.16-10.1,7.75-14.18,10.9-23.13,10.85-37.53.01-3.81-2.87-7.8-5.54-11.91-7.97-7.37-4.35-14.96-4.58-22.08.42-5.74,4.03-11.08,8.64-16.62,12.96-11.25,8.77-19.41,9.12-31.2,1.28-3.76-2.5-7.39-5.2-11.09-7.8-12.56-8.81-22-8.38-33.86,1.4-4.71,3.88-9.41,7.8-14.39,11.31-7.42,5.22-15.35,5.45-23.14.84-5.59-3.31-10.87-7.13-16.33-10.66-12.08-7.8-20.58-7.39-31.96,1.5-4.6,3.6-9.05,7.4-13.75,10.87-8.36,6.16-17.08,6.48-25.9.92-5.5-3.47-10.91-7.07-16.35-10.62-9.67-6.31-19.14-6.11-28.35.92-4.54,3.46-8.95,7.1-13.52,10.5-11.06,8.24-18.55,8.62-30.28,1.46-4.76-2.9-9.34-6.07-13.99-9.15-10.28-6.82-20.18-5.98-29.78,1.39-4.53,3.47-8.92,7.13-13.58,10.42-10.68,7.56-20.08,7.38-30.81-.25-4.54-3.23-9.06-6.53-13.75-9.53-8.66-5.54-17.3-5.25-25.53.91-4.46,3.34-8.62,7.06-12.99,10.51-5.22,4.12-10.49,7.96-17.68,7.98-6.23.02-11.12-3.01-16.03-6.13-2.91-1.86-5.59-4.08-8.44-6.03-5.84-3.99-11.84-7.64-19.36-7.69l-.36-8.91c4.31,1.4,8.38,2.11,11.8,3.99,5.33,2.93,10.29,6.56,15.29,10.07,13.22,9.26,22.45,8.85,34.75-1.57,4.15-3.52,8.31-7.04,12.66-10.31,8.21-6.18,16.8-6.53,25.48-.98,4.25,2.72,8.44,5.55,12.5,8.56,12.43,9.19,22.29,9.08,34.65-.45,5.04-3.89,10.01-7.92,15.34-11.37,6.86-4.45,14.32-4.77,21.49-.8,6.14,3.4,11.9,7.48,17.9,11.15,11.46,7.01,19.7,6.64,30.42-1.39,4.67-3.5,9.12-7.31,13.81-10.78,9-6.66,18.28-6.97,27.71-.83,5.22,3.4,10.45,6.78,15.66,10.21,9.75,6.42,19.19,5.74,28.3-1.26,4.84-3.71,9.6-7.53,14.37-11.34,9.27-7.4,18.82-7.41,28.56-1.06,5.33,3.48,10.52,7.17,15.88,10.6,9.01,5.78,17.94,5.72,26.55-.89,5.26-4.04,10.32-8.34,15.64-12.3,10.12-7.52,17.45-7.79,28.14-1.1,4.16,2.61,8.12,5.53,12.2,8.28,14.42,9.71,22.93,9.08,35.96-2.33,4.28-3.75,8.78-7.3,13.45-10.55,7.26-5.06,14.92-4.93,22.37-.41,4.99,3.03,9.8,6.36,14.56,9.74,11.73,8.32,20.72,8.37,32.35-.12,4.93-3.6,9.69-7.43,14.63-11,8.43-6.1,17.22-6.2,26.03-.9,5.45,3.29,10.68,6.95,16.1,10.3,1.63,1,3.56,1.52,5.35,2.25l.36,8.79Z"/>
                <path class="cls-8" d="m1014.84,435.47c-6.41-3.98-12.83-7.96-19.24-11.95-11.34-7.06-19.34-6.89-30.1.82-3.56,2.55-6.93,5.36-10.39,8.03-14.17,10.91-23.12,10.86-37.53.02-3.81-2.87-7.8-5.54-11.91-7.96-7.37-4.35-14.97-4.58-22.08.42-5.74,4.03-11.08,8.64-16.62,12.96-11.22,8.76-19.42,9.12-31.2,1.28-3.76-2.5-7.39-5.2-11.09-7.8-12.56-8.8-22.02-8.37-33.86,1.4-4.7,3.88-9.4,7.81-14.39,11.31-7.42,5.22-15.35,5.45-23.14.85-5.59-3.31-10.87-7.14-16.33-10.66-12.08-7.8-20.58-7.39-31.95,1.5-4.6,3.6-9.05,7.4-13.75,10.87-8.36,6.16-17.08,6.48-25.9.92-5.5-3.47-10.91-7.07-16.35-10.62-9.67-6.32-19.14-6.11-28.35.92-4.54,3.46-8.95,7.1-13.52,10.51-11.03,8.23-18.57,8.61-30.28,1.46-4.75-2.9-9.35-6.07-13.99-9.15-10.28-6.83-20.18-5.97-29.78,1.39-4.53,3.47-8.93,7.13-13.58,10.42-10.68,7.56-20.09,7.38-30.81-.25-4.54-3.23-9.06-6.52-13.75-9.52-8.66-5.54-17.3-5.26-25.53.91-4.46,3.34-8.62,7.06-12.99,10.51-5.22,4.11-10.49,7.96-17.68,7.98-6.23.02-11.12-3.01-16.02-6.13-2.91-1.86-5.59-4.08-8.44-6.03-5.84-4-11.84-7.64-19.35-7.69l-.36-8.91c4.31,1.41,8.38,2.11,11.8,3.99,5.33,2.93,10.29,6.56,15.29,10.07,13.22,9.26,22.46,8.85,34.75-1.57,4.15-3.52,8.32-7.03,12.66-10.31,8.21-6.18,16.8-6.53,25.48-.98,4.25,2.72,8.44,5.55,12.49,8.55,12.44,9.19,22.28,9.08,34.65-.45,5.04-3.89,10.01-7.92,15.34-11.37,6.86-4.45,14.32-4.76,21.49-.79,6.14,3.4,11.9,7.48,17.9,11.15,11.45,7,19.7,6.64,30.42-1.4,4.67-3.5,9.12-7.3,13.81-10.78,9-6.66,18.28-6.97,27.71-.83,5.22,3.4,10.45,6.78,15.65,10.21,9.75,6.43,19.19,5.73,28.3-1.25,4.84-3.71,9.6-7.53,14.37-11.34,9.27-7.4,18.82-7.41,28.56-1.06,5.33,3.48,10.52,7.17,15.88,10.61,9.01,5.78,17.94,5.73,26.55-.89,5.26-4.04,10.32-8.35,15.64-12.3,10.14-7.53,17.44-7.8,28.14-1.11,4.16,2.6,8.12,5.53,12.2,8.28,14.42,9.71,22.92,9.08,35.96-2.32,4.29-3.75,8.78-7.3,13.45-10.55,7.26-5.06,14.92-4.93,22.37-.41,4.99,3.03,9.8,6.37,14.57,9.75,11.72,8.32,20.72,8.37,32.35-.12,4.93-3.6,9.69-7.43,14.63-11,8.43-6.1,17.22-6.2,26.02-.9,5.45,3.28,10.68,6.95,16.1,10.3,1.63,1,3.56,1.52,5.35,2.25l.36,8.79Z"/>
                <path class="cls-8" d="m1016.79,483.44c-6.41-3.98-12.83-7.96-19.24-11.95-11.49-7.15-19.32-6.9-30.39,1.1-3.44,2.49-6.74,5.16-10.11,7.75-14.03,10.8-23.16,10.82-37.23.28-3.93-2.94-8-5.73-12.22-8.22-7.37-4.36-14.96-4.58-22.08.42-5.74,4.03-11.08,8.64-16.62,12.96-11.38,8.87-19.45,9.15-31.52,1.04-3.64-2.44-7.17-5.04-10.77-7.56-12.55-8.8-22.03-8.37-33.86,1.4-4.71,3.88-9.41,7.8-14.39,11.31-7.42,5.23-15.35,5.44-23.14.85-5.59-3.3-10.87-7.13-16.33-10.66-12.07-7.8-20.59-7.39-31.96,1.5-4.6,3.6-9.05,7.4-13.75,10.87-8.36,6.16-17.08,6.48-25.9.92-5.5-3.47-10.91-7.07-16.35-10.62-9.67-6.32-19.14-6.11-28.35.92-4.53,3.46-8.95,7.09-13.52,10.5-11.04,8.23-18.57,8.61-30.28,1.47-4.76-2.9-9.35-6.07-13.99-9.16-10.28-6.83-20.18-5.97-29.78,1.39-4.53,3.47-8.93,7.13-13.58,10.42-10.68,7.56-20.09,7.38-30.81-.25-4.54-3.24-9.06-6.53-13.75-9.53-8.66-5.54-17.3-5.25-25.53.91-4.46,3.34-8.62,7.06-12.99,10.51-5.21,4.12-10.48,7.96-17.68,7.98-6.23.02-11.13-3-16.02-6.13-3.02-1.93-5.81-4.23-8.77-6.26-5.74-3.92-11.67-7.4-19.03-7.48l-.36-8.9c4.31,1.4,8.38,2.11,11.8,3.99,5.33,2.93,10.29,6.56,15.29,10.07,13.21,9.26,22.44,8.86,34.75-1.57,4.15-3.52,8.32-7.03,12.66-10.3,8.21-6.18,16.8-6.54,25.48-.99,4.25,2.72,8.43,5.56,12.49,8.55,12.46,9.2,22.3,9.08,34.65-.44,5.04-3.89,10.01-7.92,15.34-11.38,6.86-4.45,14.32-4.77,21.49-.79,6.14,3.4,11.9,7.48,17.9,11.15,11.46,7.01,19.71,6.64,30.42-1.39,4.67-3.5,9.12-7.3,13.81-10.78,9-6.66,18.28-6.98,27.71-.83,5.22,3.4,10.45,6.78,15.66,10.21,9.75,6.42,19.19,5.74,28.3-1.25,4.84-3.71,9.6-7.53,14.37-11.34,9.27-7.4,18.81-7.41,28.56-1.06,5.33,3.48,10.52,7.17,15.88,10.6,9.01,5.78,17.94,5.73,26.55-.89,5.26-4.04,10.32-8.35,15.64-12.3,10.13-7.53,17.43-7.8,28.14-1.1,4.16,2.6,8.12,5.53,12.2,8.28,14.43,9.71,22.92,9.08,35.96-2.32,4.29-3.75,8.78-7.3,13.45-10.55,7.26-5.06,14.92-4.93,22.37-.41,4.99,3.03,9.8,6.37,14.57,9.75,11.73,8.32,20.73,8.37,32.35-.12,4.93-3.6,9.69-7.43,14.63-11,8.43-6.1,17.22-6.2,26.03-.9,5.45,3.29,10.68,6.95,16.1,10.3,1.63,1,3.56,1.52,5.35,2.25l.36,8.79Z"/>
                <path class="cls-8" d="m1010.93,339.53c-6.41-3.98-12.83-7.96-19.24-11.95-11.5-7.15-19.29-6.9-30.39,1.1-3.44,2.48-6.74,5.16-10.1,7.75-14.17,10.9-23.14,10.85-37.53.01-3.81-2.87-7.8-5.54-11.91-7.96-7.37-4.35-14.96-4.57-22.08.42-5.74,4.03-11.08,8.64-16.62,12.96-11.24,8.76-19.42,9.11-31.21,1.27-3.76-2.5-7.39-5.2-11.09-7.8-12.55-8.8-22.02-8.37-33.86,1.41-4.71,3.88-9.4,7.81-14.39,11.31-7.42,5.22-15.35,5.45-23.14.84-5.59-3.31-10.87-7.13-16.33-10.66-12.08-7.8-20.58-7.39-31.95,1.51-4.6,3.6-9.05,7.4-13.75,10.87-8.36,6.16-17.08,6.49-25.9.91-5.6-3.54-11.11-7.24-16.69-10.83-9.27-5.96-18.47-5.87-27.4.64-4.82,3.52-9.35,7.43-14.14,11-11.04,8.23-18.56,8.61-30.28,1.46-4.75-2.9-9.34-6.08-13.98-9.16-10.28-6.81-20.18-5.97-29.78,1.4-4.53,3.47-8.92,7.13-13.58,10.42-10.68,7.56-20.09,7.38-30.81-.26-4.54-3.24-9.06-6.52-13.75-9.53-8.66-5.53-17.29-5.25-25.53.92-4.46,3.34-8.62,7.06-12.99,10.51-5.22,4.12-10.48,7.96-17.68,7.98-6.23.01-11.12-3.01-16.02-6.14-2.91-1.86-5.59-4.07-8.44-6.03-5.84-3.99-11.84-7.64-19.35-7.69l-.36-8.91c4.31,1.41,8.38,2.11,11.8,3.99,5.33,2.93,10.29,6.56,15.29,10.07,13.22,9.26,22.44,8.86,34.75-1.57,4.15-3.52,8.31-7.04,12.66-10.31,8.21-6.18,16.8-6.53,25.49-.98,4.25,2.72,8.44,5.55,12.49,8.55,12.44,9.19,22.28,9.08,34.65-.45,5.04-3.89,10.01-7.92,15.34-11.37,6.86-4.45,14.32-4.76,21.49-.79,6.14,3.4,11.9,7.48,17.9,11.15,11.45,7,19.7,6.64,30.42-1.39,4.68-3.5,9.12-7.31,13.81-10.78,9-6.66,18.28-6.97,27.71-.83,5.22,3.4,10.45,6.78,15.66,10.21,9.75,6.43,19.19,5.73,28.3-1.26,4.84-3.71,9.6-7.53,14.37-11.34,9.27-7.4,18.82-7.41,28.56-1.06,5.33,3.48,10.52,7.17,15.88,10.61,9.01,5.78,17.94,5.72,26.55-.89,5.26-4.04,10.32-8.35,15.64-12.3,10.12-7.52,17.45-7.79,28.14-1.1,4.16,2.61,8.12,5.53,12.2,8.28,14.42,9.71,22.92,9.08,35.96-2.33,4.29-3.75,8.78-7.3,13.45-10.56,7.26-5.06,14.92-4.93,22.37-.41,4.99,3.03,9.8,6.36,14.56,9.74,11.73,8.32,20.7,8.37,32.35-.12,4.93-3.59,9.69-7.43,14.63-11,8.43-6.1,17.22-6.2,26.03-.9,5.45,3.28,10.68,6.95,16.1,10.3,1.63,1,3.56,1.52,5.35,2.25l.36,8.79Z"/>
                <path class="cls-8" d="m1012.24,371.51c-6.41-3.98-12.83-7.96-19.24-11.95-11.49-7.15-19.32-6.9-30.39,1.1-3.44,2.49-6.74,5.16-10.1,7.75-14.17,10.9-23.14,10.85-37.53.01-3.81-2.87-7.8-5.54-11.91-7.97-7.37-4.35-14.96-4.58-22.08.42-5.74,4.03-11.08,8.64-16.62,12.96-11.27,8.78-19.39,9.13-31.2,1.28-3.76-2.5-7.39-5.2-11.09-7.8-12.56-8.81-22.01-8.37-33.86,1.4-4.71,3.88-9.4,7.81-14.39,11.31-7.42,5.22-15.35,5.45-23.14.85-5.59-3.31-10.87-7.14-16.33-10.66-12.08-7.8-20.59-7.39-31.96,1.5-4.6,3.6-9.05,7.41-13.75,10.87-8.36,6.16-17.08,6.49-25.9.92-5.49-3.47-10.91-7.07-16.35-10.62-9.67-6.32-19.14-6.11-28.35.93-4.53,3.46-8.94,7.1-13.52,10.5-11.05,8.23-18.56,8.61-30.28,1.46-4.75-2.9-9.34-6.07-13.99-9.15-10.28-6.82-20.18-5.98-29.78,1.39-4.53,3.47-8.92,7.13-13.58,10.42-10.69,7.56-20.08,7.38-30.81-.25-4.54-3.23-9.06-6.52-13.75-9.53-8.66-5.54-17.3-5.25-25.53.91-4.46,3.34-8.62,7.06-13,10.52-5.21,4.12-10.48,7.96-17.68,7.98-6.23.02-11.12-3.01-16.02-6.13-2.91-1.86-5.59-4.08-8.44-6.03-5.84-3.99-11.84-7.64-19.36-7.69l-.36-8.91c4.31,1.41,8.38,2.11,11.8,3.99,5.33,2.93,10.29,6.56,15.29,10.07,13.21,9.26,22.45,8.85,34.75-1.57,4.15-3.52,8.32-7.03,12.66-10.3,8.21-6.18,16.81-6.53,25.49-.98,4.25,2.72,8.44,5.55,12.5,8.55,12.44,9.19,22.29,9.08,34.64-.45,5.04-3.89,10.01-7.92,15.34-11.37,6.86-4.45,14.32-4.77,21.49-.79,6.14,3.4,11.9,7.48,17.9,11.15,11.46,7.01,19.7,6.64,30.42-1.39,4.67-3.5,9.12-7.3,13.81-10.78,9-6.66,18.28-6.98,27.71-.83,5.22,3.4,10.45,6.78,15.66,10.21,9.75,6.43,19.19,5.73,28.3-1.26,4.84-3.71,9.6-7.53,14.37-11.34,9.27-7.41,18.82-7.41,28.56-1.06,5.33,3.48,10.53,7.17,15.88,10.61,9.02,5.78,17.94,5.72,26.55-.89,5.26-4.04,10.32-8.35,15.64-12.3,10.12-7.52,17.45-7.79,28.14-1.1,4.16,2.61,8.12,5.53,12.2,8.28,14.41,9.71,22.93,9.08,35.96-2.33,4.29-3.75,8.78-7.3,13.45-10.55,7.26-5.06,14.91-4.93,22.37-.41,4.99,3.02,9.8,6.36,14.56,9.74,11.74,8.32,20.73,8.37,32.35-.12,4.93-3.6,9.69-7.43,14.63-11,8.43-6.1,17.22-6.2,26.02-.9,5.46,3.28,10.68,6.95,16.1,10.3,1.63,1,3.56,1.52,5.35,2.25l.36,8.79Z"/>
                <path class="cls-8" d="m1012.89,387.5c-6.41-3.98-12.83-7.96-19.24-11.95-11.49-7.15-19.3-6.9-30.39,1.1-3.44,2.48-6.74,5.16-10.1,7.75-14.18,10.91-23.1,10.86-37.53.01-3.81-2.87-7.8-5.54-11.91-7.97-7.37-4.34-14.97-4.58-22.08.42-5.74,4.03-11.08,8.64-16.62,12.96-11.24,8.77-19.42,9.12-31.2,1.28-3.76-2.5-7.39-5.21-11.09-7.8-12.55-8.8-22.03-8.36-33.86,1.4-4.7,3.88-9.4,7.81-14.39,11.31-7.42,5.22-15.35,5.45-23.14.84-5.59-3.31-10.87-7.14-16.33-10.66-12.09-7.8-20.59-7.39-31.96,1.5-4.6,3.6-9.05,7.41-13.75,10.87-8.36,6.16-17.08,6.49-25.9.92-5.6-3.54-11.11-7.25-16.69-10.84-9.27-5.97-18.47-5.87-27.39.64-4.82,3.52-9.36,7.43-14.14,11-11.04,8.24-18.56,8.62-30.28,1.47-4.75-2.9-9.34-6.07-13.99-9.15-10.28-6.82-20.18-5.98-29.78,1.39-4.53,3.47-8.92,7.13-13.58,10.42-10.68,7.56-20.08,7.38-30.8-.25-4.54-3.23-9.06-6.52-13.75-9.53-8.66-5.54-17.3-5.25-25.53.91-4.46,3.34-8.62,7.06-13,10.52-5.21,4.12-10.48,7.96-17.68,7.98-6.23.02-11.12-3.01-16.02-6.13-2.91-1.86-5.58-4.09-8.44-6.02-5.85-3.96-11.8-7.73-19.35-7.64l-.37-8.97c4.31,1.4,8.38,2.11,11.8,3.99,5.33,2.93,10.29,6.56,15.29,10.07,13.22,9.26,22.44,8.86,34.75-1.57,4.15-3.52,8.32-7.03,12.66-10.3,8.21-6.18,16.8-6.54,25.48-.99,4.25,2.72,8.44,5.56,12.5,8.55,12.45,9.2,22.29,9.09,34.64-.44,5.04-3.89,10.01-7.92,15.34-11.37,6.86-4.45,14.32-4.77,21.49-.79,6.14,3.4,11.9,7.48,17.9,11.15,11.46,7,19.7,6.64,30.42-1.39,4.67-3.5,9.12-7.3,13.81-10.78,9-6.66,18.28-6.97,27.71-.83,5.22,3.4,10.45,6.78,15.65,10.21,9.75,6.43,19.19,5.74,28.3-1.25,4.84-3.71,9.6-7.54,14.37-11.34,9.27-7.4,18.82-7.41,28.57-1.06,5.33,3.48,10.52,7.17,15.88,10.6,9.01,5.78,17.94,5.72,26.55-.89,5.26-4.04,10.32-8.35,15.64-12.3,10.12-7.52,17.47-7.78,28.14-1.1,4.16,2.61,8.12,5.53,12.2,8.28,14.42,9.71,22.93,9.08,35.96-2.33,4.29-3.75,8.78-7.3,13.45-10.55,7.26-5.06,14.92-4.93,22.38-.41,4.99,3.03,9.8,6.37,14.56,9.75,11.73,8.32,20.7,8.37,32.35-.12,4.93-3.59,9.69-7.43,14.63-11,8.43-6.1,17.22-6.2,26.02-.9,5.45,3.29,10.68,6.95,16.1,10.3,1.63,1,3.56,1.52,5.35,2.25l.36,8.79Z"/>
                <path class="cls-8" d="m1013.54,403.49c-6.41-3.98-12.83-7.96-19.24-11.95-11.49-7.15-19.29-6.9-30.39,1.1-3.44,2.48-6.74,5.16-10.1,7.75-14.17,10.91-23.12,10.86-37.53.02-3.81-2.87-7.8-5.54-11.91-7.96-7.37-4.35-14.96-4.58-22.08.42-5.74,4.03-11.08,8.64-16.62,12.96-11.25,8.77-19.41,9.13-31.2,1.28-3.76-2.5-7.39-5.21-11.09-7.8-12.55-8.81-22.01-8.37-33.86,1.4-4.7,3.88-9.4,7.8-14.39,11.31-7.42,5.22-15.35,5.45-23.14.84-5.59-3.31-10.87-7.14-16.33-10.66-12.1-7.8-20.59-7.39-31.96,1.5-4.6,3.6-9.05,7.4-13.75,10.87-8.36,6.16-17.08,6.48-25.9.92-5.5-3.47-10.91-7.07-16.35-10.62-9.67-6.32-19.14-6.11-28.35.93-4.53,3.46-8.95,7.09-13.52,10.5-11.04,8.23-18.56,8.61-30.28,1.46-4.75-2.9-9.34-6.07-13.99-9.15-10.28-6.82-20.18-5.98-29.78,1.39-4.53,3.47-8.92,7.13-13.58,10.42-10.69,7.56-20.09,7.38-30.81-.25-4.54-3.24-9.06-6.52-13.75-9.53-8.66-5.54-17.3-5.25-25.53.91-4.46,3.34-8.62,7.06-13,10.52-5.21,4.12-10.48,7.96-17.68,7.98-6.23.02-11.12-3.01-16.02-6.13-2.91-1.85-5.59-4.08-8.44-6.03-5.84-4-11.84-7.64-19.36-7.7l-.36-8.91c4.31,1.41,8.38,2.11,11.8,3.99,5.33,2.93,10.29,6.56,15.29,10.07,13.22,9.26,22.44,8.86,34.75-1.57,4.15-3.52,8.32-7.03,12.66-10.3,8.21-6.18,16.8-6.54,25.48-.99,4.25,2.72,8.44,5.55,12.5,8.55,12.43,9.19,22.27,9.08,34.65-.45,5.04-3.88,10.01-7.92,15.34-11.37,6.86-4.45,14.32-4.77,21.49-.79,6.14,3.4,11.9,7.48,17.9,11.15,11.46,7,19.71,6.63,30.42-1.4,4.67-3.5,9.12-7.3,13.81-10.78,9-6.66,18.28-6.97,27.71-.83,5.22,3.4,10.45,6.78,15.65,10.21,9.75,6.43,19.19,5.73,28.31-1.26,4.84-3.71,9.47-7.71,14.4-11.31,10.21-7.46,17.8-7.75,28.52-1.07,5.4,3.36,10.54,7.15,15.89,10.59,9.01,5.78,17.94,5.72,26.55-.89,5.26-4.04,10.32-8.34,15.64-12.3,10.12-7.52,17.44-7.79,28.14-1.1,4.16,2.61,8.12,5.54,12.2,8.28,14.43,9.71,22.94,9.07,35.97-2.33,4.28-3.75,8.78-7.3,13.45-10.55,7.26-5.06,14.91-4.93,22.37-.41,4.99,3.03,9.8,6.36,14.56,9.74,11.73,8.32,20.72,8.37,32.35-.12,4.93-3.6,9.69-7.43,14.63-11,8.43-6.1,17.22-6.2,26.03-.9,5.46,3.28,10.68,6.95,16.1,10.3,1.63,1,3.56,1.52,5.35,2.25l.36,8.79Z"/>
                <path class="cls-8" d="m1016.14,467.45c-6.41-3.98-12.83-7.96-19.24-11.95-11.5-7.15-19.29-6.9-30.39,1.1-3.44,2.48-6.74,5.16-10.1,7.75-14.17,10.9-23.14,10.85-37.53,0-3.81-2.87-7.8-5.54-11.91-7.96-7.37-4.35-14.96-4.57-22.08.42-5.74,4.03-11.08,8.64-16.62,12.96-11.24,8.76-19.43,9.11-31.21,1.27-3.76-2.5-7.39-5.21-11.09-7.8-12.55-8.8-22.02-8.37-33.86,1.41-4.71,3.88-9.4,7.81-14.39,11.31-7.42,5.22-15.35,5.45-23.14.84-5.59-3.31-10.87-7.13-16.33-10.66-12.08-7.8-20.58-7.39-31.95,1.51-4.6,3.6-9.05,7.4-13.75,10.87-8.36,6.16-17.08,6.49-25.9.91-5.6-3.55-11.11-7.24-16.69-10.83-9.27-5.96-18.47-5.87-27.4.65-4.82,3.52-9.35,7.43-14.14,11-11.04,8.23-18.56,8.61-30.28,1.46-4.75-2.9-9.34-6.08-13.98-9.16-10.28-6.81-20.18-5.97-29.78,1.39-4.53,3.48-8.92,7.13-13.58,10.42-10.68,7.56-20.09,7.38-30.81-.26-4.54-3.24-9.06-6.53-13.75-9.53-8.66-5.54-17.29-5.25-25.53.92-4.46,3.34-8.62,7.06-12.99,10.51-5.22,4.12-10.48,7.96-17.68,7.98-6.23.02-11.12-3.01-16.02-6.13-2.91-1.86-5.59-4.08-8.44-6.03-5.84-3.99-11.84-7.64-19.35-7.69l-.36-8.91c4.31,1.41,8.38,2.11,11.8,3.99,5.33,2.93,10.29,6.56,15.29,10.07,13.22,9.26,22.44,8.86,34.75-1.57,4.15-3.52,8.32-7.03,12.66-10.3,8.21-6.18,16.8-6.53,25.49-.98,4.25,2.72,8.44,5.55,12.49,8.55,12.44,9.19,22.28,9.08,34.65-.45,5.04-3.89,10.01-7.92,15.34-11.38,6.86-4.45,14.32-4.76,21.49-.79,6.14,3.4,11.9,7.48,17.9,11.15,11.45,7.01,19.7,6.64,30.42-1.39,4.67-3.5,9.12-7.31,13.81-10.78,9-6.66,18.28-6.97,27.71-.83,5.22,3.4,10.45,6.78,15.66,10.21,9.75,6.43,19.19,5.73,28.3-1.26,4.84-3.71,9.6-7.53,14.37-11.34,9.27-7.4,18.82-7.41,28.56-1.06,5.33,3.48,10.52,7.17,15.88,10.61,9.01,5.78,17.94,5.72,26.55-.89,5.26-4.04,10.32-8.35,15.64-12.3,10.12-7.52,17.45-7.79,28.14-1.1,4.16,2.6,8.12,5.53,12.2,8.28,14.42,9.71,22.92,9.08,35.96-2.33,4.29-3.75,8.78-7.3,13.45-10.55,7.26-5.06,14.92-4.93,22.37-.41,4.99,3.03,9.8,6.36,14.57,9.74,11.73,8.32,20.7,8.37,32.35-.12,4.93-3.59,9.69-7.43,14.63-11,8.43-6.1,17.22-6.2,26.03-.9,5.45,3.28,10.68,6.95,16.1,10.3,1.63,1,3.56,1.52,5.35,2.25l.36,8.79Z"/>
                <path class="cls-8" d="m1017.44,499.43c-6.41-3.98-12.83-7.96-19.24-11.95-11.49-7.15-19.32-6.9-30.39,1.1-3.44,2.49-6.74,5.16-10.1,7.75-14.17,10.9-23.14,10.85-37.53.01-3.81-2.87-7.8-5.54-11.91-7.97-7.37-4.35-14.96-4.58-22.08.42-5.74,4.03-11.08,8.64-16.62,12.96-11.38,8.87-19.45,9.15-31.52,1.04-3.64-2.45-7.17-5.04-10.77-7.56-12.56-8.81-22.01-8.38-33.86,1.4-4.71,3.88-9.41,7.8-14.39,11.31-7.42,5.23-15.35,5.45-23.14.85-5.59-3.31-10.87-7.13-16.33-10.66-12.08-7.8-20.59-7.39-31.96,1.5-4.6,3.6-9.05,7.4-13.75,10.87-8.36,6.16-17.08,6.49-25.9.92-5.49-3.47-10.91-7.07-16.35-10.62-9.67-6.32-19.14-6.11-28.35.92-4.54,3.46-8.95,7.1-13.52,10.5-11.05,8.23-18.56,8.61-30.28,1.47-4.76-2.9-9.34-6.07-13.99-9.15-10.28-6.82-20.18-5.99-29.78,1.38-4.53,3.47-8.92,7.13-13.58,10.42-10.7,7.56-20.09,7.38-30.81-.25-4.54-3.24-9.06-6.52-13.75-9.53-8.66-5.54-17.3-5.26-25.53.91-4.46,3.34-8.62,7.06-13,10.52-5.21,4.12-10.48,7.96-17.68,7.98-6.23.02-11.12-3.01-16.02-6.13-2.91-1.86-5.59-4.08-8.44-6.03-5.84-3.99-11.84-7.65-19.36-7.69l-.36-8.91c4.31,1.41,8.38,2.11,11.79,3.99,5.33,2.93,10.3,6.56,15.29,10.07,13.2,9.26,22.45,8.85,34.76-1.57,4.15-3.52,8.31-7.04,12.66-10.31,8.21-6.18,16.8-6.53,25.48-.98,4.25,2.72,8.44,5.56,12.5,8.56,12.44,9.19,22.3,9.08,34.65-.45,5.04-3.89,10.01-7.92,15.34-11.37,6.86-4.45,14.32-4.77,21.49-.79,6.14,3.4,11.9,7.48,17.9,11.15,11.46,7.01,19.71,6.64,30.42-1.39,4.67-3.5,9.12-7.31,13.81-10.78,9-6.66,18.28-6.98,27.71-.83,5.22,3.4,10.45,6.78,15.66,10.21,9.75,6.43,19.19,5.73,28.3-1.26,4.84-3.71,9.6-7.53,14.37-11.34,9.27-7.41,18.82-7.41,28.56-1.06,5.33,3.48,10.52,7.17,15.88,10.6,9.01,5.78,17.94,5.72,26.55-.89,5.26-4.04,10.32-8.35,15.64-12.3,10.12-7.52,17.44-7.79,28.14-1.1,4.16,2.61,8.12,5.53,12.2,8.28,14.41,9.71,22.93,9.08,35.96-2.33,4.28-3.75,8.78-7.3,13.45-10.55,7.26-5.06,14.91-4.93,22.37-.41,4.99,3.03,9.8,6.36,14.56,9.74,11.73,8.32,20.73,8.37,32.35-.12,4.93-3.6,9.69-7.43,14.63-11,8.43-6.1,17.22-6.2,26.03-.9,5.45,3.28,10.68,6.95,16.1,10.3,1.63,1,3.56,1.52,5.35,2.25l.36,8.79Z"/>
                <path class="cls-8" d="m1015.49,451.46c-6.41-3.98-12.83-7.96-19.24-11.95-11.49-7.15-19.29-6.9-30.39,1.1-3.44,2.48-6.74,5.16-10.1,7.75-14.17,10.9-23.14,10.85-37.53.02-3.81-2.87-7.8-5.54-11.91-7.97-7.37-4.35-14.96-4.58-22.08.42-5.74,4.03-11.08,8.64-16.62,12.96-11.24,8.77-19.41,9.12-31.2,1.28-3.76-2.5-7.39-5.2-11.09-7.8-12.56-8.81-21.99-8.38-33.86,1.4-4.71,3.88-9.41,7.81-14.39,11.31-7.42,5.22-15.35,5.45-23.14.85-5.59-3.31-10.87-7.14-16.33-10.66-12.09-7.8-20.58-7.39-31.96,1.5-4.6,3.6-9.05,7.4-13.75,10.87-8.36,6.16-17.08,6.48-25.9.91-5.49-3.47-10.91-7.07-16.35-10.62-9.67-6.32-19.14-6.11-28.35.92-4.53,3.46-8.94,7.1-13.52,10.51-11.04,8.23-18.57,8.61-30.28,1.46-4.75-2.9-9.34-6.07-13.99-9.16-10.28-6.81-20.18-5.98-29.78,1.39-4.53,3.47-8.92,7.13-13.58,10.42-10.68,7.56-20.09,7.38-30.81-.25-4.54-3.24-9.06-6.52-13.75-9.53-8.66-5.54-17.3-5.25-25.53.91-4.46,3.34-8.62,7.06-12.99,10.51-5.22,4.12-10.49,7.96-17.68,7.98-6.23.02-11.12-3.01-16.02-6.13-2.91-1.86-5.58-4.09-8.44-6.03-5.85-3.96-11.8-7.73-19.35-7.63l-.37-8.97c4.31,1.4,8.38,2.11,11.8,3.99,5.33,2.93,10.29,6.56,15.29,10.07,13.23,9.27,22.45,8.86,34.75-1.57,4.15-3.52,8.32-7.03,12.66-10.3,8.21-6.18,16.8-6.53,25.48-.99,4.25,2.72,8.44,5.55,12.5,8.55,12.43,9.19,22.29,9.08,34.64-.44,5.04-3.89,10.01-7.92,15.34-11.37,6.86-4.45,14.32-4.77,21.49-.79,6.14,3.4,11.9,7.48,17.9,11.15,11.45,7.01,19.71,6.64,30.42-1.39,4.67-3.5,9.12-7.3,13.81-10.78,9-6.67,18.28-6.97,27.71-.83,5.22,3.4,10.45,6.78,15.66,10.21,9.75,6.43,19.19,5.74,28.3-1.25,4.84-3.71,9.47-7.71,14.39-11.31,10.21-7.46,17.8-7.75,28.52-1.08,5.4,3.36,10.54,7.15,15.9,10.58,9.01,5.78,17.94,5.72,26.55-.89,5.26-4.04,10.32-8.34,15.64-12.3,10.11-7.52,17.46-7.79,28.14-1.1,4.16,2.61,8.12,5.54,12.2,8.28,14.43,9.71,22.93,9.08,35.96-2.33,4.29-3.75,8.78-7.3,13.45-10.55,7.26-5.06,14.91-4.93,22.37-.41,4.99,3.02,9.8,6.36,14.56,9.74,11.73,8.32,20.71,8.37,32.35-.12,4.93-3.6,9.69-7.43,14.63-11,8.43-6.1,17.22-6.2,26.03-.9,5.45,3.29,10.68,6.95,16.1,10.3,1.63,1,3.56,1.52,5.35,2.25l.36,8.79Z"/>
                <path class="cls-8" d="m1010.28,323.54c-6.41-3.98-12.83-7.96-19.24-11.95-11.49-7.15-19.29-6.9-30.39,1.1-3.44,2.48-6.74,5.16-10.1,7.75-14.17,10.9-23.14,10.85-37.53.02-3.81-2.87-7.8-5.54-11.91-7.97-7.37-4.35-14.96-4.58-22.08.42-5.74,4.03-11.08,8.64-16.62,12.96-11.24,8.77-19.41,9.13-31.21,1.28-3.76-2.5-7.39-5.21-11.09-7.8-12.56-8.81-21.99-8.38-33.86,1.4-4.71,3.88-9.41,7.81-14.39,11.31-7.42,5.22-15.35,5.45-23.14.85-5.59-3.31-10.87-7.14-16.33-10.66-12.08-7.8-20.58-7.39-31.96,1.5-4.6,3.6-9.05,7.4-13.75,10.87-8.36,6.16-17.08,6.48-25.9.91-5.49-3.47-10.91-7.07-16.35-10.62-9.67-6.32-19.14-6.11-28.35.92-4.54,3.46-8.94,7.1-13.52,10.51-11.05,8.23-18.57,8.61-30.28,1.46-4.75-2.9-9.34-6.07-13.99-9.16-10.28-6.81-20.18-5.98-29.78,1.39-4.53,3.47-8.92,7.13-13.58,10.42-10.68,7.56-20.09,7.38-30.81-.25-4.54-3.24-9.06-6.52-13.75-9.53-8.66-5.54-17.3-5.25-25.53.91-4.46,3.34-8.62,7.06-13,10.52-5.21,4.12-10.48,7.96-17.68,7.98-6.23.02-11.12-3.01-16.02-6.13-2.91-1.86-5.59-4.08-8.44-6.03-5.84-3.99-11.84-7.65-19.35-7.69l-.36-8.91c4.31,1.4,8.38,2.11,11.8,3.99,5.33,2.93,10.29,6.57,15.29,10.07,13.23,9.27,22.45,8.86,34.76-1.57,4.15-3.52,8.32-7.03,12.66-10.3,8.21-6.18,16.8-6.53,25.48-.99,4.25,2.72,8.44,5.55,12.5,8.55,12.43,9.19,22.29,9.08,34.64-.44,5.04-3.89,10.01-7.92,15.34-11.38,6.86-4.45,14.32-4.77,21.49-.79,6.14,3.4,11.9,7.48,17.9,11.15,11.45,7.01,19.7,6.64,30.42-1.39,4.67-3.5,9.12-7.3,13.81-10.78,9-6.66,18.28-6.97,27.71-.83,5.22,3.4,10.45,6.78,15.66,10.21,9.75,6.43,19.19,5.74,28.3-1.25,4.84-3.71,9.47-7.71,14.4-11.31,10.21-7.46,17.8-7.75,28.52-1.07,5.4,3.36,10.54,7.15,15.89,10.58,9.01,5.78,17.94,5.72,26.55-.89,5.26-4.04,10.32-8.34,15.64-12.3,10.11-7.52,17.46-7.79,28.14-1.1,4.16,2.61,8.12,5.54,12.2,8.28,14.43,9.71,22.93,9.08,35.97-2.33,4.28-3.75,8.78-7.3,13.45-10.55,7.26-5.06,14.92-4.93,22.37-.41,4.99,3.02,9.8,6.36,14.57,9.74,11.73,8.32,20.7,8.37,32.35-.12,4.93-3.6,9.69-7.43,14.63-11,8.43-6.1,17.22-6.2,26.03-.9,5.45,3.28,10.68,6.95,16.1,10.3,1.63,1,3.56,1.52,5.35,2.25l.36,8.79Z"/>
              </g>
            </g>
          </g>
          <rect class="cls-9" x="565.34" y="352.51" width="22.08" height="64.44"/>
          <rect class="cls-9" x="541.34" y="370.8" width="18" height="54.96"/>
          <rect class="cls-9" x="468.38" y="393.13" width="18" height="54.96"/>
        </g>
      </g>
    </g>
  </g>
</svg>