<?xml version="1.0" encoding="UTF-8"?>
<svg id="Layer_2" data-name="Layer 2" xmlns="http://www.w3.org/2000/svg" xmlns:xlink="http://www.w3.org/1999/xlink" viewBox="0 0 375 250">
  <defs>
    <style>
      .cls-1 {
        clip-path: url(#clippath-4);
      }

      .cls-1, .cls-2, .cls-3, .cls-4, .cls-5, .cls-6, .cls-7, .cls-8 {
        fill: none;
      }

      .cls-2 {
        clip-path: url(#clippath-2);
      }

      .cls-3 {
        clip-path: url(#clippath-6);
      }

      .cls-9 {
        fill: #d65627;
      }

      .cls-10 {
        fill: #14ae91;
      }

      .cls-11 {
        fill: #48a474;
      }

      .cls-12 {
        fill: #fcee10;
      }

      .cls-13 {
        fill: #fdb515;
      }

      .cls-4 {
        clip-path: url(#clippath-5);
      }

      .cls-5 {
        clip-path: url(#clippath-3);
      }

      .cls-14 {
        font-size: 41.35px;
      }

      .cls-14, .cls-15 {
        fill: #fff;
        font-family: Camel-Bold, Camel;
        font-weight: 700;
      }

      .cls-7 {
        clip-path: url(#clippath);
      }

      .cls-8 {
        clip-path: url(#clippath-1);
      }

      .cls-15 {
        font-size: 14.75px;
      }
    </style>
    <clipPath id="clippath">
      <rect class="cls-6" width="375" height="250"/>
    </clipPath>
    <clipPath id="clippath-1">
      <path class="cls-6" d="m339.43,13.09c-.34.74.24,6.08-.69,12.5,0,0-4.03-6.02-12.57-6.75l4.29,7.77s-5.78-3-15.31,2.29c0,0,10.29.23,15.07,3.23,0,0-6-.49-15.97,7.75v.04c.93-.29,9.69-3,13.97-2.77,0,0-9.03,4.54-11.52,11.32l11.29-3.79s-4.51,4.03-5,11.31c0,0,11.51-4.85,19.09-12.97l.09,38.39h2.4l-.09-38.4c7.61,8.09,19.15,12.89,19.15,12.89-.52-7.28-5.05-11.29-5.05-11.29l11.31,3.74c-2.53-6.77-11.57-11.27-11.57-11.27,4.52-.26,14.06,2.73,14.06,2.73-10.06-8.26-16.08-7.75-16.08-7.75,4.76-3.02,15.06-3.3,15.06-3.3-9.55-5.25-15.32-2.23-15.32-2.23l4.25-7.79c-8.53.77-12.54,6.81-12.54,6.81-4.23-5.84-7.97-11.74-8.31-12.47Zm0,0l1.16-.34-1.16.34Z"/>
    </clipPath>
    <clipPath id="clippath-2">
      <rect class="cls-6" x="-1" y="26.29" width="211.5" height="225.03"/>
    </clipPath>
    <clipPath id="clippath-3">
      <polygon class="cls-6" points="203.38 206.22 203.38 209.77 187.5 209.77 187.5 223.44 174 223.44 174 221.27 171.9 221.27 171.9 219.41 164.42 219.41 164.42 214.87 160.06 214.87 160.06 216.53 155.63 216.53 155.63 218.24 141.17 218.24 141.17 210.97 127.86 210.97 127.86 213.27 115.98 213.27 115.98 209.81 108.15 209.81 108.15 209.59 106.07 209.59 106.07 200.59 93.78 200.59 93.78 209.59 59.57 209.58 59.68 217.56 22.34 217.56 22.23 209.57 9.96 209.56 9.96 200.32 -7.78 200.32 -7.78 209.77 -16.46 209.77 -16.46 223.44 -29.97 223.44 -29.97 221.27 -31.42 221.27 -31.42 270.12 304.92 270.12 304.92 209.59 246.99 209.58 247.11 218.87 225.58 218.87 225.48 209.57 213.92 209.56 213.92 206.22 203.38 206.22"/>
    </clipPath>
    <clipPath id="clippath-4">
      <polygon class="cls-6" points="-5.36 271.8 305.62 264.52 305.62 73.12 -.64 73.12 -5.36 271.8"/>
    </clipPath>
    <clipPath id="clippath-5">
      <path class="cls-6" d="m307.78,189.37l-68.42.3c-33.69-.35-52.16,52.8-53.29,64.19h144.41l51.29.58v-116.97s-5.88-.51-5.88-.51c-3.51,61.43-66,52.23-66,52.23m66-52.23c.08-1.73.12-3.51.12-5.34l-.12,5.34Z"/>
    </clipPath>
    <clipPath id="clippath-6">
      <rect class="cls-6" x="-328.82" y="131.44" width="1135.38" height="1135.38"/>
    </clipPath>
  </defs>
  <g id="HEADERS">
    <g class="cls-7">
      <rect class="cls-12" x="0" y="28.41" width="375" height="221.18"/>
      <rect class="cls-12" x="-15.39" y="-.94" width="403.78" height="250"/>
      <g class="cls-8">
        <g>
          <polygon class="cls-11" points="344.56 79.84 342.16 79.9 342.16 80.81 344.56 80.75 344.56 79.84"/>
          <polygon class="cls-11" points="344.27 78.13 342.15 78.18 342.15 79.09 344.55 79.03 344.55 78.95 344.27 78.13 344.27 78.13"/>
          <polygon class="cls-11" points="344.55 77.91 344.27 78.13 344.27 78.13 344.55 78.95 344.55 77.91"/>
          <path class="cls-11" d="m343.67,76.43l-1.52.04v.91s1.83-.04,1.83-.04l-.32-.9h0Zm.32.9h0s0,0,0,0h0Z"/>
          <polygon class="cls-11" points="344.55 75.75 343.67 76.43 343.66 76.43 343.98 77.33 343.98 77.33 343.98 77.33 343.99 77.33 344.55 76.89 344.55 75.75"/>
          <path class="cls-11" d="m343.07,74.72l-.92.02v.91s1.24-.03,1.24-.03l-.32-.9h0Zm.32.9h0s0,0,0,0h0Z"/>
          <polygon class="cls-11" points="344.54 73.59 343.07 74.72 343.06 74.72 343.38 75.62 343.38 75.62 343.38 75.62 343.39 75.62 344.54 74.73 344.54 73.59"/>
          <path class="cls-11" d="m342.46,73.02h-.32s0,.92,0,.92l.64-.02-.32-.9h0Zm.32.9h0s0,0,0,0h0Z"/>
          <polygon class="cls-11" points="344.54 71.43 342.46 73.02 342.46 73.02 342.78 73.92 342.78 73.92 342.78 73.92 342.78 73.92 344.54 72.57 344.54 71.43"/>
          <path class="cls-11" d="m342.14,72.1v.11s.04,0,.04,0l-.04-.11Zm.04.11h0s0,0,0,0h0Z"/>
          <polygon class="cls-11" points="344.53 69.26 342.14 71.1 342.14 72.1 342.18 72.21 342.18 72.21 342.18 72.21 342.18 72.21 344.53 70.41 344.53 69.26"/>
          <polygon class="cls-11" points="344.53 67.1 342.13 68.94 342.13 70.08 344.53 68.24 344.53 67.1"/>
          <polygon class="cls-11" points="344.52 64.94 342.13 66.77 342.13 67.92 344.53 66.08 344.52 64.94"/>
          <polygon class="cls-11" points="344.41 62.86 342.12 64.61 342.12 65.76 344.52 63.92 344.52 63.17 344.41 62.86"/>
          <polygon class="cls-11" points="344.52 62.86 344.41 62.86 344.52 63.17 344.52 62.86"/>
          <polygon class="cls-11" points="343.84 61.25 342.12 62.57 342.12 63.72 344.16 62.15 343.84 61.25"/>
          <polygon class="cls-11" points="344.51 61.23 343.84 61.25 344.16 62.15 344.52 62.14 344.51 61.23"/>
          <polygon class="cls-11" points="343.24 59.54 342.11 60.41 342.11 61.55 343.56 60.45 343.24 59.54"/>
          <polygon class="cls-11" points="344.51 59.51 343.24 59.54 343.56 60.45 344.51 60.42 344.51 59.51"/>
          <polygon class="cls-11" points="342.64 57.84 342.11 58.25 342.11 59.39 342.96 58.74 342.64 57.84"/>
          <polygon class="cls-11" points="344.51 57.79 342.64 57.84 342.96 58.74 344.51 58.7 344.51 57.79"/>
          <polygon class="cls-11" points="342.1 56.32 342.11 57.23 342.36 57.04 342.1 56.32"/>
          <polygon class="cls-11" points="344.5 56.07 342.1 56.13 342.1 56.32 342.36 57.04 344.5 56.98 344.5 56.07"/>
          <polygon class="cls-11" points="344.5 54.36 342.1 54.41 342.1 55.32 344.5 55.26 344.5 54.36"/>
          <polygon class="cls-11" points="344.5 52.64 342.1 52.69 342.1 53.6 344.5 53.54 344.5 52.64"/>
          <polygon class="cls-11" points="344.49 50.92 342.09 50.97 342.09 51.88 344.49 51.82 344.49 50.92"/>
          <polygon class="cls-11" points="344.49 49.2 342.09 49.25 342.09 50.16 344.49 50.1 344.49 49.2"/>
          <path class="cls-11" d="m324.85,54.41l-1.69.04c-.04.3-.08.6-.11.91l1.42-.03c.19-.09.39-.19.61-.29l-.22-.62h0Z"/>
          <path class="cls-11" d="m329.2,51.08l-4.35,3.34h0s.22.63.22.63c.4-.2.85-.42,1.33-.67l3.12-2.39-.32-.9Z"/>
          <path class="cls-11" d="m332.25,51l-3.05.07.32.9,1.21-.03c.5-.3,1-.62,1.52-.95"/>
          <polygon class="cls-11" points="344.48 47.48 342.08 47.53 342.09 48.44 344.49 48.39 344.48 47.48"/>
          <path class="cls-11" d="m324.25,52.7l-.74.02c-.08.3-.14.6-.21.91l1.26-.03-.32-.9h0Zm.32.9h0s0,0,0,0h0Z"/>
          <polygon class="cls-11" points="328.6 49.37 324.25 52.7 324.24 52.7 324.56 53.6 324.56 53.61 324.56 53.6 324.57 53.6 328.91 50.27 328.6 49.37"/>
          <path class="cls-11" d="m334.08,49.24l-5.48.13.32.9,4.62-.11c.23-.16.47-.32.7-.48l-.16-.44h0Z"/>
          <path class="cls-11" d="m338.43,45.9l-4.35,3.34h0s.16.44.16.44c1.45-1,2.93-2.12,4.35-3.33l-.16-.45Z"/>
          <path class="cls-11" d="m343.91,45.77l-1.83.04v.91s2.15-.05,2.15-.05l-.32-.9Zm-4.79.12l-.69.02.16.45c.18-.15.36-.31.54-.46"/>
          <path class="cls-11" d="m323.84,51.56c-.04.11-.07.23-.11.35h.23s-.12-.35-.12-.35Zm.13.34h0s0,0,0,0h0Z"/>
          <path class="cls-11" d="m327.99,47.66l-3.81,2.92c-.12.31-.24.64-.35.98l.12.34h0s0,0,0,0h0s4.35-3.34,4.35-3.34l-.32-.9Z"/>
          <path class="cls-11" d="m333.48,47.53l-5.48.13.32.9,5.48-.13-.32-.9h0Zm.32.9h0s0,0,0,0h0Z"/>
          <polygon class="cls-11" points="337.83 44.19 333.48 47.53 333.47 47.53 333.79 48.43 333.79 48.43 333.79 48.43 333.8 48.43 338.14 45.1 337.83 44.19"/>
          <path class="cls-11" d="m343.31,44.06l-1.23.03v.91s1.55-.04,1.55-.04l-.32-.9Zm-2.29.06l-3.19.08.32.9,1.9-.05c.33-.3.65-.62.97-.93"/>
          <path class="cls-11" d="m327.39,45.96l-1.29.99c-.4.59-.83,1.28-1.23,2.09l2.84-2.18-.32-.9Z"/>
          <path class="cls-11" d="m332.87,45.82l-5.48.13.32.9,5.48-.13-.32-.9h0Zm.32.9h0s0,0,0,0h0Z"/>
          <polygon class="cls-11" points="337.23 42.49 332.87 45.82 332.87 45.83 333.19 46.73 333.19 46.73 333.19 46.73 333.19 46.72 337.54 43.39 337.23 42.49"/>
          <path class="cls-11" d="m342.71,42.36l-5.48.13.32.9,4.29-.1c.08-.09.16-.17.24-.26v.25s.95-.02.95-.02l-.32-.9Z"/>
          <path class="cls-11" d="m316.98,47.78c-.1.23-.2.47-.29.71l.48-.16-.19-.55Z"/>
          <path class="cls-11" d="m319.12,47.67l-2.12.05s-.02.04-.03.06l.19.55,1.95-.66Z"/>
          <polygon class="cls-11" points="326.79 44.25 324.84 45.75 327.06 45 326.79 44.25"/>
          <path class="cls-11" d="m332.27,44.12l-5.48.13.27.75.92-.31s-.17.15-.45.45l5.05-.12-.32-.9h0Zm.32.9h0s0,0,0,0h0Z"/>
          <polygon class="cls-11" points="336.62 40.78 332.27 44.12 332.27 44.12 332.59 45.02 332.59 45.02 332.59 45.02 332.59 45.02 336.94 41.69 336.62 40.78"/>
          <polygon class="cls-11" points="342.11 40.65 336.62 40.78 336.94 41.69 342.43 41.55 342.11 40.65"/>
          <path class="cls-11" d="m321.84,45.88l-3.89.09c-.19.3-.37.61-.54.92l4.31-.1.39-.13-.28-.78h0Z"/>
          <polygon class="cls-11" points="326.19 42.55 321.84 45.88 321.84 45.88 322.11 46.66 322.47 46.54 326.51 43.45 326.19 42.55"/>
          <path class="cls-11" d="m331.67,42.41l-5.48.13.32.9,5.48-.13-.32-.9h0Zm.32.9h0s0,0,0,0h0Z"/>
          <polygon class="cls-11" points="336.02 39.08 331.67 42.41 331.67 42.42 331.99 43.32 331.99 43.32 331.99 43.32 331.99 43.31 336.34 39.98 336.02 39.08"/>
          <polygon class="cls-11" points="341.51 38.95 336.02 39.08 336.34 39.98 341.82 39.85 341.51 38.95"/>
          <path class="cls-11" d="m321.24,44.18l-2.01.05c-.25.3-.49.61-.72.93l3.04-.07-.32-.9h0Zm.32.9h0s0,0,0,0h0Z"/>
          <polygon class="cls-11" points="325.59 40.84 321.24 44.18 321.24 44.18 321.55 45.08 321.55 45.08 321.56 45.08 321.56 45.08 325.91 41.74 325.59 40.84"/>
          <path class="cls-11" d="m331.07,40.71l-5.48.13.32.9,5.48-.13-.32-.9h0Zm.32.9h0s0,0,0,0h0Z"/>
          <polygon class="cls-11" points="335.42 37.37 331.07 40.71 331.07 40.71 331.38 41.61 331.39 41.61 331.39 41.61 331.39 41.61 335.74 38.27 335.42 37.37"/>
          <polygon class="cls-11" points="340.9 37.24 335.42 37.37 335.74 38.27 341.22 38.14 340.9 37.24"/>
          <path class="cls-11" d="m320.69,42.63c-.25.25-.5.5-.74.77l1-.02-.26-.74Zm.27.74h0s0,0,0,0h0Z"/>
          <path class="cls-11" d="m324.99,39.14l-3.09,2.37c-.41.36-.81.73-1.21,1.13l.26.74h0s0,0,0,0h0s4.35-3.34,4.35-3.34l-.32-.9Z"/>
          <path class="cls-11" d="m330.47,39l-5.48.13.32.9,5.48-.13-.32-.9h0Zm.32.9h0s0,0,0,0h0Z"/>
          <polygon class="cls-11" points="334.82 35.67 330.47 39 330.47 39.01 330.78 39.91 330.78 39.91 330.79 39.91 330.79 39.9 335.14 36.57 334.82 35.67"/>
          <polygon class="cls-11" points="340.3 35.54 334.82 35.67 335.14 36.57 340.62 36.44 340.3 35.54"/>
          <path class="cls-11" d="m324.39,37.43l-.03.03s.03,0,.04,0v-.02Z"/>
          <path class="cls-11" d="m329.87,37.3l-2,.05c-.34.18-.91.51-1.62.95l3.94-.09-.32-.9h0Zm-5.32.13h-.16s0,.02,0,.02c.05,0,.1-.02.16-.02m5.64.77h0s0,0,0,0h0Z"/>
          <polygon class="cls-11" points="334.22 33.96 329.87 37.3 329.86 37.3 330.18 38.2 330.18 38.2 330.19 38.2 330.19 38.2 334.54 34.86 334.22 33.96"/>
          <polygon class="cls-11" points="339.7 33.83 334.22 33.96 334.54 34.86 340.02 34.73 339.7 33.83"/>
          <path class="cls-11" d="m317.01,39.12l-1.87.04c-.31.24-.62.49-.93.75v.02c.25-.08,1.31-.41,2.8-.82"/>
          <path class="cls-11" d="m323.78,35.72l-3.25,2.49c.68-.16,1.38-.31,2.08-.45l1.49-1.14-.32-.9Z"/>
          <path class="cls-11" d="m329.27,35.59l-5.48.13.32.9,5.48-.13-.32-.9h0Zm.32.9h0s0,0,0,0h0Z"/>
          <polygon class="cls-11" points="333.62 32.26 329.27 35.59 329.26 35.59 329.58 36.49 329.58 36.5 329.58 36.49 329.59 36.49 333.93 33.16 333.62 32.26"/>
          <polygon class="cls-11" points="339.1 32.13 333.62 32.26 333.93 33.16 339.42 33.03 339.1 32.13"/>
          <path class="cls-11" d="m318.87,37.45l-1.5.04c-.42.3-.85.61-1.28.94l3.09-.07-.32-.9h0Zm.32.9h0s0,0,0,0h0Z"/>
          <polygon class="cls-11" points="323.22 34.12 318.87 37.45 318.86 37.45 319.18 38.35 319.18 38.36 319.18 38.35 319.19 38.35 323.54 35.02 323.22 34.12"/>
          <path class="cls-11" d="m328.7,33.98l-5.48.13.32.9,5.48-.13-.32-.9h0Zm.32.9h0s0,0,0,0h0Z"/>
          <polygon class="cls-11" points="333.05 30.65 328.7 33.98 328.7 33.99 329.01 34.89 329.01 34.89 329.02 34.89 329.02 34.88 333.37 31.55 333.05 30.65"/>
          <polygon class="cls-11" points="338.53 30.52 333.05 30.65 333.37 31.55 338.85 31.42 338.53 30.52"/>
          <path class="cls-11" d="m328.12,32.35c-.81.16-1.85.44-3.11.92l3.4-.08-.29-.83Zm.3.83h0s0,0,0,0h0Z"/>
          <path class="cls-11" d="m332.45,28.94l-3.36,2.58c.31.15.61.3.88.47l2.79-2.14-.32-.9Z"/>
          <path class="cls-11" d="m329.78,32.13c-.35.01-.91.06-1.66.21l.29.83h0s0,0,0,0h0s1.36-1.05,1.36-1.05Z"/>
          <polygon class="cls-11" points="337.93 28.81 332.45 28.94 332.77 29.85 338.25 29.71 337.93 28.81"/>
          <path class="cls-11" d="m327.5,30.57l-.85.02c.33.1.65.21.97.32l-.12-.34h0Z"/>
          <path class="cls-11" d="m331.85,27.24l-4.35,3.34h0s.12.34.12.34c.21.08.42.15.62.24l3.93-3.01-.32-.9Z"/>
          <polygon class="cls-11" points="337.33 27.11 331.85 27.24 332.16 28.14 337.65 28.01 337.33 27.11"/>
          <path class="cls-11" d="m321.41,29l-.52.4c.23.03.46.06.69.1l-.17-.49Z"/>
          <path class="cls-11" d="m326.89,28.87l-5.48.13.17.49c.68.1,1.38.22,2.07.36l3.55-.09-.32-.9h0Zm.32.9h0s0,0,0,0h0Z"/>
          <path class="cls-11" d="m331.24,25.53l-.98.75.18.33s-.13-.07-.39-.17l-3.16,2.43h0s.32.9.32.9h0s0,0,0,0h0s4.35-3.34,4.35-3.34l-.32-.9Z"/>
          <polygon class="cls-11" points="336.73 25.4 331.24 25.53 331.56 26.43 337.05 26.3 336.73 25.4"/>
          <path class="cls-11" d="m320.81,27.3l-2.37,1.82c.41.04.86.08,1.32.14l1.38-1.06-.32-.9Z"/>
          <path class="cls-11" d="m326.29,27.16l-5.48.13.32.9,5.48-.13-.32-.9h0Zm.32.9h0s0,0,0,0h0Z"/>
          <polygon class="cls-11" points="330.64 23.83 329.43 24.76 329.87 25.56 330.96 24.73 330.64 23.83"/>
          <path class="cls-11" d="m327.93,25.91l-1.63,1.25h0s.32.9.32.9h0s0,0,0,0h0s2.5-1.92,2.5-1.92c-.34-.09-.73-.17-1.19-.24"/>
          <polygon class="cls-11" points="336.13 23.7 330.64 23.83 330.96 24.73 336.44 24.6 336.13 23.7"/>
          <path class="cls-11" d="m315.86,28.93h-.1s.07,0,.1,0h0s0,0,0,0Z"/>
          <path class="cls-11" d="m320.31,26.66c-.94.29-1.94.67-2.99,1.14l-1.46,1.12h0s0,0,0,0c.35.02.82.04,1.38.08l3.07-2.36Z"/>
          <path class="cls-11" d="m325.8,25.77c-1.36,0-3,.19-4.88.72l5.09-.12-.21-.59Zm.22.59h0s0,0,0,0h0Z"/>
          <polygon class="cls-11" points="330.04 22.12 328.59 23.24 329.03 24.04 330.36 23.02 330.04 22.12"/>
          <path class="cls-11" d="m325.86,25.77h-.07l.21.59h0s0,0,0,0h0s.74-.57.74-.57c-.28-.02-.58-.03-.89-.03"/>
          <path class="cls-11" d="m334.99,22l-4.95.12.32.9,5.48-.13-.12-.35c-.23-.18-.47-.36-.73-.54"/>
          <polygon class="cls-11" points="329.44 20.42 327.75 21.71 328.19 22.52 329.76 21.32 329.44 20.42"/>
          <path class="cls-11" d="m332.08,20.35l-2.64.06.32.9,4.01-.1c-.52-.3-1.08-.6-1.69-.87"/>
          <path class="cls-11" d="m328.28,19.14l-1.37,1.05.44.81,1.8-1.38-.11-.3c-.25-.06-.51-.12-.77-.17"/>
          <path class="cls-11" d="m329.05,19.31l.11.3.9-.02c-.32-.1-.66-.19-1-.28"/>
          <path class="cls-11" d="m326.17,18.84l.35.63.68-.52c-.33-.05-.68-.09-1.02-.12"/>
          <path class="cls-11" d="m363.45,54.37l-1.2.92c.39.18.71.32.94.43l.4-.31c-.04-.36-.08-.7-.13-1.04"/>
          <path class="cls-11" d="m362.93,52.6l-2.41,1.85c.32.16.63.31.91.45l1.82-1.4-.32-.9Z"/>
          <path class="cls-11" d="m363.09,52.6h-.16s.32.91.32.91h.05c-.06-.31-.13-.61-.21-.91"/>
          <path class="cls-11" d="m362.33,50.9l-3.49,2.68c.3.16.6.32.88.47l2.93-2.24-.32-.9Z"/>
          <path class="cls-11" d="m362.55,50.89h-.22s.32.91.32.91h.21c-.1-.32-.2-.62-.3-.91"/>
          <path class="cls-11" d="m357.37,52.53h-.41c.17.11.34.2.51.3l-.11-.3h0Z"/>
          <path class="cls-11" d="m361.73,49.19l-4.35,3.34h0s.11.3.11.3c.2.11.39.22.58.32l3.99-3.06-.32-.9Z"/>
          <path class="cls-11" d="m361.83,49.19h-.1s.32.9.32.9h.19c-.13-.32-.27-.62-.41-.9"/>
          <path class="cls-11" d="m369.45,47.34l-.8.61,1.04.35.13-.1c-.11-.29-.24-.58-.37-.86"/>
          <path class="cls-11" d="m356.77,50.82l-2.54.06c.48.3.95.6,1.41.88l1.44-.03-.32-.9h0Zm.32.9h0s0,0,0,0h0Z"/>
          <path class="cls-11" d="m360.96,47.61l-4.18,3.21h0s.32.9.32.9h0s0,0,0,0h0s4.32-3.32,4.32-3.32c-.15-.28-.31-.54-.46-.79"/>
          <path class="cls-11" d="m368.59,45.83l-1.92,1.47,1.04.35,1.35-1.04c-.15-.27-.31-.53-.47-.78"/>
          <path class="cls-11" d="m356.17,49.12l-4.42.11c.43.3.86.59,1.28.88l3.45-.08-.32-.9h0Zm.32.9h0s0,0,0,0h0Z"/>
          <path class="cls-11" d="m359.98,46.2l-3.81,2.92h0s.32.9.32.9h0s0,0,0,0h0s4.02-3.08,4.02-3.08c-.18-.27-.36-.51-.53-.74"/>
          <path class="cls-11" d="m366,45.65l-4.03.1,2.56.85,1.79-.04-.32-.9h0Zm.32.9h0s0,0,0,0h0Z"/>
          <path class="cls-11" d="m367.59,44.43l-1.58,1.21h0s.32.9.32.9h0s0,0,0,0h0s1.81-1.39,1.81-1.39c-.18-.25-.36-.49-.55-.72"/>
          <path class="cls-11" d="m350.09,47.54l-.3.23c.18.14.35.27.53.4l-.22-.64Z"/>
          <path class="cls-11" d="m355.57,47.41l-5.48.13.22.63c.12.09.23.17.35.26l5.22-.13-.32-.9h0Zm.32.9h0s0,0,0,0h0Z"/>
          <polygon class="cls-11" points="359.92 44.07 359.02 44.77 360.06 45.11 360.24 44.98 359.92 44.07"/>
          <path class="cls-11" d="m358.86,44.89l-3.29,2.52h0s.32.9.32.9h0s0,0,0,0h0s3.58-2.75,3.58-2.75c-.25-.29-.46-.52-.61-.67"/>
          <path class="cls-11" d="m365.4,43.94l-5.48.13.32.9,5.48-.13-.32-.9h0Zm.32.9h0s0,0,0,0h0Z"/>
          <path class="cls-11" d="m366.46,43.14l-1.05.81h0s.32.9.32.9h0s0,0,0,0h0s1.35-1.03,1.35-1.03c-.2-.23-.4-.46-.61-.68"/>
          <path class="cls-11" d="m349.49,45.84l-1.09.84c.24.2.48.39.73.59l.68-.52-.32-.9Z"/>
          <path class="cls-11" d="m354.97,45.7l-5.48.13.32.9,5.48-.13-.32-.9h0Zm.32.9h0s0,0,0,0h0Z"/>
          <polygon class="cls-11" points="359.32 42.37 354.97 45.71 354.97 45.71 355.28 46.61 355.28 46.61 355.29 46.61 355.29 46.6 359.64 43.27 359.32 42.37"/>
          <path class="cls-11" d="m364.8,42.24l-5.48.13.32.9,5.48-.13-.32-.9h0Zm.32.9h0s0,0,0,0h0Z"/>
          <path class="cls-11" d="m365.22,41.92l-.42.32h0s.32.9.32.9h0s0,0,0,0h0s.76-.59.76-.59c-.22-.22-.44-.43-.67-.63"/>
          <path class="cls-11" d="m371.16,38.85l-2,.05c1.39.37,2.47.69,2.95.84h.16c-.37-.31-.74-.6-1.11-.89"/>
          <path class="cls-11" d="m348.89,44.13l-1.82,1.4c.23.21.46.41.7.61l1.44-1.11-.32-.9Z"/>
          <path class="cls-11" d="m354.37,44l-5.48.13.32.9,5.48-.13-.32-.9h0Zm.32.9h0s0,0,0,0h0Z"/>
          <polygon class="cls-11" points="358.72 40.66 354.37 44 354.37 44 354.68 44.9 354.68 44.9 354.69 44.9 354.69 44.9 359.04 41.57 358.72 40.66"/>
          <path class="cls-11" d="m363.61,40.55l-4.89.12.32.9,5.48-.13-.07-.2c-.28-.24-.56-.47-.83-.69m.91.89h0s0,0,0,0h0Z"/>
          <path class="cls-11" d="m368.55,37.2l-1.52,1.16c.39.09.76.19,1.13.28l.71-.54-.32-.9Z"/>
          <path class="cls-11" d="m364.44,41.23l.07.2h0s0,0,0,0h0s.08-.06.08-.06c-.05-.05-.11-.09-.16-.14"/>
          <path class="cls-11" d="m368.9,37.19h-.35s.32.91.32.91l1.26-.03c-.42-.31-.83-.6-1.23-.88"/>
          <path class="cls-11" d="m348.28,42.42l-2.5,1.92c.22.21.44.42.67.63l2.15-1.65-.32-.9Z"/>
          <polygon class="cls-11" points="344.48 45.34 343.93 45.76 344.25 46.66 344.48 46.48 344.48 45.34"/>
          <path class="cls-11" d="m353.77,42.29l-5.48.13.32.9,5.48-.13-.32-.9h0Zm.32.9h0s0,0,0,0h0Z"/>
          <polygon class="cls-11" points="358.12 38.96 353.77 42.29 353.76 42.29 354.08 43.19 354.08 43.2 354.08 43.19 354.09 43.19 358.43 39.86 358.12 38.96"/>
          <path class="cls-11" d="m361.32,38.88l-3.2.08.32.9,4.14-.1c-.44-.32-.86-.61-1.26-.88"/>
          <path class="cls-11" d="m367.2,36.07l-2.35,1.8c.39.08.78.17,1.16.25l2-1.53c-.27-.18-.55-.36-.81-.52"/>
          <path class="cls-11" d="m347.68,40.72l-3.12,2.39c.21.22.42.44.64.66l2.8-2.15-.32-.9Z"/>
          <polygon class="cls-11" points="344.47 43.18 343.33 44.06 343.65 44.96 344.48 44.32 344.47 43.18"/>
          <path class="cls-11" d="m353.16,40.59l-5.48.13.32.9,5.48-.13-.32-.9h0Zm.32.9h0s0,0,0,0h0Z"/>
          <polygon class="cls-11" points="357.51 37.25 353.16 40.59 353.16 40.59 353.48 41.49 353.48 41.49 353.48 41.49 353.48 41.49 357.83 38.15 357.51 37.25"/>
          <path class="cls-11" d="m363,37.12l-2.34.06c.79.08,1.63.2,2.49.36l-.14-.41h0Z"/>
          <path class="cls-11" d="m358.57,37.23l-1.05.03.32.9,2.26-.05c-.69-.42-1.23-.71-1.52-.87"/>
          <path class="cls-11" d="m365.6,35.12l-2.61,2h0s.14.41.14.41c.22.04.44.08.66.12l2.66-2.04c-.29-.17-.57-.34-.85-.49"/>
          <polygon class="cls-11" points="347.08 39.01 342.73 42.35 343.05 43.25 347.4 39.91 347.08 39.01"/>
          <path class="cls-11" d="m352.56,38.88l-5.48.13.32.9,5.48-.13-.32-.9h0Zm.32.9h0s0,0,0,0h0Z"/>
          <polygon class="cls-11" points="356.91 35.55 352.56 38.88 352.56 38.88 352.88 39.78 352.88 39.78 352.88 39.78 352.88 39.78 357.23 36.45 356.91 35.55"/>
          <path class="cls-11" d="m362.39,35.41l-5.48.13.32.9,5.48-.13-.32-.9h0Zm.32.9h0s0,0,0,0h0Z"/>
          <path class="cls-11" d="m363.93,34.24l-1.53,1.18h0s.32.9.32.9h0s0,0,0,0h0s2.11-1.62,2.11-1.62c-.31-.16-.61-.31-.9-.46"/>
          <polygon class="cls-11" points="346.48 37.31 342.13 40.64 342.44 41.55 346.8 38.21 346.48 37.31"/>
          <path class="cls-11" d="m351.96,37.18l-5.48.13.32.9,5.48-.13-.32-.9h0Zm.32.9h0s0,0,0,0h0Z"/>
          <polygon class="cls-11" points="356.31 33.84 351.96 37.18 351.96 37.18 352.28 38.08 352.28 38.08 352.28 38.08 352.28 38.08 356.63 34.74 356.31 33.84"/>
          <path class="cls-11" d="m361.79,33.71l-5.48.13.32.9,5.48-.13-.32-.9h0Zm.32.9h0s0,0,0,0h0Z"/>
          <path class="cls-11" d="m362.15,33.44l-.36.27h0s.32.9.32.9h0s0,0,0,0h0s.99-.76.99-.76c-.33-.15-.65-.29-.96-.41"/>
          <polygon class="cls-11" points="345.88 35.6 341.53 38.94 341.84 39.84 346.2 36.5 345.88 35.6"/>
          <path class="cls-11" d="m351.36,35.47l-5.48.13.32.9,5.48-.13-.32-.9h0Zm.32.9h0s0,0,0,0h0Z"/>
          <polygon class="cls-11" points="355.71 32.13 351.36 35.47 351.36 35.47 351.67 36.37 351.68 36.37 351.68 36.37 351.68 36.37 356.03 33.04 355.71 32.13"/>
          <path class="cls-11" d="m357.14,32.1l-1.43.03.32.9,4.74-.11c-1.66-.56-2.89-.76-3.63-.82"/>
          <path class="cls-11" d="m365.54,28.67l-1.04.79c.42-.07.84-.13,1.25-.19l-.21-.61Z"/>
          <path class="cls-11" d="m370.9,28.54l-5.36.13.21.61c2.54-.35,4.67-.46,5.36-.49l-.06-.17c-.05-.03-.1-.06-.16-.08"/>
          <polygon class="cls-11" points="345.28 33.9 340.92 37.23 341.24 38.14 345.6 34.8 345.28 33.9"/>
          <path class="cls-11" d="m350.76,33.77l-5.48.13.32.9,5.48-.13-.32-.9h0Zm.32.9h0s0,0,0,0h0Z"/>
          <polygon class="cls-11" points="355.11 30.43 350.76 33.77 350.76 33.77 351.07 34.67 351.07 34.67 351.08 34.67 351.08 34.66 355.43 31.33 355.11 30.43"/>
          <path class="cls-11" d="m360.59,30.3l-5.48.13.32.9,2.39-.06c.85-.38,1.79-.7,2.77-.97h0s0,0,0,0Z"/>
          <path class="cls-11" d="m364.94,26.96l-4.35,3.34h0s0,0,0,0c.71-.2,1.44-.37,2.16-.52l2.51-1.92-.32-.9Z"/>
          <path class="cls-11" d="m367.23,26.91l-2.29.06.32.9,4.08-.1c-.73-.33-1.43-.62-2.11-.86"/>
          <polygon class="cls-11" points="344.68 32.19 340.32 35.53 340.64 36.43 344.99 33.09 344.68 32.19"/>
          <path class="cls-11" d="m350.16,32.06l-5.48.13.32.9,5.48-.13-.32-.9h0Zm.32.9h0s0,0,0,0h0Z"/>
          <polygon class="cls-11" points="354.51 28.72 350.16 32.06 350.15 32.06 350.47 32.96 350.47 32.96 350.48 32.96 350.48 32.96 354.83 29.63 354.51 28.72"/>
          <path class="cls-11" d="m359.99,28.59l-5.48.13.32.9,5.48-.13-.32-.9h0Zm.32.9h0s0,0,0,0h0Z"/>
          <path class="cls-11" d="m363.47,25.92l-3.48,2.67h0s.32.9.32.9h0s0,0,0,0h0s4.35-3.34,4.35-3.34h0c-.41-.1-.8-.17-1.18-.24"/>
          <path class="cls-11" d="m364.66,26.15h0s.02,0,.02,0c0,0-.01,0-.02,0"/>
          <polygon class="cls-11" points="344.07 30.49 339.72 33.82 340.04 34.73 344.39 31.39 344.07 30.49"/>
          <path class="cls-11" d="m349.56,30.35l-5.48.13.32.9,5.48-.13-.32-.9h0Zm.32.9h0s0,0,0,0h0Z"/>
          <polygon class="cls-11" points="353.91 27.02 349.56 30.35 349.55 30.36 349.87 31.26 349.87 31.26 349.87 31.26 349.88 31.25 354.22 27.92 353.91 27.02"/>
          <path class="cls-11" d="m359.39,26.89l-5.48.13.32.9,5.48-.13-.32-.9h0Zm.32.9h0s0,0,0,0h0Z"/>
          <path class="cls-11" d="m360.95,25.69l-1.56,1.2h0s.32.9.32.9h0s0,0,0,0h0s2.63-2.02,2.63-2.02c-.49-.05-.95-.07-1.39-.08"/>
          <polygon class="cls-11" points="343.47 28.78 339.12 32.12 339.44 33.02 343.79 29.68 343.47 28.78"/>
          <path class="cls-11" d="m348.95,28.65l-5.48.13.32.9,5.48-.13-.32-.9h0Zm.32.9h0s0,0,0,0h0Z"/>
          <polygon class="cls-11" points="353.3 25.31 348.95 28.65 348.95 28.65 349.27 29.55 349.27 29.55 349.27 29.55 349.27 29.55 353.62 26.21 353.3 25.31"/>
          <polygon class="cls-11" points="356.75 25.23 353.3 25.31 353.62 26.21 356.25 26.15 356.75 25.23"/>
          <path class="cls-11" d="m358.99,25.78c-.73.09-1.33.22-1.79.35l1.9-.05-.11-.3Zm.11.3h0s0,0,0,0h0Z"/>
          <path class="cls-11" d="m359.57,25.73c-.2.01-.39.03-.57.05l.11.3h0s0,0,0,0h0s.46-.35.46-.35Z"/>
          <polygon class="cls-11" points="342.91 27.17 338.55 30.51 338.87 31.41 343.22 28.07 342.91 27.17"/>
          <path class="cls-11" d="m348.39,27.04l-5.48.13.32.9,5.48-.13-.32-.9h0Zm.32.9h0s0,0,0,0h0Z"/>
          <polygon class="cls-11" points="352.74 23.7 348.39 27.04 348.38 27.04 348.7 27.94 348.7 27.94 348.7 27.94 348.71 27.94 353.06 24.61 352.74 23.7"/>
          <polygon class="cls-11" points="357.65 23.59 352.74 23.7 353.06 24.61 357.15 24.51 357.65 23.59"/>
          <polygon class="cls-11" points="342.3 25.47 337.95 28.8 338.27 29.71 342.62 26.37 342.3 25.47"/>
          <path class="cls-11" d="m347.58,25.34l-5.27.13.32.9,5.48-.13-.28-.78c-.05.08-.08.12-.08.12-.06-.08-.11-.15-.17-.23m.53.89h0s0,0,0,0h0Z"/>
          <path class="cls-11" d="m352.14,22l-4.04,3.1c-.12.15-.21.27-.27.35l.28.78h0s0,0,0,0h0s4.35-3.34,4.35-3.34l-.32-.9Z"/>
          <path class="cls-11" d="m357.62,21.87l-5.48.13.32.9,5.48-.13-.32-.9h0Zm.32.9h0s0,0,0,0h0Z"/>
          <polygon class="cls-11" points="359.28 20.59 357.62 21.87 357.61 21.87 357.93 22.77 357.93 22.77 357.94 22.77 357.94 22.77 358.21 22.56 359.28 20.59"/>
          <polygon class="cls-11" points="341.7 23.76 337.35 27.1 337.67 28 342.02 24.66 341.7 23.76"/>
          <path class="cls-11" d="m346.37,23.65l-4.67.11.32.9,4.98-.12c-.21-.3-.43-.6-.64-.89"/>
          <path class="cls-11" d="m357.02,20.16l-2.46.06c-.67.3-1.29.62-1.86.95l4.63-.11-.32-.9h0Zm.32.9h0s0,0,0,0h0Z"/>
          <path class="cls-11" d="m360.28,18.76c-.61.06-1.19.14-1.75.24l-1.51,1.16h0s.32.9.32.9h0s0,0,0,0h0s2.9-2.23,2.9-2.23l.04-.07Z"/>
          <path class="cls-11" d="m341.1,22.06l-2.13,1.63c-.04.41-.09.83-.15,1.26l2.6-1.99-.32-.9Z"/>
          <path class="cls-11" d="m337.87,24.53l-1.13.86.32.9,1.4-1.07c-.14-.18-.34-.42-.59-.69"/>
          <path class="cls-11" d="m345.19,21.96l-4.09.1.32.9,4.39-.11c-.21-.3-.42-.6-.62-.89"/>
          <path class="cls-11" d="m340.5,20.35l-1.33,1.02c-.03.4-.06.8-.09,1.21l1.74-1.33-.32-.9Z"/>
          <path class="cls-11" d="m336.64,23.31l-.49.38.32.9.85-.65c-.2-.2-.43-.41-.67-.63"/>
          <path class="cls-11" d="m344.03,20.27l-3.53.09.32.9,3.82-.09c-.21-.3-.41-.6-.61-.89"/>
          <path class="cls-11" d="m339.9,18.65l-.63.48c-.01.38-.03.77-.04,1.18l.99-.76-.32-.9Z"/>
          <path class="cls-11" d="m335.75,22.57l.11.32.15-.11c-.08-.07-.17-.14-.26-.21"/>
          <path class="cls-11" d="m342.89,18.57l-2.99.07.32.9,3.27-.08c-.2-.3-.4-.6-.6-.89"/>
          <path class="cls-11" d="m339.31,16.97c0,.35,0,.73-.01,1.12l.32-.24-.31-.87Z"/>
          <path class="cls-11" d="m341.78,16.88l-2.47.06v.03l.31.87,2.75-.07c-.2-.31-.4-.61-.59-.9"/>
          <path class="cls-11" d="m340.69,15.19l-1.38.03c0,.28,0,.58,0,.91l1.95-.05c-.21-.32-.4-.62-.57-.9"/>
          <path class="cls-11" d="m339.65,13.49h-.3c-.02.24-.03.54-.04.92l.88-.02c-.23-.37-.41-.67-.54-.9"/>
        </g>
      </g>
      <path class="cls-13" d="m426.8,244.55l-2.98-158.87s-41.98-19.17-74.84-18.07c0,0-3.04-.74-6.69-2.21,0,0-8.52,1.84-17.65,1.11l-19.47-8.85-8.52,2.21-14,.37-3.65,2.95-18.86-1.11s-19.47,4.42-21.3,4.79c-1.83.37-16.43,11.8-16.43,11.8l-9.84-3.04c-1.46-.45-3.17-.5-4.7-.13l-10.75,2.61-17.9-1.46c-1.05-.09-2.12-.01-3.12.21-2.98.68-9.49,2.1-10.88,1.82-1.49-.3-19.16-6.24-25.64-8.42-1.52-.51-3.3-.66-4.99-.4-4.96.75-15.47,2.3-18.04,2.45-11.46.68-19.54-6.39-30.8-7.51-4.21-.42-13.32-7.72-15.85-8.32-.4-.09-.81-.15-1.23-.19v-3.1c-2.62-3.9-54.49-8.08-63.54-8.52-9.05-.43-23.58-6.64-33.35-10.39-9.77-3.75-20.01-4.33-20.01-4.33,0,0-2.86-3.32-4.76-5.05-1.91-1.73-1.19-5.34-2.62-6.93-1.43-1.59-5.72-.72-6.67-.29-.95.43-5.72,2.89-5.72,2.89-1.43-4.04-2.38-3.46-3.1-4.91-.71-1.44-4.77-5.2-8.1-5.05-3.34.14-4.05,5.05-7.15,6.06-3.1,1.01-3.57,4.33-6.67,7.51-3.1,3.18-15.48,4.76-23.58,4.76s-28.35,7.8-33.59,8.37c-5.24.58-5.72-1.16-10.72.72-5,1.88-18.1,3.75-21.92,4.04l-.95,49.9h11.93c4.96,0,9,2.42,9.04,5.43l.24,16.37c.06,3.97,125.59,108.42,132.15,108.42h104.78c5.66,0,10.19-2.85,9.97-6.28l-.38-5.97c-.16-2.46,3.09-4.51,7.16-4.51h24.5s8.68-.61,8.68,2.97c0,2.82,3.5,3.16,7.02,3.16h9.6c4.51,0,8.17,2.21,8.17,4.94,0,1.75,0,3.66,0,5.19,0,4.15,3.8,4.21,8.09,4.33.67.02,21.6,44.07,21.6,44.07v-12.31l248.03-13.24Z"/>
      <path class="cls-11" d="m75.36,39.91s44.13,25.07,62.81,43.6c0,0-32.2-11.44-51.45-22.68,0,0,25.49,22.87,30.83,29.37,0,0-36.51-14.5-45.64-22.34,0,0,16.36,15.02,19.03,30.93,0,0-31.73-26.04-58.72-46.18,0,0,17.13,21.82,17.73,39.3,0,0-23.12-28.36-58.77-54.06,0,0,42.97,40.2,53.6,70.65,0,0-22.99-21.59-30.14-29.89,0,0,7.79,16.78,9.68,25.89,0,0-39.22-46.74-73.79-78.01,0,0,26.13,22.9,21.31,51.89,0,0-28.54-42.18-56.83-79.28,0,0,117.94-6.67,203.75,16.31,0,0-47.92-1.09-63.51-.87,0,0,38.74,3.65,96.62,33.92,0,0-39.05-13.39-65.58-15.8,0,0,34.83,11.02,84.56,39.24l-95.5-31.99Z"/>
      <g class="cls-2">
        <g>
          <polygon class="cls-9" points="148.97 185.57 147.05 185.57 147.05 178.67 146.45 178.67 146.45 185.57 144.54 185.57 143.51 187.05 149.99 187.05 148.97 185.57"/>
          <path class="cls-9" d="m206.84,227.4h-3.01v-38.99h-1.63v-5.76l-12.66-8.68h0s-12.85,8.68-12.85,8.68v5.76h-1.63v27.9l-2.8,1.9v-14.42h-14.12v13.64h-.34l-3.39-8.14h.79v-.71h-.85v-9.06h-.54v-4.22h.39v-1.58h-2.59v-6.66h-9.71v6.66h-2.59v1.58h.38v36.99h-.3v-12.25h-.99v-9.81h-7.59v-15.6h-1.03v-12.62h-.94v-9.31h-10.19v9.31h-.94v12.62h-1.03v27.11l-.7-.96-5.18,6.94v3.57h-.71v.81l-2.29,2.04v-60.34h-4.88l-9.25,13.1v33.14h-1.18v13.29h-1.08v3.31l-5.44.83v-7.31h-1.18v-35.53h-14.12v35.53h-2.99l-3-.81v-34.72h-1.03v-12.62h-1.15l-1.84-5.52h-.46l-1.03-3.08h-1.3v-1.78c.44-.11.77-.47.77-.91s-.33-.81-.77-.91v-2.87h-.51v2.87c-.44.11-.77.47-.77.91s.33.81.77.91v1.78h-1.3l-1.03,3.08h-.46l-1.84,5.52h-1.15v12.62h-1.03v34.29l-3.57-.1-2.82,4h-.42v-28.53h.39v-1.26h-.39v-.61h.39v-1.26h-.39v-.62h.39v-1.26h-.39v-.62h.39v-1.26h-.39v-.62h.39v-1.26h-.39v-.62h.39v-1.26h-14.89v1.26h.38v.62h-.38v1.26h.38v.62h-.38v1.26h.38v.62h-.38v1.26h.38v.62h-.38v1.26h.38v.61h-.38v1.26h.38v17.72l-2.25,3.18v7.47l-2.16-.02v-.26h-2.73v-7.02h-1.75v-.03h.05l-.05-.07v-1.24h-.54v-16.65h-1.01v-14.67h-.59v-3.39l-4.84-6.59-4.92,6.59v3.39h-.67v14.67h-1.01v16.65h-.54v9.32H-7.64v35.26l-3.76,8.73h-.3v.69l-3.2,7.42-7.4,5.38-10.02,5.28-3.94,27.64-3.91,2.14-3.03,11.52H245.33s0,0,0,0h11.79s44.37-.01,44.37-.01l.06-.04,305.89-.3-.76-10.12-4.69-2.66-.33-18.11-13.38-14.43-12.31-56.88-3.8.35v-33.97h-1.73v-9.6h-36.96v9.6h-1.73v33.94h-.01v-7.1h-4v-33.41h-14.12v33.41h-3.69l-1.31-45.29h-1.67v-3.23h-.64l-3.22-7.72h.75v-.67h-.8v-8.6h-.73v8.6h-.8v.67h.7l-3.22,7.72h-.64v3.23h-1.68l-1.31,45.29h-2.99v-39.64h-1.63v-5.76l-12.66-8.68h0s-12.85,8.68-12.85,8.68v5.76h-1.63v28.56l-2.8,1.9v-15.07h-14.12v14.3h-.34l-3.39-8.14h.79v-.71h-.85v-9.06h-.54v-4.88h.39v-1.58h-2.59v-6.66h-9.71v6.66h-2.59v1.58h.38v36.99h-.3v-11.59h-.99v-9.81h-7.59v-16.26h-1.03v-12.62h-.94v-9.31h-10.19v9.31h-.94v12.62h-1.03v27.77l-.7-.96-5.18,6.94v3.11h-.02s-.52.46-.52.46h-.17v.15l-2.29,2.04v-60.34h-4.88l-9.24,13.1v33.8h-1.18v13.29h-1.08v2.65l-5.44.83v-6.65h-1.18v-36.19h-14.12v36.19h-.55l-5.43-1.47v-34.72h-1.03v-12.62h-1.15l-1.84-5.52h-.46l-1.03-3.07h-1.3v-1.78c.44-.11.77-.47.77-.92s-.33-.81-.77-.91v-2.87h-.51v2.87c-.44.11-.77.47-.77.91s.33.81.77.92v1.78h-1.3l-1.03,3.07h-.46l-1.84,5.52h-1.15v12.62h-1.03v34.29l-3.57-.1-2.82,4h-.42v-28.54h.38v-1.26h-.38v-.61h.38v-1.26h-.38v-.61h.38v-1.26h-.38v-.62h.38v-1.26h-.38v-.62h.38v-1.26h-.38v-.62h.38v-1.26h-14.89v1.26h.38v.62h-.38v1.26h.38v.62h-.38v1.26h.38v.62h-.38v1.26h.38v.61h-.38v1.26h.38v.61h-.38v1.26h.38v18.38l-2.25,3.18v6.81l-4.88-.05v-6.6h-1.75v-.03h.05l-.05-.07v-1.9h-.54v-16.65h-1.01v-14.67h-.59v-3.39l-4.84-6.59-4.92,6.59v3.39h-.67v14.67h-1.01v16.65h-.54v9.53l-1.21.45h-10.32v-32.78h-1.73v-9.6h-36.96v9.6h-1.73v33.94h-.01v-7.76h-4v-32.75h-14.12v32.75h-3.71m281.65-54.5l2.77,6.64h-2.77v-6.64Zm-.73-.11v6.74h-2.81l2.81-6.74Zm-59.41,38.3l2.91,7h-2.91v-7Zm-288.53-.66l2.92,7h-2.92v-7Z"/>
        </g>
        <g class="cls-5">
          <g class="cls-1">
            <rect class="cls-12" x="-6.75" y="73.12" width="317.99" height="191.4"/>
            <g>
              <polygon class="cls-10" points="263.96 251.82 236.55 242.89 209.14 251.82 181.73 242.89 154.31 251.83 154.31 251.79 126.89 242.86 99.48 251.79 72.07 242.86 44.66 251.79 17.25 242.86 -10.17 251.79 -10.17 256.82 17.25 247.88 44.64 256.81 44.64 256.82 44.66 256.81 44.67 256.82 44.67 256.81 72.07 247.88 99.46 256.81 99.46 256.82 99.48 256.81 99.49 256.82 99.49 256.81 126.89 247.88 154.31 256.82 154.31 256.86 181.73 247.92 209.13 256.85 209.13 256.86 209.14 256.85 209.16 256.86 209.16 256.85 236.55 247.92 263.95 256.85 263.95 256.86 263.96 256.85 263.98 256.86 263.98 256.85 291.37 247.92 318.79 256.86 318.79 251.83 291.37 242.89 263.96 251.82"/>
              <polygon class="cls-10" points="263.96 242.32 236.55 233.39 209.14 242.32 181.73 233.39 154.31 242.32 154.31 242.28 126.89 233.35 99.48 242.28 72.07 233.35 44.66 242.28 17.25 233.35 -10.17 242.28 -10.17 247.31 17.25 238.37 44.64 247.3 44.64 247.31 44.66 247.3 44.67 247.31 44.67 247.3 72.07 238.37 99.46 247.3 99.46 247.31 99.48 247.3 99.49 247.31 99.49 247.3 126.89 238.37 154.31 247.31 154.31 247.35 181.73 238.41 209.13 247.34 209.13 247.35 209.14 247.34 209.16 247.35 209.16 247.34 236.55 238.41 263.95 247.34 263.95 247.35 263.96 247.34 263.98 247.35 263.98 247.34 291.37 238.41 318.79 247.35 318.79 242.32 291.37 233.39 263.96 242.32"/>
              <polygon class="cls-10" points="263.96 232.81 236.55 223.88 209.14 232.81 181.73 223.88 154.31 232.81 154.31 232.77 126.89 223.84 99.48 232.77 72.07 223.84 44.66 232.77 17.25 223.84 -10.17 232.77 -10.17 237.8 17.25 228.87 44.64 237.79 44.64 237.8 44.66 237.8 44.67 237.8 44.67 237.79 72.07 228.87 99.46 237.79 99.46 237.8 99.48 237.8 99.49 237.8 99.49 237.79 126.89 228.87 154.31 237.8 154.31 237.84 181.73 228.9 209.13 237.83 209.13 237.84 209.14 237.83 209.16 237.84 209.16 237.83 236.55 228.9 263.95 237.83 263.95 237.84 263.96 237.83 263.98 237.84 263.98 237.83 291.37 228.9 318.79 237.84 318.79 232.81 291.37 223.88 263.96 232.81"/>
              <polygon class="cls-10" points="263.96 223.84 236.55 214.91 209.14 223.84 181.73 214.91 154.31 223.85 154.31 223.81 126.89 214.87 99.48 223.8 72.07 214.87 44.66 223.8 17.25 214.87 -10.17 223.81 -10.17 228.83 17.25 219.9 44.64 228.82 44.64 228.83 44.66 228.83 44.67 228.83 44.67 228.82 72.07 219.9 99.46 228.82 99.46 228.83 99.48 228.83 99.49 228.83 99.49 228.82 126.89 219.9 154.31 228.83 154.31 228.87 181.73 219.94 209.13 228.86 209.13 228.87 209.14 228.87 209.16 228.87 209.16 228.86 236.55 219.94 263.95 228.86 263.95 228.87 263.96 228.87 263.98 228.87 263.98 228.86 291.37 219.94 318.79 228.87 318.79 223.85 291.37 214.91 263.96 223.84"/>
              <polygon class="cls-10" points="263.96 214.33 236.55 205.4 209.14 214.33 181.73 205.4 154.31 214.34 154.31 214.3 126.89 205.36 99.48 214.29 72.07 205.36 44.66 214.29 17.25 205.36 -10.17 214.3 -10.17 219.33 17.25 210.39 44.64 219.32 44.64 219.33 44.66 219.32 44.67 219.33 44.67 219.32 72.07 210.39 99.46 219.32 99.46 219.33 99.48 219.32 99.49 219.33 99.49 219.32 126.89 210.39 154.31 219.33 154.31 219.36 181.73 210.43 209.13 219.35 209.13 219.36 209.14 219.36 209.16 219.36 209.16 219.35 236.55 210.43 263.95 219.35 263.95 219.36 263.96 219.36 263.98 219.36 263.98 219.35 291.37 210.43 318.79 219.36 318.79 214.34 291.37 205.4 263.96 214.33"/>
              <polygon class="cls-10" points="263.96 204.82 236.55 195.89 209.14 204.82 181.73 195.89 154.31 204.83 154.31 204.79 126.89 195.86 99.48 204.79 72.07 195.86 44.66 204.79 17.25 195.86 -10.17 204.79 -10.17 209.82 17.25 200.88 44.64 209.81 44.64 209.82 44.66 209.81 44.67 209.82 44.67 209.81 72.07 200.88 99.46 209.81 99.46 209.82 99.48 209.81 99.49 209.82 99.49 209.81 126.89 200.88 154.31 209.82 154.31 209.86 181.73 200.92 209.13 209.85 209.13 209.86 209.14 209.85 209.16 209.86 209.16 209.85 236.55 200.92 263.95 209.85 263.95 209.86 263.96 209.85 263.98 209.86 263.98 209.85 291.37 200.92 318.79 209.86 318.79 204.83 291.37 195.89 263.96 204.82"/>
              <polygon class="cls-10" points="263.96 195.32 236.55 186.39 209.14 195.32 181.73 186.39 154.31 195.32 154.31 195.28 126.89 186.35 99.48 195.28 72.07 186.35 44.66 195.28 17.25 186.35 -10.17 195.28 -10.17 200.31 17.25 191.37 44.64 200.3 44.64 200.31 44.66 200.3 44.67 200.31 44.67 200.3 72.07 191.37 99.46 200.3 99.46 200.31 99.48 200.3 99.49 200.31 99.49 200.3 126.89 191.37 154.31 200.31 154.31 200.35 181.73 191.41 209.13 200.34 209.13 200.35 209.14 200.34 209.16 200.35 209.16 200.34 236.55 191.41 263.95 200.34 263.95 200.35 263.96 200.34 263.98 200.35 263.98 200.34 291.37 191.41 318.79 200.35 318.79 195.32 291.37 186.39 263.96 195.32"/>
              <polygon class="cls-10" points="263.96 185.81 236.55 176.88 209.14 185.81 181.73 176.88 154.31 185.81 154.31 185.78 126.89 176.84 99.48 185.77 72.07 176.84 44.66 185.77 17.25 176.84 -10.17 185.78 -10.17 190.8 17.25 181.87 44.64 190.79 44.64 190.8 44.66 190.8 44.67 190.8 44.67 190.79 72.07 181.87 99.46 190.79 99.46 190.8 99.48 190.8 99.49 190.8 99.49 190.79 126.89 181.87 154.31 190.8 154.31 190.84 181.73 181.9 209.13 190.83 209.13 190.84 209.14 190.83 209.16 190.84 209.16 190.83 236.55 181.9 263.95 190.83 263.95 190.84 263.96 190.83 263.98 190.84 263.98 190.83 291.37 181.9 318.79 190.84 318.79 185.81 291.37 176.88 263.96 185.81"/>
              <polygon class="cls-10" points="263.96 176.3 236.55 167.37 209.14 176.3 181.73 167.37 154.31 176.31 154.31 176.27 126.89 167.33 99.48 176.26 72.07 167.33 44.66 176.26 17.25 167.33 -10.17 176.27 -10.17 181.29 17.25 172.36 44.64 181.28 44.64 181.29 44.66 181.29 44.67 181.29 44.67 181.28 72.07 172.36 99.46 181.28 99.46 181.29 99.48 181.29 99.49 181.29 99.49 181.28 126.89 172.36 154.31 181.29 154.31 181.33 181.73 172.4 209.13 181.32 209.13 181.33 209.14 181.33 209.16 181.33 209.16 181.32 236.55 172.4 263.95 181.32 263.95 181.33 263.96 181.33 263.98 181.33 263.98 181.32 291.37 172.4 318.79 181.33 318.79 176.31 291.37 167.37 263.96 176.3"/>
              <polygon class="cls-10" points="263.96 166.79 236.55 157.86 209.14 166.79 181.73 157.86 154.31 166.8 154.31 166.76 126.89 157.82 99.48 166.75 72.07 157.82 44.66 166.75 17.25 157.82 -10.17 166.76 -10.17 171.79 17.25 162.85 44.64 171.78 44.64 171.79 44.66 171.78 44.67 171.79 44.67 171.78 72.07 162.85 99.46 171.78 99.46 171.79 99.48 171.78 99.49 171.79 99.49 171.78 126.89 162.85 154.31 171.79 154.31 171.82 181.73 162.89 209.13 171.81 209.13 171.82 209.14 171.82 209.16 171.82 209.16 171.81 236.55 162.89 263.95 171.81 263.95 171.82 263.96 171.82 263.98 171.82 263.98 171.81 291.37 162.89 318.79 171.82 318.79 166.8 291.37 157.86 263.96 166.79"/>
              <polygon class="cls-10" points="263.96 157.28 236.55 148.35 209.14 157.28 181.73 148.35 154.31 157.29 154.31 157.25 126.89 148.31 99.48 157.25 72.07 148.31 44.66 157.25 17.25 148.31 -10.17 157.25 -10.17 162.28 17.25 153.34 44.64 162.27 44.64 162.28 44.66 162.27 44.67 162.28 44.67 162.27 72.07 153.34 99.46 162.27 99.46 162.28 99.48 162.27 99.49 162.28 99.49 162.27 126.89 153.34 154.31 162.28 154.31 162.32 181.73 153.38 209.13 162.31 209.13 162.32 209.14 162.31 209.16 162.32 209.16 162.31 236.55 153.38 263.95 162.31 263.95 162.32 263.96 162.31 263.98 162.32 263.98 162.31 291.37 153.38 318.79 162.32 318.79 157.29 291.37 148.35 263.96 157.28"/>
              <polygon class="cls-10" points="291.37 138.84 263.96 147.78 236.55 138.84 209.14 147.78 181.73 138.84 154.31 147.78 154.31 147.74 126.89 138.81 99.48 147.74 72.07 138.81 44.66 147.74 17.25 138.81 -10.17 147.74 -10.17 152.77 17.25 143.83 44.64 152.76 44.64 152.77 44.66 152.76 44.67 152.77 44.67 152.76 72.07 143.83 99.46 152.76 99.46 152.77 99.48 152.76 99.49 152.77 99.49 152.76 126.89 143.83 154.31 152.77 154.31 152.81 181.73 143.87 209.13 152.8 209.13 152.81 209.14 152.8 209.16 152.81 209.16 152.8 236.55 143.87 263.95 152.8 263.95 152.81 263.96 152.8 263.98 152.81 263.98 152.8 291.37 143.87 318.79 152.81 318.79 147.78 291.37 138.84"/>
            </g>
          </g>
        </g>
      </g>
      <g class="cls-4">
        <g>
          <rect class="cls-12" x="10.28" y="130.85" width="371.48" height="127.97"/>
          <g class="cls-3">
            <g>
              <path class="cls-10" d="m370.58,111.61c0,9.79-8.98,11.04-11.11,11.04-2.36,0-11.26-1.77-11.26-10.96s-7.36-11.63-11.48-11.63c-4.4,0-11.26,3.66-11.26,11.55,0,9.79-8.98,11.04-11.11,11.04-2.35,0-11.26-1.77-11.26-10.96s-7.24-11.58-11.38-11.62h0s-.02,0-.04,0c-.02,0-.04,0-.06,0-1.94,0-4.48.72-6.64,2.35-1.88,1.31-3.57,3.35-4.19,6.52-.23.98-.35,2.04-.35,3.2v1.15c-.95,8.26-9,9.37-11.01,9.37-2.36,0-11.26-1.77-11.26-10.96s-7.36-11.63-11.48-11.63c-4.4,0-11.26,3.66-11.26,11.55,0,9.79-8.98,11.04-11.11,11.04-2.36,0-11.26-1.77-11.26-10.96s-7.36-11.63-11.48-11.63c0,0,0,0-.02,0h0s-.03,0-.04,0c-1.6,0-3.6.5-5.46,1.59-2.83,1.49-5.69,4.38-5.69,9.96,0,9.79-8.98,11.04-11.11,11.04-2.35,0-11.26-1.77-11.26-10.96s-7.36-11.63-11.48-11.63c-4.4,0-11.26,3.66-11.26,11.55,0,9.79-8.98,11.04-11.11,11.04-2.36,0-11.26-1.77-11.26-10.96s-7.24-11.58-11.38-11.62h0s-.02,0-.04,0c-.02,0-.04,0-.06,0-1.94,0-4.48.72-6.65,2.35-1.88,1.31-3.57,3.35-4.19,6.52-.22.98-.35,2.04-.35,3.2v1.15c-.95,8.26-9,9.37-11.01,9.37-2.35,0-11.26-1.77-11.26-10.96s-7.36-11.63-11.48-11.63c-4.4,0-11.26,3.66-11.26,11.55,0,9.79-8.98,11.04-11.11,11.04-2.36,0-11.26-1.77-11.26-10.96s-7.36-11.63-11.48-11.63-11.18,3.31-11.18,12.07l.08,10.3s1.1-11.18,11.18-11.18,11.41,10.23,11.41,11.33.74,11.11,11.11,11.11,11.41-9.64,11.41-10.74c0-3.4,3.14-11.7,11.18-11.7,10.3,0,11.4,10.23,11.4,11.33s.74,11.11,11.11,11.11,11.41-9.64,11.41-10.74c0-1.87.66-4.8,2.36-7.27.02-.02.03-.05.05-.07.18-.26.38-.52.59-.77.07-.09.15-.17.23-.26.13-.15.27-.29.41-.43.25-.25.52-.49.8-.72,0,0,.02-.02.03-.03,1.59-1.27,3.72-2.15,6.55-2.15,10.3,0,11.41,10.23,11.41,11.33s.74,11.11,11.11,11.11,11.4-9.64,11.4-10.74c0-3.4,3.14-11.7,11.18-11.7,10.3,0,11.41,10.23,11.41,11.33s.74,11.11,11.11,11.11,11.41-9.64,11.41-10.74c0-.56.07-1.22.19-1.93.68-3,3.07-9.77,10.93-9.77,10.3,0,11.41,10.23,11.41,11.33s.74,11.11,11.11,11.11,11.4-9.64,11.4-10.74c0-3.4,3.14-11.7,11.18-11.7,10.3,0,11.41,10.23,11.41,11.33s.74,11.11,11.11,11.11,11.41-9.64,11.41-10.74c0-1.87.66-4.8,2.36-7.27.02-.02.03-.05.05-.07.18-.26.38-.52.59-.77.07-.09.15-.17.23-.26.13-.15.27-.29.41-.43.25-.25.51-.49.8-.72.01,0,.02-.02.03-.03,1.59-1.27,3.71-2.15,6.55-2.15,10.3,0,11.4,10.23,11.4,11.33s.74,11.11,11.11,11.11,11.41-9.64,11.41-10.74c0-3.4,3.14-11.7,11.18-11.7,10.3,0,11.41,10.23,11.41,11.33s.74,11.11,11.11,11.11,11.41-9.64,11.41-10.74c0-3.75,2.65-11.77,11.04-11.77v-11.11s-11.18.51-11.18,11.55"/>
              <path class="cls-10" d="m370.58,179.81c0,9.79-8.98,11.04-11.11,11.04-2.36,0-11.26-1.77-11.26-10.96s-7.36-11.63-11.48-11.63c-4.4,0-11.26,3.66-11.26,11.55,0,9.79-8.98,11.04-11.11,11.04-2.35,0-11.26-1.77-11.26-10.96s-7.24-11.58-11.38-11.62h0s-.02,0-.04,0c-.02,0-.04,0-.06,0-1.94,0-4.48.72-6.64,2.35-1.88,1.31-3.57,3.35-4.19,6.52-.23.98-.35,2.04-.35,3.2h0s0,1.15,0,1.15c-.96,8.26-9.01,9.37-11.02,9.37-2.36,0-11.26-1.77-11.26-10.96s-7.36-11.63-11.48-11.63c-4.4,0-11.26,3.66-11.26,11.55,0,9.79-8.98,11.04-11.11,11.04-2.36,0-11.26-1.77-11.26-10.96s-7.36-11.63-11.48-11.63c0,0,0,0-.02,0h0s-.03,0-.04,0c-1.6,0-3.6.5-5.46,1.59-2.83,1.49-5.69,4.38-5.69,9.96,0,9.79-8.98,11.04-11.11,11.04-2.35,0-11.26-1.77-11.26-10.96s-7.36-11.63-11.48-11.63c-4.4,0-11.26,3.66-11.26,11.55,0,9.79-8.98,11.04-11.11,11.04-2.36,0-11.26-1.77-11.26-10.96s-7.24-11.58-11.38-11.62h0s-.02,0-.04,0c-.02,0-.04,0-.06,0-1.94,0-4.48.72-6.65,2.35-1.88,1.31-3.57,3.35-4.19,6.52-.22.98-.35,2.04-.35,3.2h0s0,1.15,0,1.15c-.96,8.26-9.01,9.37-11.02,9.37-2.35,0-11.26-1.77-11.26-10.96s-7.36-11.63-11.48-11.63c-4.4,0-11.26,3.66-11.26,11.55,0,9.79-8.98,11.04-11.11,11.04-2.36,0-11.26-1.77-11.26-10.96s-7.36-11.63-11.48-11.63-11.18,3.31-11.18,12.07h0s.08,10.3.08,10.3c0,0,1.1-11.18,11.18-11.18s11.41,10.23,11.41,11.33.74,11.11,11.11,11.11,11.41-9.64,11.41-10.74c0-3.4,3.14-11.7,11.18-11.7,10.3,0,11.4,10.23,11.4,11.33s.74,11.11,11.11,11.11,11.41-9.64,11.41-10.74c0-1.87.66-4.8,2.36-7.27.02-.02.03-.04.05-.07.18-.26.38-.51.59-.76.07-.09.15-.17.23-.26.13-.15.27-.29.41-.43.25-.25.52-.5.8-.73,0,0,.02-.02.03-.02,1.59-1.27,3.72-2.15,6.55-2.15,10.3,0,11.41,10.23,11.41,11.33s.74,11.11,11.11,11.11,11.4-9.64,11.4-10.74c0-3.4,3.14-11.7,11.18-11.7,10.3,0,11.41,10.23,11.41,11.33s.74,11.11,11.11,11.11,11.41-9.64,11.41-10.74c0-.56.07-1.22.19-1.93.68-3,3.07-9.77,10.93-9.77,10.3,0,11.41,10.23,11.41,11.33s.74,11.11,11.11,11.11,11.4-9.64,11.4-10.74c0-3.4,3.14-11.7,11.18-11.7,10.3,0,11.41,10.23,11.41,11.33s.74,11.11,11.11,11.11,11.41-9.64,11.41-10.74c0-1.87.66-4.8,2.36-7.27.02-.02.03-.04.05-.07.18-.26.38-.51.59-.76.08-.09.15-.17.23-.26.13-.15.27-.29.41-.43.25-.25.52-.5.8-.73,0,0,.02-.02.03-.02,1.59-1.27,3.71-2.15,6.55-2.15,10.3,0,11.4,10.23,11.4,11.33s.74,11.11,11.11,11.11,11.41-9.64,11.41-10.74c0-3.4,3.14-11.7,11.18-11.7,10.3,0,11.41,10.23,11.41,11.33s.74,11.11,11.11,11.11,11.41-9.64,11.41-10.74c0-3.75,2.65-11.77,11.04-11.77v-11.11h0s-11.18.51-11.18,11.55"/>
              <path class="cls-10" d="m370.58,157.08c0,9.79-8.98,11.04-11.11,11.04-2.36,0-11.26-1.77-11.26-10.96s-7.36-11.63-11.48-11.63c-4.4,0-11.26,3.66-11.26,11.55,0,9.79-8.98,11.04-11.11,11.04-2.35,0-11.26-1.77-11.26-10.96s-7.24-11.58-11.38-11.62h0s-.02,0-.04,0c-.02,0-.04,0-.06,0-1.94,0-4.48.72-6.64,2.35-1.88,1.31-3.57,3.35-4.19,6.52-.23.98-.35,2.04-.35,3.2v1.15c-.95,8.26-9,9.37-11.01,9.37-2.36,0-11.26-1.77-11.26-10.96s-7.36-11.63-11.48-11.63c-4.4,0-11.26,3.66-11.26,11.55,0,9.79-8.98,11.04-11.11,11.04-2.36,0-11.26-1.77-11.26-10.96s-7.36-11.63-11.48-11.63h-.02s-.03,0-.04,0c-1.6,0-3.6.5-5.46,1.59-2.83,1.49-5.69,4.38-5.69,9.96,0,9.79-8.98,11.04-11.11,11.04-2.35,0-11.26-1.77-11.26-10.96s-7.36-11.63-11.48-11.63c-4.4,0-11.26,3.66-11.26,11.55,0,9.79-8.98,11.04-11.11,11.04-2.36,0-11.26-1.77-11.26-10.96s-7.24-11.58-11.38-11.62h0s-.02,0-.04,0c-.02,0-.04,0-.06,0-1.94,0-4.48.72-6.65,2.35-1.88,1.31-3.57,3.35-4.19,6.52-.22.98-.35,2.04-.35,3.2v1.15c-.95,8.26-9,9.37-11.01,9.37-2.35,0-11.26-1.77-11.26-10.96s-7.36-11.63-11.48-11.63c-4.4,0-11.26,3.66-11.26,11.55,0,9.79-8.98,11.04-11.11,11.04-2.36,0-11.26-1.77-11.26-10.96s-7.36-11.63-11.48-11.63-11.18,3.31-11.18,12.07l.08,10.3s1.1-11.18,11.18-11.18,11.41,10.23,11.41,11.33.74,11.11,11.11,11.11,11.41-9.64,11.41-10.74c0-3.4,3.14-11.7,11.18-11.7,10.3,0,11.4,10.23,11.4,11.33s.74,11.11,11.11,11.11,11.41-9.64,11.41-10.74c0-1.87.66-4.8,2.36-7.27.02-.02.03-.05.05-.07.18-.26.38-.52.59-.76.07-.09.15-.18.23-.26.13-.15.27-.29.41-.43.25-.25.52-.49.8-.72,0,0,.02-.02.03-.02,1.59-1.27,3.72-2.15,6.55-2.15,10.3,0,11.41,10.23,11.41,11.33s.74,11.11,11.11,11.11,11.4-9.64,11.4-10.74c0-3.4,3.14-11.7,11.18-11.7,10.3,0,11.41,10.23,11.41,11.33s.74,11.11,11.11,11.11,11.41-9.64,11.41-10.74c0-.56.07-1.22.19-1.93.68-3,3.07-9.77,10.93-9.77,10.3,0,11.41,10.23,11.41,11.33s.74,11.11,11.11,11.11,11.4-9.64,11.4-10.74c0-3.4,3.14-11.7,11.18-11.7,10.3,0,11.41,10.23,11.41,11.33s.74,11.11,11.11,11.11,11.41-9.64,11.41-10.74c0-1.87.66-4.8,2.36-7.27.02-.02.03-.05.05-.07.18-.26.38-.52.59-.76.08-.09.15-.18.23-.26.13-.15.27-.29.41-.43.25-.25.52-.49.8-.72.01,0,.02-.02.03-.02,1.59-1.27,3.71-2.15,6.55-2.15,10.3,0,11.4,10.23,11.4,11.33s.74,11.11,11.11,11.11,11.41-9.64,11.41-10.74c0-3.4,3.14-11.7,11.18-11.7,10.3,0,11.41,10.23,11.41,11.33s.74,11.11,11.11,11.11,11.41-9.64,11.41-10.74c0-3.75,2.65-11.77,11.04-11.77v-11.11s-11.18.51-11.18,11.55"/>
              <path class="cls-10" d="m370.58,134.34c0,9.79-8.98,11.04-11.11,11.04-2.36,0-11.26-1.77-11.26-10.96s-7.36-11.63-11.48-11.63c-4.4,0-11.26,3.66-11.26,11.55,0,9.79-8.98,11.04-11.11,11.04-2.35,0-11.26-1.77-11.26-10.96s-7.24-11.58-11.38-11.62h0s-.02,0-.04,0c-.02,0-.04,0-.06,0-1.94,0-4.48.72-6.65,2.35-1.88,1.31-3.57,3.35-4.18,6.52-.23.98-.35,2.04-.35,3.2v1.15c-.95,8.26-9,9.37-11.01,9.37-2.36,0-11.26-1.77-11.26-10.96s-7.36-11.63-11.48-11.63c-4.4,0-11.26,3.66-11.26,11.55,0,9.79-8.98,11.04-11.11,11.04-2.36,0-11.26-1.77-11.26-10.96s-7.36-11.63-11.48-11.63h-.02s-.03,0-.04,0c-1.6,0-3.6.5-5.46,1.59-2.83,1.49-5.69,4.38-5.69,9.96,0,9.79-8.98,11.04-11.11,11.04-2.35,0-11.26-1.77-11.26-10.96s-7.36-11.63-11.48-11.63c-4.4,0-11.26,3.66-11.26,11.55,0,9.79-8.98,11.04-11.11,11.04-2.36,0-11.26-1.77-11.26-10.96s-7.24-11.58-11.38-11.62h0s-.02,0-.04,0c-.02,0-.04,0-.06,0-1.94,0-4.48.72-6.65,2.35-1.88,1.31-3.57,3.35-4.18,6.52-.22.98-.35,2.04-.35,3.2v1.15c-.95,8.26-9,9.37-11.01,9.37-2.35,0-11.26-1.77-11.26-10.96s-7.36-11.63-11.48-11.63c-4.4,0-11.26,3.66-11.26,11.55,0,9.79-8.98,11.04-11.11,11.04-2.36,0-11.26-1.77-11.26-10.96s-7.36-11.63-11.48-11.63-11.18,3.31-11.18,12.07l.08,10.3s1.1-11.18,11.18-11.18,11.41,10.23,11.41,11.33.74,11.11,11.11,11.11,11.41-9.64,11.41-10.74c0-3.4,3.14-11.7,11.18-11.7,10.3,0,11.4,10.23,11.4,11.33s.74,11.11,11.11,11.11,11.41-9.64,11.41-10.74c0-1.87.66-4.8,2.36-7.27.02-.02.03-.05.05-.07.18-.26.38-.52.59-.76.07-.09.15-.18.23-.26.13-.15.27-.29.41-.43.25-.25.52-.5.8-.73,0,0,.02-.02.03-.02,1.59-1.27,3.72-2.15,6.55-2.15,10.3,0,11.41,10.23,11.41,11.33s.74,11.11,11.11,11.11,11.4-9.64,11.4-10.74c0-3.4,3.14-11.7,11.18-11.7,10.3,0,11.41,10.23,11.41,11.33s.74,11.11,11.11,11.11,11.41-9.64,11.41-10.74c0-.56.07-1.22.19-1.93.68-3,3.07-9.77,10.93-9.77,10.3,0,11.41,10.23,11.41,11.33s.74,11.11,11.11,11.11,11.4-9.64,11.4-10.74c0-3.4,3.14-11.7,11.18-11.7,10.3,0,11.41,10.23,11.41,11.33s.74,11.11,11.11,11.11,11.41-9.64,11.41-10.74c0-1.87.66-4.8,2.36-7.27.02-.02.03-.05.05-.07.18-.26.38-.52.59-.76.07-.09.15-.18.23-.26.13-.15.27-.29.41-.43.25-.25.52-.5.8-.73,0,0,.02-.02.03-.02,1.59-1.27,3.71-2.15,6.55-2.15,10.3,0,11.4,10.23,11.4,11.33s.74,11.11,11.11,11.11,11.41-9.64,11.41-10.74c0-3.4,3.14-11.7,11.18-11.7,10.3,0,11.41,10.23,11.41,11.33s.74,11.11,11.11,11.11,11.41-9.64,11.41-10.74c0-3.75,2.65-11.77,11.04-11.77v-11.11s-11.18.51-11.18,11.55"/>
              <path class="cls-10" d="m370.58,248c0,9.79-8.98,11.04-11.11,11.04-2.36,0-11.26-1.76-11.26-10.96s-7.36-11.63-11.48-11.63c-4.4,0-11.26,3.66-11.26,11.55,0,9.79-8.98,11.04-11.11,11.04-2.35,0-11.26-1.76-11.26-10.96s-7.24-11.58-11.38-11.62h0s-.02,0-.04,0c-.02,0-.04,0-.06,0-1.94,0-4.48.72-6.65,2.35-1.88,1.31-3.57,3.35-4.18,6.52-.23.98-.35,2.04-.35,3.2v1.15c-.95,8.26-9,9.37-11.01,9.37-2.36,0-11.26-1.76-11.26-10.96s-7.36-11.63-11.48-11.63c-4.4,0-11.26,3.66-11.26,11.55,0,9.79-8.98,11.04-11.11,11.04-2.36,0-11.26-1.76-11.26-10.96s-7.36-11.63-11.48-11.63c0,0,0,0-.02,0h0s-.03,0-.04,0c-1.6,0-3.6.5-5.46,1.59-2.83,1.5-5.69,4.38-5.69,9.96,0,9.79-8.98,11.04-11.11,11.04-2.35,0-11.26-1.76-11.26-10.96s-7.36-11.63-11.48-11.63c-4.4,0-11.26,3.66-11.26,11.55,0,9.79-8.98,11.04-11.11,11.04-2.36,0-11.26-1.76-11.26-10.96s-7.24-11.58-11.38-11.62h0s-.02,0-.04,0c-.02,0-.04,0-.06,0-1.94,0-4.48.72-6.65,2.35-1.88,1.31-3.57,3.35-4.18,6.52-.22.98-.35,2.04-.35,3.2v1.15c-.95,8.26-9,9.37-11.01,9.37-2.35,0-11.26-1.76-11.26-10.96s-7.36-11.63-11.48-11.63c-4.4,0-11.26,3.66-11.26,11.55,0,9.79-8.98,11.04-11.11,11.04-2.36,0-11.26-1.76-11.26-10.96s-7.36-11.63-11.48-11.63-11.18,3.31-11.18,12.07l.08,10.3s1.1-11.18,11.18-11.18,11.41,10.23,11.41,11.33.74,11.11,11.11,11.11,11.41-9.64,11.41-10.74c0-3.4,3.14-11.7,11.18-11.7,10.3,0,11.4,10.23,11.4,11.33s.74,11.11,11.11,11.11,11.41-9.64,11.41-10.74c0-1.87.66-4.8,2.36-7.27.02-.02.03-.05.05-.07.18-.26.38-.51.59-.76.07-.09.15-.18.23-.26.13-.15.27-.29.41-.43.25-.25.52-.5.8-.72,0,0,.02-.02.03-.03,1.59-1.27,3.72-2.15,6.55-2.15,10.3,0,11.41,10.23,11.41,11.33s.74,11.11,11.11,11.11,11.4-9.64,11.4-10.74c0-3.4,3.14-11.7,11.18-11.7,10.3,0,11.41,10.23,11.41,11.33s.74,11.11,11.11,11.11,11.41-9.64,11.41-10.74c0-.56.07-1.22.19-1.93.68-3,3.07-9.77,10.93-9.77,10.3,0,11.41,10.23,11.41,11.33s.74,11.11,11.11,11.11,11.4-9.64,11.4-10.74c0-3.4,3.14-11.7,11.18-11.7,10.3,0,11.41,10.23,11.41,11.33s.74,11.11,11.11,11.11,11.41-9.64,11.41-10.74c0-1.87.66-4.8,2.36-7.27.02-.02.03-.05.05-.07.18-.26.38-.51.59-.76.08-.09.15-.18.23-.26.13-.15.27-.29.41-.43.25-.25.52-.5.8-.72.01,0,.02-.02.03-.03,1.59-1.27,3.71-2.15,6.55-2.15,10.3,0,11.4,10.23,11.4,11.33s.74,11.11,11.11,11.11,11.41-9.64,11.41-10.74c0-3.4,3.14-11.7,11.18-11.7,10.3,0,11.41,10.23,11.41,11.33s.74,11.11,11.11,11.11,11.41-9.64,11.41-10.74c0-3.75,2.65-11.77,11.04-11.77v-11.11s-11.18.51-11.18,11.55"/>
              <path class="cls-10" d="m370.58,225.27c0,9.79-8.98,11.04-11.11,11.04-2.36,0-11.26-1.77-11.26-10.96s-7.36-11.63-11.48-11.63c-4.4,0-11.26,3.66-11.26,11.55,0,9.79-8.98,11.04-11.11,11.04-2.35,0-11.26-1.77-11.26-10.96s-7.24-11.58-11.38-11.62h0s-.02,0-.04,0c-.02,0-.04,0-.06,0-1.94,0-4.48.72-6.64,2.35-1.88,1.31-3.57,3.35-4.19,6.52-.23.98-.35,2.04-.35,3.2v1.15c-.95,8.26-9,9.37-11.01,9.37-2.36,0-11.26-1.77-11.26-10.96s-7.36-11.63-11.48-11.63c-4.4,0-11.26,3.66-11.26,11.55,0,9.79-8.98,11.04-11.11,11.04-2.36,0-11.26-1.77-11.26-10.96s-7.36-11.63-11.48-11.63c0,0,0,0-.02,0h0s-.03,0-.04,0c-1.6,0-3.6.5-5.46,1.59-2.83,1.5-5.69,4.38-5.69,9.96,0,9.79-8.98,11.04-11.11,11.04-2.35,0-11.26-1.77-11.26-10.96s-7.36-11.63-11.48-11.63c-4.4,0-11.26,3.66-11.26,11.55,0,9.79-8.98,11.04-11.11,11.04-2.36,0-11.26-1.77-11.26-10.96s-7.24-11.58-11.38-11.62h0s-.02,0-.04,0c-.02,0-.04,0-.06,0-1.94,0-4.48.72-6.65,2.35-1.88,1.31-3.57,3.35-4.19,6.52-.22.98-.35,2.04-.35,3.2v1.15c-.95,8.26-9,9.37-11.01,9.37-2.35,0-11.26-1.77-11.26-10.96s-7.36-11.63-11.48-11.63c-4.4,0-11.26,3.66-11.26,11.55,0,9.79-8.98,11.04-11.11,11.04-2.36,0-11.26-1.77-11.26-10.96s-7.36-11.63-11.48-11.63-11.18,3.31-11.18,12.07l.08,10.3s1.1-11.18,11.18-11.18,11.41,10.23,11.41,11.33.74,11.11,11.11,11.11,11.41-9.64,11.41-10.74c0-3.4,3.14-11.7,11.18-11.7,10.3,0,11.4,10.23,11.4,11.33s.74,11.11,11.11,11.11,11.41-9.64,11.41-10.74c0-1.87.66-4.8,2.36-7.27.02-.02.03-.05.05-.07.18-.26.38-.51.59-.76.07-.09.15-.17.23-.26.13-.15.27-.29.41-.43.25-.25.52-.49.8-.72,0,0,.02-.02.03-.03,1.59-1.27,3.72-2.15,6.55-2.15,10.3,0,11.41,10.23,11.41,11.33s.74,11.11,11.11,11.11,11.4-9.64,11.4-10.74c0-3.4,3.14-11.7,11.18-11.7,10.3,0,11.41,10.23,11.41,11.33s.74,11.11,11.11,11.11,11.41-9.64,11.41-10.74c0-.56.07-1.22.19-1.93.68-3,3.07-9.77,10.93-9.77,10.3,0,11.41,10.23,11.41,11.33s.74,11.11,11.11,11.11,11.4-9.64,11.4-10.74c0-3.4,3.14-11.7,11.18-11.7,10.3,0,11.41,10.23,11.41,11.33s.74,11.11,11.11,11.11,11.41-9.64,11.41-10.74c0-1.87.66-4.8,2.36-7.27.02-.02.03-.05.05-.07.18-.26.38-.51.59-.76.07-.09.15-.17.23-.26.13-.15.27-.29.41-.43.25-.25.51-.49.8-.72.01,0,.02-.02.03-.03,1.59-1.27,3.71-2.15,6.55-2.15,10.3,0,11.4,10.23,11.4,11.33s.74,11.11,11.11,11.11,11.41-9.64,11.41-10.74c0-3.4,3.14-11.7,11.18-11.7,10.3,0,11.41,10.23,11.41,11.33s.74,11.11,11.11,11.11,11.41-9.64,11.41-10.74c0-3.75,2.65-11.77,11.04-11.77v-11.11s-11.18.51-11.18,11.55"/>
              <path class="cls-10" d="m370.58,202.54c0,9.79-8.98,11.04-11.11,11.04-2.36,0-11.26-1.77-11.26-10.96s-7.36-11.63-11.48-11.63c-4.4,0-11.26,3.66-11.26,11.55,0,9.79-8.98,11.04-11.11,11.04-2.35,0-11.26-1.77-11.26-10.96s-7.24-11.58-11.38-11.62h0s-.02,0-.04,0c-.02,0-.04,0-.06,0-1.94,0-4.48.72-6.65,2.35-1.88,1.31-3.57,3.35-4.18,6.52-.23.98-.35,2.04-.35,3.2v1.15c-.95,8.26-9,9.37-11.01,9.37-2.36,0-11.26-1.77-11.26-10.96s-7.36-11.63-11.48-11.63c-4.4,0-11.26,3.66-11.26,11.55,0,9.79-8.98,11.04-11.11,11.04-2.36,0-11.26-1.77-11.26-10.96s-7.36-11.63-11.48-11.63c0,0,0,0-.02,0h0s-.03,0-.04,0c-1.6,0-3.6.5-5.46,1.59-2.83,1.49-5.69,4.38-5.69,9.96,0,9.79-8.98,11.04-11.11,11.04-2.35,0-11.26-1.77-11.26-10.96s-7.36-11.63-11.48-11.63c-4.4,0-11.26,3.66-11.26,11.55,0,9.79-8.98,11.04-11.11,11.04-2.36,0-11.26-1.77-11.26-10.96s-7.24-11.58-11.38-11.62h0s-.02,0-.04,0c-.02,0-.04,0-.06,0-1.94,0-4.48.72-6.65,2.35-1.88,1.31-3.57,3.35-4.18,6.52-.22.98-.35,2.04-.35,3.2v1.15c-.95,8.26-9,9.37-11.01,9.37-2.35,0-11.26-1.77-11.26-10.96s-7.36-11.63-11.48-11.63c-4.4,0-11.26,3.66-11.26,11.55,0,9.79-8.98,11.04-11.11,11.04-2.36,0-11.26-1.77-11.26-10.96s-7.36-11.63-11.48-11.63-11.18,3.31-11.18,12.07l.08,10.3s1.1-11.18,11.18-11.18,11.41,10.23,11.41,11.33.74,11.11,11.11,11.11,11.41-9.64,11.41-10.74c0-3.4,3.14-11.7,11.18-11.7,10.3,0,11.4,10.23,11.4,11.33s.74,11.11,11.11,11.11,11.41-9.64,11.41-10.74c0-1.87.66-4.8,2.36-7.27.02-.02.03-.05.05-.07.18-.26.38-.51.59-.76.07-.09.15-.17.23-.26.13-.15.27-.29.41-.43.25-.25.52-.49.8-.72,0,0,.02-.02.03-.03,1.59-1.27,3.72-2.15,6.55-2.15,10.3,0,11.41,10.23,11.41,11.33s.74,11.11,11.11,11.11,11.4-9.64,11.4-10.74c0-3.4,3.14-11.7,11.18-11.7,10.3,0,11.41,10.23,11.41,11.33s.74,11.11,11.11,11.11,11.41-9.64,11.41-10.74c0-.56.07-1.22.19-1.93.68-3,3.07-9.77,10.93-9.77,10.3,0,11.41,10.23,11.41,11.33s.74,11.11,11.11,11.11,11.4-9.64,11.4-10.74c0-3.4,3.14-11.7,11.18-11.7,10.3,0,11.41,10.23,11.41,11.33s.74,11.11,11.11,11.11,11.41-9.64,11.41-10.74c0-1.87.66-4.8,2.36-7.27.02-.02.03-.05.05-.07.18-.26.38-.51.59-.76.08-.09.15-.17.23-.26.13-.15.27-.29.41-.43.25-.25.52-.49.8-.72.01,0,.02-.02.03-.03,1.59-1.27,3.71-2.15,6.55-2.15,10.3,0,11.4,10.23,11.4,11.33s.74,11.11,11.11,11.11,11.41-9.64,11.41-10.74c0-3.4,3.14-11.7,11.18-11.7,10.3,0,11.41,10.23,11.41,11.33s.74,11.11,11.11,11.11,11.41-9.64,11.41-10.74c0-3.75,2.65-11.77,11.04-11.77v-11.11s-11.18.51-11.18,11.55"/>
            </g>
          </g>
        </g>
      </g>
      <polygon class="cls-6" points="371.76 247.43 .72 249.59 1.24 -4.33 371.76 -4.33 371.76 247.43"/>
      <rect class="cls-6" x="0" y="29.7" width="216.66" height="221.18"/>
      <g>
        <text class="cls-15" transform="translate(144.82 118.02)"><tspan x="0" y="0">THAILAND</tspan></text>
        <text class="cls-14" transform="translate(45.16 157.8)"><tspan x="0" y="0">CHIANG MAI</tspan></text>
      </g>
    </g>
  </g>
</svg>