<?xml version="1.0" encoding="UTF-8"?>
<svg id="Layer_2" data-name="Layer 2" xmlns="http://www.w3.org/2000/svg" xmlns:xlink="http://www.w3.org/1999/xlink" viewBox="0 0 58.94 29.87">
  <defs>
    <style>
      .cls-1 {
        fill: #fdea34;
      }

      .cls-2, .cls-3 {
        fill: none;
      }

      .cls-3 {
        clip-path: url(#clippath);
      }
    </style>
    <clipPath id="clippath">
      <rect class="cls-2" width="58.94" height="29.87"/>
    </clipPath>
  </defs>
  <g id="Copy">
    <g id="Group_202" data-name="Group 202">
      <g class="cls-3">
        <g id="Group_201" data-name="Group 201">
          <path id="Path_923" data-name="Path 923" class="cls-1" d="m0,19.61c1.49-.83,2.87-1.61,4.27-2.35.27-.1.57-.1.84,0,2.78.83,5.55,1.7,8.33,2.52.3.09.61.07.9-.05,3.47-1.76,6.93-3.54,10.39-5.32.1-.05.19-.12.38-.23L4.64,2.75c1.14-.52,2.25-1.12,3.32-1.78C9.3.06,11.03-.1,12.52.57c7.91,2.55,15.85,4.99,23.79,7.43.34.08.7.04,1.02-.11,4.54-2.34,9.07-4.72,13.6-7.07,1.77-1.1,4.02-1.09,5.78.04,2.3,1.51,2.93,4.6,1.42,6.9-.14.21-.29.41-.46.6-.71.85-1.57,1.55-2.54,2.08-12.15,6.32-24.34,12.57-36.5,18.87-1.59.88-3.56.71-4.98-.43-2.63-1.78-5.26-3.56-7.89-5.35-1.7-1.15-3.39-2.3-5.09-3.45-.19-.13-.37-.26-.65-.47"/>
        </g>
      </g>
    </g>
  </g>
</svg>