<?xml version="1.0" encoding="UTF-8"?>
<svg id="Layer_2" data-name="Layer 2" xmlns="http://www.w3.org/2000/svg" xmlns:xlink="http://www.w3.org/1999/xlink" viewBox="0 0 873.79 743.2">
  <defs>
    <style>
      .cls-1 {
        clip-path: url(#clippath-4);
      }

      .cls-1, .cls-2, .cls-3, .cls-4, .cls-5, .cls-6 {
        fill: none;
      }

      .cls-2 {
        clip-path: url(#clippath-2);
      }

      .cls-7 {
        fill: #fdea34;
      }

      .cls-8 {
        fill: #18a36f;
      }

      .cls-3 {
        clip-path: url(#clippath-3);
      }

      .cls-9 {
        fill: #c5217b;
      }

      .cls-5 {
        clip-path: url(#clippath);
      }

      .cls-10 {
        fill: #e8cb60;
      }

      .cls-6 {
        clip-path: url(#clippath-1);
      }

      .cls-11 {
        fill: #c45634;
      }

      .cls-12 {
        fill: #47a374;
      }
    </style>
    <clipPath id="clippath">
      <rect class="cls-4" x="214.58" y="376.07" width="366.93" height="223.28"/>
    </clipPath>
    <clipPath id="clippath-1">
      <rect class="cls-4" x="210.54" y="277.57" width="375" height="319"/>
    </clipPath>
    <clipPath id="clippath-2">
      <path class="cls-4" d="m558.57,378.11c-.09-.05-.18-.11-.28-.15v.3c-21.41,11.27-19.8,45.13-19.8,45.13h-13.75v13.05c-45.11,0-46.76,54.83-46.76,54.83h-12.1v15.66h-8.26v90.86l100.68.52h.55l100.66-.52v-90.86h-8.25v-15.66h-12.1s-1.65-54.83-46.76-54.83v-13.05h-13.75s1.61-33.86-19.8-45.13v-.3c-.1.05-.18.1-.28.15"/>
    </clipPath>
    <clipPath id="clippath-3">
      <rect class="cls-4" x="210.54" width="375" height="599.56"/>
    </clipPath>
    <clipPath id="clippath-4">
      <rect class="cls-4" x="396.09" y="467.56" width="143.86" height="232.56" transform="translate(-147.14 1009.86) rotate(-85.99)"/>
    </clipPath>
  </defs>
  <g id="Background">
    <g id="Footer">
      <g id="Q4_Buildings" data-name="Q4 Buildings">
        <g class="cls-5">
          <g id="Group_214" data-name="Group 214">
            <path id="Path_980" data-name="Path 980" class="cls-12" d="m214.58,471.17h55.77l.04-28.25h15.73l41.26-20.68,41.65,21.11h15.02v13.1h20.81v-6.19h-7.87l23.6-22.06,25.83,22.12h-8.58l.02,6.01h32.11l-.11,10.09h33.65l-.32-28.16h67.49v12.81l25.97.13v-15.43h-6.44v-9.33h7.87v-27.25h-5.72v-7.77h15.02v-17.62h-7.86v-10.6h6.43s-1.38-21.13,17.73-21.13,17.73,21.14,17.73,21.14h6.44v10.6h-7.87v17.62h15.02v7.77h-5.72v27.25h7.87v9.33h-6.44l.04,9.65,30.22.61v-39.43h191.41c-2.15,0,1.44,336.6,1.44,336.6l-659.22-2.13v-269.9Z"/>
          </g>
        </g>
        <g>
          <g class="cls-6">
            <g id="Group_40" data-name="Group 40">
              <path id="Path_69" data-name="Path 69" class="cls-11" d="m659.54,506.93h-8.25v-15.66h-12.1s-1.65-54.83-46.76-54.83v-13.05h-13.75s1.61-33.86-19.8-45.13v-.3c-.1.05-.18.1-.28.15-.09-.05-.18-.1-.28-.15v.3c-21.41,11.27-19.8,45.13-19.8,45.13h-13.75v13.05c-45.1,0-46.76,54.83-46.76,54.83h-12.1v15.66h-8.25v90.86l100.68.52h.55l100.66-.52v-90.86Z"/>
              <g id="Group_39" data-name="Group 39">
                <g class="cls-2">
                  <g id="Group_38" data-name="Group 38">
                    <path id="Path_70" data-name="Path 70" class="cls-10" d="m520.37,500.71l5.77,5.47h8.15v7.74l5.76,5.47-5.76,5.47v7.74h-8.15l-5.77,5.47-5.76-5.47h-8.16v-7.74l-5.77-5.47,5.77-5.47v-7.74h8.16l5.76-5.47Z"/>
                    <path id="Path_71" data-name="Path 71" class="cls-10" d="m540.05,530.34l2.39,2.27h3.38v3.2l2.39,2.27-2.39,2.26v3.21h-3.38l-2.39,2.27-2.39-2.27h-3.38v-3.21l-2.39-2.26,2.39-2.27v-3.2h3.38l2.39-2.27Z"/>
                    <path id="Path_72" data-name="Path 72" class="cls-10" d="m559.74,500.71l5.77,5.47h8.15v7.74l5.77,5.47-5.77,5.47v7.74h-8.15l-5.77,5.47-5.76-5.47h-8.16v-7.74l-5.77-5.47,5.77-5.47v-7.74h8.16l5.76-5.47Z"/>
                    <path id="Path_73" data-name="Path 73" class="cls-10" d="m579.42,530.34l2.39,2.27h3.38v3.2l2.39,2.27-2.39,2.26v3.21h-3.38l-2.39,2.27-2.39-2.27h-3.38v-3.21l-2.39-2.26,2.39-2.27v-3.2h3.38l2.39-2.27Z"/>
                    <path id="Path_74" data-name="Path 74" class="cls-10" d="m599.11,500.71l5.76,5.47h8.15v7.74l5.77,5.47-5.77,5.47v7.74h-8.15l-5.76,5.47-5.77-5.47h-8.15v-7.74l-5.77-5.47,5.77-5.47v-7.74h8.15l5.77-5.47Z"/>
                    <path id="Path_75" data-name="Path 75" class="cls-10" d="m618.79,530.34l2.39,2.27h3.38v3.2l2.39,2.27-2.39,2.26v3.21h-3.38l-2.39,2.27-2.39-2.27h-3.38v-3.21l-2.39-2.26,2.39-2.27v-3.2h3.38l2.39-2.27Z"/>
                    <path id="Path_76" data-name="Path 76" class="cls-10" d="m638.47,500.71l5.77,5.47h8.15v7.74l5.76,5.47-5.76,5.47v7.74h-8.15l-5.77,5.47-5.76-5.47h-8.15v-7.74l-5.77-5.47,5.77-5.47v-7.74h8.16l5.76-5.47Z"/>
                    <path id="Path_77" data-name="Path 77" class="cls-10" d="m658.16,530.34l2.39,2.27h3.38v3.2l2.39,2.27-2.39,2.26v3.21h-3.37l-2.39,2.27-2.39-2.27h-3.37v-3.21l-2.39-2.26,2.39-2.27v-3.2h3.38l2.38-2.27Z"/>
                    <path id="Path_78" data-name="Path 78" class="cls-10" d="m520.37,538.07l5.77,5.47h8.15v7.74l5.76,5.47-5.76,5.48v7.74h-8.15l-5.77,5.47-5.76-5.47h-8.16v-7.74l-5.77-5.48,5.77-5.47v-7.74h8.16l5.76-5.48Z"/>
                    <path id="Path_79" data-name="Path 79" class="cls-10" d="m540.05,567.71l2.39,2.27h3.38v3.2l2.39,2.27-2.39,2.27v3.2h-3.38l-2.39,2.26-2.39-2.26h-3.38v-3.2l-2.39-2.27,2.39-2.27v-3.2h3.38l2.39-2.27Z"/>
                    <path id="Path_80" data-name="Path 80" class="cls-10" d="m559.74,538.07l5.77,5.47h8.15v7.74l5.77,5.47-5.77,5.48v7.74h-8.15l-5.77,5.47-5.76-5.47h-8.16v-7.74l-5.77-5.48,5.77-5.47v-7.74h8.16l5.76-5.48Z"/>
                    <path id="Path_81" data-name="Path 81" class="cls-10" d="m579.42,567.71l2.39,2.27h3.38v3.2l2.39,2.27-2.39,2.27v3.2h-3.38l-2.39,2.26-2.39-2.26h-3.38v-3.2l-2.39-2.27,2.39-2.27v-3.2h3.38l2.39-2.27Z"/>
                    <path id="Path_82" data-name="Path 82" class="cls-10" d="m599.11,538.07l5.76,5.47h8.15v7.74l5.77,5.47-5.77,5.48v7.74h-8.15l-5.76,5.47-5.77-5.47h-8.15v-7.74l-5.77-5.48,5.77-5.47v-7.74h8.15l5.77-5.48Z"/>
                    <path id="Path_83" data-name="Path 83" class="cls-10" d="m618.79,567.71l2.39,2.27h3.38v3.2l2.39,2.27-2.39,2.27v3.2h-3.38l-2.39,2.26-2.39-2.26h-3.38v-3.2l-2.39-2.27,2.39-2.27v-3.2h3.38l2.39-2.27Z"/>
                    <path id="Path_84" data-name="Path 84" class="cls-10" d="m638.47,538.07l5.77,5.47h8.15v7.74l5.76,5.47-5.76,5.48v7.74h-8.15l-5.77,5.47-5.76-5.47h-8.15v-7.74l-5.77-5.48,5.77-5.47v-7.74h8.16l5.76-5.48Z"/>
                    <path id="Path_85" data-name="Path 85" class="cls-10" d="m658.16,567.71l2.39,2.27h3.38v3.2l2.39,2.27-2.39,2.27v3.2h-3.37l-2.39,2.26-2.39-2.26h-3.37v-3.2l-2.39-2.27,2.39-2.27v-3.2h3.38l2.38-2.27Z"/>
                    <path id="Path_86" data-name="Path 86" class="cls-10" d="m520.37,575.45l5.77,5.47h8.15v7.74l5.76,5.47-5.76,5.48v7.74h-8.15l-5.77,5.47-5.76-5.47h-8.16v-7.74l-5.77-5.48,5.77-5.47v-7.74h8.16l5.76-5.47Z"/>
                    <path id="Path_87" data-name="Path 87" class="cls-10" d="m559.74,575.45l5.77,5.47h8.15v7.74l5.77,5.47-5.77,5.48v7.74h-8.15l-5.77,5.47-5.76-5.47h-8.16v-7.74l-5.77-5.48,5.77-5.47v-7.74h8.16l5.76-5.47Z"/>
                    <path id="Path_88" data-name="Path 88" class="cls-10" d="m599.11,575.45l5.76,5.47h8.15v7.74l5.77,5.47-5.77,5.48v7.74h-8.15l-5.76,5.47-5.77-5.47h-8.15v-7.74l-5.77-5.48,5.77-5.47v-7.74h8.15l5.77-5.47Z"/>
                    <path id="Path_89" data-name="Path 89" class="cls-10" d="m638.47,575.45l5.77,5.47h8.15v7.74l5.76,5.47-5.76,5.48v7.74h-8.15l-5.77,5.47-5.76-5.47h-8.15v-7.74l-5.77-5.48,5.77-5.47v-7.74h8.16l5.76-5.47Z"/>
                    <path id="Path_90" data-name="Path 90" class="cls-10" d="m520.15,351.17l5.77,5.47h8.15v7.74l5.76,5.48-5.76,5.47v7.74h-8.15l-5.77,5.47-5.76-5.47h-8.16v-7.74l-5.77-5.47,5.77-5.48v-7.74h8.16l5.76-5.47Z"/>
                    <path id="Path_91" data-name="Path 91" class="cls-10" d="m539.84,380.8l2.39,2.27h3.38v3.2l2.39,2.26-2.39,2.27v3.2h-3.38l-2.39,2.27-2.39-2.27h-3.38v-3.2l-2.39-2.27,2.39-2.26v-3.2h3.38l2.39-2.27Z"/>
                    <path id="Path_92" data-name="Path 92" class="cls-10" d="m559.52,351.17l5.77,5.47h8.15v7.74l5.77,5.48-5.77,5.47v7.74h-8.15l-5.77,5.47-5.77-5.47h-8.15v-7.74l-5.77-5.47,5.77-5.48v-7.74h8.15l5.77-5.47Z"/>
                    <path id="Path_93" data-name="Path 93" class="cls-10" d="m579.21,380.8l2.39,2.27h3.37v3.2l2.39,2.26-2.39,2.27v3.2h-3.37l-2.39,2.27-2.39-2.27h-3.38v-3.2l-2.39-2.27,2.39-2.26v-3.2h3.38l2.38-2.27Z"/>
                    <path id="Path_94" data-name="Path 94" class="cls-10" d="m598.9,351.17l5.76,5.47h8.16v7.74l5.77,5.48-5.77,5.47v7.74h-8.16l-5.76,5.47-5.77-5.47h-8.15v-7.74l-5.76-5.47,5.76-5.48v-7.74h8.15l5.77-5.47Z"/>
                    <path id="Path_95" data-name="Path 95" class="cls-10" d="m618.58,380.8l2.39,2.27h3.38v3.2l2.39,2.26-2.39,2.27v3.2h-3.38l-2.39,2.27-2.39-2.27h-3.38v-3.2l-2.39-2.27,2.39-2.26v-3.2h3.37l2.39-2.27Z"/>
                    <path id="Path_96" data-name="Path 96" class="cls-10" d="m638.26,351.17l5.77,5.47h8.15v7.74l5.77,5.48-5.77,5.47v7.74h-8.15l-5.77,5.47-5.76-5.47h-8.16v-7.74l-5.77-5.47,5.77-5.48v-7.74h8.16l5.76-5.47Z"/>
                    <path id="Path_97" data-name="Path 97" class="cls-10" d="m657.94,380.8l2.39,2.27h3.38v3.2l2.39,2.26-2.39,2.27v3.2h-3.38l-2.39,2.27-2.39-2.27h-3.38v-3.2l-2.39-2.27,2.39-2.26v-3.2h3.38l2.39-2.27Z"/>
                    <path id="Path_98" data-name="Path 98" class="cls-10" d="m520.15,388.53l5.77,5.48h8.15v7.74l5.76,5.47-5.76,5.48v7.74h-8.15l-5.77,5.47-5.76-5.47h-8.16v-7.74l-5.77-5.48,5.77-5.47v-7.74h8.16l5.76-5.48Z"/>
                    <path id="Path_99" data-name="Path 99" class="cls-10" d="m539.84,418.17l2.39,2.27h3.38v3.2l2.39,2.27-2.39,2.27v3.2h-3.38l-2.39,2.27-2.39-2.27h-3.38v-3.2l-2.39-2.27,2.39-2.27v-3.2h3.38l2.39-2.27Z"/>
                    <path id="Path_100" data-name="Path 100" class="cls-10" d="m559.52,388.53l5.77,5.48h8.15v7.74l5.77,5.47-5.77,5.48v7.74h-8.15l-5.77,5.47-5.77-5.47h-8.15v-7.74l-5.77-5.48,5.77-5.47v-7.74h8.15l5.77-5.48Z"/>
                    <path id="Path_101" data-name="Path 101" class="cls-10" d="m579.21,418.17l2.39,2.27h3.37v3.2l2.39,2.27-2.39,2.27v3.2h-3.37l-2.39,2.27-2.39-2.27h-3.38v-3.2l-2.39-2.27,2.39-2.27v-3.2h3.38l2.38-2.27Z"/>
                    <path id="Path_102" data-name="Path 102" class="cls-10" d="m598.9,388.53l5.76,5.48h8.16v7.74l5.77,5.47-5.77,5.48v7.74h-8.16l-5.76,5.48-5.77-5.47h-8.15v-7.74l-5.76-5.48,5.76-5.47v-7.74h8.15l5.77-5.48Z"/>
                    <path id="Path_103" data-name="Path 103" class="cls-10" d="m618.58,418.17l2.39,2.27h3.38v3.2l2.39,2.27-2.39,2.27v3.2h-3.38l-2.39,2.27-2.39-2.27h-3.38v-3.2l-2.39-2.27,2.39-2.27v-3.2h3.37l2.39-2.27Z"/>
                    <path id="Path_104" data-name="Path 104" class="cls-10" d="m638.26,388.53l5.77,5.48h8.15v7.74l5.77,5.47-5.77,5.48v7.74h-8.15l-5.77,5.47-5.76-5.47h-8.16v-7.74l-5.77-5.48,5.77-5.47v-7.74h8.16l5.76-5.48Z"/>
                    <path id="Path_105" data-name="Path 105" class="cls-10" d="m657.94,418.17l2.39,2.27h3.38v3.2l2.39,2.27-2.39,2.27v3.2h-3.38l-2.39,2.27-2.39-2.27h-3.38v-3.2l-2.39-2.27,2.39-2.27v-3.2h3.38l2.39-2.27Z"/>
                    <path id="Path_106" data-name="Path 106" class="cls-10" d="m520.15,425.91l5.77,5.47h8.15v7.74l5.76,5.47-5.76,5.47v7.74h-8.15l-5.77,5.47-5.76-5.47h-8.16v-7.74l-5.77-5.47,5.77-5.47v-7.74h8.16l5.76-5.47Z"/>
                    <path id="Path_107" data-name="Path 107" class="cls-10" d="m539.84,455.54l2.39,2.27h3.38v3.2l2.39,2.27-2.39,2.27v3.2h-3.38l-2.39,2.27-2.39-2.27h-3.38v-3.2l-2.39-2.27,2.39-2.27v-3.2h3.38l2.39-2.27Z"/>
                    <path id="Path_108" data-name="Path 108" class="cls-10" d="m559.52,425.91l5.77,5.47h8.15v7.74l5.77,5.47-5.77,5.47v7.74h-8.15l-5.77,5.47-5.77-5.47h-8.15v-7.74l-5.77-5.47,5.77-5.47v-7.74h8.15l5.77-5.47Z"/>
                    <path id="Path_109" data-name="Path 109" class="cls-10" d="m579.21,455.54l2.39,2.27h3.37v3.2l2.39,2.27-2.39,2.27v3.2h-3.37l-2.39,2.27-2.39-2.27h-3.38v-3.2l-2.39-2.27,2.39-2.27v-3.2h3.38l2.38-2.27Z"/>
                    <path id="Path_110" data-name="Path 110" class="cls-10" d="m598.9,425.91l5.76,5.47h8.16v7.74l5.77,5.47-5.77,5.47v7.74h-8.16l-5.76,5.47-5.77-5.47h-8.15v-7.74l-5.76-5.47,5.76-5.47v-7.74h8.15l5.77-5.47Z"/>
                    <path id="Path_111" data-name="Path 111" class="cls-10" d="m618.58,455.54l2.39,2.27h3.38v3.2l2.39,2.27-2.39,2.27v3.2h-3.38l-2.39,2.27-2.39-2.27h-3.38v-3.2l-2.39-2.27,2.39-2.27v-3.2h3.37l2.39-2.27Z"/>
                    <path id="Path_112" data-name="Path 112" class="cls-10" d="m638.26,425.91l5.77,5.47h8.15v7.74l5.77,5.47-5.77,5.47v7.74h-8.15l-5.77,5.47-5.76-5.47h-8.16v-7.74l-5.77-5.47,5.77-5.47v-7.74h8.16l5.76-5.47Z"/>
                    <path id="Path_113" data-name="Path 113" class="cls-10" d="m657.94,455.54l2.39,2.27h3.38v3.2l2.39,2.27-2.39,2.27v3.2h-3.38l-2.39,2.27-2.39-2.27h-3.38v-3.2l-2.39-2.27,2.39-2.27v-3.2h3.38l2.39-2.27Z"/>
                    <path id="Path_114" data-name="Path 114" class="cls-10" d="m520.15,463.28l5.77,5.47h8.15v7.74l5.76,5.47-5.76,5.47v7.74h-8.15l-5.77,5.47-5.76-5.47h-8.16v-7.74l-5.77-5.47,5.77-5.47v-7.74h8.16l5.76-5.47Z"/>
                    <path id="Path_115" data-name="Path 115" class="cls-10" d="m539.84,492.91l2.39,2.27h3.38v3.2l2.39,2.27-2.39,2.27v3.2h-3.38l-2.39,2.27-2.39-2.27h-3.38v-3.2l-2.39-2.27,2.39-2.27v-3.2h3.38l2.39-2.27Z"/>
                    <path id="Path_116" data-name="Path 116" class="cls-10" d="m481.68,500.71l5.76,5.47h8.16v7.74l5.77,5.47-5.77,5.47v7.74h-8.16l-5.76,5.47-5.77-5.47h-8.15v-7.74l-5.77-5.47,5.77-5.47v-7.74h8.15l5.77-5.47Z"/>
                    <path id="Path_117" data-name="Path 117" class="cls-10" d="m501.37,530.34l2.39,2.27h3.38v3.2l2.39,2.27-2.39,2.26v3.21h-3.38l-2.39,2.27-2.39-2.27h-3.38v-3.21l-2.39-2.26,2.39-2.27v-3.2h3.38l2.39-2.27Z"/>
                    <path id="Path_118" data-name="Path 118" class="cls-10" d="m481.68,538.07l5.76,5.47h8.16v7.74l5.77,5.47-5.77,5.48v7.74h-8.16l-5.76,5.47-5.77-5.47h-8.15v-7.74l-5.77-5.48,5.77-5.47v-7.74h8.15l5.77-5.48Z"/>
                    <path id="Path_119" data-name="Path 119" class="cls-10" d="m501.37,567.71l2.39,2.27h3.38v3.2l2.39,2.27-2.39,2.27v3.2h-3.38l-2.39,2.26-2.39-2.26h-3.38v-3.2l-2.39-2.27,2.39-2.27v-3.2h3.38l2.39-2.27Z"/>
                    <path id="Path_120" data-name="Path 120" class="cls-10" d="m481.68,575.45l5.76,5.47h8.16v7.74l5.77,5.47-5.77,5.48v7.74h-8.16l-5.76,5.47-5.77-5.47h-8.15v-7.74l-5.77-5.48,5.77-5.47v-7.74h8.15l5.77-5.47Z"/>
                    <path id="Path_121" data-name="Path 121" class="cls-10" d="m481.47,425.91l5.76,5.47h8.15v7.74l5.77,5.47-5.77,5.47v7.74h-8.15l-5.76,5.47-5.77-5.47h-8.15v-7.74l-5.76-5.47,5.76-5.47v-7.74h8.15l5.77-5.47Z"/>
                    <path id="Path_122" data-name="Path 122" class="cls-10" d="m501.15,455.54l2.39,2.27h3.38v3.2l2.39,2.27-2.39,2.27v3.2h-3.38l-2.39,2.27-2.39-2.27h-3.38v-3.2l-2.39-2.27,2.39-2.27v-3.2h3.37l2.4-2.27Z"/>
                    <path id="Path_123" data-name="Path 123" class="cls-10" d="m481.47,463.28l5.76,5.47h8.15v7.74l5.77,5.47-5.77,5.47v7.74h-8.15l-5.76,5.47-5.77-5.47h-8.15v-7.74l-5.76-5.47,5.76-5.47v-7.74h8.15l5.77-5.47Z"/>
                    <path id="Path_124" data-name="Path 124" class="cls-10" d="m501.15,492.91l2.39,2.27h3.38v3.2l2.39,2.27-2.39,2.27v3.2h-3.38l-2.39,2.27-2.39-2.27h-3.38v-3.2l-2.39-2.27,2.39-2.27v-3.2h3.37l2.4-2.27Z"/>
                    <path id="Path_125" data-name="Path 125" class="cls-10" d="m441.88,500.71l5.77,5.47h8.15v7.74l5.77,5.47-5.77,5.47v7.74h-8.16l-5.77,5.47-5.77-5.47h-8.15v-7.74l-5.77-5.47,5.77-5.47v-7.74h8.15l5.77-5.47Z"/>
                    <path id="Path_126" data-name="Path 126" class="cls-10" d="m461.56,530.34l2.39,2.27h3.38v3.2l2.39,2.27-2.39,2.26v3.21h-3.38l-2.39,2.27-2.39-2.27h-3.38v-3.21l-2.39-2.26,2.39-2.27v-3.2h3.38l2.38-2.27Z"/>
                    <path id="Path_127" data-name="Path 127" class="cls-10" d="m441.88,538.07l5.77,5.47h8.15v7.74l5.77,5.47-5.77,5.48v7.74h-8.16l-5.77,5.47-5.77-5.47h-8.15v-7.74l-5.77-5.48,5.77-5.47v-7.74h8.15l5.77-5.48Z"/>
                    <path id="Path_128" data-name="Path 128" class="cls-10" d="m461.56,567.71l2.39,2.27h3.38v3.2l2.39,2.27-2.39,2.27v3.2h-3.38l-2.39,2.26-2.39-2.26h-3.38v-3.2l-2.39-2.27,2.39-2.27v-3.2h3.38l2.38-2.27Z"/>
                    <path id="Path_129" data-name="Path 129" class="cls-10" d="m441.88,575.45l5.77,5.47h8.15v7.74l5.77,5.47-5.77,5.48v7.74h-8.16l-5.77,5.47-5.77-5.47h-8.15v-7.74l-5.77-5.48,5.77-5.47v-7.74h8.15l5.77-5.47Z"/>
                    <path id="Path_130" data-name="Path 130" class="cls-10" d="m441.66,425.91l5.76,5.47h8.15v7.74l5.77,5.47-5.77,5.47v7.74h-8.15l-5.76,5.47-5.77-5.47h-8.15v-7.74l-5.77-5.47,5.77-5.47v-7.74h8.15l5.77-5.47Z"/>
                    <path id="Path_131" data-name="Path 131" class="cls-10" d="m461.34,455.54l2.39,2.27h3.38v3.2l2.39,2.27-2.39,2.27v3.2h-3.38l-2.39,2.27-2.39-2.27h-3.38v-3.2l-2.39-2.27,2.39-2.27v-3.2h3.38l2.39-2.27Z"/>
                    <path id="Path_132" data-name="Path 132" class="cls-10" d="m441.66,463.28l5.76,5.47h8.15v7.74l5.77,5.47-5.77,5.47v7.74h-8.15l-5.76,5.47-5.77-5.47h-8.15v-7.74l-5.77-5.47,5.77-5.47v-7.74h8.15l5.77-5.47Z"/>
                    <path id="Path_133" data-name="Path 133" class="cls-10" d="m461.34,492.91l2.39,2.27h3.38v3.2l2.39,2.27-2.39,2.27v3.2h-3.38l-2.39,2.27-2.39-2.27h-3.38v-3.2l-2.39-2.27,2.39-2.27v-3.2h3.38l2.39-2.27Z"/>
                    <path id="Path_134" data-name="Path 134" class="cls-10" d="m559.52,463.28l5.77,5.47h8.15v7.74l5.77,5.47-5.77,5.47v7.74h-8.15l-5.77,5.47-5.77-5.47h-8.15v-7.74l-5.77-5.47,5.77-5.47v-7.74h8.15l5.77-5.47Z"/>
                    <path id="Path_135" data-name="Path 135" class="cls-10" d="m579.21,492.91l2.39,2.27h3.37v3.2l2.39,2.27-2.39,2.27v3.2h-3.37l-2.39,2.27-2.39-2.27h-3.38v-3.2l-2.39-2.27,2.39-2.27v-3.2h3.38l2.38-2.27Z"/>
                    <path id="Path_136" data-name="Path 136" class="cls-10" d="m598.9,463.28l5.76,5.47h8.16v7.74l5.77,5.47-5.77,5.47v7.74h-8.16l-5.76,5.47-5.77-5.47h-8.15v-7.74l-5.76-5.47,5.76-5.47v-7.74h8.15l5.77-5.47Z"/>
                    <path id="Path_137" data-name="Path 137" class="cls-10" d="m618.58,492.91l2.39,2.27h3.38v3.2l2.39,2.27-2.39,2.27v3.2h-3.38l-2.39,2.27-2.39-2.27h-3.38v-3.2l-2.39-2.27,2.39-2.27v-3.2h3.37l2.39-2.27Z"/>
                    <path id="Path_138" data-name="Path 138" class="cls-10" d="m638.26,463.28l5.77,5.47h8.15v7.74l5.77,5.47-5.77,5.47v7.74h-8.15l-5.77,5.47-5.76-5.47h-8.16v-7.74l-5.77-5.47,5.77-5.47v-7.74h8.16l5.76-5.47Z"/>
                    <path id="Path_139" data-name="Path 139" class="cls-10" d="m657.94,492.91l2.39,2.27h3.38v3.2l2.39,2.27-2.39,2.27v3.2h-3.38l-2.39,2.27-2.39-2.27h-3.38v-3.2l-2.39-2.27,2.39-2.27v-3.2h3.38l2.39-2.27Z"/>
                  </g>
                </g>
              </g>
            </g>
          </g>
          <g class="cls-3">
            <g id="Mask_Group_24" data-name="Mask Group 24">
              <g id="Group_200" data-name="Group 200">
                <path id="Path_893" data-name="Path 893" class="cls-7" d="m372.14,488.5v7.35h-25.15v28.34h-21.41v-4.5h-3.32v-3.85h-11.86v-9.41h-6.91v3.44h-7.02v3.53h-22.92v-15.07h-21.09v4.77h-18.83v-7.18h-23.8v-.44h-34.07v-3.71h-3.52v3.7l-54.23-.02.19,19.28h-34.11s-.18-19.3-.18-19.3h-18.31v-6.93h-16.72v7.35h-25.15v28.34H2.31v-4.5H0v101.31h533.09v-125.51l-91.82-.03.19,19.28h-34.12s-.17-19.3-.17-19.3h-18.31v-6.93h-16.72Z"/>
                <g class="cls-1">
                  <g id="Group_185" data-name="Group 185">
                    <path id="Path_894" data-name="Path 894" class="cls-8" d="m453.52,593.96s-40.99-31.15-57.73-53.22c0,0,30.45,15.03,48.31,28.97,0,0-23.01-27.4-27.7-35.06,0,0,34.41,18.76,42.68,28.19,0,0-14.74-17.97-16.09-36.02,0,0,28.84,31.39,53.54,55.83,0,0-14.96-25.66-14.17-45.32,15.07,23.55,32.84,45.26,52.96,64.68,0,0-38.67-48.05-46.62-82.94,0,0,20.68,25.8,26.99,35.6,0,0-6.26-19.36-7.39-29.71,0,0,34.51,55.13,65.7,92.58,0,0-23.64-27.49-16.66-59.69,0,0,24.47,49.28,49.09,92.85,0,0-115.35-.57-197.09-32.22,0,0,46.58,4.49,61.77,5.31,0,0-37.43-6.74-91.4-44.67,0,0,36.97,17.7,62.6,22.21,0,0-33.05-14.75-79.24-49.8l90.46,42.42Z"/>
                  </g>
                </g>
                <path id="Path_141" data-name="Path 141" class="cls-9" d="m300.95,501.95c9.23-.51,28.72,5.62,28.72,5.62-20.51-16.85-32.82-15.83-32.82-15.83,9.74-6.13,30.77-6.64,30.77-6.64-19.49-10.72-31.28-4.6-31.28-4.6l8.72-15.83c-10.12.74-19.44,5.76-25.64,13.79-1.94-13.05-8.47-27.46-9.16-28.96v-.15s-.03.04-.04.06l-.03-.06v.15c-.7,1.5-7.23,15.9-9.17,28.96-6.2-8.03-15.52-13.05-25.64-13.79l8.72,15.83s-11.8-6.13-31.28,4.6c0,0,21.02.51,30.77,6.64,0,0-12.31-1.02-32.82,15.83,0,0,19.49-6.13,28.72-5.62,0,0-18.46,9.19-23.59,22.98l23.08-7.66c-6.1,6.15-9.75,14.33-10.26,22.98,0,0,23.55-9.81,39.05-26.29v98.95h4.9v-98.96c15.51,16.49,39.06,26.3,39.06,26.3-.51-8.65-4.15-16.82-10.26-22.98l23.08,7.66c-5.13-13.79-23.59-22.98-23.59-22.98"/>
              </g>
            </g>
          </g>
        </g>
      </g>
    </g>
  </g>
</svg>