<?xml version="1.0" encoding="UTF-8"?>
<svg id="OUTLINED" xmlns="http://www.w3.org/2000/svg" xmlns:xlink="http://www.w3.org/1999/xlink" viewBox="0 0 375 250">
  <defs>
    <style>
      .cls-1 {
        clip-path: url(#clippath-4);
      }

      .cls-1, .cls-2, .cls-3, .cls-4, .cls-5, .cls-6, .cls-7, .cls-8, .cls-9 {
        fill: none;
      }

      .cls-2 {
        clip-path: url(#clippath-2);
      }

      .cls-10 {
        fill: #fff;
      }

      .cls-3 {
        clip-path: url(#clippath-6);
      }

      .cls-11 {
        fill: #d65627;
      }

      .cls-12 {
        opacity: .2;
      }

      .cls-12, .cls-13 {
        fill: #fdb515;
      }

      .cls-14 {
        fill: #f07530;
      }

      .cls-4 {
        clip-path: url(#clippath-7);
      }

      .cls-5 {
        clip-path: url(#clippath-5);
      }

      .cls-15 {
        fill: #e8a734;
      }

      .cls-6 {
        clip-path: url(#clippath-3);
      }

      .cls-8 {
        clip-path: url(#clippath);
      }

      .cls-16 {
        fill: #ffec2a;
      }

      .cls-9 {
        clip-path: url(#clippath-1);
      }
    </style>
    <clipPath id="clippath">
      <rect class="cls-7" width="375" height="250"/>
    </clipPath>
    <clipPath id="clippath-1">
      <rect class="cls-7" x=".46" y="59.69" width="373.9" height="195.76"/>
    </clipPath>
    <clipPath id="clippath-2">
      <rect class="cls-7" x=".46" y="25.18" width="211.5" height="225.03"/>
    </clipPath>
    <clipPath id="clippath-3">
      <polygon class="cls-7" points="204.83 222.89 204.83 226.43 188.96 226.43 188.96 240.1 175.45 240.1 175.45 237.93 173.36 237.93 173.36 236.07 165.88 236.07 165.88 231.54 161.52 231.54 161.52 233.2 157.08 233.2 157.08 234.9 142.62 234.9 142.62 227.63 129.32 227.63 129.32 229.93 117.43 229.93 117.43 226.47 109.61 226.47 109.61 226.26 107.53 226.25 107.53 217.26 95.24 217.26 95.24 226.25 61.02 226.24 61.14 234.23 23.8 234.22 23.69 226.23 11.42 226.23 11.42 216.99 -6.32 216.99 -6.32 226.43 -15 226.43 -15 240.1 -28.51 240.1 -28.51 237.93 -29.96 237.93 -29.96 286.78 306.38 286.78 306.38 226.26 248.44 226.24 248.56 235.54 227.04 235.53 226.93 226.23 215.38 226.23 215.38 222.89 204.83 222.89"/>
    </clipPath>
    <clipPath id="clippath-4">
      <polygon class="cls-7" points="-3.9 288.47 307.08 281.19 307.08 89.79 .82 89.79 -3.9 288.47"/>
    </clipPath>
    <clipPath id="clippath-5">
      <rect class="cls-7" x=".72" y="24.42" width="374.28" height="225.26"/>
    </clipPath>
    <clipPath id="clippath-6">
      <path class="cls-13" d="m290.57,193.91c-36.87,9.06-64.91,22.53-89.74,36.24-18.89,10.43-36.81,21.54-42.73,33.61-5.92,12.07,2.68,25.36,28.58,31.62,18.64,4.51,42.86,4.78,65.93,4.73,54.39-.14,109.04-1.44,163.61-3.88,9.64-.43,19.82-.79,30.28-1.17,35.95-1.29,75.18-2.7,107.15-7.55,73.84-11.19,29.66-53.66-12.72-65.15-17.49-4.74-38.22-7.72-55.78-12.42-25.83-6.92-44.38-17.46-73.33-22.54-16.33-2.87-34.72-3.69-53.35-2.94-23.48.95-47.34,4.41-67.9,9.46"/>
    </clipPath>
    <clipPath id="clippath-7">
      <path class="cls-13" d="m326.36,170.63c-.44.97.42,6.52-.81,14.96,0,0-5.29-7.91-16.49-8.87l5.62,10.22s-7.59-3.94-20.09,3.02c0,0,13.51.3,19.78,4.25,0,0-7.87-.64-20.96,10.19v.05c1.22-.38,12.72-3.94,18.34-3.64,0,0-11.85,5.97-15.12,14.89l14.82-4.98s-5.92,5.29-6.56,14.87c0,0,15.11-6.37,25.05-17.05l.11,100.57h3.15l-.11-100.59c9.99,10.64,25.14,16.95,25.14,16.95-.68-9.57-6.62-14.84-6.62-14.84l14.84,4.92c-3.32-8.9-15.19-14.82-15.19-14.82,5.93-.34,18.46,3.59,18.46,3.59-13.2-10.86-21.11-10.18-21.11-10.18,6.25-3.97,19.76-4.33,19.76-4.33-12.54-6.9-20.1-2.93-20.1-2.93l5.58-10.24c-11.2,1.01-16.46,8.95-16.46,8.95-5.55-7.68-10.57-13.96-11.01-14.93Zm0,0h0Z"/>
    </clipPath>
  </defs>
  <g id="Headers_OUTLINED" data-name="Headers OUTLINED">
    <g class="cls-8">
      <rect class="cls-14" x="0" width="375" height="251.86"/>
      <path class="cls-12" d="m186.95,65.35c-8.49,0-17.02.24-25.57.7C98.85,69.39,17.2,97.35,0,103.46v151.14h375V117.11c-59.95-37.67-122.95-51.77-188.05-51.76"/>
      <g class="cls-9">
        <path class="cls-11" d="m-270.38,339.47l11.07-158.54s59.75-16.6,105.82-13.5c0,0,4.3-.55,9.49-1.8,0,0,11.87,2.36,24.72,2.18l27.71-7.66,11.86,2.73,19.63,1.22,4.99,3.17,26.52.04s27.14,5.6,29.68,6.08c2.55.48,22.55,12.79,22.55,12.79l13.94-2.44c2.07-.36,4.48-.31,6.6.16l14.98,3.26,25.19-.37c1.48-.02,2.98.12,4.37.4,4.15.86,13.22,2.67,15.2,2.48,2.1-.21,27.15-5.07,36.35-6.85,2.16-.42,4.66-.45,7.02-.1,6.94,1.05,21.61,3.23,25.21,3.54,16.05,1.38,66.64-5.2,82.49-5.63,5.93-.16,17.13-6.9,20.72-7.34.56-.07,12.82-.1,13.41-.11l11.98-3.1c3.85-3.73,16.25-4.76,28.97-4.64,12.73.12,33.39-5.2,47.26-8.36,13.87-3.16,28.27-3.11,28.27-3.11,0,0,4.16-3.14,6.91-4.76,2.75-1.61,1.9-5.26,3.98-6.76,2.07-1.5,8.06-.37,9.37.12,1.32.49,7.9,3.23,7.9,3.23,2.18-3.95,3.49-3.32,4.56-4.71,1.07-1.4,6.91-4.9,11.59-4.56s5.46,5.29,9.77,6.49c4.3,1.2,4.83,4.54,9.04,7.91,4.21,3.36,21.53,5.7,32.89,6.19,11.37.49,39.45,9.51,46.78,10.41,7.33.89,8.07-.81,15.01,1.37,6.94,2.18,25.25,4.85,30.59,5.37l-.82,49.91-16.74-.73c-6.97-.3-12.73,1.87-12.93,4.88l-1.05,16.34c-.25,3.97-179.66,70.71-188.86,70.31l-147.05-6.37c-7.94-.34-14.17-3.47-13.72-6.88l.8-5.94c.33-2.45-4.15-4.7-9.86-4.94l-34.39-1.49s-12.16-1.14-12.31,2.44c-.12,2.81-5.05,2.94-9.99,2.73l-13.47-.58c-6.33-.27-11.56,1.71-11.68,4.44-.08,1.75-.17,3.65-.23,5.18-.18,4.14-5.51,3.97-11.55,3.83-.93-.02-32.22,42.72-32.22,42.72l.53-12.3-348.83,1.66Z"/>
      </g>
      <g class="cls-2">
        <g>
          <polygon class="cls-13" points="136.38 185.46 134.47 185.46 134.47 178.56 133.86 178.56 133.86 185.46 131.95 185.46 130.93 186.93 137.41 186.93 136.38 185.46"/>
          <path class="cls-13" d="m-94.28,227.29h-3.01v-38.99h-1.63v-5.76l-12.66-8.68h0s-12.85,8.68-12.85,8.68v5.76h-1.63v27.9l-2.8,1.9v-14.42h-14.12v13.64h-.34l-3.39-8.14h.79v-.71h-.85v-9.06h-.54v-4.22h.39v-1.58h-2.59v-6.66h-9.71v6.66h-2.59v1.58h.38v36.99h-.3v-12.25h-.99v-9.81h-7.59v-15.6h-1.03v-12.62h-.94v-9.31h-10.19v9.31h-.94v12.62h-1.03v27.11l-.7-.96-5.18,6.94v3.57h-.71v.81l-2.29,2.04v-60.34h-4.88l-9.25,13.1v33.14h-1.18v13.29h-1.08v3.31l-5.44.83v-7.31h-1.18v-35.53h-14.12v35.53h-2.99l-3-.81v-34.72h-1.03v-12.62h-1.15l-1.84-5.52h-.46l-1.03-3.08h-1.3v-1.78c.44-.11.77-.47.77-.91s-.33-.81-.77-.91v-2.87h-.51v2.87c-.44.11-.77.47-.77.91s.33.81.77.91v1.78h-1.3l-1.03,3.08h-.46l-1.84,5.52h-1.15v12.62h-1.03v34.29l-3.57-.1-2.82,4h-.42v-28.53h.39v-1.26h-.39v-.61h.39v-1.26h-.39v-.62h.39v-1.26h-.39v-.62h.39v-1.26h-.39v-.62h.39v-1.26h-.39v-.62h.39v-1.26h-14.89v1.26h.38v.62h-.38v1.26h.38v.62h-.38v1.26h.38v.62h-.38v1.26h.38v.62h-.38v1.26h.38v.61h-.38v1.26h.38v17.72l-2.25,3.18v7.47l-2.16-.02v-.26h-2.73v-7.02h-1.75v-.03h.05l-.05-.07v-1.24h-.54v-16.65h-1.01v-14.67h-.59v-3.39l-4.84-6.59-4.92,6.59v3.39h-.67v14.67h-1.01v16.65h-.54v9.32h-14.28v35.26l-3.76,8.73h-.3v.69l-3.2,7.42-7.4,5.38-10.02,5.28-3.94,27.64-3.91,2.14-3.03,11.52H-55.78s0,0,0,0h11.79s44.37-.01,44.37-.01l.06-.04,305.89-.3-.76-10.12-4.69-2.66-.33-18.11-13.38-14.43-12.31-56.88-3.8.35v-33.97h-1.73v-9.6h-36.96v9.6h-1.73v33.94h-.01v-7.1h-4v-33.41h-14.12v33.41h-3.69l-1.31-45.29h-1.67v-3.23h-.64l-3.22-7.72h.75v-.67h-.8v-8.6h-.73v8.6h-.8v.67h.7l-3.22,7.72h-.64v3.23h-1.68l-1.31,45.29h-2.99v-39.64h-1.63v-5.76l-12.66-8.68h0s-12.85,8.68-12.85,8.68v5.76h-1.63v28.56l-2.8,1.9v-15.07h-14.12v14.3h-.34l-3.39-8.14h.79v-.71h-.85v-9.06h-.54v-4.88h.39v-1.58h-2.59v-6.66h-9.71v6.66h-2.59v1.58h.38v36.99h-.3v-11.59h-.99v-9.81h-7.59v-16.26h-1.03v-12.62h-.94v-9.31h-10.19v9.31h-.94v12.62h-1.03v27.77l-.7-.96-5.18,6.94v3.11h-.02s-.52.46-.52.46h-.17v.15l-2.29,2.04v-60.34h-4.88l-9.24,13.1v33.8h-1.18v13.29h-1.08v2.65l-5.44.83v-6.65h-1.18v-36.19h-14.12v36.19h-.55l-5.43-1.47v-34.72h-1.03v-12.62h-1.15l-1.84-5.52h-.46l-1.03-3.07h-1.3v-1.78c.44-.11.77-.47.77-.92s-.33-.81-.77-.91v-2.87h-.51v2.87c-.44.11-.77.47-.77.91s.33.81.77.92v1.78h-1.3l-1.03,3.07h-.46l-1.84,5.52h-1.15v12.62h-1.03v34.29l-3.57-.1-2.82,4h-.42v-28.54h.38v-1.26h-.38v-.61h.38v-1.26h-.38v-.61h.38v-1.26h-.38v-.62h.38v-1.26h-.38v-.62h.38v-1.26h-.38v-.62h.38v-1.26h-14.89v1.26h.38v.62h-.38v1.26h.38v.62h-.38v1.26h.38v.62h-.38v1.26h.38v.61h-.38v1.26h.38v.61h-.38v1.26h.38v18.38l-2.25,3.18v6.81l-4.88-.05v-6.6h-1.75v-.03h.05l-.05-.07v-1.9h-.54v-16.65h-1.01v-14.67h-.59v-3.39l-4.84-6.59-4.92,6.59v3.39h-.67v14.67h-1.01v16.65h-.54v9.53l-1.21.45h-10.32v-32.78h-1.73v-9.6h-36.96v9.6h-1.73v33.94h-.01v-7.76h-4v-32.75h-14.12v32.75h-3.71m281.65-54.5l2.77,6.64h-2.77v-6.64Zm-.73-.11v6.74h-2.81l2.81-6.74Zm-59.41,38.3l2.91,7h-2.91v-7Zm-288.53-.66l2.91,7h-2.91v-7Z"/>
        </g>
        <g class="cls-6">
          <g class="cls-1">
            <rect class="cls-16" x="-5.29" y="89.79" width="317.99" height="191.4"/>
            <g>
              <polygon class="cls-15" points="265.42 249.47 238.01 240.54 210.6 249.47 183.19 240.54 155.77 249.48 155.77 249.44 128.34 240.5 100.93 249.43 73.52 240.5 46.12 249.43 18.71 240.5 -8.72 249.44 -8.72 254.47 18.71 245.53 46.1 254.46 46.1 254.47 46.12 254.46 46.13 254.47 46.13 254.46 73.52 245.53 100.92 254.46 100.92 254.47 100.93 254.46 100.95 254.47 100.95 254.46 128.34 245.53 155.77 254.47 155.77 254.5 183.19 245.57 210.58 254.49 210.58 254.5 210.6 254.5 210.61 254.5 210.61 254.49 238.01 245.57 265.4 254.49 265.4 254.5 265.42 254.5 265.43 254.5 265.43 254.49 292.83 245.57 320.25 254.5 320.25 249.48 292.83 240.54 265.42 249.47"/>
              <polygon class="cls-15" points="265.42 240.5 238.01 231.57 210.6 240.5 183.19 231.57 155.77 240.51 155.77 240.47 128.34 231.54 100.93 240.47 73.52 231.54 46.12 240.47 18.71 231.54 -8.72 240.47 -8.72 245.5 18.71 236.56 46.1 245.49 46.1 245.5 46.12 245.49 46.13 245.5 46.13 245.49 73.52 236.56 100.92 245.49 100.92 245.5 100.93 245.49 100.95 245.5 100.95 245.49 128.34 236.56 155.77 245.5 155.77 245.54 183.19 236.6 210.58 245.53 210.58 245.54 210.6 245.53 210.61 245.54 210.61 245.53 238.01 236.6 265.4 245.53 265.4 245.54 265.42 245.53 265.43 245.54 265.43 245.53 292.83 236.6 320.25 245.54 320.25 240.51 292.83 231.57 265.42 240.5"/>
              <polygon class="cls-15" points="265.42 231 238.01 222.07 210.6 231 183.19 222.07 155.77 231 155.77 230.96 128.34 222.03 100.93 230.96 73.52 222.03 46.12 230.96 18.71 222.03 -8.72 230.96 -8.72 235.99 18.71 227.05 46.1 235.98 46.1 235.99 46.12 235.98 46.13 235.99 46.13 235.98 73.52 227.05 100.92 235.98 100.92 235.99 100.93 235.98 100.95 235.99 100.95 235.98 128.34 227.05 155.77 235.99 155.77 236.03 183.19 227.09 210.58 236.02 210.58 236.03 210.6 236.02 210.61 236.03 210.61 236.02 238.01 227.09 265.4 236.02 265.4 236.03 265.42 236.02 265.43 236.03 265.43 236.02 292.83 227.09 320.25 236.03 320.25 231 292.83 222.07 265.42 231"/>
              <polygon class="cls-15" points="265.42 221.49 238.01 212.56 210.6 221.49 183.19 212.56 155.77 221.49 155.77 221.46 128.34 212.52 100.93 221.45 73.52 212.52 46.12 221.45 18.71 212.52 -8.72 221.46 -8.72 226.48 18.71 217.55 46.1 226.47 46.1 226.48 46.12 226.48 46.13 226.48 46.13 226.47 73.52 217.55 100.92 226.47 100.92 226.48 100.93 226.48 100.95 226.48 100.95 226.47 128.34 217.55 155.77 226.48 155.77 226.52 183.19 217.58 210.58 226.51 210.58 226.52 210.6 226.51 210.61 226.52 210.61 226.51 238.01 217.58 265.4 226.51 265.4 226.52 265.42 226.51 265.43 226.52 265.43 226.51 292.83 217.58 320.25 226.52 320.25 221.49 292.83 212.56 265.42 221.49"/>
              <polygon class="cls-15" points="265.42 211.98 238.01 203.05 210.6 211.98 183.19 203.05 155.77 211.99 155.77 211.95 128.34 203.01 100.93 211.94 73.52 203.01 46.12 211.94 18.71 203.01 -8.72 211.95 -8.72 216.97 18.71 208.04 46.1 216.96 46.1 216.97 46.12 216.97 46.13 216.97 46.13 216.96 73.52 208.04 100.92 216.96 100.92 216.97 100.93 216.97 100.95 216.97 100.95 216.96 128.34 208.04 155.77 216.97 155.77 217.01 183.19 208.08 210.58 217 210.58 217.01 210.6 217.01 210.61 217.01 210.61 217 238.01 208.08 265.4 217 265.4 217.01 265.42 217.01 265.43 217.01 265.43 217 292.83 208.08 320.25 217.01 320.25 211.99 292.83 203.05 265.42 211.98"/>
              <polygon class="cls-15" points="265.42 202.47 238.01 193.54 210.6 202.47 183.19 193.54 155.77 202.48 155.77 202.44 128.34 193.5 100.93 202.43 73.52 193.5 46.12 202.43 18.71 193.5 -8.72 202.44 -8.72 207.47 18.71 198.53 46.1 207.46 46.1 207.47 46.12 207.46 46.13 207.47 46.13 207.46 73.52 198.53 100.92 207.46 100.92 207.47 100.93 207.46 100.95 207.47 100.95 207.46 128.34 198.53 155.77 207.47 155.77 207.5 183.19 198.57 210.58 207.49 210.58 207.5 210.6 207.5 210.61 207.5 210.61 207.49 238.01 198.57 265.4 207.49 265.4 207.5 265.42 207.5 265.43 207.5 265.43 207.49 292.83 198.57 320.25 207.5 320.25 202.48 292.83 193.54 265.42 202.47"/>
              <polygon class="cls-15" points="265.42 192.96 238.01 184.03 210.6 192.96 183.19 184.03 155.77 192.97 155.77 192.93 128.34 184 100.93 192.93 73.52 184 46.12 192.93 18.71 184 -8.72 192.93 -8.72 197.96 18.71 189.02 46.1 197.95 46.1 197.96 46.12 197.95 46.13 197.96 46.13 197.95 73.52 189.02 100.92 197.95 100.92 197.96 100.93 197.95 100.95 197.96 100.95 197.95 128.34 189.02 155.77 197.96 155.77 198 183.19 189.06 210.58 197.99 210.58 198 210.6 197.99 210.61 198 210.61 197.99 238.01 189.06 265.4 197.99 265.4 198 265.42 197.99 265.43 198 265.43 197.99 292.83 189.06 320.25 198 320.25 192.97 292.83 184.03 265.42 192.96"/>
              <polygon class="cls-15" points="265.42 183.46 238.01 174.53 210.6 183.46 183.19 174.53 155.77 183.46 155.77 183.42 128.34 174.49 100.93 183.42 73.52 174.49 46.12 183.42 18.71 174.49 -8.72 183.42 -8.72 188.45 18.71 179.51 46.1 188.44 46.1 188.45 46.12 188.44 46.13 188.45 46.13 188.44 73.52 179.51 100.92 188.44 100.92 188.45 100.93 188.44 100.95 188.45 100.95 188.44 128.34 179.51 155.77 188.45 155.77 188.49 183.19 179.55 210.58 188.48 210.58 188.49 210.6 188.48 210.61 188.49 210.61 188.48 238.01 179.55 265.4 188.48 265.4 188.49 265.42 188.48 265.43 188.49 265.43 188.48 292.83 179.55 320.25 188.49 320.25 183.46 292.83 174.53 265.42 183.46"/>
              <polygon class="cls-15" points="265.42 173.95 238.01 165.02 210.6 173.95 183.19 165.02 155.77 173.95 155.77 173.92 128.34 164.98 100.93 173.91 73.52 164.98 46.12 173.91 18.71 164.98 -8.72 173.92 -8.72 178.94 18.71 170.01 46.1 178.93 46.1 178.94 46.12 178.94 46.13 178.94 46.13 178.93 73.52 170.01 100.92 178.93 100.92 178.94 100.93 178.94 100.95 178.94 100.95 178.93 128.34 170.01 155.77 178.94 155.77 178.98 183.19 170.04 210.58 178.97 210.58 178.98 210.6 178.97 210.61 178.98 210.61 178.97 238.01 170.04 265.4 178.97 265.4 178.98 265.42 178.97 265.43 178.98 265.43 178.97 292.83 170.04 320.25 178.98 320.25 173.95 292.83 165.02 265.42 173.95"/>
              <polygon class="cls-15" points="292.83 155.51 265.42 164.44 238.01 155.51 210.6 164.44 183.19 155.51 155.77 164.45 155.77 164.41 128.34 155.47 100.93 164.4 73.52 155.47 46.12 164.4 18.71 155.47 -8.72 164.41 -8.72 169.43 18.71 160.5 46.1 169.42 46.1 169.43 46.12 169.43 46.13 169.43 46.13 169.42 73.52 160.5 100.92 169.42 100.92 169.43 100.93 169.43 100.95 169.43 100.95 169.42 128.34 160.5 155.77 169.43 155.77 169.47 183.19 160.54 210.58 169.46 210.58 169.47 210.6 169.47 210.61 169.47 210.61 169.46 238.01 160.54 265.4 169.46 265.4 169.47 265.42 169.47 265.43 169.47 265.43 169.46 292.83 160.54 320.25 169.47 320.25 164.45 292.83 155.51"/>
            </g>
          </g>
        </g>
      </g>
      <g class="cls-5">
        <g>
          <path class="cls-13" d="m290.57,193.91c-36.87,9.06-64.91,22.53-89.74,36.24-18.89,10.43-36.81,21.54-42.73,33.61-5.92,12.07,2.68,25.36,28.58,31.62,18.64,4.51,42.86,4.78,65.93,4.73,54.39-.14,109.04-1.44,163.61-3.88,9.64-.43,19.82-.79,30.28-1.17,35.95-1.29,75.18-2.7,107.15-7.55,73.84-11.19,29.66-53.66-12.72-65.15-17.49-4.74-38.22-7.72-55.78-12.42-25.83-6.92-44.38-17.46-73.33-22.54-16.33-2.87-34.72-3.69-53.35-2.94-23.48.95-47.34,4.41-67.9,9.46"/>
          <g class="cls-3">
            <g>
              <path class="cls-14" d="m455.15,201.82c-4.83-3-9.66-5.99-14.48-9-8.65-5.38-14.53-5.19-22.88.83-2.59,1.87-5.07,3.89-7.61,5.84-10.67,8.21-17.4,8.17-28.25,0-2.87-2.16-5.87-4.17-8.97-6-5.55-3.27-11.26-3.44-16.62.32-4.32,3.04-8.34,6.5-12.51,9.75-8.48,6.61-14.6,6.88-23.49.96-2.83-1.89-5.56-3.92-8.34-5.87-9.45-6.63-16.58-6.3-25.49,1.05-3.54,2.92-7.08,5.87-10.83,8.52-5.58,3.93-11.56,4.1-17.42.64-4.21-2.49-8.18-5.37-12.29-8.03-9.09-5.87-15.5-5.57-24.05,1.13-3.46,2.71-6.81,5.57-10.35,8.18-6.29,4.64-12.86,4.88-19.5.69-4.14-2.61-8.21-5.32-12.31-7.99-7.28-4.76-14.41-4.6-21.34.7-3.42,2.61-6.73,5.34-10.18,7.91-8.31,6.19-13.98,6.48-22.79,1.1-3.58-2.18-7.03-4.57-10.53-6.89-7.74-5.14-15.19-4.5-22.42,1.04-3.41,2.61-6.72,5.37-10.22,7.85-8.04,5.69-15.12,5.56-23.19-.19-3.42-2.44-6.82-4.91-10.35-7.17-6.52-4.16-13.02-3.95-19.22.69-3.35,2.51-6.49,5.32-9.78,7.92-3.93,3.1-7.89,5.99-13.31,6-4.69.01-8.38-2.26-12.06-4.62-2.27-1.45-4.37-3.18-6.6-4.71-4.32-2.95-8.79-5.57-14.32-5.63l-.27-6.7c3.25,1.06,6.31,1.59,8.88,3.01,4.01,2.2,7.75,4.94,11.51,7.58,9.95,6.97,16.89,6.66,26.16-1.18,3.13-2.65,6.26-5.29,9.53-7.75,6.18-4.65,12.65-4.92,19.18-.74,3.2,2.04,6.35,4.18,9.41,6.44,9.38,6.92,16.78,6.84,26.08-.34,3.79-2.93,7.53-5.96,11.55-8.56,5.16-3.35,10.78-3.59,16.18-.6,4.62,2.56,8.96,5.63,13.47,8.39,8.63,5.28,14.83,5,22.9-1.05,3.52-2.64,6.87-5.5,10.4-8.11,6.77-5.01,13.76-5.25,20.86-.62,3.93,2.56,7.87,5.11,11.78,7.69,7.34,4.84,14.44,4.32,21.31-.95,3.64-2.79,7.23-5.67,10.82-8.54,6.98-5.57,14.16-5.58,21.5-.8,4.01,2.62,7.92,5.4,11.96,7.98,6.79,4.35,13.51,4.31,19.98-.67,3.96-3.04,7.77-6.28,11.77-9.26,7.62-5.66,13.13-5.86,21.18-.83,3.13,1.96,6.11,4.17,9.18,6.23,10.86,7.31,17.25,6.83,27.07-1.75,3.23-2.82,6.61-5.49,10.13-7.94,5.47-3.81,11.23-3.71,16.84-.31,3.76,2.28,7.38,4.79,10.96,7.33,8.83,6.26,15.6,6.3,24.35-.09,3.71-2.71,7.29-5.59,11.01-8.28,6.35-4.59,12.96-4.67,19.59-.68,4.11,2.47,8.04,5.23,12.12,7.75,1.22.76,2.68,1.14,4.03,1.7l.27,6.62Z"/>
              <path class="cls-14" d="m457.11,249.97c-4.83-3-9.66-5.99-14.48-9-8.65-5.38-14.53-5.2-22.88.83-2.59,1.87-5.07,3.89-7.61,5.84-10.67,8.21-17.41,8.17-28.25,0-2.87-2.16-5.87-4.17-8.97-6-5.55-3.27-11.26-3.44-16.62.32-4.32,3.04-8.34,6.5-12.51,9.75-8.47,6.6-14.61,6.87-23.49.96-2.83-1.89-5.56-3.92-8.35-5.87-9.46-6.63-16.56-6.31-25.49,1.05-3.54,2.92-7.08,5.87-10.83,8.51-5.58,3.93-11.56,4.1-17.42.63-4.21-2.49-8.18-5.37-12.29-8.02-9.09-5.87-15.5-5.57-24.05,1.13-3.46,2.71-6.81,5.57-10.35,8.18-6.29,4.64-12.86,4.88-19.49.69-4.14-2.61-8.21-5.32-12.31-8-7.28-4.75-14.41-4.6-21.34.7-3.42,2.61-6.74,5.34-10.18,7.91-8.32,6.2-13.96,6.49-22.79,1.1-3.58-2.18-7.03-4.57-10.53-6.89-7.74-5.13-15.19-4.5-22.42,1.04-3.41,2.61-6.72,5.37-10.22,7.84-8.04,5.69-15.12,5.56-23.19-.19-3.42-2.43-6.82-4.91-10.35-7.17-6.52-4.17-13.02-3.95-19.22.69-3.35,2.51-6.49,5.32-9.78,7.92-3.93,3.1-7.89,5.99-13.31,6-4.69.01-8.37-2.26-12.06-4.61-2.19-1.4-4.21-3.07-6.35-4.54-4.4-3.01-8.91-5.75-14.57-5.79l-.27-6.7c3.25,1.06,6.31,1.59,8.88,3,4.01,2.21,7.75,4.94,11.51,7.58,9.95,6.97,16.9,6.67,26.16-1.18,3.12-2.65,6.26-5.3,9.53-7.76,6.18-4.65,12.65-4.92,19.18-.74,3.2,2.05,6.35,4.18,9.41,6.44,9.36,6.92,16.78,6.83,26.08-.34,3.8-2.93,7.54-5.96,11.55-8.56,5.16-3.35,10.78-3.59,16.18-.6,4.62,2.56,8.96,5.63,13.47,8.39,8.62,5.27,14.83,5,22.9-1.05,3.52-2.64,6.86-5.5,10.4-8.11,6.77-5.01,13.76-5.25,20.86-.62,3.93,2.56,7.87,5.11,11.78,7.69,7.34,4.84,14.44,4.32,21.3-.95,3.64-2.79,7.23-5.67,10.82-8.54,6.97-5.57,14.16-5.58,21.5-.8,4.01,2.62,7.92,5.4,11.96,7.98,6.79,4.35,13.51,4.31,19.98-.67,3.96-3.04,7.77-6.28,11.77-9.26,7.61-5.66,13.14-5.86,21.18-.83,3.13,1.96,6.11,4.17,9.18,6.23,10.85,7.31,17.26,6.83,27.07-1.75,3.22-2.82,6.61-5.5,10.13-7.94,5.47-3.81,11.23-3.71,16.84-.31,3.76,2.28,7.38,4.79,10.96,7.33,8.83,6.26,15.6,6.3,24.35-.09,3.71-2.71,7.29-5.59,11.01-8.28,6.35-4.59,12.96-4.67,19.59-.68,4.11,2.47,8.04,5.23,12.12,7.75,1.22.76,2.68,1.14,4.03,1.7l.27,6.62Z"/>
              <path class="cls-14" d="m457.6,262c-4.83-3-9.66-5.99-14.48-9-8.53-5.31-14.56-5.18-22.66.62-2.68,1.92-5.21,4.03-7.82,6.04-10.67,8.21-17.4,8.17-28.25.01-2.87-2.16-5.87-4.17-8.97-5.99-5.55-3.27-11.27-3.45-16.62.31-4.32,3.04-8.34,6.5-12.51,9.76-8.45,6.59-14.62,6.86-23.49.96-2.83-1.88-5.56-3.92-8.35-5.87-9.45-6.63-16.57-6.3-25.49,1.05-3.54,2.92-7.08,5.88-10.83,8.52-5.58,3.93-11.56,4.1-17.42.64-4.21-2.49-8.18-5.37-12.29-8.03-9.09-5.87-15.5-5.57-24.05,1.13-3.46,2.71-6.81,5.57-10.35,8.18-6.29,4.64-12.86,4.88-19.49.69-4.14-2.61-8.21-5.32-12.31-8-7.28-4.75-14.41-4.6-21.34.7-3.42,2.61-6.74,5.34-10.18,7.91-8.31,6.19-13.98,6.48-22.79,1.1-3.58-2.18-7.04-4.57-10.53-6.89-7.74-5.14-15.19-4.5-22.42,1.04-3.41,2.61-6.72,5.37-10.22,7.84-8.04,5.69-15.12,5.56-23.19-.19-3.42-2.43-6.82-4.91-10.35-7.17-6.52-4.17-13.02-3.96-19.22.69-3.35,2.51-6.49,5.32-9.78,7.92-3.93,3.1-7.89,5.99-13.31,6-4.69.01-8.37-2.27-12.06-4.62-2.19-1.4-4.21-3.07-6.36-4.54-4.4-3.01-8.91-5.75-14.57-5.79l-.27-6.71c3.25,1.06,6.31,1.59,8.88,3.01,4.01,2.2,7.75,4.94,11.51,7.58,9.95,6.97,16.9,6.67,26.16-1.18,3.12-2.65,6.26-5.29,9.53-7.76,6.18-4.65,12.65-4.92,19.18-.74,3.2,2.04,6.35,4.18,9.41,6.44,9.37,6.92,16.77,6.84,26.08-.34,3.8-2.93,7.53-5.96,11.55-8.56,5.16-3.35,10.78-3.59,16.18-.6,4.62,2.56,8.96,5.63,13.47,8.39,8.62,5.27,14.83,4.99,22.9-1.05,3.52-2.63,6.86-5.5,10.4-8.11,6.77-5.01,13.76-5.25,20.86-.62,3.93,2.56,7.87,5.11,11.78,7.69,7.34,4.84,14.44,4.31,21.31-.94,3.64-2.8,7.23-5.67,10.82-8.54,6.97-5.57,14.16-5.58,21.5-.8,4.01,2.62,7.92,5.4,11.96,7.98,6.78,4.35,13.51,4.31,19.98-.67,3.96-3.04,7.77-6.28,11.77-9.26,7.63-5.67,13.13-5.87,21.18-.83,3.13,1.96,6.11,4.17,9.18,6.23,10.86,7.31,17.26,6.83,27.07-1.75,3.23-2.82,6.61-5.5,10.13-7.94,5.46-3.81,11.23-3.71,16.84-.31,3.76,2.28,7.38,4.79,10.96,7.34,8.83,6.26,15.6,6.3,24.35-.09,3.71-2.71,7.29-5.59,11.01-8.28,6.35-4.59,12.96-4.67,19.59-.68,4.11,2.47,8.04,5.23,12.12,7.75,1.22.76,2.68,1.14,4.03,1.7l.27,6.62Z"/>
              <path class="cls-14" d="m454.66,189.78c-4.83-3-9.66-6-14.48-9-8.66-5.38-14.52-5.2-22.88.83-2.59,1.87-5.07,3.88-7.61,5.83-10.66,8.21-17.42,8.16-28.25,0-2.87-2.16-5.87-4.17-8.97-5.99-5.55-3.27-11.26-3.44-16.62.32-4.32,3.04-8.34,6.5-12.51,9.76-8.46,6.6-14.62,6.86-23.49.96-2.83-1.89-5.56-3.92-8.34-5.87-9.45-6.62-16.57-6.3-25.49,1.06-3.54,2.92-7.08,5.88-10.83,8.51-5.58,3.93-11.56,4.1-17.42.63-4.21-2.49-8.18-5.37-12.29-8.02-9.09-5.87-15.49-5.56-24.05,1.14-3.46,2.71-6.81,5.57-10.35,8.18-6.29,4.64-12.86,4.88-19.49.69-4.22-2.67-8.36-5.45-12.56-8.15-6.98-4.49-13.91-4.42-20.62.48-3.63,2.65-7.04,5.59-10.64,8.28-8.31,6.2-13.97,6.48-22.79,1.1-3.58-2.18-7.03-4.57-10.53-6.89-7.73-5.13-15.19-4.5-22.42,1.05-3.41,2.62-6.72,5.37-10.22,7.84-8.04,5.69-15.12,5.55-23.19-.19-3.42-2.44-6.82-4.91-10.35-7.17-6.52-4.16-13.02-3.95-19.22.69-3.35,2.51-6.49,5.32-9.78,7.92-3.93,3.1-7.89,5.99-13.31,6.01-4.69,0-8.37-2.27-12.06-4.62-2.19-1.4-4.21-3.07-6.36-4.54-4.4-3.01-8.91-5.75-14.57-5.79l-.27-6.71c3.25,1.06,6.31,1.59,8.88,3.01,4.01,2.2,7.75,4.94,11.51,7.58,9.95,6.97,16.89,6.67,26.16-1.18,3.13-2.65,6.26-5.3,9.53-7.76,6.18-4.65,12.65-4.92,19.18-.74,3.2,2.04,6.35,4.18,9.4,6.44,9.36,6.92,16.77,6.83,26.08-.34,3.8-2.93,7.54-5.96,11.55-8.56,5.16-3.35,10.78-3.58,16.18-.6,4.62,2.56,8.96,5.63,13.47,8.39,8.62,5.27,14.83,4.99,22.9-1.05,3.52-2.64,6.87-5.5,10.4-8.11,6.77-5.01,13.76-5.24,20.86-.62,3.93,2.56,7.87,5.11,11.78,7.69,7.34,4.84,14.44,4.31,21.31-.95,3.64-2.79,7.23-5.67,10.82-8.54,6.97-5.57,14.16-5.58,21.5-.8,4.01,2.62,7.92,5.4,11.96,7.98,6.79,4.35,13.51,4.31,19.98-.67,3.96-3.04,7.77-6.28,11.77-9.26,7.62-5.66,13.14-5.86,21.18-.83,3.13,1.96,6.11,4.17,9.18,6.23,10.86,7.31,17.25,6.83,27.07-1.75,3.23-2.82,6.61-5.5,10.13-7.95,5.47-3.81,11.23-3.71,16.84-.31,3.76,2.28,7.38,4.79,10.96,7.33,8.83,6.26,15.58,6.3,24.35-.09,3.71-2.7,7.29-5.59,11.01-8.28,6.35-4.59,12.96-4.67,19.59-.68,4.11,2.47,8.04,5.23,12.12,7.75,1.23.76,2.68,1.14,4.03,1.7l.27,6.62Z"/>
              <path class="cls-14" d="m455.64,213.86c-4.83-3-9.66-5.99-14.48-9-8.65-5.38-14.54-5.19-22.88.83-2.59,1.87-5.07,3.89-7.61,5.84-10.67,8.21-17.42,8.17-28.25,0-2.87-2.16-5.87-4.17-8.97-6-5.55-3.27-11.26-3.44-16.62.32-4.32,3.04-8.34,6.5-12.51,9.75-8.48,6.61-14.6,6.88-23.49.96-2.83-1.88-5.56-3.92-8.35-5.87-9.46-6.63-16.57-6.3-25.49,1.05-3.54,2.92-7.08,5.88-10.83,8.52-5.58,3.93-11.56,4.1-17.42.64-4.21-2.49-8.18-5.37-12.29-8.03-9.09-5.87-15.5-5.57-24.05,1.13-3.46,2.71-6.81,5.58-10.35,8.18-6.29,4.64-12.86,4.88-19.5.69-4.13-2.61-8.21-5.32-12.31-8-7.28-4.75-14.41-4.6-21.34.7-3.41,2.61-6.73,5.34-10.18,7.91-8.32,6.2-13.97,6.48-22.79,1.1-3.58-2.18-7.03-4.57-10.53-6.89-7.74-5.13-15.19-4.5-22.42,1.04-3.41,2.62-6.72,5.37-10.22,7.85-8.05,5.69-15.12,5.56-23.19-.19-3.42-2.43-6.82-4.91-10.35-7.17-6.52-4.17-13.02-3.95-19.21.69-3.35,2.51-6.49,5.32-9.78,7.92-3.92,3.1-7.89,5.99-13.31,6.01-4.69.01-8.37-2.26-12.06-4.62-2.19-1.4-4.21-3.07-6.36-4.54-4.4-3.01-8.92-5.75-14.57-5.79l-.27-6.71c3.25,1.06,6.31,1.59,8.88,3.01,4.01,2.2,7.75,4.94,11.51,7.58,9.94,6.97,16.9,6.66,26.16-1.18,3.13-2.65,6.26-5.29,9.53-7.76,6.18-4.65,12.65-4.92,19.18-.74,3.2,2.05,6.35,4.18,9.41,6.44,9.36,6.92,16.78,6.84,26.08-.34,3.79-2.93,7.53-5.96,11.55-8.56,5.16-3.35,10.78-3.59,16.18-.6,4.62,2.56,8.96,5.63,13.47,8.39,8.62,5.27,14.83,5,22.9-1.05,3.52-2.64,6.86-5.5,10.4-8.11,6.77-5.01,13.76-5.25,20.86-.62,3.93,2.56,7.87,5.11,11.78,7.69,7.34,4.84,14.44,4.31,21.31-.95,3.65-2.79,7.23-5.67,10.82-8.54,6.98-5.57,14.16-5.58,21.5-.8,4.01,2.62,7.92,5.4,11.96,7.98,6.79,4.35,13.51,4.31,19.98-.67,3.96-3.04,7.77-6.28,11.77-9.26,7.62-5.66,13.13-5.86,21.18-.83,3.13,1.96,6.11,4.17,9.18,6.23,10.85,7.31,17.26,6.83,27.07-1.75,3.23-2.82,6.61-5.49,10.13-7.94,5.47-3.81,11.23-3.71,16.84-.31,3.76,2.28,7.38,4.79,10.96,7.33,8.84,6.26,15.6,6.3,24.35-.09,3.71-2.71,7.29-5.59,11.01-8.28,6.35-4.59,12.96-4.67,19.59-.68,4.11,2.47,8.04,5.23,12.12,7.75,1.23.76,2.68,1.14,4.03,1.7l.27,6.62Z"/>
              <path class="cls-14" d="m456.13,225.89c-4.83-3-9.66-5.99-14.48-9-8.65-5.38-14.53-5.19-22.88.83-2.59,1.87-5.07,3.89-7.61,5.84-10.68,8.22-17.39,8.18-28.25,0-2.87-2.16-5.87-4.17-8.97-6-5.55-3.27-11.27-3.44-16.62.32-4.32,3.04-8.34,6.5-12.51,9.76-8.46,6.6-14.62,6.87-23.49.96-2.83-1.89-5.56-3.92-8.35-5.87-9.45-6.62-16.58-6.3-25.49,1.05-3.54,2.92-7.08,5.88-10.83,8.52-5.58,3.93-11.56,4.1-17.42.63-4.21-2.49-8.18-5.37-12.29-8.02-9.1-5.87-15.5-5.57-24.05,1.13-3.46,2.71-6.81,5.58-10.35,8.18-6.29,4.64-12.86,4.89-19.5.69-4.22-2.67-8.37-5.45-12.56-8.16-6.98-4.49-13.9-4.42-20.62.48-3.63,2.65-7.04,5.59-10.65,8.28-8.31,6.2-13.97,6.49-22.79,1.1-3.58-2.18-7.03-4.57-10.53-6.89-7.74-5.13-15.19-4.5-22.42,1.04-3.41,2.62-6.72,5.37-10.22,7.85-8.04,5.69-15.11,5.56-23.19-.19-3.42-2.43-6.82-4.91-10.35-7.17-6.52-4.17-13.02-3.95-19.21.69-3.36,2.51-6.49,5.32-9.78,7.92-3.92,3.1-7.89,5.99-13.31,6.01-4.69.01-8.37-2.26-12.06-4.61-2.19-1.4-4.2-3.08-6.36-4.53-4.41-2.98-8.89-5.82-14.57-5.75l-.27-6.75c3.25,1.06,6.3,1.59,8.88,3,4.01,2.21,7.75,4.94,11.51,7.58,9.95,6.97,16.9,6.67,26.16-1.18,3.12-2.65,6.26-5.29,9.53-7.76,6.18-4.65,12.65-4.92,19.18-.74,3.2,2.04,6.35,4.18,9.41,6.44,9.37,6.92,16.78,6.84,26.08-.33,3.8-2.93,7.54-5.96,11.55-8.56,5.16-3.35,10.78-3.59,16.18-.6,4.62,2.56,8.96,5.63,13.47,8.39,8.63,5.27,14.83,4.99,22.9-1.05,3.52-2.63,6.86-5.5,10.4-8.11,6.77-5.02,13.76-5.25,20.86-.63,3.93,2.56,7.87,5.11,11.78,7.69,7.34,4.84,14.44,4.32,21.31-.94,3.64-2.79,7.23-5.67,10.82-8.54,6.98-5.57,14.16-5.58,21.5-.8,4.01,2.62,7.92,5.4,11.96,7.98,6.79,4.35,13.51,4.31,19.98-.67,3.96-3.04,7.77-6.28,11.77-9.26,7.62-5.66,13.15-5.86,21.18-.83,3.13,1.96,6.11,4.17,9.18,6.23,10.86,7.31,17.26,6.83,27.07-1.75,3.23-2.82,6.61-5.49,10.13-7.94,5.47-3.81,11.23-3.71,16.84-.31,3.76,2.28,7.38,4.79,10.96,7.34,8.83,6.27,15.58,6.3,24.35-.09,3.71-2.7,7.29-5.59,11.01-8.28,6.35-4.59,12.96-4.67,19.59-.68,4.11,2.47,8.04,5.23,12.12,7.75,1.22.76,2.68,1.14,4.03,1.7l.27,6.62Z"/>
              <path class="cls-14" d="m456.62,237.93c-4.83-3-9.66-5.99-14.48-9-8.65-5.38-14.52-5.2-22.87.83-2.59,1.87-5.07,3.88-7.61,5.83-10.67,8.21-17.4,8.17-28.25.01-2.87-2.16-5.87-4.17-8.97-5.99-5.55-3.27-11.26-3.45-16.62.32-4.32,3.04-8.34,6.5-12.51,9.76-8.47,6.61-14.61,6.87-23.49.96-2.83-1.89-5.56-3.92-8.35-5.87-9.45-6.63-16.57-6.3-25.49,1.06-3.54,2.92-7.08,5.88-10.83,8.51-5.58,3.93-11.56,4.1-17.42.63-4.21-2.49-8.18-5.37-12.29-8.02-9.11-5.87-15.5-5.57-24.05,1.13-3.46,2.71-6.81,5.57-10.35,8.18-6.29,4.64-12.86,4.88-19.49.69-4.14-2.61-8.21-5.32-12.31-8-7.28-4.75-14.41-4.6-21.34.7-3.41,2.61-6.73,5.34-10.18,7.9-8.31,6.19-13.97,6.48-22.79,1.1-3.58-2.18-7.03-4.57-10.53-6.89-7.74-5.13-15.19-4.5-22.42,1.04-3.41,2.62-6.72,5.37-10.22,7.85-8.05,5.69-15.12,5.56-23.19-.19-3.42-2.44-6.82-4.91-10.35-7.17-6.52-4.17-13.02-3.95-19.21.69-3.36,2.51-6.49,5.32-9.78,7.92-3.92,3.1-7.89,5.99-13.31,6.01-4.69.01-8.37-2.26-12.06-4.61-2.19-1.39-4.21-3.07-6.35-4.54-4.4-3.01-8.92-5.75-14.57-5.79l-.27-6.71c3.25,1.06,6.31,1.59,8.88,3,4.01,2.21,7.75,4.94,11.51,7.58,9.95,6.97,16.89,6.67,26.16-1.18,3.13-2.65,6.26-5.29,9.53-7.76,6.18-4.65,12.65-4.92,19.18-.74,3.2,2.05,6.35,4.18,9.41,6.44,9.36,6.92,16.76,6.84,26.08-.34,3.8-2.92,7.54-5.96,11.55-8.56,5.16-3.35,10.78-3.59,16.18-.6,4.62,2.56,8.96,5.63,13.47,8.39,8.62,5.27,14.83,4.99,22.9-1.05,3.52-2.64,6.86-5.5,10.4-8.11,6.77-5.01,13.76-5.25,20.86-.62,3.93,2.56,7.87,5.11,11.78,7.69,7.34,4.84,14.44,4.32,21.31-.95,3.64-2.79,7.13-5.8,10.84-8.51,7.69-5.62,13.4-5.83,21.47-.81,4.07,2.53,7.93,5.38,11.96,7.97,6.79,4.35,13.51,4.31,19.98-.67,3.96-3.04,7.77-6.28,11.77-9.26,7.62-5.66,13.13-5.86,21.18-.83,3.13,1.96,6.11,4.17,9.18,6.23,10.86,7.31,17.27,6.83,27.07-1.75,3.22-2.82,6.61-5.5,10.13-7.94,5.47-3.81,11.23-3.71,16.84-.31,3.76,2.28,7.38,4.79,10.96,7.33,8.83,6.26,15.6,6.3,24.35-.09,3.71-2.71,7.29-5.59,11.01-8.28,6.35-4.59,12.96-4.67,19.59-.68,4.11,2.47,8.04,5.23,12.12,7.75,1.22.76,2.68,1.14,4.03,1.7l.27,6.62Z"/>
              <path class="cls-14" d="m454.17,177.75c-4.83-3-9.66-5.99-14.48-9-8.65-5.38-14.52-5.2-22.88.83-2.59,1.87-5.07,3.89-7.61,5.84-10.66,8.2-17.42,8.16-28.25.01-2.87-2.16-5.87-4.17-8.97-6-5.55-3.27-11.26-3.45-16.62.31-4.32,3.04-8.34,6.5-12.51,9.76-8.46,6.6-14.61,6.87-23.49.96-2.83-1.89-5.56-3.92-8.34-5.87-9.45-6.63-16.55-6.31-25.49,1.05-3.55,2.92-7.08,5.88-10.83,8.52-5.58,3.93-11.56,4.1-17.42.64-4.21-2.49-8.18-5.37-12.29-8.03-9.1-5.87-15.5-5.57-24.05,1.13-3.46,2.71-6.81,5.57-10.35,8.18-6.29,4.64-12.86,4.87-19.49.69-4.14-2.61-8.21-5.32-12.31-7.99-7.28-4.75-14.41-4.6-21.34.7-3.42,2.61-6.73,5.34-10.18,7.91-8.32,6.2-13.98,6.48-22.79,1.1-3.58-2.18-7.03-4.57-10.53-6.89-7.74-5.13-15.19-4.5-22.42,1.05-3.41,2.62-6.72,5.37-10.22,7.85-8.04,5.69-15.12,5.56-23.19-.19-3.42-2.44-6.82-4.91-10.35-7.17-6.52-4.17-13.02-3.95-19.22.69-3.35,2.51-6.49,5.32-9.78,7.92-3.92,3.1-7.89,5.99-13.31,6-4.69.01-8.37-2.26-12.06-4.61-2.19-1.4-4.2-3.07-6.35-4.54-4.4-3.01-8.91-5.76-14.57-5.79l-.27-6.71c3.25,1.06,6.31,1.59,8.88,3,4.01,2.21,7.75,4.94,11.51,7.58,9.96,6.97,16.9,6.67,26.16-1.18,3.12-2.65,6.26-5.29,9.53-7.76,6.18-4.65,12.65-4.92,19.18-.74,3.2,2.05,6.35,4.18,9.41,6.44,9.36,6.92,16.78,6.83,26.08-.33,3.8-2.93,7.54-5.96,11.55-8.56,5.16-3.35,10.78-3.59,16.18-.6,4.62,2.56,8.96,5.63,13.47,8.39,8.62,5.27,14.83,5,22.9-1.05,3.52-2.64,6.87-5.5,10.4-8.11,6.77-5.02,13.76-5.25,20.86-.62,3.93,2.56,7.87,5.11,11.78,7.69,7.34,4.84,14.44,4.32,21.31-.94,3.64-2.79,7.13-5.8,10.84-8.51,7.68-5.62,13.4-5.83,21.47-.81,4.07,2.53,7.93,5.38,11.96,7.97,6.79,4.35,13.51,4.31,19.98-.67,3.96-3.04,7.77-6.28,11.77-9.26,7.61-5.66,13.14-5.86,21.18-.83,3.13,1.96,6.11,4.17,9.18,6.23,10.86,7.31,17.26,6.83,27.07-1.75,3.22-2.82,6.61-5.49,10.13-7.94,5.47-3.81,11.23-3.71,16.84-.31,3.76,2.28,7.38,4.79,10.96,7.33,8.83,6.26,15.58,6.3,24.35-.09,3.71-2.71,7.29-5.59,11.01-8.28,6.35-4.59,12.96-4.67,19.59-.68,4.11,2.47,8.04,5.23,12.12,7.75,1.23.76,2.68,1.14,4.03,1.7l.27,6.62Z"/>
            </g>
          </g>
        </g>
        <g>
          <path class="cls-13" d="m326.36,170.63c-.44.97.42,6.52-.81,14.96,0,0-5.29-7.91-16.49-8.87l5.62,10.22s-7.59-3.94-20.09,3.02c0,0,13.51.3,19.78,4.25,0,0-7.87-.64-20.96,10.19v.05c1.22-.38,12.72-3.94,18.34-3.64,0,0-11.85,5.97-15.12,14.89l14.82-4.98s-5.92,5.29-6.56,14.87c0,0,15.11-6.37,25.05-17.05l.11,100.57h3.15l-.11-100.59c9.99,10.64,25.14,16.95,25.14,16.95-.68-9.57-6.62-14.84-6.62-14.84l14.84,4.92c-3.32-8.9-15.19-14.82-15.19-14.82,5.93-.34,18.46,3.59,18.46,3.59-13.2-10.86-21.11-10.18-21.11-10.18,6.25-3.97,19.76-4.33,19.76-4.33-12.54-6.9-20.1-2.93-20.1-2.93l5.58-10.24c-11.2,1.01-16.46,8.95-16.46,8.95-5.55-7.68-10.57-13.96-11.01-14.93Zm0,0h0Z"/>
          <g class="cls-4">
            <g>
              <polygon class="cls-16" points="333.17 248.69 331.23 250.18 331.23 250.18 331.65 251.37 331.65 251.37 331.65 251.37 331.65 251.36 333.18 250.19 333.17 248.69"/>
              <path class="cls-16" d="m330.44,247.94h-.42s0,1.21,0,1.21l.84-.02-.42-1.18h0Zm.42,1.18h0s0,0,0,0h0Z"/>
              <polygon class="cls-16" points="333.17 245.85 330.44 247.94 330.44 247.94 330.86 249.12 330.86 249.13 330.86 249.12 330.87 249.12 333.17 247.35 333.17 245.85"/>
              <path class="cls-16" d="m330.02,246.74v.15s.05,0,.05,0l-.05-.14Zm.06.14h0s0,0,0,0h0Z"/>
              <polygon class="cls-16" points="333.16 243 330.02 245.42 330.02 246.74 330.07 246.88 330.07 246.88 330.07 246.88 330.08 246.88 333.16 244.51 333.16 243"/>
              <polygon class="cls-16" points="333.15 240.16 330.01 242.58 330.01 244.08 333.16 241.66 333.15 240.16"/>
              <polygon class="cls-16" points="333.15 237.32 330 239.73 330.01 241.24 333.15 238.82 333.15 237.32"/>
              <polygon class="cls-16" points="333 234.58 330 236.89 330 238.39 333.14 235.98 333.14 234.99 333 234.58"/>
              <polygon class="cls-16" points="333.14 234.58 333 234.58 333.14 234.99 333.14 234.58"/>
              <polygon class="cls-16" points="332.25 232.47 329.99 234.21 329.99 235.71 332.67 233.65 332.25 232.47"/>
              <polygon class="cls-16" points="333.14 232.45 332.25 232.47 332.67 233.65 333.14 233.64 333.14 232.45"/>
              <polygon class="cls-16" points="331.46 230.23 329.98 231.36 329.99 232.87 331.88 231.41 331.46 230.23"/>
              <polygon class="cls-16" points="333.13 230.19 331.46 230.23 331.88 231.41 333.13 231.38 333.13 230.19"/>
              <polygon class="cls-16" points="330.67 227.99 329.98 228.52 329.98 230.02 331.09 229.17 330.67 227.99"/>
              <polygon class="cls-16" points="333.13 227.93 330.68 227.99 331.09 229.17 333.13 229.12 333.13 227.93"/>
              <polygon class="cls-16" points="329.97 225.99 329.97 227.18 330.3 226.93 329.97 225.99"/>
              <polygon class="cls-16" points="333.12 225.67 329.97 225.74 329.97 225.99 330.3 226.93 333.12 226.86 333.12 225.67"/>
              <polygon class="cls-16" points="333.12 223.4 329.97 223.48 329.97 224.68 333.12 224.6 333.12 223.4"/>
              <polygon class="cls-16" points="333.11 221.14 329.96 221.22 329.96 222.41 333.11 222.34 333.11 221.14"/>
              <polygon class="cls-16" points="333.11 218.88 329.96 218.96 329.96 220.15 333.11 220.08 333.11 218.88"/>
              <polygon class="cls-16" points="333.1 216.62 329.95 216.7 329.95 217.89 333.1 217.82 333.1 216.62"/>
              <path class="cls-16" d="m307.32,223.48l-2.22.05c-.06.39-.11.79-.15,1.2l1.86-.04c.24-.12.51-.25.8-.38l-.29-.82h0Z"/>
              <path class="cls-16" d="m313.03,219.09l-5.71,4.39h0s.29.82.29.82c.52-.26,1.11-.55,1.75-.88l4.09-3.14-.42-1.19Z"/>
              <path class="cls-16" d="m317.03,219l-4,.1.42,1.19,1.58-.04c.65-.39,1.32-.81,2-1.24"/>
              <polygon class="cls-16" points="333.1 214.36 329.95 214.44 329.95 215.63 333.1 215.56 333.1 214.36"/>
              <path class="cls-16" d="m306.53,221.23l-.97.02c-.1.39-.19.79-.27,1.2l1.66-.04-.42-1.18h0Zm.42,1.18h0s0,0,0,0h0Z"/>
              <polygon class="cls-16" points="312.24 216.85 306.53 221.23 306.53 221.23 306.95 222.42 306.95 222.42 306.95 222.42 306.95 222.42 312.66 218.03 312.24 216.85"/>
              <path class="cls-16" d="m319.44,216.67l-7.19.17.42,1.19,6.06-.15c.31-.21.61-.41.92-.63l-.2-.58h0Z"/>
              <path class="cls-16" d="m325.15,212.29l-5.71,4.39h0s.2.58.2.58c1.9-1.32,3.84-2.79,5.72-4.38l-.21-.59Z"/>
              <path class="cls-16" d="m332.35,212.11l-2.41.06v1.2s2.82-.07,2.82-.07l-.42-1.19Zm-6.29.15l-.91.02.21.59c.24-.2.47-.4.7-.61"/>
              <path class="cls-16" d="m306,219.73c-.05.15-.1.3-.14.46h.3s-.16-.46-.16-.46Zm.17.45h0s0,0,0,0h0Z"/>
              <path class="cls-16" d="m311.45,214.61l-5,3.84c-.16.41-.31.84-.46,1.28l.16.45h0s0,0,0,0h0s5.71-4.39,5.71-4.39l-.42-1.19Z"/>
              <path class="cls-16" d="m318.65,214.43l-7.19.17.42,1.19,7.19-.17-.42-1.18h0Zm.42,1.18h0s0,0,0,0h0Z"/>
              <polygon class="cls-16" points="324.36 210.05 318.65 214.43 318.65 214.43 319.06 215.62 319.06 215.62 319.07 215.62 319.07 215.62 324.78 211.23 324.36 210.05"/>
              <path class="cls-16" d="m331.56,209.87l-1.62.04v1.2s2.04-.05,2.04-.05l-.42-1.19Zm-3.01.07l-4.19.1.42,1.19,2.5-.06c.43-.4.86-.81,1.28-1.23"/>
              <path class="cls-16" d="m310.66,212.36l-1.69,1.3c-.53.77-1.08,1.69-1.61,2.74l3.72-2.86-.42-1.19Z"/>
              <path class="cls-16" d="m317.86,212.19l-7.19.17.42,1.19,7.19-.17-.42-1.18h0Zm.42,1.18h0s0,0,0,0h0Z"/>
              <polygon class="cls-16" points="323.57 207.8 317.86 212.19 317.86 212.19 318.27 213.38 318.27 213.38 318.28 213.37 318.28 213.37 323.99 208.99 323.57 207.8"/>
              <path class="cls-16" d="m330.77,207.63l-7.2.17.42,1.19,5.63-.14c.11-.11.21-.22.32-.34v.33s1.25-.03,1.25-.03l-.42-1.19Z"/>
              <path class="cls-16" d="m297,214.76c-.14.31-.26.62-.38.93l.63-.21-.25-.72Z"/>
              <path class="cls-16" d="m299.81,214.61l-2.78.07s-.02.05-.03.08l.25.72,2.56-.86Z"/>
              <polygon class="cls-16" points="309.88 210.12 307.31 212.09 310.22 211.11 309.88 210.12"/>
              <path class="cls-16" d="m317.07,209.95l-7.19.17.35.99,1.21-.41s-.22.2-.59.59l6.63-.16-.42-1.18h0Zm.42,1.18h0s0,0,0,0h0Z"/>
              <polygon class="cls-16" points="322.78 205.56 317.07 209.95 317.07 209.95 317.48 211.13 317.48 211.14 317.49 211.13 317.49 211.13 323.2 206.75 322.78 205.56"/>
              <polygon class="cls-16" points="329.98 205.39 322.78 205.56 323.2 206.75 330.39 206.57 329.98 205.39"/>
              <path class="cls-16" d="m303.38,212.26l-5.1.12c-.25.4-.49.8-.71,1.21l5.66-.14.51-.17-.36-1.03h0Z"/>
              <polygon class="cls-16" points="309.09 207.88 303.38 212.26 303.37 212.27 303.73 213.29 304.2 213.13 309.5 209.06 309.09 207.88"/>
              <path class="cls-16" d="m316.28,207.71l-7.19.17.42,1.19,7.19-.17-.42-1.18h0Zm.42,1.18h0s0,0,0,0h0Z"/>
              <polygon class="cls-16" points="321.99 203.32 316.28 207.71 316.28 207.71 316.69 208.89 316.69 208.89 316.7 208.89 316.7 208.89 322.41 204.51 321.99 203.32"/>
              <polygon class="cls-16" points="329.19 203.15 321.99 203.32 322.41 204.51 329.6 204.33 329.19 203.15"/>
              <path class="cls-16" d="m302.59,210.02l-2.63.06c-.33.4-.64.8-.94,1.22l3.99-.1-.42-1.18h0Zm.42,1.18h0s0,0,0,0h0Z"/>
              <polygon class="cls-16" points="308.3 205.64 302.59 210.02 302.58 210.02 303 211.21 303 211.21 303 211.21 303.01 211.21 308.71 206.82 308.3 205.64"/>
              <path class="cls-16" d="m315.49,205.46l-7.19.17.42,1.19,7.19-.17-.42-1.18h0Zm.42,1.18h0s0,0,0,0h0Z"/>
              <polygon class="cls-16" points="321.2 201.08 315.49 205.46 315.49 205.47 315.9 206.65 315.9 206.65 315.91 206.65 315.91 206.65 321.62 202.26 321.2 201.08"/>
              <polygon class="cls-16" points="328.4 200.9 321.2 201.08 321.62 202.26 328.82 202.09 328.4 200.9"/>
              <path class="cls-16" d="m301.87,207.99c-.33.33-.65.66-.97,1.01l1.31-.03-.34-.97Zm.35.97h0s0,0,0,0h0Z"/>
              <path class="cls-16" d="m307.51,203.4l-4.05,3.11c-.53.47-1.07.97-1.59,1.48l.34.97h0s0,0,0,0h0s5.71-4.39,5.71-4.39l-.42-1.19Z"/>
              <path class="cls-16" d="m314.7,203.22l-7.19.17.42,1.19,7.19-.17-.42-1.18h0Zm.42,1.18h0s0,0,0,0h0Z"/>
              <polygon class="cls-16" points="320.41 198.84 314.7 203.22 314.7 203.22 315.11 204.41 315.11 204.41 315.12 204.41 315.12 204.41 320.83 200.02 320.41 198.84"/>
              <polygon class="cls-16" points="327.61 198.66 320.41 198.84 320.83 200.02 328.03 199.85 327.61 198.66"/>
              <path class="cls-16" d="m306.72,201.15l-.05.03s.04,0,.05,0v-.03Z"/>
              <path class="cls-16" d="m313.91,200.98l-2.63.06c-.45.24-1.19.66-2.12,1.25l5.17-.12-.42-1.18h0Zm-6.98.17h-.21s0,.03,0,.03c.07-.01.14-.02.2-.03m7.4,1.01h0s0,0,0,0h0Z"/>
              <polygon class="cls-16" points="319.62 196.59 313.91 200.98 313.91 200.98 314.33 202.17 314.33 202.17 314.33 202.17 314.33 202.16 320.04 197.78 319.62 196.59"/>
              <polygon class="cls-16" points="326.82 196.42 319.62 196.59 320.04 197.78 327.24 197.61 326.82 196.42"/>
              <path class="cls-16" d="m297.03,203.37l-2.45.06c-.4.32-.81.65-1.22.99v.03c.33-.1,1.73-.54,3.67-1.08"/>
              <path class="cls-16" d="m305.93,198.91l-4.27,3.28c.9-.21,1.81-.41,2.73-.59l1.95-1.5-.42-1.19Z"/>
              <path class="cls-16" d="m313.12,198.74l-7.19.17.42,1.19,7.19-.17-.42-1.18h0Zm.42,1.18h0s0,0,0,0h0Z"/>
              <polygon class="cls-16" points="318.83 194.35 313.12 198.74 313.12 198.74 313.54 199.92 313.54 199.93 313.54 199.92 313.54 199.92 319.25 195.54 318.83 194.35"/>
              <polygon class="cls-16" points="326.03 194.18 318.83 194.35 319.25 195.54 326.45 195.36 326.03 194.18"/>
              <path class="cls-16" d="m299.47,201.18l-1.97.05c-.55.39-1.11.8-1.68,1.24l4.06-.1-.42-1.18h0Zm.42,1.18h0s0,0,0,0h0Z"/>
              <polygon class="cls-16" points="305.18 196.8 299.47 201.18 299.47 201.18 299.89 202.37 299.89 202.37 299.89 202.37 299.89 202.36 305.6 197.98 305.18 196.8"/>
              <path class="cls-16" d="m312.38,196.62l-7.19.17.42,1.19,7.19-.17-.42-1.18h0Zm.42,1.18h0s0,0,0,0h0Z"/>
              <polygon class="cls-16" points="318.09 192.24 312.38 196.62 312.37 196.63 312.79 197.81 312.79 197.81 312.8 197.81 312.8 197.81 318.51 193.42 318.09 192.24"/>
              <polygon class="cls-16" points="325.29 192.06 318.09 192.24 318.51 193.42 325.7 193.25 325.29 192.06"/>
              <path class="cls-16" d="m311.62,194.47c-1.07.21-2.43.58-4.08,1.2l4.46-.11-.39-1.1Zm.39,1.09h0s0,0,0,0h0Z"/>
              <path class="cls-16" d="m317.3,190l-4.41,3.39c.41.19.79.4,1.16.61l3.67-2.82-.42-1.19Z"/>
              <path class="cls-16" d="m313.8,194.19c-.46.02-1.19.08-2.18.28l.39,1.1h0s0,0,0,0h0s1.79-1.38,1.79-1.38Z"/>
              <polygon class="cls-16" points="324.5 189.82 317.3 190 317.72 191.18 324.91 191.01 324.5 189.82"/>
              <path class="cls-16" d="m310.8,192.14l-1.12.03c.43.13.86.27,1.27.42l-.16-.45h0Z"/>
              <path class="cls-16" d="m316.51,187.75l-5.71,4.39h0s.16.45.16.45c.28.1.55.2.82.31l5.16-3.96-.42-1.19Z"/>
              <polygon class="cls-16" points="323.71 187.58 316.51 187.75 316.93 188.94 324.12 188.77 323.71 187.58"/>
              <path class="cls-16" d="m302.82,190.07l-.68.52c.3.04.6.08.91.13l-.23-.65Z"/>
              <path class="cls-16" d="m310.01,189.9l-7.19.17.23.65c.89.13,1.8.29,2.72.47l4.66-.11-.42-1.18h0Zm.42,1.18h0s0,0,0,0h0Z"/>
              <path class="cls-16" d="m315.72,185.51l-1.28.98.24.43s-.18-.09-.52-.22l-4.15,3.19h0s.42,1.19.42,1.19h0s0,0,0,0h0s5.71-4.39,5.71-4.39l-.42-1.19Z"/>
              <polygon class="cls-16" points="322.92 185.34 315.72 185.51 316.14 186.7 323.33 186.52 322.92 185.34"/>
              <path class="cls-16" d="m302.03,187.83l-3.12,2.39c.54.05,1.12.11,1.73.18l1.81-1.39-.42-1.19Z"/>
              <path class="cls-16" d="m309.22,187.66l-7.19.17.42,1.19,7.19-.17-.42-1.18h0Zm.42,1.18h0s0,0,0,0h0Z"/>
              <polygon class="cls-16" points="314.93 183.27 313.34 184.49 313.92 185.55 315.35 184.46 314.93 183.27"/>
              <path class="cls-16" d="m311.36,186.01l-2.14,1.65h0s.42,1.19.42,1.19h0s0,0,0,0h0s3.28-2.52,3.28-2.52c-.44-.11-.96-.22-1.56-.31"/>
              <polygon class="cls-16" points="322.13 183.1 314.93 183.27 315.35 184.46 322.54 184.28 322.13 183.1"/>
              <path class="cls-16" d="m295.53,189.97h-.13s.09,0,.13,0h0s0,0,0,0Z"/>
              <path class="cls-16" d="m301.37,186.99c-1.23.38-2.54.88-3.92,1.5l-1.92,1.47h0s0,0,0,0c.46.02,1.08.06,1.81.11l4.03-3.1Z"/>
              <path class="cls-16" d="m308.57,185.82c-1.79,0-3.93.25-6.41.94l6.68-.16-.28-.78Zm.28.78h0s0,0,0,0h0Z"/>
              <polygon class="cls-16" points="314.14 181.03 312.24 182.49 312.82 183.55 314.56 182.21 314.14 181.03"/>
              <path class="cls-16" d="m308.66,185.82h-.09l.28.78h0s0,0,0,0h0s.97-.75.97-.75c-.37-.02-.76-.03-1.17-.03"/>
              <path class="cls-16" d="m320.63,180.87l-6.49.16.42,1.19,7.2-.17-.16-.46c-.3-.23-.62-.47-.96-.71"/>
              <polygon class="cls-16" points="313.35 178.79 311.13 180.49 311.72 181.55 313.77 179.97 313.35 178.79"/>
              <path class="cls-16" d="m316.81,178.7l-3.46.08.42,1.19,5.26-.13c-.68-.4-1.42-.79-2.22-1.14"/>
              <path class="cls-16" d="m311.83,177.11l-1.8,1.38.58,1.06,2.36-1.82-.14-.39c-.33-.08-.67-.16-1.01-.23"/>
              <path class="cls-16" d="m312.84,177.33l.14.39,1.18-.03c-.43-.13-.87-.25-1.32-.37"/>
              <path class="cls-16" d="m309.06,176.71l.46.83.89-.68c-.44-.06-.89-.11-1.34-.15"/>
              <path class="cls-16" d="m357.99,223.42l-1.58,1.21c.51.24.93.43,1.23.56l.52-.4c-.05-.47-.1-.93-.17-1.37"/>
              <path class="cls-16" d="m357.3,221.1l-3.16,2.43c.42.21.82.41,1.19.59l2.39-1.84-.42-1.19Z"/>
              <path class="cls-16" d="m357.51,221.09h-.21s.42,1.19.42,1.19h.06c-.08-.41-.18-.8-.28-1.19"/>
              <path class="cls-16" d="m356.51,218.86l-4.58,3.52c.4.22.79.42,1.16.61l3.84-2.95-.42-1.19Z"/>
              <path class="cls-16" d="m356.81,218.85h-.29s.42,1.19.42,1.19h.28c-.13-.41-.26-.81-.4-1.19"/>
              <path class="cls-16" d="m350.01,221h-.53c.23.14.45.27.67.39l-.14-.39h0Z"/>
              <path class="cls-16" d="m355.73,216.61l-5.71,4.39h0s.14.39.14.39c.26.14.51.29.76.42l5.23-4.02-.42-1.19Z"/>
              <path class="cls-16" d="m355.86,216.61h-.13s.42,1.19.42,1.19h.25c-.17-.42-.35-.81-.54-1.19"/>
              <path class="cls-16" d="m365.86,214.18l-1.05.81,1.37.45.17-.13c-.15-.38-.31-.76-.49-1.13"/>
              <path class="cls-16" d="m349.23,218.76l-3.33.08c.63.4,1.25.78,1.85,1.15l1.89-.05-.42-1.18h0Zm.42,1.18h0s0,0,0,0h0Z"/>
              <path class="cls-16" d="m354.72,214.54l-5.49,4.22h0s.42,1.19.42,1.19h0s0,0,0,0h0s5.68-4.36,5.68-4.36c-.2-.37-.4-.71-.61-1.04"/>
              <path class="cls-16" d="m364.74,212.19l-2.52,1.94,1.37.45,1.77-1.36c-.2-.35-.4-.69-.62-1.03"/>
              <path class="cls-16" d="m348.44,216.52l-5.8.14c.56.4,1.12.78,1.68,1.15l4.53-.11-.42-1.18h0Zm.42,1.18h0s0,0,0,0h0Z"/>
              <path class="cls-16" d="m353.43,212.68l-5,3.84h0s.42,1.19.42,1.19h0s0,0,0,0h0s5.28-4.05,5.28-4.05c-.24-.35-.48-.68-.7-.97"/>
              <path class="cls-16" d="m361.34,211.96l-5.3.13,3.36,1.11,2.35-.06-.42-1.18h0Zm.42,1.18h0s0,0,0,0h0Z"/>
              <path class="cls-16" d="m363.42,210.36l-2.08,1.6h0s.42,1.19.42,1.19h0s0,0,0,0h0s2.38-1.83,2.38-1.83c-.23-.32-.47-.64-.72-.95"/>
              <path class="cls-16" d="m340.45,214.45l-.4.31c.23.18.46.35.69.53l-.29-.83Z"/>
              <path class="cls-16" d="m347.65,214.27l-7.19.17.29.83c.15.11.31.23.46.34l6.85-.17-.42-1.18h0Zm.42,1.18h0s0,0,0,0h0Z"/>
              <polygon class="cls-16" points="353.36 209.89 352.17 210.8 353.54 211.25 353.77 211.07 353.36 209.89"/>
              <path class="cls-16" d="m351.96,210.96l-4.31,3.31h0s.42,1.19.42,1.19h0s0,0,0,0h0s4.7-3.61,4.7-3.61c-.33-.38-.6-.68-.81-.89"/>
              <path class="cls-16" d="m360.55,209.71l-7.19.17.42,1.19,7.19-.17-.42-1.18h0Zm.42,1.18h0s0,0,0,0h0Z"/>
              <path class="cls-16" d="m361.93,208.65l-1.38,1.06h0s.42,1.19.42,1.19h0s0,0,0,0h0s1.77-1.36,1.77-1.36c-.26-.3-.53-.6-.8-.89"/>
              <path class="cls-16" d="m339.66,212.21l-1.43,1.1c.32.26.63.52.95.77l.89-.69-.42-1.19Z"/>
              <path class="cls-16" d="m346.86,212.03l-7.19.17.42,1.19,7.19-.17-.42-1.18h0Zm.42,1.18h0s0,0,0,0h0Z"/>
              <polygon class="cls-16" points="352.57 207.65 346.86 212.03 346.85 212.03 347.27 213.22 347.27 213.22 347.27 213.22 347.28 213.21 352.99 208.83 352.57 207.65"/>
              <path class="cls-16" d="m359.76,207.47l-7.19.17.42,1.19,7.19-.17-.42-1.18h0Zm.42,1.18h0s0,0,0,0h0Z"/>
              <path class="cls-16" d="m360.31,207.05l-.55.42h0s.42,1.19.42,1.19h0s0,0,0,0h0s1-.77,1-.77c-.29-.29-.58-.56-.87-.83"/>
              <path class="cls-16" d="m368.11,203.02l-2.63.06c1.82.49,3.24.91,3.87,1.1h.22c-.49-.41-.98-.79-1.45-1.17"/>
              <path class="cls-16" d="m338.87,209.96l-2.39,1.84c.3.27.61.54.92.8l1.89-1.45-.42-1.19Z"/>
              <path class="cls-16" d="m346.07,209.79l-7.19.17.42,1.19,7.19-.17-.42-1.18h0Zm.42,1.18h0s0,0,0,0h0Z"/>
              <polygon class="cls-16" points="351.78 205.4 346.07 209.79 346.07 209.79 346.48 210.97 346.48 210.98 346.49 210.97 346.49 210.97 352.2 206.59 351.78 205.4"/>
              <path class="cls-16" d="m358.2,205.25l-6.42.16.42,1.19,7.19-.17-.09-.26c-.37-.31-.73-.61-1.09-.9m1.19,1.16h0s0,0,0,0h0Z"/>
              <path class="cls-16" d="m364.68,200.85l-1.99,1.53c.51.12,1,.25,1.48.37l.93-.71-.42-1.19Z"/>
              <path class="cls-16" d="m359.29,206.15l.09.26h0s0,0,0,0h0s.11-.08.11-.08c-.07-.06-.14-.12-.21-.18"/>
              <path class="cls-16" d="m365.14,200.83h-.46s.42,1.2.42,1.2l1.65-.04c-.55-.41-1.09-.79-1.61-1.16"/>
              <path class="cls-16" d="m338.08,207.72l-3.29,2.52c.29.28.58.56.88.83l2.82-2.17-.42-1.19Z"/>
              <polygon class="cls-16" points="333.09 211.55 332.37 212.11 332.79 213.29 333.09 213.06 333.09 211.55"/>
              <path class="cls-16" d="m345.28,207.54l-7.19.17.42,1.19,7.19-.17-.42-1.18h0Zm.42,1.18h0s0,0,0,0h0Z"/>
              <polygon class="cls-16" points="350.99 203.16 345.28 207.54 345.27 207.55 345.69 208.73 345.69 208.73 345.69 208.73 345.7 208.73 351.41 204.34 350.99 203.16"/>
              <path class="cls-16" d="m355.19,203.06l-4.2.1.42,1.19,5.43-.13c-.57-.42-1.13-.81-1.65-1.16"/>
              <path class="cls-16" d="m362.9,199.36l-3.08,2.36c.51.11,1.02.22,1.52.34l2.62-2.01c-.36-.24-.72-.47-1.07-.69"/>
              <path class="cls-16" d="m337.29,205.48l-4.1,3.15c.28.29.55.58.84.86l3.68-2.82-.42-1.19Z"/>
              <polygon class="cls-16" points="333.08 208.71 331.58 209.86 332 211.05 333.09 210.21 333.08 208.71"/>
              <path class="cls-16" d="m344.49,205.3l-7.19.17.42,1.19,7.19-.17-.42-1.18h0Zm.42,1.18h0s0,0,0,0h0Z"/>
              <polygon class="cls-16" points="350.2 200.92 344.49 205.3 344.49 205.31 344.9 206.49 344.9 206.49 344.91 206.49 344.91 206.49 350.62 202.1 350.2 200.92"/>
              <path class="cls-16" d="m357.39,200.74l-3.08.07c1.03.1,2.14.27,3.26.47l-.19-.54h0Z"/>
              <path class="cls-16" d="m351.58,200.88l-1.38.03.42,1.19,2.96-.07c-.9-.55-1.61-.94-2-1.15"/>
              <path class="cls-16" d="m360.82,198.11l-3.42,2.63h0s.19.54.19.54c.29.05.57.1.86.16l3.49-2.68c-.38-.23-.75-.44-1.12-.65"/>
              <polygon class="cls-16" points="336.5 203.23 330.79 207.62 331.21 208.81 336.92 204.42 336.5 203.23"/>
              <path class="cls-16" d="m343.7,203.06l-7.19.17.42,1.19,7.19-.17-.42-1.18h0Zm.42,1.18h0s0,0,0,0h0Z"/>
              <polygon class="cls-16" points="349.41 198.68 343.7 203.06 343.7 203.06 344.11 204.25 344.11 204.25 344.12 204.25 344.12 204.24 349.83 199.86 349.41 198.68"/>
              <path class="cls-16" d="m356.6,198.5l-7.19.17.42,1.19,7.19-.17-.42-1.18h0Zm.42,1.18h0s0,0,0,0h0Z"/>
              <path class="cls-16" d="m358.62,196.95l-2.01,1.55h0s.42,1.19.42,1.19h0s0,0,0,0h0s2.77-2.13,2.77-2.13c-.4-.21-.8-.41-1.18-.6"/>
              <polygon class="cls-16" points="335.72 200.99 330 205.38 330.42 206.56 336.13 202.18 335.72 200.99"/>
              <path class="cls-16" d="m342.91,200.82l-7.19.17.42,1.19,7.19-.17-.42-1.18h0Zm.42,1.18h0s0,0,0,0h0Z"/>
              <polygon class="cls-16" points="348.62 196.43 342.91 200.82 342.91 200.82 343.32 202 343.32 202.01 343.33 202 343.33 202 349.04 197.62 348.62 196.43"/>
              <path class="cls-16" d="m355.81,196.26l-7.19.17.42,1.19,7.19-.17-.42-1.18h0Zm.42,1.18h0s0,0,0,0h0Z"/>
              <path class="cls-16" d="m356.28,195.9l-.47.36h0s.42,1.19.42,1.19h0s0,0,0,0h0s1.3-1,1.3-1c-.43-.2-.85-.38-1.26-.54"/>
              <polygon class="cls-16" points="334.93 198.75 329.21 203.14 329.63 204.32 335.34 199.94 334.93 198.75"/>
              <path class="cls-16" d="m342.12,198.58l-7.19.17.42,1.19,7.19-.17-.42-1.18h0Zm.42,1.18h0s0,0,0,0h0Z"/>
              <polygon class="cls-16" points="347.83 194.19 342.12 198.58 342.12 198.58 342.53 199.76 342.53 199.76 342.54 199.76 342.54 199.76 348.25 195.38 347.83 194.19"/>
              <path class="cls-16" d="m349.71,194.15l-1.88.05.42,1.19,6.23-.15c-2.18-.74-3.79-.99-4.77-1.08"/>
              <path class="cls-16" d="m360.73,189.63l-1.36,1.04c.56-.09,1.11-.17,1.64-.25l-.28-.8Z"/>
              <path class="cls-16" d="m367.77,189.46l-7.03.17.28.8c3.33-.46,6.13-.6,7.03-.64l-.08-.22c-.07-.04-.14-.07-.2-.11"/>
              <polygon class="cls-16" points="334.14 196.51 328.42 200.9 328.84 202.08 334.55 197.69 334.14 196.51"/>
              <path class="cls-16" d="m341.33,196.33l-7.19.17.42,1.19,7.19-.17-.42-1.18h0Zm.42,1.18h0s0,0,0,0h0Z"/>
              <polygon class="cls-16" points="347.04 191.95 341.33 196.33 341.33 196.34 341.74 197.52 341.74 197.52 341.75 197.52 341.75 197.52 347.46 193.13 347.04 191.95"/>
              <path class="cls-16" d="m354.23,191.78l-7.19.17.42,1.19,3.14-.08c1.12-.5,2.35-.92,3.64-1.27h0s0,0,0,0Z"/>
              <path class="cls-16" d="m359.95,187.39l-5.71,4.39h0s0,0,0,0c.93-.26,1.89-.49,2.84-.68l3.29-2.53-.42-1.19Z"/>
              <path class="cls-16" d="m362.95,187.32l-3,.07.42,1.19,5.35-.13c-.96-.44-1.88-.81-2.77-1.13"/>
              <polygon class="cls-16" points="333.35 194.27 327.63 198.65 328.05 199.84 333.77 195.45 333.35 194.27"/>
              <path class="cls-16" d="m340.54,194.09l-7.19.17.42,1.19,7.19-.17-.42-1.18h0Zm.42,1.18h0s0,0,0,0h0Z"/>
              <polygon class="cls-16" points="346.25 189.71 340.54 194.09 340.54 194.1 340.95 195.28 340.96 195.28 340.96 195.28 340.96 195.28 346.67 190.89 346.25 189.71"/>
              <path class="cls-16" d="m353.45,189.53l-7.19.17.42,1.19,7.19-.17-.42-1.18h0Zm.42,1.18h0s0,0,0,0h0Z"/>
              <path class="cls-16" d="m358.02,186.02l-4.57,3.51h0s.42,1.19.42,1.19h0s0,0,0,0h0s5.71-4.39,5.71-4.39h0c-.54-.13-1.05-.23-1.55-.31"/>
              <path class="cls-16" d="m359.57,186.33h0s.02,0,.02,0c0,0-.01,0-.02,0"/>
              <polygon class="cls-16" points="332.56 192.02 326.84 196.41 327.26 197.6 332.98 193.21 332.56 192.02"/>
              <path class="cls-16" d="m339.75,191.85l-7.19.17.42,1.19,7.19-.17-.42-1.18h0Zm.42,1.18h0s0,0,0,0h0Z"/>
              <polygon class="cls-16" points="345.46 187.47 339.75 191.85 339.75 191.85 340.17 193.04 340.17 193.04 340.17 193.04 340.17 193.03 345.88 188.65 345.46 187.47"/>
              <path class="cls-16" d="m352.66,187.29l-7.19.17.42,1.19,7.19-.17-.42-1.18h0Zm.42,1.18h0s0,0,0,0h0Z"/>
              <path class="cls-16" d="m354.71,185.72l-2.05,1.57h0s.42,1.19.42,1.19h0s0,0,0,0h0s3.45-2.65,3.45-2.65c-.64-.06-1.25-.1-1.82-.11"/>
              <polygon class="cls-16" points="331.77 189.78 326.06 194.17 326.47 195.36 332.19 190.97 331.77 189.78"/>
              <path class="cls-16" d="m338.96,189.61l-7.19.17.42,1.19,7.19-.17-.42-1.18h0Zm.42,1.18h0s0,0,0,0h0Z"/>
              <polygon class="cls-16" points="344.67 185.22 338.96 189.61 338.96 189.61 339.38 190.79 339.38 190.8 339.38 190.79 339.38 190.79 345.09 186.41 344.67 185.22"/>
              <polygon class="cls-16" points="349.2 185.11 344.67 185.22 345.09 186.41 348.54 186.33 349.2 185.11"/>
              <path class="cls-16" d="m352.14,185.84c-.95.11-1.74.28-2.35.45l2.49-.06-.14-.39Zm.15.39h0s0,0,0,0h0Z"/>
              <path class="cls-16" d="m352.89,185.77c-.26.02-.51.04-.75.07l.14.39h0s0,0,0,0h0s.6-.47.6-.47Z"/>
              <polygon class="cls-16" points="331.02 187.67 325.31 192.06 325.73 193.24 331.44 188.85 331.02 187.67"/>
              <path class="cls-16" d="m338.22,187.49l-7.19.17.42,1.19,7.19-.17-.42-1.18h0Zm.42,1.18h0s0,0,0,0h0Z"/>
              <polygon class="cls-16" points="343.93 183.11 338.22 187.49 338.21 187.5 338.63 188.68 338.63 188.68 338.64 188.68 338.64 188.68 344.35 184.29 343.93 183.11"/>
              <polygon class="cls-16" points="350.37 182.95 343.93 183.11 344.35 184.29 349.71 184.16 350.37 182.95"/>
              <polygon class="cls-16" points="330.24 185.43 324.52 189.81 324.94 191 330.65 186.61 330.24 185.43"/>
              <path class="cls-16" d="m337.16,185.26l-6.92.17.42,1.19,7.19-.17-.36-1.03c-.07.1-.11.15-.11.15-.07-.1-.14-.2-.22-.3m.69,1.18h0s0,0,0,0h0Z"/>
              <path class="cls-16" d="m343.14,180.87l-5.31,4.07c-.16.2-.28.36-.35.46l.36,1.03h0s0,0,0,0h0s5.71-4.39,5.71-4.39l-.42-1.19Z"/>
              <path class="cls-16" d="m350.33,180.69l-7.19.17.42,1.19,7.19-.17-.42-1.18h0Zm.42,1.18h0s0,0,0,0h0Z"/>
              <polygon class="cls-16" points="352.52 179.02 350.33 180.69 350.33 180.7 350.75 181.88 350.75 181.88 350.75 181.88 350.75 181.88 351.11 181.6 352.52 179.02"/>
              <polygon class="cls-16" points="329.45 183.18 323.73 187.57 324.15 188.76 329.86 184.37 329.45 183.18"/>
              <path class="cls-16" d="m335.57,183.04l-6.13.15.42,1.19,6.54-.16c-.28-.39-.56-.78-.83-1.18"/>
              <path class="cls-16" d="m349.54,178.45l-3.22.08c-.88.39-1.7.81-2.45,1.25l6.08-.15-.42-1.18h0Zm.42,1.18h0s0,0,0,0h0Z"/>
              <path class="cls-16" d="m353.83,176.61c-.8.07-1.56.18-2.3.32l-1.99,1.52h0s.42,1.19.42,1.19h0s0,0,0,0h0s3.81-2.93,3.81-2.93l.05-.1Z"/>
              <path class="cls-16" d="m328.66,180.94l-2.79,2.14c-.06.54-.12,1.1-.2,1.66l3.41-2.62-.42-1.19Z"/>
              <path class="cls-16" d="m324.42,184.19l-1.48,1.14.42,1.19,1.83-1.41c-.18-.24-.44-.55-.77-.91"/>
              <path class="cls-16" d="m334.02,180.81l-5.36.13.42,1.19,5.76-.14c-.28-.39-.55-.79-.82-1.18"/>
              <path class="cls-16" d="m327.87,178.7l-1.75,1.34c-.03.52-.07,1.05-.12,1.6l2.28-1.75-.42-1.19Z"/>
              <path class="cls-16" d="m322.8,182.59l-.65.5.42,1.19,1.11-.85c-.27-.26-.56-.54-.88-.83"/>
              <path class="cls-16" d="m332.5,178.59l-4.63.11.42,1.19,5.01-.12c-.27-.4-.54-.79-.8-1.18"/>
              <path class="cls-16" d="m327.08,176.46l-.82.63c-.02.5-.03,1.02-.06,1.55l1.3-1-.42-1.19Z"/>
              <path class="cls-16" d="m321.63,181.61l.15.42.19-.15c-.11-.09-.22-.18-.34-.27"/>
              <path class="cls-16" d="m331,176.36l-3.93.09.42,1.19,4.3-.1c-.27-.4-.53-.79-.79-1.18"/>
              <path class="cls-16" d="m326.3,174.25c0,.46,0,.95-.01,1.47l.42-.32-.4-1.15Z"/>
              <path class="cls-16" d="m329.54,174.14l-3.24.08v.04l.4,1.15,3.61-.09c-.27-.41-.52-.8-.77-1.18"/>
              <path class="cls-16" d="m328.11,171.91l-1.81.04c0,.37,0,.77,0,1.2l2.56-.06c-.27-.42-.52-.81-.75-1.18"/>
              <path class="cls-16" d="m326.75,151.08h-.39c-.03.31-.04.71-.05,1.21l1.15-.03c-.3-.48-.54-.88-.71-1.18"/>
            </g>
          </g>
        </g>
      </g>
      <g>
        <g>
          <path class="cls-10" d="m86.96,114.75v-6.01h2.43v5.87c0,1.77.96,2.83,2.64,2.83s2.58-1.06,2.58-2.83v-5.87h2.28v6.01c0,2.98-2.06,4.75-4.95,4.75s-4.98-1.77-4.98-4.75Z"/>
          <path class="cls-10" d="m99.29,108.74h2.05l6.15,6.96v-6.96h2.29v10.61h-2.08l-6.12-6.87v6.87h-2.29v-10.61Z"/>
          <path class="cls-10" d="m114.74,119.35h-2.43v-10.61h2.43v10.61Z"/>
          <path class="cls-10" d="m119.75,110.73h-3.54v-1.99h9.58l-.38,1.99h-3.23v8.62h-2.43v-8.62Z"/>
          <path class="cls-10" d="m125.84,114.32c0-3.36,2.74-5.73,6.15-5.73,1.52,0,2.9.31,3.92.72l-.63,1.89c-.71-.35-1.8-.66-3.15-.66-1.9,0-3.32,1.03-3.76,2.68h5.42l-.25,1.84h-5.2c.32,1.56,1.87,2.49,4.1,2.49,1.16,0,2.54-.32,3.32-.62l-.24,2.05c-.74.27-2.03.52-3.18.52-3.51,0-6.49-1.86-6.49-5.17Z"/>
          <path class="cls-10" d="m137.71,108.74h4.16c3.26,0,6.41,1.74,6.41,5.13s-3.01,5.48-6.41,5.48h-4.16v-10.61Zm4.01,8.67c2.36,0,4.05-1.38,4.05-3.54s-1.84-3.18-4.05-3.18h-1.58v6.72h1.58Z"/>
          <path class="cls-10" d="m152.75,119.35c1-3.18,3.04-6.66,5.1-8.76h-3.04l.65-1.86h7.59v10.61h-2.43v-2.05h-4.75c-.32.72-.59,1.42-.78,2.05h-2.34Zm4.05-3.91h3.82v-4.91h-.1c-1.34,1.21-2.68,3.04-3.71,4.91Z"/>
          <path class="cls-10" d="m165.6,108.74h4.82c2.17,0,4.41,1.21,4.41,3.61,0,1.55-.91,2.59-2.14,3.17l3.27,3.83h-3.15l-2.64-3.3h-2.14v3.3h-2.43v-10.61Zm4.32,5.4c1.25,0,2.4-.58,2.4-1.71,0-1.22-1.06-1.77-2.33-1.77h-1.96v3.48h1.89Z"/>
          <path class="cls-10" d="m176.11,119.35c1-3.18,3.04-6.66,5.1-8.76h-3.04l.65-1.86h7.59v10.61h-2.43v-2.05h-4.75c-.32.72-.59,1.42-.78,2.05h-2.34Zm4.05-3.91h3.82v-4.91h-.1c-1.34,1.21-2.68,3.04-3.71,4.91Z"/>
          <path class="cls-10" d="m188.95,108.74h5.5c2.06,0,3.76,1.17,3.76,2.74,0,.9-.91,1.69-1.67,2.03,1.17.38,2.33,1.13,2.33,2.65,0,2.08-2.11,3.18-4.38,3.18h-5.54v-10.61Zm4.97,4.22c1.06,0,1.87-.38,1.87-1.22,0-.53-.74-1.08-1.7-1.08h-2.71v2.3h2.54Zm.31,4.48c1.18,0,2.21-.5,2.21-1.42s-.99-1.22-2.2-1.22h-2.86v2.64h2.84Z"/>
          <path class="cls-10" d="m204.33,114.32c0-3.36,2.74-5.73,6.15-5.73,1.52,0,2.9.31,3.92.72l-.63,1.89c-.71-.35-1.8-.66-3.15-.66-1.9,0-3.32,1.03-3.76,2.68h5.42l-.25,1.84h-5.2c.32,1.56,1.87,2.49,4.1,2.49,1.16,0,2.54-.32,3.32-.62l-.24,2.05c-.74.27-2.03.52-3.18.52-3.51,0-6.49-1.86-6.49-5.17Z"/>
          <path class="cls-10" d="m216.2,108.74h2.11l4,4.07,3.61-4.07h2.24v10.61h-2.43v-6.26l.04-1.12-3.57,3.99-3.74-3.8.03,1.21v5.98h-2.29v-10.61Z"/>
          <path class="cls-10" d="m233.13,119.35h-2.43v-10.61h2.43v10.61Z"/>
          <path class="cls-10" d="m235.66,108.74h4.82c2.17,0,4.41,1.21,4.41,3.61,0,1.55-.91,2.59-2.14,3.17l3.27,3.83h-3.15l-2.64-3.3h-2.14v3.3h-2.43v-10.61Zm4.32,5.4c1.25,0,2.4-.58,2.4-1.71,0-1.22-1.06-1.77-2.33-1.77h-1.96v3.48h1.89Z"/>
          <path class="cls-10" d="m246.18,119.35c1-3.18,3.04-6.66,5.1-8.76h-3.04l.65-1.86h7.59v10.61h-2.43v-2.05h-4.75c-.32.72-.59,1.42-.78,2.05h-2.34Zm4.05-3.91h3.82v-4.91h-.1c-1.34,1.21-2.68,3.04-3.71,4.91Z"/>
          <path class="cls-10" d="m261.5,110.73h-3.54v-1.99h9.58l-.38,1.99h-3.23v8.62h-2.43v-8.62Z"/>
          <path class="cls-10" d="m267.59,114.32c0-3.36,2.74-5.73,6.15-5.73,1.52,0,2.9.31,3.92.72l-.63,1.89c-.71-.35-1.8-.66-3.15-.66-1.9,0-3.32,1.03-3.76,2.68h5.42l-.25,1.84h-5.2c.32,1.56,1.87,2.49,4.1,2.49,1.16,0,2.54-.32,3.32-.62l-.24,2.05c-.74.27-2.03.52-3.18.52-3.51,0-6.49-1.86-6.49-5.17Z"/>
          <path class="cls-10" d="m279.4,116.55c1.21.58,2.59,1,4.36,1s2.51-.54,2.51-1.19c0-.71-.75-.88-3.15-1.21-2.92-.4-4.21-1.43-4.21-3.21,0-2.02,2-3.35,4.75-3.35,1.49,0,3.55.4,4.61.86l-.63,1.93c-.85-.46-2.51-.84-4.04-.84s-2.36.56-2.36,1.18c0,.72.81.96,2.93,1.27,3.18.46,4.44,1.36,4.44,3.12,0,2.08-2.02,3.39-4.82,3.39-1.55,0-3.64-.4-4.94-.93l.56-2.02Z"/>
        </g>
        <g>
          <path class="cls-10" d="m57.15,159.12c2.81-8.93,8.52-18.69,14.31-24.56h-8.52l1.82-5.21h21.3v29.77h-6.82v-5.75h-13.32c-.91,2.03-1.65,3.97-2.19,5.75h-6.58Zm11.37-10.96h10.71v-13.77h-.29c-3.76,3.39-7.53,8.52-10.42,13.77Z"/>
          <path class="cls-10" d="m93.17,129.35h15.42c5.79,0,10.54,3.27,10.54,7.69,0,2.52-2.56,4.75-4.67,5.71,3.27,1.08,6.53,3.18,6.53,7.44,0,5.83-5.91,8.93-12.28,8.93h-15.55v-29.77Zm13.93,11.83c2.98,0,5.25-1.08,5.25-3.43,0-1.49-2.07-3.02-4.75-3.02h-7.61v6.45h7.11Zm.87,12.57c3.31,0,6.2-1.41,6.2-3.97s-2.77-3.43-6.16-3.43h-8.02v7.4h7.98Z"/>
          <path class="cls-10" d="m125.75,146.22v-16.87h6.82v16.46c0,4.96,2.69,7.94,7.4,7.94s7.24-2.98,7.24-7.94v-16.46h6.41v16.87c0,8.35-5.79,13.32-13.89,13.32s-13.98-4.96-13.98-13.32Z"/>
          <path class="cls-10" d="m172.22,129.35h11.66c9.14,0,17.99,4.88,17.99,14.39s-8.44,15.38-17.99,15.38h-11.66v-29.77Zm11.25,24.31c6.62,0,11.37-3.89,11.37-9.92s-5.17-8.93-11.37-8.93h-4.42v18.86h4.42Z"/>
          <path class="cls-10" d="m207.24,129.35h6.82v11.74h14.02v-11.74h6.82v29.77h-6.82v-12.45h-14.02v12.45h-6.82v-29.77Z"/>
          <path class="cls-10" d="m238.59,159.12c2.81-8.93,8.52-18.69,14.31-24.56h-8.52l1.82-5.21h21.3v29.77h-6.82v-5.75h-13.32c-.91,2.03-1.65,3.97-2.19,5.75h-6.58Zm11.37-10.96h10.71v-13.77h-.29c-3.76,3.39-7.53,8.52-10.42,13.77Z"/>
          <path class="cls-10" d="m274.6,129.35h15.42c5.79,0,10.54,3.27,10.54,7.69,0,2.52-2.56,4.75-4.67,5.71,3.27,1.08,6.53,3.18,6.53,7.44,0,5.83-5.91,8.93-12.28,8.93h-15.55v-29.77Zm13.93,11.83c2.98,0,5.25-1.08,5.25-3.43,0-1.49-2.07-3.02-4.75-3.02h-7.61v6.45h7.11Zm.87,12.57c3.31,0,6.2-1.41,6.2-3.97s-2.77-3.43-6.16-3.43h-8.02v7.4h7.98Z"/>
          <path class="cls-10" d="m314.42,159.12h-6.82v-29.77h6.82v29.77Z"/>
        </g>
      </g>
    </g>
  </g>
</svg>