<?xml version="1.0" encoding="UTF-8"?>
<svg xmlns="http://www.w3.org/2000/svg" xmlns:xlink="http://www.w3.org/1999/xlink" viewBox="0 0 375 250">
  <defs>
    <style>
      .cls-1 {
        clip-path: url(#clippath-2);
      }

      .cls-1, .cls-2, .cls-3, .cls-4, .cls-5, .cls-6 {
        fill: none;
      }

      .cls-7 {
        fill: #fff;
      }

      .cls-8 {
        fill: #d65627;
      }

      .cls-9 {
        fill: #fcee10;
      }

      .cls-10 {
        fill: #fdb515;
      }

      .cls-11 {
        fill: #a6d5eb;
      }

      .cls-2 {
        isolation: isolate;
      }

      .cls-3 {
        clip-path: url(#clippath-3);
      }

      .cls-12 {
        fill: #6db6e2;
      }

      .cls-5 {
        clip-path: url(#clippath);
      }

      .cls-6 {
        clip-path: url(#clippath-1);
      }

      .cls-13 {
        fill: #00ace5;
        mix-blend-mode: multiply;
      }
    </style>
    <clipPath id="clippath">
      <rect class="cls-4" width="375" height="250"/>
    </clipPath>
    <clipPath id="clippath-1">
      <rect class="cls-4" x="1.1" y="-36.01" width="375.46" height="285.54"/>
    </clipPath>
    <clipPath id="clippath-2">
      <polygon class="cls-11" points="-229.58 187.17 -229.8 209.12 -190.95 209.11 -190.76 187.14 -169.91 187.13 -169.91 179.25 -150.87 179.25 -150.87 187.62 -122.23 187.62 -122.23 219.89 -97.86 219.89 -97.86 214.76 -94.07 214.76 -94.07 210.38 -80.57 210.38 -80.57 199.67 -72.7 199.67 -72.7 203.59 -64.71 203.59 -64.71 207.61 -38.61 207.61 -38.61 190.45 -14.59 190.45 -14.59 195.88 6.85 195.88 6.85 187.71 11.39 187.71 11.39 178.96 33.47 178.96 33.47 187.71 33.95 187.71 33.95 187.21 42.07 187.2 42.07 182.49 60.07 182.49 60.07 187.2 72.75 187.19 72.75 212.98 76.76 212.98 76.76 187.19 138.5 187.17 138.33 204.57 177.17 204.57 177.33 187.14 198.18 187.13 198.18 179.25 217.22 179.25 217.22 187.62 245.86 187.62 245.86 219.89 270.24 219.89 270.24 214.76 272.86 214.76 272.86 330.12 -334.13 330.12 -334.13 187.21 -229.58 187.17"/>
    </clipPath>
    <clipPath id="clippath-3">
      <path class="cls-9" d="m181.05,217.23v33.19h20.77c0-9.32,7.59-16.91,16.91-16.91s16.91,7.59,16.91,16.91h25.36c0-9.32,7.59-16.91,16.91-16.91s16.91,7.59,16.91,16.91h25.36c0-9.32,7.59-16.91,16.91-16.91s16.91,7.59,16.91,16.91h22.32v-33.19h-195.27Z"/>
    </clipPath>
  </defs>
  <g class="cls-2">
    <g id="OUTLINED">
      <g id="Headers_OUTLINED" data-name="Headers OUTLINED">
        <g class="cls-5">
          <rect class="cls-12" width="375" height="251.86"/>
          <path class="cls-13" d="m186.95,27.56c-8.49,0-17.02.24-25.57.7C98.85,31.61,17.2,59.57,0,65.67v151.14h375V79.33c-59.95-37.67-122.95-51.77-188.05-51.76"/>
          <circle class="cls-9" cx="297.5" cy="78.11" r="26.57"/>
          <g id="Q1_Buildings" data-name="Q1 Buildings">
            <g class="cls-6">
              <polygon class="cls-11" points="36.4 123.55 27.27 92.45 18.14 123.55 9.92 207.23 27.27 207.23 44.62 207.23 36.4 123.55"/>
              <g>
                <polygon class="cls-11" points="-229.58 187.17 -229.8 209.12 -190.95 209.11 -190.76 187.14 -169.91 187.13 -169.91 179.25 -150.87 179.25 -150.87 187.62 -122.23 187.62 -122.23 219.89 -97.86 219.89 -97.86 214.76 -94.07 214.76 -94.07 210.38 -80.57 210.38 -80.57 199.67 -72.7 199.67 -72.7 203.59 -64.71 203.59 -64.71 207.61 -38.61 207.61 -38.61 190.45 -14.59 190.45 -14.59 195.88 6.85 195.88 6.85 187.71 11.39 187.71 11.39 178.96 33.47 178.96 33.47 187.71 33.95 187.71 33.95 187.21 42.07 187.2 42.07 182.49 60.07 182.49 60.07 187.2 72.75 187.19 72.75 212.98 76.76 212.98 76.76 187.19 138.5 187.17 138.33 204.57 177.17 204.57 177.33 187.14 198.18 187.13 198.18 179.25 217.22 179.25 217.22 187.62 245.86 187.62 245.86 219.89 270.24 219.89 270.24 214.76 272.86 214.76 272.86 330.12 -334.13 330.12 -334.13 187.21 -229.58 187.17"/>
                <g class="cls-1">
                  <g>
                    <path class="cls-12" d="m-115.97,32.95c0,9.79,8.98,11.04,11.11,11.04,2.36,0,11.26-1.77,11.26-10.96,0-8.83,7.36-11.63,11.48-11.63,4.4,0,11.26,3.66,11.26,11.55,0,9.79,8.98,11.04,11.11,11.04,2.35,0,11.26-1.77,11.26-10.96,0-8.76,7.24-11.58,11.38-11.62h0s.02,0,.04,0c.02,0,.04,0,.06,0,1.94,0,4.48.72,6.64,2.35,1.88,1.31,3.57,3.35,4.19,6.52.23.98.35,2.04.35,3.2v1.15c.95,8.26,9,9.37,11.01,9.37,2.36,0,11.26-1.77,11.26-10.96,0-8.83,7.36-11.63,11.48-11.63,4.4,0,11.26,3.66,11.26,11.55,0,9.79,8.98,11.04,11.11,11.04,2.36,0,11.26-1.77,11.26-10.96,0-8.83,7.36-11.63,11.48-11.63,0,0,0,0,.02,0h0s.03,0,.04,0c1.6,0,3.6.5,5.46,1.59,2.83,1.49,5.69,4.38,5.69,9.96,0,9.79,8.98,11.04,11.11,11.04,2.35,0,11.26-1.77,11.26-10.96,0-8.83,7.36-11.63,11.48-11.63,4.4,0,11.26,3.66,11.26,11.55,0,9.79,8.98,11.04,11.11,11.04,2.36,0,11.26-1.77,11.26-10.96,0-8.76,7.24-11.58,11.38-11.62h0s.02,0,.04,0c.02,0,.04,0,.06,0,1.94,0,4.48.72,6.65,2.35,1.88,1.31,3.57,3.35,4.19,6.52.22.98.35,2.04.35,3.2v1.15c.95,8.26,9,9.37,11.01,9.37,2.35,0,11.26-1.77,11.26-10.96,0-8.83,7.36-11.63,11.48-11.63,4.4,0,11.26,3.66,11.26,11.55,0,9.79,8.98,11.04,11.11,11.04,2.36,0,11.26-1.77,11.26-10.96,0-8.83,7.36-11.63,11.48-11.63,4.19,0,11.18,3.31,11.18,12.07l-.08,10.3s-1.1-11.18-11.18-11.18c-10.3,0-11.41,10.23-11.41,11.33s-.74,11.11-11.11,11.11c-10.38,0-11.41-9.64-11.41-10.74,0-3.4-3.14-11.7-11.18-11.7-10.3,0-11.4,10.23-11.4,11.33s-.74,11.11-11.11,11.11c-10.38,0-11.41-9.64-11.41-10.74,0-1.87-.66-4.8-2.36-7.27-.02-.02-.03-.05-.05-.07-.18-.26-.38-.52-.59-.77-.07-.09-.15-.17-.23-.26-.13-.15-.27-.29-.41-.43-.25-.25-.52-.49-.8-.72,0,0-.02-.02-.03-.03-1.59-1.27-3.72-2.15-6.55-2.15-10.3,0-11.41,10.23-11.41,11.33s-.74,11.11-11.11,11.11c-10.37,0-11.4-9.64-11.4-10.74,0-3.4-3.14-11.7-11.18-11.7-10.3,0-11.41,10.23-11.41,11.33,0,1.1-.74,11.11-11.11,11.11-10.38,0-11.41-9.64-11.41-10.74,0-.56-.07-1.22-.19-1.93-.68-3-3.07-9.77-10.93-9.77-10.3,0-11.41,10.23-11.41,11.33s-.74,11.11-11.11,11.11c-10.38,0-11.4-9.64-11.4-10.74,0-3.4-3.14-11.7-11.18-11.7-10.3,0-11.41,10.23-11.41,11.33s-.74,11.11-11.11,11.11c-10.37,0-11.41-9.64-11.41-10.74,0-1.87-.66-4.8-2.36-7.27-.02-.02-.03-.05-.05-.07-.18-.26-.38-.52-.59-.77-.07-.09-.15-.17-.23-.26-.13-.15-.27-.29-.41-.43-.25-.25-.51-.49-.8-.72-.01,0-.02-.02-.03-.03-1.59-1.27-3.71-2.15-6.55-2.15-10.3,0-11.4,10.23-11.4,11.33s-.74,11.11-11.11,11.11c-10.38,0-11.41-9.64-11.41-10.74,0-3.4-3.14-11.7-11.18-11.7-10.3,0-11.41,10.23-11.41,11.33s-.74,11.11-11.11,11.11c-10.38,0-11.41-9.64-11.41-10.74,0-3.75-2.65-11.77-11.04-11.77v-11.11s11.18.51,11.18,11.55"/>
                    <path class="cls-12" d="m-115.97,101.14c0,9.79,8.98,11.04,11.11,11.04,2.36,0,11.26-1.77,11.26-10.96,0-8.83,7.36-11.63,11.48-11.63,4.4,0,11.26,3.66,11.26,11.55,0,9.79,8.98,11.04,11.11,11.04,2.35,0,11.26-1.77,11.26-10.96,0-8.76,7.24-11.58,11.38-11.62h0s.02,0,.04,0c.02,0,.04,0,.06,0,1.94,0,4.48.72,6.64,2.35,1.88,1.31,3.57,3.35,4.19,6.52.23.98.35,2.04.35,3.2h0s0,1.15,0,1.15c.96,8.26,9.01,9.37,11.02,9.37,2.36,0,11.26-1.77,11.26-10.96,0-8.83,7.36-11.63,11.48-11.63,4.4,0,11.26,3.66,11.26,11.55,0,9.79,8.98,11.04,11.11,11.04,2.36,0,11.26-1.77,11.26-10.96,0-8.83,7.36-11.63,11.48-11.63,0,0,0,0,.02,0h0s.03,0,.04,0c1.6,0,3.6.5,5.46,1.59,2.83,1.49,5.69,4.38,5.69,9.96,0,9.79,8.98,11.04,11.11,11.04,2.35,0,11.26-1.77,11.26-10.96,0-8.83,7.36-11.63,11.48-11.63,4.4,0,11.26,3.66,11.26,11.55,0,9.79,8.98,11.04,11.11,11.04,2.36,0,11.26-1.77,11.26-10.96,0-8.76,7.24-11.58,11.38-11.62h0s.02,0,.04,0c.02,0,.04,0,.06,0,1.94,0,4.48.72,6.65,2.35,1.88,1.31,3.57,3.35,4.19,6.52.22.98.35,2.04.35,3.2h0s0,1.15,0,1.15c.96,8.26,9.01,9.37,11.02,9.37,2.35,0,11.26-1.77,11.26-10.96,0-8.83,7.36-11.63,11.48-11.63,4.4,0,11.26,3.66,11.26,11.55,0,9.79,8.98,11.04,11.11,11.04,2.36,0,11.26-1.77,11.26-10.96,0-8.83,7.36-11.63,11.48-11.63,4.19,0,11.18,3.31,11.18,12.07h0s-.08,10.3-.08,10.3c0,0-1.1-11.18-11.18-11.18-10.3,0-11.41,10.23-11.41,11.33,0,1.1-.74,11.11-11.11,11.11-10.38,0-11.41-9.64-11.41-10.74,0-3.4-3.14-11.7-11.18-11.7-10.3,0-11.4,10.23-11.4,11.33s-.74,11.11-11.11,11.11c-10.38,0-11.41-9.64-11.41-10.74,0-1.87-.66-4.8-2.36-7.27-.02-.02-.03-.04-.05-.07-.18-.26-.38-.51-.59-.76-.07-.09-.15-.17-.23-.26-.13-.15-.27-.29-.41-.43-.25-.25-.52-.5-.8-.73,0,0-.02-.02-.03-.02-1.59-1.27-3.72-2.15-6.55-2.15-10.3,0-11.41,10.23-11.41,11.33,0,1.1-.74,11.11-11.11,11.11-10.37,0-11.4-9.64-11.4-10.74,0-3.4-3.14-11.7-11.18-11.7-10.3,0-11.41,10.23-11.41,11.33,0,1.1-.74,11.11-11.11,11.11-10.38,0-11.41-9.64-11.41-10.74,0-.56-.07-1.22-.19-1.93-.68-3-3.07-9.77-10.93-9.77-10.3,0-11.41,10.23-11.41,11.33s-.74,11.11-11.11,11.11c-10.38,0-11.4-9.64-11.4-10.74,0-3.4-3.14-11.7-11.18-11.7-10.3,0-11.41,10.23-11.41,11.33s-.74,11.11-11.11,11.11c-10.37,0-11.41-9.64-11.41-10.74,0-1.87-.66-4.8-2.36-7.27-.02-.02-.03-.04-.05-.07-.18-.26-.38-.51-.59-.76-.08-.09-.15-.17-.23-.26-.13-.15-.27-.29-.41-.43-.25-.25-.52-.5-.8-.73,0,0-.02-.02-.03-.02-1.59-1.27-3.71-2.15-6.55-2.15-10.3,0-11.4,10.23-11.4,11.33s-.74,11.11-11.11,11.11c-10.38,0-11.41-9.64-11.41-10.74,0-3.4-3.14-11.7-11.18-11.7-10.3,0-11.41,10.23-11.41,11.33s-.74,11.11-11.11,11.11c-10.38,0-11.41-9.64-11.41-10.74,0-3.75-2.65-11.77-11.04-11.77v-11.11s0,0,0,0c0,0,11.18.51,11.18,11.55"/>
                    <path class="cls-12" d="m-115.97,78.41c0,9.79,8.98,11.04,11.11,11.04,2.36,0,11.26-1.77,11.26-10.96,0-8.83,7.36-11.63,11.48-11.63,4.4,0,11.26,3.66,11.26,11.55,0,9.79,8.98,11.04,11.11,11.04,2.35,0,11.26-1.77,11.26-10.96,0-8.76,7.24-11.58,11.38-11.62h0s.02,0,.04,0c.02,0,.04,0,.06,0,1.94,0,4.48.72,6.64,2.35,1.88,1.31,3.57,3.35,4.19,6.52.23.98.35,2.04.35,3.2v1.15c.95,8.26,9,9.37,11.01,9.37,2.36,0,11.26-1.77,11.26-10.96,0-8.83,7.36-11.63,11.48-11.63,4.4,0,11.26,3.66,11.26,11.55,0,9.79,8.98,11.04,11.11,11.04,2.36,0,11.26-1.77,11.26-10.96,0-8.83,7.36-11.63,11.48-11.63h.02s.03,0,.04,0c1.6,0,3.6.5,5.46,1.59,2.83,1.49,5.69,4.38,5.69,9.96,0,9.79,8.98,11.04,11.11,11.04,2.35,0,11.26-1.77,11.26-10.96,0-8.83,7.36-11.63,11.48-11.63,4.4,0,11.26,3.66,11.26,11.55,0,9.79,8.98,11.04,11.11,11.04,2.36,0,11.26-1.77,11.26-10.96,0-8.76,7.24-11.58,11.38-11.62h0s.02,0,.04,0c.02,0,.04,0,.06,0,1.94,0,4.48.72,6.65,2.35,1.88,1.31,3.57,3.35,4.19,6.52.22.98.35,2.04.35,3.2v1.15c.95,8.26,9,9.37,11.01,9.37,2.35,0,11.26-1.77,11.26-10.96,0-8.83,7.36-11.63,11.48-11.63,4.4,0,11.26,3.66,11.26,11.55,0,9.79,8.98,11.04,11.11,11.04,2.36,0,11.26-1.77,11.26-10.96,0-8.83,7.36-11.63,11.48-11.63,4.19,0,11.18,3.31,11.18,12.07l-.08,10.3s-1.1-11.18-11.18-11.18c-10.3,0-11.41,10.23-11.41,11.33s-.74,11.11-11.11,11.11c-10.38,0-11.41-9.64-11.41-10.74,0-3.4-3.14-11.7-11.18-11.7-10.3,0-11.4,10.23-11.4,11.33s-.74,11.11-11.11,11.11c-10.38,0-11.41-9.64-11.41-10.74,0-1.87-.66-4.8-2.36-7.27-.02-.02-.03-.05-.05-.07-.18-.26-.38-.52-.59-.76-.07-.09-.15-.18-.23-.26-.13-.15-.27-.29-.41-.43-.25-.25-.52-.49-.8-.72,0,0-.02-.02-.03-.02-1.59-1.27-3.72-2.15-6.55-2.15-10.3,0-11.41,10.23-11.41,11.33,0,1.1-.74,11.11-11.11,11.11-10.37,0-11.4-9.64-11.4-10.74,0-3.4-3.14-11.7-11.18-11.7-10.3,0-11.41,10.23-11.41,11.33,0,1.1-.74,11.11-11.11,11.11-10.38,0-11.41-9.64-11.41-10.74,0-.56-.07-1.22-.19-1.93-.68-3-3.07-9.77-10.93-9.77-10.3,0-11.41,10.23-11.41,11.33s-.74,11.11-11.11,11.11c-10.38,0-11.4-9.64-11.4-10.74,0-3.4-3.14-11.7-11.18-11.7-10.3,0-11.41,10.23-11.41,11.33s-.74,11.11-11.11,11.11c-10.37,0-11.41-9.64-11.41-10.74,0-1.87-.66-4.8-2.36-7.27-.02-.02-.03-.05-.05-.07-.18-.26-.38-.52-.59-.76-.08-.09-.15-.18-.23-.26-.13-.15-.27-.29-.41-.43-.25-.25-.52-.49-.8-.72-.01,0-.02-.02-.03-.02-1.59-1.27-3.71-2.15-6.55-2.15-10.3,0-11.4,10.23-11.4,11.33s-.74,11.11-11.11,11.11c-10.38,0-11.41-9.64-11.41-10.74,0-3.4-3.14-11.7-11.18-11.7-10.3,0-11.41,10.23-11.41,11.33s-.74,11.11-11.11,11.11c-10.38,0-11.41-9.64-11.41-10.74,0-3.75-2.65-11.77-11.04-11.77v-11.11s11.18.51,11.18,11.55"/>
                    <path class="cls-12" d="m-115.97,55.68c0,9.79,8.98,11.04,11.11,11.04,2.36,0,11.26-1.77,11.26-10.96,0-8.83,7.36-11.63,11.48-11.63,4.4,0,11.26,3.66,11.26,11.55,0,9.79,8.98,11.04,11.11,11.04,2.35,0,11.26-1.77,11.26-10.96,0-8.76,7.24-11.58,11.38-11.62h0s.02,0,.04,0c.02,0,.04,0,.06,0,1.94,0,4.48.72,6.65,2.35,1.88,1.31,3.57,3.35,4.18,6.52.23.98.35,2.04.35,3.2v1.15c.95,8.26,9,9.37,11.01,9.37,2.36,0,11.26-1.77,11.26-10.96,0-8.83,7.36-11.63,11.48-11.63,4.4,0,11.26,3.66,11.26,11.55,0,9.79,8.98,11.04,11.11,11.04,2.36,0,11.26-1.77,11.26-10.96,0-8.83,7.36-11.63,11.48-11.63h.02s.03,0,.04,0c1.6,0,3.6.5,5.46,1.59,2.83,1.49,5.69,4.38,5.69,9.96,0,9.79,8.98,11.04,11.11,11.04,2.35,0,11.26-1.77,11.26-10.96,0-8.83,7.36-11.63,11.48-11.63,4.4,0,11.26,3.66,11.26,11.55,0,9.79,8.98,11.04,11.11,11.04,2.36,0,11.26-1.77,11.26-10.96,0-8.76,7.24-11.58,11.38-11.62h0s.02,0,.04,0c.02,0,.04,0,.06,0,1.94,0,4.48.72,6.65,2.35,1.88,1.31,3.57,3.35,4.18,6.52.22.98.35,2.04.35,3.2v1.15c.95,8.26,9,9.37,11.01,9.37,2.35,0,11.26-1.77,11.26-10.96,0-8.83,7.36-11.63,11.48-11.63,4.4,0,11.26,3.66,11.26,11.55,0,9.79,8.98,11.04,11.11,11.04,2.36,0,11.26-1.77,11.26-10.96,0-8.83,7.36-11.63,11.48-11.63,4.19,0,11.18,3.31,11.18,12.07l-.08,10.3s-1.1-11.18-11.18-11.18c-10.3,0-11.41,10.23-11.41,11.33s-.74,11.11-11.11,11.11c-10.38,0-11.41-9.64-11.41-10.74,0-3.4-3.14-11.7-11.18-11.7-10.3,0-11.4,10.23-11.4,11.33,0,1.1-.74,11.11-11.11,11.11-10.38,0-11.41-9.64-11.41-10.74,0-1.87-.66-4.8-2.36-7.27-.02-.02-.03-.05-.05-.07-.18-.26-.38-.52-.59-.76-.07-.09-.15-.18-.23-.26-.13-.15-.27-.29-.41-.43-.25-.25-.52-.5-.8-.73,0,0-.02-.02-.03-.02-1.59-1.27-3.72-2.15-6.55-2.15-10.3,0-11.41,10.23-11.41,11.33,0,1.1-.74,11.11-11.11,11.11-10.37,0-11.4-9.64-11.4-10.74,0-3.4-3.14-11.7-11.18-11.7-10.3,0-11.41,10.23-11.41,11.33,0,1.1-.74,11.11-11.11,11.11-10.38,0-11.41-9.64-11.41-10.74,0-.56-.07-1.22-.19-1.93-.68-3-3.07-9.77-10.93-9.77-10.3,0-11.41,10.23-11.41,11.33s-.74,11.11-11.11,11.11c-10.38,0-11.4-9.64-11.4-10.74,0-3.4-3.14-11.7-11.18-11.7-10.3,0-11.41,10.23-11.41,11.33s-.74,11.11-11.11,11.11c-10.37,0-11.41-9.64-11.41-10.74,0-1.87-.66-4.8-2.36-7.27-.02-.02-.03-.05-.05-.07-.18-.26-.38-.52-.59-.76-.07-.09-.15-.18-.23-.26-.13-.15-.27-.29-.41-.43-.25-.25-.52-.5-.8-.73,0,0-.02-.02-.03-.02-1.59-1.27-3.71-2.15-6.55-2.15-10.3,0-11.4,10.23-11.4,11.33s-.74,11.11-11.11,11.11c-10.38,0-11.41-9.64-11.41-10.74,0-3.4-3.14-11.7-11.18-11.7-10.3,0-11.41,10.23-11.41,11.33s-.74,11.11-11.11,11.11c-10.38,0-11.41-9.64-11.41-10.74,0-3.75-2.65-11.77-11.04-11.77v-11.11s11.18.51,11.18,11.55"/>
                    <path class="cls-12" d="m-115.97,169.34c0,9.79,8.98,11.04,11.11,11.04,2.36,0,11.26-1.76,11.26-10.96,0-8.83,7.36-11.63,11.48-11.63,4.4,0,11.26,3.66,11.26,11.55,0,9.79,8.98,11.04,11.11,11.04,2.35,0,11.26-1.76,11.26-10.96,0-8.76,7.24-11.58,11.38-11.62h0s.02,0,.04,0c.02,0,.04,0,.06,0,1.94,0,4.48.72,6.65,2.35,1.88,1.31,3.57,3.35,4.18,6.52.23.98.35,2.04.35,3.2v1.15c.95,8.26,9,9.37,11.01,9.37,2.36,0,11.26-1.76,11.26-10.96,0-8.83,7.36-11.63,11.48-11.63,4.4,0,11.26,3.66,11.26,11.55,0,9.79,8.98,11.04,11.11,11.04,2.36,0,11.26-1.76,11.26-10.96,0-8.83,7.36-11.63,11.48-11.63,0,0,0,0,.02,0h0s.03,0,.04,0c1.6,0,3.6.5,5.46,1.59,2.83,1.5,5.69,4.38,5.69,9.96,0,9.79,8.98,11.04,11.11,11.04,2.35,0,11.26-1.76,11.26-10.96,0-8.83,7.36-11.63,11.48-11.63,4.4,0,11.26,3.66,11.26,11.55,0,9.79,8.98,11.04,11.11,11.04,2.36,0,11.26-1.76,11.26-10.96,0-8.76,7.24-11.58,11.38-11.62h0s.02,0,.04,0c.02,0,.04,0,.06,0,1.94,0,4.48.72,6.65,2.35,1.88,1.31,3.57,3.35,4.18,6.52.22.98.35,2.04.35,3.2v1.15c.95,8.26,9,9.37,11.01,9.37,2.35,0,11.26-1.76,11.26-10.96,0-8.83,7.36-11.63,11.48-11.63,4.4,0,11.26,3.66,11.26,11.55,0,9.79,8.98,11.04,11.11,11.04,2.36,0,11.26-1.76,11.26-10.96,0-8.83,7.36-11.63,11.48-11.63s11.18,3.31,11.18,12.07l-.08,10.3s-1.1-11.18-11.18-11.18c-10.3,0-11.41,10.23-11.41,11.33,0,1.1-.74,11.11-11.11,11.11-10.38,0-11.41-9.64-11.41-10.74,0-3.4-3.14-11.7-11.18-11.7-10.3,0-11.4,10.23-11.4,11.33s-.74,11.11-11.11,11.11c-10.38,0-11.41-9.64-11.41-10.74,0-1.87-.66-4.8-2.36-7.27-.02-.02-.03-.05-.05-.07-.18-.26-.38-.51-.59-.76-.07-.09-.15-.18-.23-.26-.13-.15-.27-.29-.41-.43-.25-.25-.52-.5-.8-.72,0,0-.02-.02-.03-.03-1.59-1.27-3.72-2.15-6.55-2.15-10.3,0-11.41,10.23-11.41,11.33s-.74,11.11-11.11,11.11c-10.37,0-11.4-9.64-11.4-10.74,0-3.4-3.14-11.7-11.18-11.7-10.3,0-11.41,10.23-11.41,11.33s-.74,11.11-11.11,11.11c-10.38,0-11.41-9.64-11.41-10.74,0-.56-.07-1.22-.19-1.93-.68-3-3.07-9.77-10.93-9.77-10.3,0-11.41,10.23-11.41,11.33s-.74,11.11-11.11,11.11c-10.38,0-11.4-9.64-11.4-10.74,0-3.4-3.14-11.7-11.18-11.7-10.3,0-11.41,10.23-11.41,11.33s-.74,11.11-11.11,11.11-11.41-9.64-11.41-10.74c0-1.87-.66-4.8-2.36-7.27-.02-.02-.03-.05-.05-.07-.18-.26-.38-.51-.59-.76-.08-.09-.15-.18-.23-.26-.13-.15-.27-.29-.41-.43-.25-.25-.52-.5-.8-.72-.01,0-.02-.02-.03-.03-1.59-1.27-3.71-2.15-6.55-2.15-10.3,0-11.4,10.23-11.4,11.33s-.74,11.11-11.11,11.11c-10.38,0-11.41-9.64-11.41-10.74,0-3.4-3.14-11.7-11.18-11.7-10.3,0-11.41,10.23-11.41,11.33s-.74,11.11-11.11,11.11c-10.38,0-11.41-9.64-11.41-10.74,0-3.75-2.65-11.77-11.04-11.77v-11.11s11.18.51,11.18,11.55"/>
                    <path class="cls-12" d="m-115.97,146.61c0,9.79,8.98,11.04,11.11,11.04,2.36,0,11.26-1.77,11.26-10.96,0-8.83,7.36-11.63,11.48-11.63,4.4,0,11.26,3.66,11.26,11.55,0,9.79,8.98,11.04,11.11,11.04,2.35,0,11.26-1.77,11.26-10.96,0-8.76,7.24-11.58,11.38-11.62h0s.02,0,.04,0c.02,0,.04,0,.06,0,1.94,0,4.48.72,6.64,2.35,1.88,1.31,3.57,3.35,4.19,6.52.23.98.35,2.04.35,3.2v1.15c.95,8.26,9,9.37,11.01,9.37,2.36,0,11.26-1.77,11.26-10.96,0-8.83,7.36-11.63,11.48-11.63,4.4,0,11.26,3.66,11.26,11.55,0,9.79,8.98,11.04,11.11,11.04,2.36,0,11.26-1.77,11.26-10.96,0-8.83,7.36-11.63,11.48-11.63,0,0,0,0,.02,0h0s.03,0,.04,0c1.6,0,3.6.5,5.46,1.59,2.83,1.5,5.69,4.38,5.69,9.96,0,9.79,8.98,11.04,11.11,11.04,2.35,0,11.26-1.77,11.26-10.96,0-8.83,7.36-11.63,11.48-11.63,4.4,0,11.26,3.66,11.26,11.55,0,9.79,8.98,11.04,11.11,11.04,2.36,0,11.26-1.77,11.26-10.96,0-8.76,7.24-11.58,11.38-11.62h0s.02,0,.04,0c.02,0,.04,0,.06,0,1.94,0,4.48.72,6.65,2.35,1.88,1.31,3.57,3.35,4.19,6.52.22.98.35,2.04.35,3.2v1.15c.95,8.26,9,9.37,11.01,9.37,2.35,0,11.26-1.77,11.26-10.96,0-8.83,7.36-11.63,11.48-11.63,4.4,0,11.26,3.66,11.26,11.55,0,9.79,8.98,11.04,11.11,11.04,2.36,0,11.26-1.77,11.26-10.96,0-8.83,7.36-11.63,11.48-11.63s11.18,3.31,11.18,12.07l-.08,10.3s-1.1-11.18-11.18-11.18c-10.3,0-11.41,10.23-11.41,11.33,0,1.1-.74,11.11-11.11,11.11-10.38,0-11.41-9.64-11.41-10.74,0-3.4-3.14-11.7-11.18-11.7-10.3,0-11.4,10.23-11.4,11.33s-.74,11.11-11.11,11.11c-10.38,0-11.41-9.64-11.41-10.74,0-1.87-.66-4.8-2.36-7.27-.02-.02-.03-.05-.05-.07-.18-.26-.38-.51-.59-.76-.07-.09-.15-.17-.23-.26-.13-.15-.27-.29-.41-.43-.25-.25-.52-.49-.8-.72,0,0-.02-.02-.03-.03-1.59-1.27-3.72-2.15-6.55-2.15-10.3,0-11.41,10.23-11.41,11.33,0,1.1-.74,11.11-11.11,11.11-10.37,0-11.4-9.64-11.4-10.74,0-3.4-3.14-11.7-11.18-11.7-10.3,0-11.41,10.23-11.41,11.33,0,1.1-.74,11.11-11.11,11.11-10.38,0-11.41-9.64-11.41-10.74,0-.56-.07-1.22-.19-1.93-.68-3-3.07-9.77-10.93-9.77-10.3,0-11.41,10.23-11.41,11.33s-.74,11.11-11.11,11.11c-10.38,0-11.4-9.64-11.4-10.74,0-3.4-3.14-11.7-11.18-11.7-10.3,0-11.41,10.23-11.41,11.33s-.74,11.11-11.11,11.11c-10.37,0-11.41-9.64-11.41-10.74,0-1.87-.66-4.8-2.36-7.27-.02-.02-.03-.05-.05-.07-.18-.26-.38-.51-.59-.76-.07-.09-.15-.17-.23-.26-.13-.15-.27-.29-.41-.43-.25-.25-.51-.49-.8-.72-.01,0-.02-.02-.03-.03-1.59-1.27-3.71-2.15-6.55-2.15-10.3,0-11.4,10.23-11.4,11.33s-.74,11.11-11.11,11.11c-10.38,0-11.41-9.64-11.41-10.74,0-3.4-3.14-11.7-11.18-11.7-10.3,0-11.41,10.23-11.41,11.33s-.74,11.11-11.11,11.11c-10.38,0-11.41-9.64-11.41-10.74,0-3.75-2.65-11.77-11.04-11.77v-11.11s11.18.51,11.18,11.55"/>
                    <path class="cls-12" d="m-115.97,123.87c0,9.79,8.98,11.04,11.11,11.04,2.36,0,11.26-1.77,11.26-10.96,0-8.83,7.36-11.63,11.48-11.63,4.4,0,11.26,3.66,11.26,11.55,0,9.79,8.98,11.04,11.11,11.04,2.35,0,11.26-1.77,11.26-10.96,0-8.76,7.24-11.58,11.38-11.62h0s.02,0,.04,0c.02,0,.04,0,.06,0,1.94,0,4.48.72,6.65,2.35,1.88,1.31,3.57,3.35,4.18,6.52.23.98.35,2.04.35,3.2v1.15c.95,8.26,9,9.37,11.01,9.37,2.36,0,11.26-1.77,11.26-10.96,0-8.83,7.36-11.63,11.48-11.63,4.4,0,11.26,3.66,11.26,11.55,0,9.79,8.98,11.04,11.11,11.04,2.36,0,11.26-1.77,11.26-10.96,0-8.83,7.36-11.63,11.48-11.63,0,0,0,0,.02,0h0s.03,0,.04,0c1.6,0,3.6.5,5.46,1.59,2.83,1.49,5.69,4.38,5.69,9.96,0,9.79,8.98,11.04,11.11,11.04,2.35,0,11.26-1.77,11.26-10.96,0-8.83,7.36-11.63,11.48-11.63,4.4,0,11.26,3.66,11.26,11.55,0,9.79,8.98,11.04,11.11,11.04,2.36,0,11.26-1.77,11.26-10.96,0-8.76,7.24-11.58,11.38-11.62h0s.02,0,.04,0c.02,0,.04,0,.06,0,1.94,0,4.48.72,6.65,2.35,1.88,1.31,3.57,3.35,4.18,6.52.22.98.35,2.04.35,3.2v1.15c.95,8.26,9,9.37,11.01,9.37,2.35,0,11.26-1.77,11.26-10.96,0-8.83,7.36-11.63,11.48-11.63,4.4,0,11.26,3.66,11.26,11.55,0,9.79,8.98,11.04,11.11,11.04,2.36,0,11.26-1.77,11.26-10.96,0-8.83,7.36-11.63,11.48-11.63s11.18,3.31,11.18,12.07l-.08,10.3s-1.1-11.18-11.18-11.18c-10.3,0-11.41,10.23-11.41,11.33,0,1.1-.74,11.11-11.11,11.11-10.38,0-11.41-9.64-11.41-10.74,0-3.4-3.14-11.7-11.18-11.7-10.3,0-11.4,10.23-11.4,11.33s-.74,11.11-11.11,11.11c-10.38,0-11.41-9.64-11.41-10.74,0-1.87-.66-4.8-2.36-7.27-.02-.02-.03-.05-.05-.07-.18-.26-.38-.51-.59-.76-.07-.09-.15-.17-.23-.26-.13-.15-.27-.29-.41-.43-.25-.25-.52-.49-.8-.72,0,0-.02-.02-.03-.03-1.59-1.27-3.72-2.15-6.55-2.15-10.3,0-11.41,10.23-11.41,11.33,0,1.1-.74,11.11-11.11,11.11-10.37,0-11.4-9.64-11.4-10.74,0-3.4-3.14-11.7-11.18-11.7-10.3,0-11.41,10.23-11.41,11.33s-.74,11.11-11.11,11.11c-10.38,0-11.41-9.64-11.41-10.74,0-.56-.07-1.22-.19-1.93-.68-3-3.07-9.77-10.93-9.77-10.3,0-11.41,10.23-11.41,11.33s-.74,11.11-11.11,11.11c-10.38,0-11.4-9.64-11.4-10.74,0-3.4-3.14-11.7-11.18-11.7-10.3,0-11.41,10.23-11.41,11.33s-.74,11.11-11.11,11.11c-10.37,0-11.41-9.64-11.41-10.74,0-1.87-.66-4.8-2.36-7.27-.02-.02-.03-.05-.05-.07-.18-.26-.38-.51-.59-.76-.08-.09-.15-.17-.23-.26-.13-.15-.27-.29-.41-.43-.25-.25-.52-.49-.8-.72-.01,0-.02-.02-.03-.03-1.59-1.27-3.71-2.15-6.55-2.15-10.3,0-11.4,10.23-11.4,11.33s-.74,11.11-11.11,11.11c-10.38,0-11.41-9.64-11.41-10.74,0-3.4-3.14-11.7-11.18-11.7-10.3,0-11.41,10.23-11.41,11.33s-.74,11.11-11.11,11.11-11.41-9.64-11.41-10.74c0-3.75-2.65-11.77-11.04-11.77v-11.11s11.18.51,11.18,11.55"/>
                    <path class="cls-12" d="m-115.97,260.26c0,9.79,8.98,11.04,11.11,11.04,2.36,0,11.26-1.76,11.26-10.96,0-8.83,7.36-11.63,11.48-11.63,4.4,0,11.26,3.66,11.26,11.55,0,9.79,8.98,11.04,11.11,11.04,2.35,0,11.26-1.76,11.26-10.96,0-8.76,7.24-11.58,11.38-11.62h0s.02,0,.04,0c.02,0,.04,0,.06,0,1.94,0,4.48.72,6.64,2.35,1.88,1.31,3.57,3.35,4.19,6.52.23.98.35,2.04.35,3.2v1.15c.95,8.26,9,9.37,11.01,9.37,2.36,0,11.26-1.76,11.26-10.96,0-8.83,7.36-11.63,11.48-11.63,4.4,0,11.26,3.66,11.26,11.55,0,9.79,8.98,11.04,11.11,11.04,2.36,0,11.26-1.76,11.26-10.96,0-8.83,7.36-11.63,11.48-11.63h.02s.03,0,.04,0c1.6,0,3.6.5,5.46,1.59,2.83,1.49,5.69,4.38,5.69,9.96,0,9.79,8.98,11.04,11.11,11.04,2.35,0,11.26-1.76,11.26-10.96,0-8.83,7.36-11.63,11.48-11.63,4.4,0,11.26,3.66,11.26,11.55,0,9.79,8.98,11.04,11.11,11.04,2.36,0,11.26-1.76,11.26-10.96,0-8.76,7.24-11.58,11.38-11.62h0s.02,0,.04,0c.02,0,.04,0,.06,0,1.94,0,4.48.72,6.65,2.35,1.88,1.31,3.57,3.35,4.19,6.52.22.98.35,2.04.35,3.2v1.15c.95,8.26,9,9.37,11.01,9.37,2.35,0,11.26-1.76,11.26-10.96,0-8.83,7.36-11.63,11.48-11.63,4.4,0,11.26,3.66,11.26,11.55,0,9.79,8.98,11.04,11.11,11.04,2.36,0,11.26-1.76,11.26-10.96,0-8.83,7.36-11.63,11.48-11.63,4.19,0,11.18,3.31,11.18,12.07l-.08,10.3s-1.1-11.18-11.18-11.18c-10.3,0-11.41,10.23-11.41,11.33s-.74,11.11-11.11,11.11c-10.38,0-11.41-9.64-11.41-10.74,0-3.4-3.14-11.7-11.18-11.7-10.3,0-11.4,10.23-11.4,11.33s-.74,11.11-11.11,11.11c-10.38,0-11.41-9.64-11.41-10.74,0-1.87-.66-4.8-2.36-7.27-.02-.02-.03-.05-.05-.07-.18-.26-.38-.51-.59-.76-.07-.09-.15-.18-.23-.26-.13-.15-.27-.29-.41-.43-.25-.25-.52-.5-.8-.73,0,0-.02-.02-.03-.02-1.59-1.27-3.72-2.15-6.55-2.15-10.3,0-11.41,10.23-11.41,11.33s-.74,11.11-11.11,11.11-11.4-9.64-11.4-10.74c0-3.4-3.14-11.7-11.18-11.7-10.3,0-11.41,10.23-11.41,11.33s-.74,11.11-11.11,11.11c-10.38,0-11.41-9.64-11.41-10.74,0-.56-.07-1.22-.19-1.93-.68-3-3.07-9.77-10.93-9.77-10.3,0-11.41,10.23-11.41,11.33,0,1.1-.74,11.11-11.11,11.11-10.38,0-11.4-9.64-11.4-10.74,0-3.4-3.14-11.7-11.18-11.7-10.3,0-11.41,10.23-11.41,11.33,0,1.1-.74,11.11-11.11,11.11-10.37,0-11.41-9.64-11.41-10.74,0-1.87-.66-4.8-2.36-7.27-.02-.02-.03-.05-.05-.07-.18-.26-.38-.51-.59-.76-.08-.09-.15-.18-.23-.26-.13-.15-.27-.29-.41-.43-.25-.25-.52-.5-.8-.73,0,0-.02-.02-.03-.02-1.59-1.27-3.71-2.15-6.55-2.15-10.3,0-11.4,10.23-11.4,11.33,0,1.1-.74,11.11-11.11,11.11-10.38,0-11.41-9.64-11.41-10.74,0-3.4-3.14-11.7-11.18-11.7-10.3,0-11.41,10.23-11.41,11.33,0,1.1-.74,11.11-11.11,11.11-10.38,0-11.41-9.64-11.41-10.74,0-3.75-2.65-11.78-11.04-11.78v-11.11s0,0,0,0c0,0,11.18.51,11.18,11.55"/>
                    <path class="cls-12" d="m-115.97,237.53c0,9.79,8.98,11.04,11.11,11.04,2.36,0,11.26-1.76,11.26-10.96,0-8.83,7.36-11.63,11.48-11.63,4.4,0,11.26,3.66,11.26,11.55,0,9.79,8.98,11.04,11.11,11.04,2.35,0,11.26-1.76,11.26-10.96,0-8.76,7.24-11.58,11.38-11.62h0s.02,0,.04,0c.02,0,.04,0,.06,0,1.94,0,4.48.72,6.64,2.35,1.88,1.31,3.57,3.35,4.19,6.52.23.98.35,2.04.35,3.2v1.15c.95,8.26,9,9.37,11.01,9.37,2.36,0,11.26-1.76,11.26-10.96,0-8.83,7.36-11.63,11.48-11.63,4.4,0,11.26,3.66,11.26,11.55,0,9.79,8.98,11.04,11.11,11.04,2.36,0,11.26-1.76,11.26-10.96,0-8.83,7.36-11.63,11.48-11.63,0,0,0,0,.02,0h0s.03,0,.04,0c1.6,0,3.6.5,5.46,1.59,2.83,1.49,5.69,4.38,5.69,9.96,0,9.79,8.98,11.04,11.11,11.04,2.35,0,11.26-1.76,11.26-10.96,0-8.83,7.36-11.63,11.48-11.63,4.4,0,11.26,3.66,11.26,11.55,0,9.79,8.98,11.04,11.11,11.04,2.36,0,11.26-1.76,11.26-10.96,0-8.76,7.24-11.58,11.38-11.62h0s.02,0,.04,0c.02,0,.04,0,.06,0,1.94,0,4.48.72,6.65,2.35,1.88,1.31,3.57,3.35,4.19,6.52.22.98.35,2.04.35,3.2v1.15c.95,8.26,9,9.37,11.01,9.37,2.35,0,11.26-1.76,11.26-10.96,0-8.83,7.36-11.63,11.48-11.63,4.4,0,11.26,3.66,11.26,11.55,0,9.79,8.98,11.04,11.11,11.04,2.36,0,11.26-1.76,11.26-10.96,0-8.83,7.36-11.63,11.48-11.63,4.19,0,11.18,3.31,11.18,12.07l-.08,10.3s-1.1-11.19-11.18-11.19c-10.3,0-11.41,10.23-11.41,11.33s-.74,11.11-11.11,11.11c-10.38,0-11.41-9.64-11.41-10.74,0-3.4-3.14-11.7-11.18-11.7-10.3,0-11.4,10.23-11.4,11.33s-.74,11.11-11.11,11.11c-10.38,0-11.41-9.64-11.41-10.74,0-1.87-.66-4.8-2.36-7.27-.02-.02-.03-.05-.05-.07-.18-.26-.38-.51-.59-.76-.07-.09-.15-.17-.23-.26-.13-.15-.27-.29-.41-.43-.25-.25-.52-.5-.8-.73,0,0-.02-.02-.03-.02-1.59-1.27-3.72-2.15-6.55-2.15-10.3,0-11.41,10.23-11.41,11.33s-.74,11.11-11.11,11.11c-10.37,0-11.4-9.64-11.4-10.74,0-3.4-3.14-11.7-11.18-11.7-10.3,0-11.41,10.23-11.41,11.33s-.74,11.11-11.11,11.11c-10.38,0-11.41-9.64-11.41-10.74,0-.56-.07-1.22-.19-1.93-.68-3-3.07-9.78-10.93-9.78-10.3,0-11.41,10.23-11.41,11.33,0,1.1-.74,11.11-11.11,11.11-10.38,0-11.4-9.64-11.4-10.74,0-3.4-3.14-11.7-11.18-11.7-10.3,0-11.41,10.23-11.41,11.33,0,1.1-.74,11.11-11.11,11.11-10.37,0-11.41-9.64-11.41-10.74,0-1.87-.66-4.8-2.36-7.27-.02-.02-.03-.05-.05-.07-.18-.26-.38-.51-.59-.76-.08-.09-.15-.17-.23-.26-.13-.15-.27-.29-.41-.43-.25-.25-.52-.5-.8-.73-.01,0-.02-.02-.03-.02-1.59-1.27-3.71-2.15-6.55-2.15-10.3,0-11.4,10.23-11.4,11.33,0,1.1-.74,11.11-11.11,11.11-10.38,0-11.41-9.64-11.41-10.74,0-3.4-3.14-11.7-11.18-11.7-10.3,0-11.41,10.23-11.41,11.33,0,1.1-.74,11.11-11.11,11.11-10.38,0-11.41-9.64-11.41-10.74,0-3.75-2.65-11.77-11.04-11.77v-11.11s11.18.51,11.18,11.55"/>
                    <path class="cls-12" d="m-115.97,214.8c0,9.79,8.98,11.04,11.11,11.04,2.36,0,11.26-1.76,11.26-10.96,0-8.83,7.36-11.63,11.48-11.63,4.4,0,11.26,3.66,11.26,11.55,0,9.79,8.98,11.04,11.11,11.04,2.35,0,11.26-1.76,11.26-10.96,0-8.76,7.24-11.58,11.38-11.62h0s.02,0,.04,0c.02,0,.04,0,.06,0,1.94,0,4.48.72,6.65,2.35,1.88,1.31,3.57,3.35,4.18,6.52.23.98.35,2.04.35,3.2v1.15c.95,8.26,9,9.37,11.01,9.37,2.36,0,11.26-1.76,11.26-10.96,0-8.83,7.36-11.63,11.48-11.63,4.4,0,11.26,3.66,11.26,11.55,0,9.79,8.98,11.04,11.11,11.04,2.36,0,11.26-1.76,11.26-10.96,0-8.83,7.36-11.63,11.48-11.63,0,0,0,0,.02,0h0s.03,0,.04,0c1.6,0,3.6.5,5.46,1.59,2.83,1.49,5.69,4.38,5.69,9.96,0,9.79,8.98,11.04,11.11,11.04,2.35,0,11.26-1.76,11.26-10.96,0-8.83,7.36-11.63,11.48-11.63,4.4,0,11.26,3.66,11.26,11.55,0,9.79,8.98,11.04,11.11,11.04,2.36,0,11.26-1.76,11.26-10.96,0-8.76,7.24-11.58,11.38-11.62h0s.02,0,.04,0c.02,0,.04,0,.06,0,1.94,0,4.48.72,6.65,2.35,1.88,1.31,3.57,3.35,4.18,6.52.22.98.35,2.04.35,3.2v1.15c.95,8.26,9,9.37,11.01,9.37,2.35,0,11.26-1.76,11.26-10.96,0-8.83,7.36-11.63,11.48-11.63,4.4,0,11.26,3.66,11.26,11.55,0,9.79,8.98,11.04,11.11,11.04,2.36,0,11.26-1.76,11.26-10.96,0-8.83,7.36-11.63,11.48-11.63,4.19,0,11.18,3.31,11.18,12.07l-.08,10.3s-1.1-11.19-11.18-11.19c-10.3,0-11.41,10.23-11.41,11.33s-.74,11.11-11.11,11.11c-10.38,0-11.41-9.64-11.41-10.74,0-3.4-3.14-11.7-11.18-11.7-10.3,0-11.4,10.23-11.4,11.33s-.74,11.11-11.11,11.11c-10.38,0-11.41-9.64-11.41-10.74,0-1.87-.66-4.8-2.36-7.27-.02-.02-.03-.05-.05-.07-.18-.26-.38-.51-.59-.76-.07-.09-.15-.17-.23-.26-.13-.15-.27-.29-.41-.43-.25-.25-.52-.5-.8-.73,0,0-.02-.02-.03-.02-1.59-1.27-3.72-2.15-6.55-2.15-10.3,0-11.41,10.23-11.41,11.33s-.74,11.11-11.11,11.11c-10.37,0-11.4-9.64-11.4-10.74,0-3.4-3.14-11.7-11.18-11.7-10.3,0-11.41,10.23-11.41,11.33s-.74,11.11-11.11,11.11c-10.38,0-11.41-9.64-11.41-10.74,0-.56-.07-1.22-.19-1.93-.68-3-3.07-9.78-10.93-9.78-10.3,0-11.41,10.23-11.41,11.33,0,1.1-.74,11.11-11.11,11.11-10.38,0-11.4-9.64-11.4-10.74,0-3.4-3.14-11.7-11.18-11.7-10.3,0-11.41,10.23-11.41,11.33s-.74,11.11-11.11,11.11c-10.37,0-11.41-9.64-11.41-10.74,0-1.87-.66-4.8-2.36-7.27-.02-.02-.03-.05-.05-.07-.18-.26-.38-.51-.59-.76-.07-.09-.15-.17-.23-.26-.13-.15-.27-.29-.41-.43-.25-.25-.52-.5-.8-.73,0,0-.02-.02-.03-.02-1.59-1.27-3.71-2.15-6.55-2.15-10.3,0-11.4,10.23-11.4,11.33,0,1.1-.74,11.11-11.11,11.11-10.38,0-11.41-9.64-11.41-10.74,0-3.4-3.14-11.7-11.18-11.7-10.3,0-11.41,10.23-11.41,11.33,0,1.1-.74,11.11-11.11,11.11-10.38,0-11.41-9.64-11.41-10.74,0-3.75-2.65-11.77-11.04-11.77v-11.11s11.18.51,11.18,11.55"/>
                    <path class="cls-12" d="m-115.97,192.07c0,9.79,8.98,11.04,11.11,11.04,2.36,0,11.26-1.76,11.26-10.96,0-8.83,7.36-11.63,11.48-11.63,4.4,0,11.26,3.66,11.26,11.55,0,9.79,8.98,11.04,11.11,11.04,2.35,0,11.26-1.76,11.26-10.96,0-8.76,7.24-11.58,11.38-11.62h0s.02,0,.04,0c.02,0,.04,0,.06,0,1.94,0,4.48.72,6.64,2.35,1.88,1.31,3.57,3.35,4.19,6.52.23.98.35,2.04.35,3.2v1.15c.95,8.26,9,9.37,11.01,9.37,2.36,0,11.26-1.76,11.26-10.96,0-8.83,7.36-11.63,11.48-11.63,4.4,0,11.26,3.66,11.26,11.55,0,9.79,8.98,11.04,11.11,11.04,2.36,0,11.26-1.76,11.26-10.96,0-8.83,7.36-11.63,11.48-11.63,0,0,0,0,.02,0h0s.03,0,.04,0c1.6,0,3.6.5,5.46,1.59,2.83,1.49,5.69,4.38,5.69,9.96,0,9.79,8.98,11.04,11.11,11.04,2.35,0,11.26-1.76,11.26-10.96,0-8.83,7.36-11.63,11.48-11.63,4.4,0,11.26,3.66,11.26,11.55,0,9.79,8.98,11.04,11.11,11.04,2.36,0,11.26-1.76,11.26-10.96s7.24-11.58,11.38-11.62h0s.02,0,.04,0c.02,0,.04,0,.06,0,1.94,0,4.48.72,6.65,2.35,1.88,1.31,3.57,3.35,4.19,6.52.22.98.35,2.04.35,3.2v1.15c.95,8.26,9,9.37,11.01,9.37,2.35,0,11.26-1.76,11.26-10.96,0-8.83,7.36-11.63,11.48-11.63,4.4,0,11.26,3.66,11.26,11.55,0,9.79,8.98,11.04,11.11,11.04,2.36,0,11.26-1.76,11.26-10.96,0-8.83,7.36-11.63,11.48-11.63,4.19,0,11.18,3.31,11.18,12.07l-.08,10.3s-1.1-11.18-11.18-11.18c-10.3,0-11.41,10.23-11.41,11.33,0,1.1-.74,11.11-11.11,11.11-10.38,0-11.41-9.64-11.41-10.74,0-3.4-3.14-11.7-11.18-11.7-10.3,0-11.4,10.23-11.4,11.33s-.74,11.11-11.11,11.11c-10.38,0-11.41-9.64-11.41-10.74,0-1.87-.66-4.8-2.36-7.27-.02-.02-.03-.05-.05-.07-.18-.26-.38-.51-.59-.76-.07-.09-.15-.17-.23-.26-.13-.15-.27-.29-.41-.43-.25-.25-.52-.49-.8-.72,0,0-.02-.02-.03-.03-1.59-1.27-3.72-2.15-6.55-2.15-10.3,0-11.41,10.23-11.41,11.33s-.74,11.11-11.11,11.11c-10.37,0-11.4-9.64-11.4-10.74,0-3.4-3.14-11.7-11.18-11.7-10.3,0-11.41,10.23-11.41,11.33s-.74,11.11-11.11,11.11c-10.38,0-11.41-9.64-11.41-10.74,0-.56-.07-1.22-.19-1.93-.68-3-3.07-9.78-10.93-9.78-10.3,0-11.41,10.23-11.41,11.33s-.74,11.11-11.11,11.11c-10.38,0-11.4-9.64-11.4-10.74,0-3.4-3.14-11.7-11.18-11.7-10.3,0-11.41,10.23-11.41,11.33s-.74,11.11-11.11,11.11-11.41-9.64-11.41-10.74c0-1.87-.66-4.8-2.36-7.27-.02-.02-.03-.05-.05-.07-.18-.26-.38-.51-.59-.76-.08-.09-.15-.17-.23-.26-.13-.15-.27-.29-.41-.43-.25-.25-.52-.49-.8-.72-.01,0-.02-.02-.03-.03-1.59-1.27-3.71-2.15-6.55-2.15-10.3,0-11.4,10.23-11.4,11.33s-.74,11.11-11.11,11.11c-10.38,0-11.41-9.64-11.41-10.74,0-3.4-3.14-11.7-11.18-11.7-10.3,0-11.41,10.23-11.41,11.33s-.74,11.11-11.11,11.11c-10.38,0-11.41-9.64-11.41-10.74,0-3.75-2.65-11.77-11.04-11.77v-11.11s11.18.51,11.18,11.55"/>
                  </g>
                </g>
              </g>
              <g>
                <g>
                  <path class="cls-9" d="m181.05,217.23v33.19h20.77c0-9.32,7.59-16.91,16.91-16.91s16.91,7.59,16.91,16.91h25.36c0-9.32,7.59-16.91,16.91-16.91s16.91,7.59,16.91,16.91h25.36c0-9.32,7.59-16.91,16.91-16.91s16.91,7.59,16.91,16.91h22.32v-33.19h-195.27Z"/>
                  <g class="cls-3">
                    <g>
                      <polygon class="cls-10" points="507.2 256.36 474.59 245.73 441.98 256.36 409.37 245.73 376.74 256.36 376.74 256.32 344.12 245.69 311.51 256.31 278.9 245.69 246.29 256.31 213.68 245.69 181.05 256.32 181.05 262.3 213.68 251.67 246.27 262.29 246.27 262.3 246.29 262.29 246.31 262.3 246.31 262.29 278.9 251.67 311.49 262.29 311.49 262.3 311.51 262.29 311.52 262.3 311.52 262.29 344.12 251.67 376.74 262.3 376.74 262.34 409.37 251.71 441.96 262.33 441.96 262.34 441.98 262.34 442 262.34 442 262.33 474.59 251.71 507.18 262.33 507.18 262.34 507.2 262.34 507.21 262.34 507.21 262.33 539.8 251.71 572.43 262.34 572.43 256.36 539.8 245.73 507.2 256.36"/>
                      <polygon class="cls-10" points="507.2 245.05 474.59 234.42 441.98 245.05 409.37 234.42 376.74 245.05 376.74 245.01 344.12 234.38 311.51 245 278.9 234.38 246.29 245 213.68 234.38 181.05 245.01 181.05 250.99 213.68 240.36 246.27 250.98 246.27 250.99 246.29 250.98 246.31 250.99 246.31 250.98 278.9 240.36 311.49 250.98 311.49 250.99 311.51 250.98 311.52 250.99 311.52 250.98 344.12 240.36 376.74 250.99 376.74 251.03 409.37 240.4 441.96 251.02 441.96 251.03 441.98 251.03 442 251.03 442 251.02 474.59 240.4 507.18 251.02 507.18 251.03 507.2 251.03 507.21 251.03 507.21 251.02 539.8 240.4 572.43 251.03 572.43 245.05 539.8 234.42 507.2 245.05"/>
                      <polygon class="cls-10" points="507.2 233.74 474.59 223.11 441.98 233.74 409.37 223.11 376.74 233.74 376.74 233.7 344.12 223.06 311.51 233.69 278.9 223.06 246.29 233.69 213.68 223.06 181.05 233.7 181.05 239.68 213.68 229.04 246.27 239.66 246.27 239.68 246.29 239.67 246.31 239.68 246.31 239.66 278.9 229.04 311.49 239.66 311.49 239.68 311.51 239.67 311.52 239.68 311.52 239.66 344.12 229.04 376.74 239.68 376.74 239.72 409.37 229.09 441.96 239.71 441.96 239.72 441.98 239.72 442 239.72 442 239.71 474.59 229.09 507.18 239.71 507.18 239.72 507.2 239.72 507.21 239.72 507.21 239.71 539.8 229.09 572.43 239.72 572.43 233.74 539.8 223.11 507.2 233.74"/>
                      <polygon class="cls-10" points="507.2 222.42 474.59 211.8 441.98 222.42 409.37 211.8 376.74 222.43 376.74 222.38 344.12 211.75 311.51 222.38 278.9 211.75 246.29 222.38 213.68 211.75 181.05 222.38 181.05 228.36 213.68 217.73 246.27 228.35 246.27 228.36 246.29 228.36 246.31 228.36 246.31 228.35 278.9 217.73 311.49 228.35 311.49 228.36 311.51 228.36 311.52 228.36 311.52 228.35 344.12 217.73 376.74 228.36 376.74 228.41 409.37 217.78 441.96 228.4 441.96 228.41 441.98 228.4 442 228.41 442 228.4 474.59 217.78 507.18 228.4 507.18 228.41 507.2 228.4 507.21 228.41 507.21 228.4 539.8 217.78 572.43 228.41 572.43 222.43 539.8 211.8 507.2 222.42"/>
                      <polygon class="cls-10" points="507.2 211.11 474.59 200.49 441.98 211.11 409.37 200.49 376.74 211.12 376.74 211.07 344.12 200.44 311.51 211.07 278.9 200.44 246.29 211.07 213.68 200.44 181.05 211.07 181.05 217.05 213.68 206.42 246.27 217.04 246.27 217.05 246.29 217.05 246.31 217.05 246.31 217.04 278.9 206.42 311.49 217.04 311.49 217.05 311.51 217.05 311.52 217.05 311.52 217.04 344.12 206.42 376.74 217.05 376.74 217.1 409.37 206.47 441.96 217.09 441.96 217.1 441.98 217.09 442 217.1 442 217.09 474.59 206.47 507.18 217.09 507.18 217.1 507.2 217.09 507.21 217.1 507.21 217.09 539.8 206.47 572.43 217.1 572.43 211.12 539.8 200.49 507.2 211.11"/>
                      <polygon class="cls-10" points="507.2 199.8 474.59 189.17 441.98 199.8 409.37 189.17 376.74 199.81 376.74 199.76 344.12 189.13 311.51 199.75 278.9 189.13 246.29 199.75 213.68 189.13 181.05 199.76 181.05 205.74 213.68 195.11 246.27 205.73 246.27 205.74 246.29 205.73 246.31 205.74 246.31 205.73 278.9 195.11 311.49 205.73 311.49 205.74 311.51 205.73 311.52 205.74 311.52 205.73 344.12 195.11 376.74 205.74 376.74 205.79 409.37 195.15 441.96 205.77 441.96 205.79 441.98 205.78 442 205.79 442 205.77 474.59 195.15 507.18 205.77 507.18 205.79 507.2 205.78 507.21 205.79 507.21 205.77 539.8 195.15 572.43 205.79 572.43 199.81 539.8 189.17 507.2 199.8"/>
                      <polygon class="cls-10" points="539.8 177.86 507.2 188.49 474.59 177.86 441.98 188.49 409.37 177.86 376.74 188.49 376.74 188.45 344.12 177.82 311.51 188.44 278.9 177.82 246.29 188.44 213.68 177.82 181.05 188.45 181.05 194.43 213.68 183.8 246.27 194.42 246.27 194.43 246.29 194.42 246.31 194.43 246.31 194.42 278.9 183.8 311.49 194.42 311.49 194.43 311.51 194.42 311.52 194.43 311.52 194.42 344.12 183.8 376.74 194.43 376.74 194.47 409.37 183.84 441.96 194.46 441.96 194.47 441.98 194.47 442 194.47 442 194.46 474.59 183.84 507.18 194.46 507.18 194.47 507.2 194.47 507.21 194.47 507.21 194.46 539.8 183.84 572.43 194.47 572.43 188.49 539.8 177.86"/>
                    </g>
                  </g>
                </g>
                <rect class="cls-10" x="181.05" y="210.3" width="195.27" height="6.93"/>
                <g>
                  <path class="cls-10" d="m218.73,225.06c-14.01,0-25.36,11.36-25.36,25.36s11.36,25.36,25.36,25.36,25.36-11.36,25.36-25.36-11.36-25.36-25.36-25.36Zm0,42.27c-9.32,0-16.91-7.59-16.91-16.91s7.59-16.91,16.91-16.91,16.91,7.59,16.91,16.91-7.59,16.91-16.91,16.91Z"/>
                  <path class="cls-10" d="m277.91,225.06c-14.01,0-25.36,11.36-25.36,25.36s11.36,25.36,25.36,25.36,25.36-11.36,25.36-25.36-11.36-25.36-25.36-25.36Zm0,42.27c-9.32,0-16.91-7.59-16.91-16.91s7.59-16.91,16.91-16.91,16.91,7.59,16.91,16.91-7.59,16.91-16.91,16.91Z"/>
                  <path class="cls-10" d="m337.1,225.06c-14.01,0-25.36,11.36-25.36,25.36s11.36,25.36,25.36,25.36,25.36-11.36,25.36-25.36-11.36-25.36-25.36-25.36Zm0,42.27c-9.32,0-16.91-7.59-16.91-16.91s7.59-16.91,16.91-16.91,16.91,7.59,16.91,16.91-7.59,16.91-16.91,16.91Z"/>
                </g>
                <circle class="cls-8" cx="248.32" cy="225.59" r="4.23"/>
                <circle class="cls-8" cx="189.14" cy="225.59" r="4.23"/>
                <circle class="cls-8" cx="307.51" cy="225.59" r="4.23"/>
                <circle class="cls-8" cx="366.69" cy="225.59" r="4.23"/>
              </g>
            </g>
          </g>
          <g>
            <g>
              <path class="cls-7" d="m162.76,109.28l-.44,1.95h-5.98v2.8h4.33l-.35,1.95h-3.98v3.92h-2.43v-10.61h8.86Z"/>
              <path class="cls-7" d="m164.07,109.28h4.82c2.17,0,4.41,1.21,4.41,3.61,0,1.55-.91,2.59-2.14,3.17l3.27,3.83h-3.15l-2.64-3.3h-2.14v3.3h-2.43v-10.61Zm4.32,5.4c1.25,0,2.4-.58,2.4-1.71,0-1.22-1.06-1.77-2.33-1.77h-1.96v3.48h1.89Z"/>
              <path class="cls-7" d="m174.59,119.89c1-3.18,3.04-6.66,5.1-8.76h-3.04l.65-1.86h7.59v10.61h-2.43v-2.05h-4.75c-.32.72-.59,1.42-.78,2.05h-2.34Zm4.05-3.91h3.82v-4.91h-.1c-1.34,1.21-2.68,3.04-3.71,4.91Z"/>
              <path class="cls-7" d="m187.43,109.28h2.05l6.15,6.96v-6.96h2.29v10.61h-2.08l-6.12-6.87v6.87h-2.29v-10.61Z"/>
              <path class="cls-7" d="m199.82,114.92c0-3.61,2.93-5.79,6.06-5.79,1.24,0,2.84.29,3.86.71l-.62,1.95c-.74-.32-1.81-.66-3.12-.66-2.02,0-3.67,1.56-3.67,3.55s1.81,3.38,3.76,3.38c1.33,0,2.27-.29,3.36-.78l-.24,2.12c-.71.34-2.05.65-3.23.65-3.12,0-6.16-2.02-6.16-5.11Z"/>
              <path class="cls-7" d="m210.52,114.86c0-3.36,2.74-5.73,6.15-5.73,1.52,0,2.9.31,3.92.72l-.63,1.89c-.71-.35-1.8-.66-3.15-.66-1.9,0-3.32,1.03-3.76,2.68h5.42l-.25,1.84h-5.2c.32,1.56,1.87,2.49,4.1,2.49,1.16,0,2.54-.32,3.32-.62l-.24,2.05c-.74.27-2.03.52-3.18.52-3.51,0-6.49-1.86-6.49-5.17Z"/>
            </g>
            <g>
              <path class="cls-7" d="m56.1,129.89h15.42c5.79,0,10.54,3.27,10.54,7.69,0,2.52-2.56,4.75-4.67,5.71,3.27,1.08,6.53,3.18,6.53,7.44,0,5.83-5.91,8.93-12.28,8.93h-15.55v-29.77Zm13.93,11.83c2.98,0,5.25-1.08,5.25-3.43,0-1.49-2.07-3.02-4.75-3.02h-7.61v6.45h7.11Zm.87,12.57c3.31,0,6.2-1.41,6.2-3.97s-2.77-3.43-6.16-3.43h-8.02v7.4h7.98Z"/>
              <path class="cls-7" d="m87.31,145.03c0-8.89,7.69-15.55,17-15.55s17.08,6.53,17.08,15.42-7.77,15.18-17,15.18-17.08-6.2-17.08-15.05Zm27.04-.12c0-5.91-4.51-9.97-10.09-9.97s-9.92,4.67-9.92,10.09c0,5.91,4.47,9.59,10.05,9.59s9.97-3.97,9.97-9.72Z"/>
              <path class="cls-7" d="m126.72,129.89h13.52c6.08,0,12.36,3.39,12.36,10.13,0,4.34-2.56,7.28-6,8.89l9.18,10.75h-8.85l-7.4-9.26h-6v9.26h-6.82v-29.77Zm12.12,15.13c3.51,0,6.74-1.61,6.74-4.8,0-3.43-2.98-4.96-6.53-4.96h-5.5v9.76h5.29Z"/>
              <path class="cls-7" d="m159.63,129.89h11.66c9.14,0,17.99,4.88,17.99,14.39s-8.44,15.38-17.99,15.38h-11.66v-29.77Zm11.25,24.31c6.62,0,11.37-3.89,11.37-9.92s-5.17-8.93-11.37-8.93h-4.42v18.86h4.42Z"/>
              <path class="cls-7" d="m192.87,145.57c0-9.43,7.69-16.09,17.24-16.09,4.26,0,8.15.87,11,2.03l-1.78,5.29c-1.99-.99-5.04-1.86-8.85-1.86-5.33,0-9.3,2.89-10.54,7.53h15.22l-.7,5.17h-14.6c.91,4.38,5.25,6.99,11.5,6.99,3.27,0,7.11-.91,9.3-1.74l-.66,5.75c-2.07.74-5.71,1.45-8.93,1.45-9.84,0-18.19-5.21-18.19-14.51Z"/>
              <path class="cls-7" d="m222.73,159.66c2.81-8.93,8.52-18.69,14.31-24.56h-8.52l1.82-5.21h21.3v29.77h-6.82v-5.75h-13.32c-.91,2.03-1.65,3.97-2.19,5.75h-6.58Zm11.37-10.96h10.71v-13.77h-.29c-3.76,3.39-7.53,8.52-10.42,13.77Z"/>
              <path class="cls-7" d="m258.33,146.76v-16.87h6.82v16.46c0,4.96,2.69,7.94,7.4,7.94s7.24-2.98,7.24-7.94v-16.46h6.41v16.87c0,8.35-5.79,13.32-13.89,13.32s-13.98-4.96-13.98-13.32Z"/>
              <path class="cls-7" d="m296.74,159.66h-7.61l12.61-14.89-12.12-14.89h8.77l7.77,10.17,7.98-10.17h7.65l-11.95,14.35,12.61,15.42h-8.72l-8.35-10.79-8.64,10.79Z"/>
            </g>
          </g>
        </g>
      </g>
    </g>
  </g>
</svg>