<?xml version="1.0" encoding="UTF-8"?>
<svg xmlns="http://www.w3.org/2000/svg" xmlns:xlink="http://www.w3.org/1999/xlink" viewBox="0 0 375 250">
  <defs>
    <style>
      .cls-1 {
        clip-path: url(#clippath-4);
      }

      .cls-1, .cls-2, .cls-3, .cls-4, .cls-5, .cls-6, .cls-7, .cls-8, .cls-9, .cls-10, .cls-11 {
        fill: none;
      }

      .cls-2 {
        clip-path: url(#clippath-2);
      }

      .cls-12 {
        fill: #fff;
      }

      .cls-3 {
        clip-path: url(#clippath-6);
      }

      .cls-13 {
        fill: #d65627;
      }

      .cls-4 {
        clip-path: url(#clippath-13);
      }

      .cls-14 {
        fill: #fcee10;
      }

      .cls-15 {
        fill: #f07530;
      }

      .cls-16 {
        fill: #fdb515;
      }

      .cls-5 {
        clip-path: url(#clippath-7);
      }

      .cls-6 {
        clip-path: url(#clippath-5);
      }

      .cls-17 {
        fill: #a6d5eb;
      }

      .cls-7 {
        isolation: isolate;
      }

      .cls-8 {
        clip-path: url(#clippath-3);
      }

      .cls-18 {
        fill: #6db6e2;
      }

      .cls-10 {
        clip-path: url(#clippath);
      }

      .cls-11 {
        clip-path: url(#clippath-1);
      }

      .cls-19 {
        mix-blend-mode: multiply;
      }

      .cls-19, .cls-20 {
        fill: #00ace5;
      }
    </style>
    <clipPath id="clippath">
      <rect class="cls-9" width="375" height="250"/>
    </clipPath>
    <clipPath id="clippath-1">
      <rect class="cls-9" y="-2.01" width="375" height="251.88"/>
    </clipPath>
    <clipPath id="clippath-2">
      <rect class="cls-9" x="0" y="22.22" width="211.5" height="225.03"/>
    </clipPath>
    <clipPath id="clippath-3">
      <polygon class="cls-9" points="204.38 202.16 204.38 205.7 188.5 205.7 188.5 219.37 175 219.37 175 217.2 172.9 217.2 172.9 215.34 165.42 215.34 165.42 210.8 161.06 210.8 161.06 212.47 156.63 212.47 156.63 214.17 142.17 214.17 142.17 206.9 128.86 206.9 128.86 209.2 116.98 209.2 116.98 205.74 109.15 205.74 109.15 205.53 107.07 205.52 107.07 196.52 94.78 196.52 94.78 205.52 60.57 205.51 60.68 213.49 23.34 213.49 23.23 205.5 10.96 205.49 10.96 196.25 -6.78 196.25 -6.78 205.7 -15.46 205.7 -15.46 219.37 -28.97 219.37 -28.97 217.2 -30.42 217.2 -30.42 266.05 305.92 266.05 305.92 205.53 247.99 205.51 248.11 214.8 226.58 214.8 226.48 205.5 214.92 205.49 214.92 202.16 204.38 202.16"/>
    </clipPath>
    <clipPath id="clippath-4">
      <polygon class="cls-9" points="-4.36 267.73 306.62 260.45 306.62 69.05 .36 69.05 -4.36 267.73"/>
    </clipPath>
    <clipPath id="clippath-5">
      <path class="cls-9" d="m319.99,170.94l-83.52.36c-41.12-.43-63.67,64.45-65.05,78.35h176.28l62.6.71V107.57l-7.18-.62c-4.28,74.99-80.57,63.76-80.57,63.76m80.57-63.76c.1-2.11.15-4.28.15-6.52l-.15,6.52Z"/>
    </clipPath>
    <clipPath id="clippath-6">
      <rect class="cls-9" x="-457.11" y="100.23" width="1385.96" height="1385.96"/>
    </clipPath>
    <clipPath id="clippath-7">
      <rect class="cls-9" y="198.48" width="231.43" height="52.13"/>
    </clipPath>
    <clipPath id="clippath-13">
      <path class="cls-15" d="m398,239.67v-2.68h3.79v-27.5c0-3.64-2.95-6.59-6.59-6.59h-143.92c-3.64,0-6.59,2.95-6.59,6.59v27.5h3.79v2.68h-8.12v2.09h25.23l4.77-4.77h30.17l4.45,4.77h18.26v-3.5h-7.07v-1.26h.2v-28.06h13.73v28.06h.2v1.26h-7.06v3.5h18.25l4.45-4.77h30.17l4.77,4.77h25.23v-2.09h-8.12Zm-132.76-4.79v3.37h-13.69v-29.32h13.69v25.95Zm129.69,0v3.37h-13.69v-29.32h13.69v25.95Z"/>
    </clipPath>
  </defs>
  <g class="cls-7">
    <g id="OUTLINED">
      <g id="Headers_OUTLINED" data-name="Headers OUTLINED">
        <g class="cls-10">
          <rect class="cls-20" width="375" height="251.86"/>
          <path class="cls-19" d="m187.09,29.18c-8.49,0-17.02.24-25.57.7C98.99,33.23,17.33,61.19.13,67.3v151.14h375V80.95c-59.95-37.67-122.95-51.77-188.05-51.76"/>
          <g class="cls-11">
            <g class="cls-2">
              <g>
                <polygon class="cls-18" points="149.97 181.5 148.05 181.5 148.05 174.61 147.45 174.61 147.45 181.5 145.54 181.5 144.51 182.98 150.99 182.98 149.97 181.5"/>
                <path class="cls-18" d="m207.84,223.33h-3.01v-38.99h-1.63v-5.76l-12.66-8.68h0s-12.85,8.68-12.85,8.68v5.76h-1.63v27.9l-2.8,1.9v-14.42h-14.12v13.64h-.34l-3.39-8.14h.79v-.71h-.85v-9.06h-.54v-4.22h.39v-1.58h-2.59v-6.66h-9.71v6.66h-2.59v1.58h.38v36.99h-.3v-12.25h-.99v-9.81h-7.59v-15.6h-1.03v-12.62h-.94v-9.31h-10.19v9.31h-.94v12.62h-1.03v27.11l-.7-.96-5.18,6.94v3.57h-.71v.81l-2.29,2.04v-60.34h-4.88l-9.25,13.1v33.14h-1.18v13.29h-1.08v3.31l-5.44.83v-7.31h-1.18v-35.53h-14.12v35.53h-2.99l-3-.81v-34.72h-1.03v-12.62h-1.15l-1.84-5.52h-.46l-1.03-3.08h-1.3v-1.78c.44-.11.77-.47.77-.91s-.33-.81-.77-.91v-2.87h-.51v2.87c-.44.11-.77.47-.77.91s.33.81.77.91v1.78h-1.3l-1.03,3.08h-.46l-1.84,5.52h-1.15v12.62h-1.03v34.29l-3.57-.1-2.82,4h-.42v-28.53h.39v-1.26h-.39v-.61h.39v-1.26h-.39v-.62h.39v-1.26h-.39v-.62h.39v-1.26h-.39v-.62h.39v-1.26h-.39v-.62h.39v-1.26h-14.89v1.26h.38v.62h-.38v1.26h.38v.62h-.38v1.26h.38v.62h-.38v1.26h.38v.62h-.38v1.26h.38v.61h-.38v1.26h.38v17.72l-2.25,3.18v7.47l-2.16-.02v-.26h-2.73v-7.02h-1.75v-.03h.05l-.05-.07v-1.24h-.54v-16.65h-1.01v-14.67h-.59v-3.39l-4.84-6.59-4.92,6.59v3.39h-.67v14.67h-1.01v16.65h-.54v9.32H-6.64v35.26l-3.76,8.73h-.3v.69l-3.2,7.42-7.4,5.38-10.02,5.28-3.94,27.64-3.91,2.14-3.03,11.52H246.33s0,0,0,0h11.79s44.37-.01,44.37-.01l.06-.04,305.89-.3-.76-10.12-4.69-2.66-.33-18.11-13.38-14.43-12.31-56.88-3.8.35v-33.97h-1.73v-9.6h-36.96v9.6h-1.73v33.94h-.01v-7.1h-4v-33.41h-14.12v33.41h-3.69l-1.31-45.29h-1.67v-3.23h-.64l-3.22-7.72h.75v-.67h-.8v-8.6h-.73v8.6h-.8v.67h.7l-3.22,7.72h-.64v3.23h-1.68l-1.31,45.29h-2.99v-39.64h-1.63v-5.76l-12.66-8.68h0s-12.85,8.68-12.85,8.68v5.76h-1.63v28.56l-2.8,1.9v-15.07h-14.12v14.3h-.34l-3.39-8.14h.79v-.71h-.85v-9.06h-.54v-4.88h.39v-1.58h-2.59v-6.66h-9.71v6.66h-2.59v1.58h.38v36.99h-.3v-11.59h-.99v-9.81h-7.59v-16.26h-1.03v-12.62h-.94v-9.31h-10.19v9.31h-.94v12.62h-1.03v27.77l-.7-.96-5.18,6.94v3.11h-.02s-.52.46-.52.46h-.17v.15l-2.29,2.04v-60.34h-4.88l-9.24,13.1v33.8h-1.18v13.29h-1.08v2.65l-5.44.83v-6.65h-1.18v-36.19h-14.12v36.19h-.55l-5.43-1.47v-34.72h-1.03v-12.62h-1.15l-1.84-5.52h-.46l-1.03-3.07h-1.3v-1.78c.44-.11.77-.47.77-.92s-.33-.81-.77-.91v-2.87h-.51v2.87c-.44.11-.77.47-.77.91s.33.81.77.92v1.78h-1.3l-1.03,3.07h-.46l-1.84,5.52h-1.15v12.62h-1.03v34.29l-3.57-.1-2.82,4h-.42v-28.54h.38v-1.26h-.38v-.61h.38v-1.26h-.38v-.61h.38v-1.26h-.38v-.62h.38v-1.26h-.38v-.62h.38v-1.26h-.38v-.62h.38v-1.26h-14.89v1.26h.38v.62h-.38v1.26h.38v.62h-.38v1.26h.38v.62h-.38v1.26h.38v.61h-.38v1.26h.38v.61h-.38v1.26h.38v18.38l-2.25,3.18v6.81l-4.88-.05v-6.6h-1.75v-.03h.05l-.05-.07v-1.9h-.54v-16.65h-1.01v-14.67h-.59v-3.39l-4.84-6.59-4.92,6.59v3.39h-.67v14.67h-1.01v16.65h-.54v9.53l-1.21.45h-10.32v-32.78h-1.73v-9.6h-36.96v9.6h-1.73v33.94h-.01v-7.76h-4v-32.75h-14.12v32.75h-3.71m281.65-54.5l2.77,6.64h-2.77v-6.64Zm-.73-.11v6.74h-2.81l2.81-6.74Zm-59.41,38.3l2.91,7h-2.91v-7Zm-288.53-.66l2.91,7h-2.91v-7Z"/>
              </g>
              <g class="cls-8">
                <g class="cls-1">
                  <rect class="cls-20" x="-5.75" y="69.05" width="317.99" height="191.4"/>
                  <g>
                    <polygon class="cls-18" points="264.96 257.26 237.55 248.33 210.14 257.26 182.73 248.33 155.31 257.27 155.31 257.23 127.89 248.29 100.48 257.23 73.07 248.29 45.66 257.23 18.25 248.29 -9.17 257.23 -9.17 262.26 18.25 253.32 45.64 262.25 45.64 262.26 45.66 262.25 45.67 262.26 45.67 262.25 73.07 253.32 100.46 262.25 100.46 262.26 100.48 262.25 100.49 262.26 100.49 262.25 127.89 253.32 155.31 262.26 155.31 262.29 182.73 253.36 210.13 262.29 210.13 262.29 210.14 262.29 210.16 262.29 210.16 262.29 237.55 253.36 264.95 262.29 264.95 262.29 264.96 262.29 264.98 262.29 264.98 262.29 292.37 253.36 319.79 262.29 319.79 257.27 292.37 248.33 264.96 257.26"/>
                    <polygon class="cls-18" points="264.96 247.76 237.55 238.82 210.14 247.76 182.73 238.82 155.31 247.76 155.31 247.72 127.89 238.79 100.48 247.72 73.07 238.79 45.66 247.72 18.25 238.79 -9.17 247.72 -9.17 252.75 18.25 243.81 45.64 252.74 45.64 252.75 45.66 252.74 45.67 252.75 45.67 252.74 73.07 243.81 100.46 252.74 100.46 252.75 100.48 252.74 100.49 252.75 100.49 252.74 127.89 243.81 155.31 252.75 155.31 252.79 182.73 243.85 210.13 252.78 210.13 252.79 210.14 252.78 210.16 252.79 210.16 252.78 237.55 243.85 264.95 252.78 264.95 252.79 264.96 252.78 264.98 252.79 264.98 252.78 292.37 243.85 319.79 252.79 319.79 247.76 292.37 238.82 264.96 247.76"/>
                    <polygon class="cls-18" points="264.96 238.25 237.55 229.32 210.14 238.25 182.73 229.32 155.31 238.25 155.31 238.21 127.89 229.28 100.48 238.21 73.07 229.28 45.66 238.21 18.25 229.28 -9.17 238.21 -9.17 243.24 18.25 234.3 45.64 243.23 45.64 243.24 45.66 243.24 45.67 243.24 45.67 243.23 73.07 234.3 100.46 243.23 100.46 243.24 100.48 243.24 100.49 243.24 100.49 243.23 127.89 234.3 155.31 243.24 155.31 243.28 182.73 234.34 210.13 243.27 210.13 243.28 210.14 243.27 210.16 243.28 210.16 243.27 237.55 234.34 264.95 243.27 264.95 243.28 264.96 243.27 264.98 243.28 264.98 243.27 292.37 234.34 319.79 243.28 319.79 238.25 292.37 229.32 264.96 238.25"/>
                    <polygon class="cls-18" points="264.96 228.74 237.55 219.81 210.14 228.74 182.73 219.81 155.31 228.74 155.31 228.71 127.89 219.77 100.48 228.7 73.07 219.77 45.66 228.7 18.25 219.77 -9.17 228.71 -9.17 233.73 18.25 224.8 45.64 233.72 45.64 233.73 45.66 233.73 45.67 233.73 45.67 233.72 73.07 224.8 100.46 233.72 100.46 233.73 100.48 233.73 100.49 233.73 100.49 233.72 127.89 224.8 155.31 233.73 155.31 233.77 182.73 224.83 210.13 233.76 210.13 233.77 210.14 233.77 210.16 233.77 210.16 233.76 237.55 224.83 264.95 233.76 264.95 233.77 264.96 233.77 264.98 233.77 264.98 233.76 292.37 224.83 319.79 233.77 319.79 228.74 292.37 219.81 264.96 228.74"/>
                    <polygon class="cls-18" points="264.96 219.77 237.55 210.84 210.14 219.77 182.73 210.84 155.31 219.78 155.31 219.74 127.89 210.8 100.48 219.73 73.07 210.8 45.66 219.73 18.25 210.8 -9.17 219.74 -9.17 224.76 18.25 215.83 45.64 224.76 45.64 224.76 45.66 224.76 45.67 224.76 45.67 224.76 73.07 215.83 100.46 224.76 100.46 224.76 100.48 224.76 100.49 224.76 100.49 224.76 127.89 215.83 155.31 224.76 155.31 224.8 182.73 215.87 210.13 224.79 210.13 224.8 210.14 224.8 210.16 224.8 210.16 224.79 237.55 215.87 264.95 224.79 264.95 224.8 264.96 224.8 264.98 224.8 264.98 224.79 292.37 215.87 319.79 224.8 319.79 219.78 292.37 210.84 264.96 219.77"/>
                    <polygon class="cls-18" points="264.96 210.26 237.55 201.33 210.14 210.26 182.73 201.33 155.31 210.27 155.31 210.23 127.89 201.29 100.48 210.23 73.07 201.29 45.66 210.23 18.25 201.29 -9.17 210.23 -9.17 215.26 18.25 206.32 45.64 215.25 45.64 215.26 45.66 215.25 45.67 215.26 45.67 215.25 73.07 206.32 100.46 215.25 100.46 215.26 100.48 215.25 100.49 215.26 100.49 215.25 127.89 206.32 155.31 215.26 155.31 215.29 182.73 206.36 210.13 215.29 210.13 215.29 210.14 215.29 210.16 215.29 210.16 215.29 237.55 206.36 264.95 215.29 264.95 215.29 264.96 215.29 264.98 215.29 264.98 215.29 292.37 206.36 319.79 215.29 319.79 210.27 292.37 201.33 264.96 210.26"/>
                    <polygon class="cls-18" points="264.96 200.76 237.55 191.82 210.14 200.76 182.73 191.82 155.31 200.76 155.31 200.72 127.89 191.79 100.48 200.72 73.07 191.79 45.66 200.72 18.25 191.79 -9.17 200.72 -9.17 205.75 18.25 196.81 45.64 205.74 45.64 205.75 45.66 205.74 45.67 205.75 45.67 205.74 73.07 196.81 100.46 205.74 100.46 205.75 100.48 205.74 100.49 205.75 100.49 205.74 127.89 196.81 155.31 205.75 155.31 205.79 182.73 196.85 210.13 205.78 210.13 205.79 210.14 205.78 210.16 205.79 210.16 205.78 237.55 196.85 264.95 205.78 264.95 205.79 264.96 205.78 264.98 205.79 264.98 205.78 292.37 196.85 319.79 205.79 319.79 200.76 292.37 191.82 264.96 200.76"/>
                    <polygon class="cls-18" points="264.96 191.25 237.55 182.32 210.14 191.25 182.73 182.32 155.31 191.25 155.31 191.21 127.89 182.28 100.48 191.21 73.07 182.28 45.66 191.21 18.25 182.28 -9.17 191.21 -9.17 196.24 18.25 187.3 45.64 196.23 45.64 196.24 45.66 196.24 45.67 196.24 45.67 196.23 73.07 187.3 100.46 196.23 100.46 196.24 100.48 196.24 100.49 196.24 100.49 196.23 127.89 187.3 155.31 196.24 155.31 196.28 182.73 187.34 210.13 196.27 210.13 196.28 210.14 196.27 210.16 196.28 210.16 196.27 237.55 187.34 264.95 196.27 264.95 196.28 264.96 196.27 264.98 196.28 264.98 196.27 292.37 187.34 319.79 196.28 319.79 191.25 292.37 182.32 264.96 191.25"/>
                    <polygon class="cls-18" points="264.96 181.74 237.55 172.81 210.14 181.74 182.73 172.81 155.31 181.74 155.31 181.71 127.89 172.77 100.48 181.7 73.07 172.77 45.66 181.7 18.25 172.77 -9.17 181.71 -9.17 186.73 18.25 177.8 45.64 186.72 45.64 186.73 45.66 186.73 45.67 186.73 45.67 186.72 73.07 177.8 100.46 186.72 100.46 186.73 100.48 186.73 100.49 186.73 100.49 186.72 127.89 177.8 155.31 186.73 155.31 186.77 182.73 177.83 210.13 186.76 210.13 186.77 210.14 186.77 210.16 186.77 210.16 186.76 237.55 177.83 264.95 186.76 264.95 186.77 264.96 186.77 264.98 186.77 264.98 186.76 292.37 177.83 319.79 186.77 319.79 181.74 292.37 172.81 264.96 181.74"/>
                    <polygon class="cls-18" points="264.96 172.23 237.55 163.3 210.14 172.23 182.73 163.3 155.31 172.24 155.31 172.2 127.89 163.26 100.48 172.19 73.07 163.26 45.66 172.19 18.25 163.26 -9.17 172.2 -9.17 177.22 18.25 168.29 45.64 177.21 45.64 177.22 45.66 177.22 45.67 177.22 45.67 177.21 73.07 168.29 100.46 177.21 100.46 177.22 100.48 177.22 100.49 177.22 100.49 177.21 127.89 168.29 155.31 177.22 155.31 177.26 182.73 168.33 210.13 177.25 210.13 177.26 210.14 177.26 210.16 177.26 210.16 177.25 237.55 168.33 264.95 177.25 264.95 177.26 264.96 177.26 264.98 177.26 264.98 177.25 292.37 168.33 319.79 177.26 319.79 172.24 292.37 163.3 264.96 172.23"/>
                    <polygon class="cls-18" points="264.96 162.72 237.55 153.79 210.14 162.72 182.73 153.79 155.31 162.73 155.31 162.69 127.89 153.75 100.48 162.68 73.07 153.75 45.66 162.68 18.25 153.75 -9.17 162.69 -9.17 167.72 18.25 158.78 45.64 167.71 45.64 167.72 45.66 167.71 45.67 167.72 45.67 167.71 73.07 158.78 100.46 167.71 100.46 167.72 100.48 167.71 100.49 167.72 100.49 167.71 127.89 158.78 155.31 167.72 155.31 167.75 182.73 158.82 210.13 167.74 210.13 167.75 210.14 167.75 210.16 167.75 210.16 167.74 237.55 158.82 264.95 167.74 264.95 167.75 264.96 167.75 264.98 167.75 264.98 167.74 292.37 158.82 319.79 167.75 319.79 162.73 292.37 153.79 264.96 162.72"/>
                    <polygon class="cls-18" points="264.96 153.21 237.55 144.28 210.14 153.21 182.73 144.28 155.31 153.22 155.31 153.18 127.89 144.25 100.48 153.18 73.07 144.25 45.66 153.18 18.25 144.25 -9.17 153.18 -9.17 158.21 18.25 149.27 45.64 158.2 45.64 158.21 45.66 158.2 45.67 158.21 45.67 158.2 73.07 149.27 100.46 158.2 100.46 158.21 100.48 158.2 100.49 158.21 100.49 158.2 127.89 149.27 155.31 158.21 155.31 158.25 182.73 149.31 210.13 158.24 210.13 158.25 210.14 158.24 210.16 158.25 210.16 158.24 237.55 149.31 264.95 158.24 264.95 158.25 264.96 158.24 264.98 158.25 264.98 158.24 292.37 149.31 319.79 158.25 319.79 153.22 292.37 144.28 264.96 153.21"/>
                    <polygon class="cls-18" points="292.37 134.78 264.96 143.71 237.55 134.78 210.14 143.71 182.73 134.78 155.31 143.71 155.31 143.67 127.89 134.74 100.48 143.67 73.07 134.74 45.66 143.67 18.25 134.74 -9.17 143.67 -9.17 148.7 18.25 139.76 45.64 148.69 45.64 148.7 45.66 148.69 45.67 148.7 45.67 148.69 73.07 139.76 100.46 148.69 100.46 148.7 100.48 148.69 100.49 148.7 100.49 148.69 127.89 139.76 155.31 148.7 155.31 148.74 182.73 139.8 210.13 148.73 210.13 148.74 210.14 148.73 210.16 148.74 210.16 148.73 237.55 139.8 264.95 148.73 264.95 148.74 264.96 148.73 264.98 148.74 264.98 148.73 292.37 139.8 319.79 148.74 319.79 143.71 292.37 134.78"/>
                  </g>
                </g>
              </g>
            </g>
            <g class="cls-6">
              <g>
                <rect class="cls-17" x="-43.17" y="99.5" width="453.47" height="156.22"/>
                <g class="cls-3">
                  <g>
                    <path class="cls-18" d="m396.65,76.02c0,11.95-10.96,13.47-13.56,13.47-2.88,0-13.74-2.16-13.74-13.38s-8.98-14.19-14.01-14.19c-5.37,0-13.74,4.47-13.74,14.1,0,11.95-10.96,13.47-13.56,13.47-2.87,0-13.74-2.16-13.74-13.38s-8.84-14.13-13.89-14.19h0s-.02,0-.05,0c-.02,0-.05,0-.07,0-2.37,0-5.46.88-8.11,2.87-2.29,1.6-4.36,4.09-5.11,7.96-.28,1.19-.43,2.49-.43,3.91v1.41c-1.16,10.08-10.99,11.44-13.44,11.44-2.88,0-13.74-2.16-13.74-13.38s-8.98-14.19-14.01-14.19c-5.37,0-13.74,4.47-13.74,14.1,0,11.95-10.96,13.47-13.56,13.47-2.88,0-13.74-2.16-13.74-13.38s-8.98-14.19-14.01-14.19c0,0-.01,0-.02,0h0s-.04,0-.04,0c-1.96.01-4.4.61-6.67,1.94-3.45,1.82-6.94,5.35-6.94,12.16,0,11.95-10.96,13.47-13.56,13.47-2.87,0-13.74-2.16-13.74-13.38s-8.98-14.19-14.01-14.19c-5.37,0-13.74,4.47-13.74,14.1,0,11.95-10.96,13.47-13.56,13.47-2.88,0-13.74-2.16-13.74-13.38s-8.84-14.13-13.89-14.19h0s-.02,0-.05,0c-.02,0-.05,0-.07,0-2.37,0-5.46.88-8.11,2.87-2.29,1.6-4.36,4.09-5.11,7.96-.27,1.19-.43,2.49-.43,3.91v1.41c-1.16,10.08-10.99,11.44-13.44,11.44-2.87,0-13.74-2.16-13.74-13.38s-8.98-14.19-14.01-14.19c-5.38,0-13.74,4.47-13.74,14.1,0,11.95-10.96,13.47-13.56,13.47-2.88,0-13.74-2.16-13.74-13.38s-8.98-14.19-14.01-14.19-13.65,4.04-13.65,14.73l.09,12.57s1.35-13.65,13.65-13.65,13.92,12.48,13.92,13.83.9,13.56,13.56,13.56,13.92-11.77,13.92-13.11c0-4.15,3.83-14.28,13.65-14.28,12.57,0,13.92,12.48,13.92,13.83s.9,13.56,13.56,13.56,13.92-11.77,13.92-13.11c0-2.28.8-5.86,2.88-8.87.02-.03.04-.06.06-.08.22-.32.46-.63.72-.93.09-.11.19-.21.28-.32.16-.18.33-.35.5-.53.31-.31.63-.6.98-.88.01-.01.02-.02.04-.03,1.94-1.55,4.54-2.63,7.99-2.63,12.58,0,13.92,12.48,13.92,13.83s.9,13.56,13.56,13.56,13.92-11.77,13.92-13.11c0-4.15,3.83-14.28,13.65-14.28,12.57,0,13.92,12.48,13.92,13.83s.9,13.56,13.56,13.56,13.92-11.77,13.92-13.11c0-.68.08-1.49.24-2.35.83-3.66,3.75-11.93,13.35-11.93,12.57,0,13.92,12.48,13.92,13.83s.9,13.56,13.56,13.56,13.92-11.77,13.92-13.11c0-4.15,3.83-14.28,13.65-14.28,12.58,0,13.92,12.48,13.92,13.83s.9,13.56,13.56,13.56,13.92-11.77,13.92-13.11c0-2.28.8-5.86,2.88-8.87.02-.03.04-.06.06-.08.22-.32.46-.63.72-.93.09-.11.19-.21.28-.32.16-.18.33-.35.5-.53.31-.31.63-.6.98-.88.01-.01.02-.02.04-.03,1.94-1.55,4.53-2.63,7.99-2.63,12.57,0,13.92,12.48,13.92,13.83s.9,13.56,13.56,13.56,13.92-11.77,13.92-13.11c0-4.15,3.83-14.28,13.65-14.28,12.57,0,13.92,12.48,13.92,13.83s.9,13.56,13.56,13.56,13.92-11.77,13.92-13.11c0-4.58,3.23-14.37,13.47-14.37v-13.56s-13.65.63-13.65,14.1"/>
                    <path class="cls-18" d="m396.65,159.27c0,11.95-10.96,13.47-13.56,13.47-2.88,0-13.74-2.16-13.74-13.38s-8.98-14.19-14.01-14.19c-5.37,0-13.74,4.47-13.74,14.1,0,11.95-10.96,13.47-13.56,13.47-2.87,0-13.74-2.16-13.74-13.38s-8.84-14.13-13.89-14.19h0s-.02,0-.05,0c-.02,0-.05,0-.07,0-2.37,0-5.46.88-8.11,2.87-2.29,1.6-4.36,4.09-5.11,7.96-.28,1.19-.43,2.48-.43,3.91h0s.01,1.41.01,1.41c-1.17,10.08-11,11.43-13.45,11.43-2.88,0-13.74-2.16-13.74-13.38s-8.98-14.19-14.01-14.19c-5.37,0-13.74,4.47-13.74,14.1,0,11.95-10.96,13.47-13.56,13.47-2.88,0-13.74-2.16-13.74-13.38s-8.98-14.19-14.01-14.19c0,0-.01,0-.02,0h0s-.04,0-.04,0c-1.96.01-4.4.61-6.67,1.94-3.45,1.82-6.94,5.35-6.94,12.16,0,11.95-10.96,13.47-13.56,13.47-2.87,0-13.74-2.16-13.74-13.38s-8.98-14.19-14.01-14.19c-5.37,0-13.74,4.47-13.74,14.1,0,11.95-10.96,13.47-13.56,13.47-2.88,0-13.74-2.16-13.74-13.38s-8.84-14.13-13.89-14.19h0s-.02,0-.05,0c-.02,0-.05,0-.07,0-2.37,0-5.46.88-8.11,2.87-2.29,1.6-4.36,4.09-5.11,7.96-.27,1.19-.43,2.48-.43,3.91h0s.01,1.41.01,1.41c-1.17,10.08-11,11.43-13.45,11.43-2.87,0-13.74-2.16-13.74-13.38s-8.98-14.19-14.01-14.19c-5.38,0-13.74,4.47-13.74,14.1,0,11.95-10.96,13.47-13.56,13.47-2.88,0-13.74-2.16-13.74-13.38s-8.98-14.19-14.01-14.19-13.65,4.04-13.65,14.73h0s.09,12.57.09,12.57c0,0,1.35-13.65,13.65-13.65s13.92,12.48,13.92,13.83.9,13.56,13.56,13.56,13.92-11.77,13.92-13.11c0-4.15,3.83-14.28,13.65-14.28,12.57,0,13.92,12.48,13.92,13.83s.9,13.56,13.56,13.56,13.92-11.77,13.92-13.11c0-2.28.8-5.86,2.88-8.88.02-.03.04-.05.06-.08.22-.32.46-.63.72-.93.09-.11.19-.21.28-.32.16-.18.33-.35.5-.52.31-.31.63-.61.98-.89.01-.01.02-.02.03-.03,1.94-1.55,4.54-2.63,7.99-2.63,12.58,0,13.92,12.48,13.92,13.83s.9,13.56,13.56,13.56,13.92-11.77,13.92-13.11c0-4.15,3.83-14.28,13.65-14.28,12.57,0,13.92,12.48,13.92,13.83s.9,13.56,13.56,13.56,13.92-11.77,13.92-13.11c0-.68.08-1.49.24-2.35.83-3.66,3.75-11.93,13.35-11.93,12.57,0,13.92,12.48,13.92,13.83s.9,13.56,13.56,13.56,13.92-11.77,13.92-13.11c0-4.15,3.83-14.28,13.65-14.28,12.58,0,13.92,12.48,13.92,13.83s.9,13.56,13.56,13.56,13.92-11.77,13.92-13.11c0-2.28.8-5.86,2.88-8.88.02-.03.04-.05.06-.08.22-.32.46-.63.71-.93.09-.11.19-.21.28-.32.16-.18.33-.35.5-.52.31-.31.63-.61.98-.89.01-.01.02-.02.03-.03,1.94-1.55,4.53-2.63,7.99-2.63,12.57,0,13.92,12.48,13.92,13.83s.9,13.56,13.56,13.56,13.92-11.77,13.92-13.11c0-4.15,3.83-14.28,13.65-14.28,12.57,0,13.92,12.48,13.92,13.83s.9,13.56,13.56,13.56,13.92-11.77,13.92-13.11c0-4.58,3.23-14.37,13.47-14.37v-13.56h0s-13.65.63-13.65,14.1"/>
                    <path class="cls-18" d="m396.65,131.52c0,11.95-10.96,13.47-13.56,13.47-2.88,0-13.74-2.16-13.74-13.38s-8.98-14.19-14.01-14.19c-5.37,0-13.74,4.47-13.74,14.1,0,11.95-10.96,13.47-13.56,13.47-2.87,0-13.74-2.16-13.74-13.38s-8.84-14.13-13.89-14.19h0s-.02,0-.05,0c-.02,0-.05,0-.07,0-2.37,0-5.46.88-8.11,2.87-2.29,1.6-4.36,4.09-5.11,7.96-.28,1.19-.43,2.49-.43,3.91v1.41c-1.16,10.08-10.99,11.44-13.44,11.44-2.88,0-13.74-2.16-13.74-13.38s-8.98-14.19-14.01-14.19c-5.37,0-13.74,4.47-13.74,14.1,0,11.95-10.96,13.47-13.56,13.47-2.88,0-13.74-2.16-13.74-13.38s-8.98-14.19-14.01-14.19h-.02s-.04,0-.04,0c-1.96.01-4.4.61-6.67,1.94-3.45,1.82-6.94,5.35-6.94,12.16,0,11.95-10.96,13.47-13.56,13.47-2.87,0-13.74-2.16-13.74-13.38s-8.98-14.19-14.01-14.19c-5.37,0-13.74,4.47-13.74,14.1,0,11.95-10.96,13.47-13.56,13.47-2.88,0-13.74-2.16-13.74-13.38s-8.84-14.13-13.89-14.19h0s-.02,0-.05,0c-.02,0-.05,0-.07,0-2.37,0-5.46.88-8.11,2.87-2.29,1.6-4.36,4.09-5.11,7.96-.27,1.19-.43,2.49-.43,3.91v1.41c-1.16,10.08-10.99,11.44-13.44,11.44-2.87,0-13.74-2.16-13.74-13.38s-8.98-14.19-14.01-14.19c-5.38,0-13.74,4.47-13.74,14.1,0,11.95-10.96,13.47-13.56,13.47-2.88,0-13.74-2.16-13.74-13.38s-8.98-14.19-14.01-14.19-13.65,4.04-13.65,14.73l.09,12.57s1.35-13.65,13.65-13.65,13.92,12.48,13.92,13.83.9,13.56,13.56,13.56,13.92-11.77,13.92-13.11c0-4.15,3.83-14.28,13.65-14.28,12.57,0,13.92,12.48,13.92,13.83s.9,13.56,13.56,13.56,13.92-11.77,13.92-13.11c0-2.28.8-5.86,2.88-8.87.02-.03.04-.06.06-.08.22-.32.46-.63.72-.93.09-.11.19-.21.28-.32.16-.18.33-.35.5-.53.31-.31.63-.6.98-.88.01-.01.02-.02.04-.03,1.94-1.55,4.54-2.63,7.99-2.63,12.58,0,13.92,12.48,13.92,13.83s.9,13.56,13.56,13.56,13.92-11.77,13.92-13.11c0-4.15,3.83-14.28,13.65-14.28,12.57,0,13.92,12.48,13.92,13.83s.9,13.56,13.56,13.56,13.92-11.77,13.92-13.11c0-.68.08-1.49.24-2.35.83-3.66,3.75-11.93,13.35-11.93,12.57,0,13.92,12.48,13.92,13.83s.9,13.56,13.56,13.56,13.92-11.77,13.92-13.11c0-4.15,3.83-14.28,13.65-14.28,12.58,0,13.92,12.48,13.92,13.83s.9,13.56,13.56,13.56,13.92-11.77,13.92-13.11c0-2.28.8-5.86,2.88-8.87.02-.03.04-.06.06-.08.22-.32.46-.63.71-.93.09-.11.19-.21.28-.32.16-.18.33-.35.5-.53.31-.31.63-.6.98-.88.01-.01.02-.02.04-.03,1.94-1.55,4.53-2.63,7.99-2.63,12.57,0,13.92,12.48,13.92,13.83s.9,13.56,13.56,13.56,13.92-11.77,13.92-13.11c0-4.15,3.83-14.28,13.65-14.28,12.57,0,13.92,12.48,13.92,13.83s.9,13.56,13.56,13.56,13.92-11.77,13.92-13.11c0-4.58,3.23-14.37,13.47-14.37v-13.56s-13.65.63-13.65,14.1"/>
                    <path class="cls-18" d="m396.65,103.77c0,11.95-10.96,13.47-13.56,13.47-2.88,0-13.74-2.16-13.74-13.38s-8.98-14.19-14.01-14.19c-5.37,0-13.74,4.47-13.74,14.1,0,11.95-10.96,13.47-13.56,13.47-2.87,0-13.74-2.16-13.74-13.38s-8.84-14.13-13.89-14.19h0s-.02,0-.05,0c-.02,0-.05,0-.07,0-2.37,0-5.46.88-8.11,2.87-2.29,1.6-4.36,4.09-5.11,7.96-.28,1.19-.43,2.48-.43,3.91v1.41c-1.16,10.08-10.99,11.44-13.44,11.44-2.88,0-13.74-2.16-13.74-13.38s-8.98-14.19-14.01-14.19c-5.37,0-13.74,4.47-13.74,14.1,0,11.95-10.96,13.47-13.56,13.47-2.88,0-13.74-2.16-13.74-13.38s-8.98-14.19-14.01-14.19h-.02s-.04,0-.04,0c-1.96.01-4.4.61-6.67,1.94-3.45,1.82-6.94,5.35-6.94,12.16,0,11.95-10.96,13.47-13.56,13.47-2.87,0-13.74-2.16-13.74-13.38s-8.98-14.19-14.01-14.19c-5.37,0-13.74,4.47-13.74,14.1,0,11.95-10.96,13.47-13.56,13.47-2.88,0-13.74-2.16-13.74-13.38s-8.84-14.13-13.89-14.19h0s-.02,0-.05,0c-.02,0-.05,0-.07,0-2.37,0-5.47.88-8.11,2.87-2.29,1.6-4.36,4.09-5.11,7.96-.27,1.19-.43,2.48-.43,3.91v1.41c-1.16,10.08-10.99,11.44-13.44,11.44-2.87,0-13.74-2.16-13.74-13.38s-8.98-14.19-14.01-14.19c-5.38,0-13.74,4.47-13.74,14.1,0,11.95-10.96,13.47-13.56,13.47-2.88,0-13.74-2.16-13.74-13.38s-8.98-14.19-14.01-14.19-13.65,4.04-13.65,14.73l.09,12.57s1.35-13.65,13.65-13.65,13.92,12.48,13.92,13.83.9,13.56,13.56,13.56,13.92-11.77,13.92-13.11c0-4.15,3.83-14.28,13.65-14.28,12.57,0,13.92,12.48,13.92,13.83s.9,13.56,13.56,13.56,13.92-11.77,13.92-13.11c0-2.28.8-5.86,2.88-8.88.02-.03.04-.06.06-.08.22-.32.46-.63.72-.93.09-.11.19-.21.28-.32.16-.18.33-.35.5-.53.31-.31.63-.61.98-.89.01-.01.02-.02.03-.03,1.94-1.55,4.54-2.63,7.99-2.63,12.58,0,13.92,12.48,13.92,13.83s.9,13.56,13.56,13.56,13.92-11.77,13.92-13.11c0-4.15,3.83-14.28,13.65-14.28,12.57,0,13.92,12.48,13.92,13.83s.9,13.56,13.56,13.56,13.92-11.77,13.92-13.11c0-.68.08-1.49.24-2.35.83-3.66,3.75-11.93,13.35-11.93,12.57,0,13.92,12.48,13.92,13.83s.9,13.56,13.56,13.56,13.92-11.77,13.92-13.11c0-4.15,3.83-14.28,13.65-14.28,12.58,0,13.92,12.48,13.92,13.83s.9,13.56,13.56,13.56,13.92-11.77,13.92-13.11c0-2.28.8-5.86,2.88-8.88.02-.03.04-.06.06-.08.22-.32.46-.63.72-.93.09-.11.19-.21.28-.32.16-.18.33-.35.5-.53.31-.31.63-.61.98-.89.01-.01.02-.02.03-.03,1.94-1.55,4.53-2.63,7.99-2.63,12.57,0,13.92,12.48,13.92,13.83s.9,13.56,13.56,13.56,13.92-11.77,13.92-13.11c0-4.15,3.83-14.28,13.65-14.28,12.57,0,13.92,12.48,13.92,13.83s.9,13.56,13.56,13.56,13.92-11.77,13.92-13.11c0-4.58,3.23-14.37,13.47-14.37v-13.56s-13.65.63-13.65,14.1"/>
                    <path class="cls-18" d="m396.65,242.51c0,11.95-10.96,13.47-13.56,13.47-2.88,0-13.74-2.15-13.74-13.38s-8.98-14.19-14.01-14.19c-5.37,0-13.74,4.47-13.74,14.1,0,11.95-10.96,13.47-13.56,13.47-2.87,0-13.74-2.15-13.74-13.38s-8.84-14.13-13.89-14.19h0s-.02,0-.05,0c-.02,0-.05,0-.07,0-2.37,0-5.46.88-8.11,2.87-2.29,1.6-4.36,4.09-5.11,7.96-.28,1.19-.43,2.49-.43,3.91v1.41c-1.16,10.08-10.99,11.43-13.44,11.43-2.88,0-13.74-2.15-13.74-13.38s-8.98-14.19-14.01-14.19c-5.37,0-13.74,4.47-13.74,14.1,0,11.95-10.96,13.47-13.56,13.47-2.88,0-13.74-2.15-13.74-13.38s-8.98-14.19-14.01-14.19c0,0-.01,0-.02,0h0s-.04,0-.04,0c-1.96.01-4.4.61-6.67,1.94-3.45,1.83-6.94,5.35-6.94,12.16,0,11.95-10.96,13.47-13.56,13.47-2.87,0-13.74-2.15-13.74-13.38s-8.98-14.19-14.01-14.19c-5.37,0-13.74,4.47-13.74,14.1,0,11.95-10.96,13.47-13.56,13.47-2.88,0-13.74-2.15-13.74-13.38s-8.84-14.13-13.89-14.19h0s-.02,0-.05,0c-.02,0-.05,0-.07,0-2.37,0-5.47.88-8.11,2.87-2.29,1.6-4.36,4.09-5.11,7.96-.27,1.19-.43,2.49-.43,3.91v1.41c-1.16,10.08-10.99,11.43-13.44,11.43-2.87,0-13.74-2.15-13.74-13.38s-8.98-14.19-14.01-14.19c-5.38,0-13.74,4.47-13.74,14.1,0,11.95-10.96,13.47-13.56,13.47-2.88,0-13.74-2.15-13.74-13.38s-8.98-14.19-14.01-14.19-13.65,4.04-13.65,14.73l.09,12.57s1.35-13.65,13.65-13.65,13.92,12.49,13.92,13.83.9,13.56,13.56,13.56,13.92-11.77,13.92-13.11c0-4.15,3.83-14.28,13.65-14.28,12.57,0,13.92,12.49,13.92,13.83s.9,13.56,13.56,13.56,13.92-11.77,13.92-13.11c0-2.28.8-5.86,2.88-8.88.02-.03.04-.06.06-.08.22-.32.46-.63.72-.93.09-.11.19-.21.28-.32.16-.18.33-.35.5-.53.31-.31.63-.61.98-.88.01-.01.02-.02.04-.03,1.94-1.55,4.54-2.63,7.99-2.63,12.58,0,13.92,12.49,13.92,13.83s.9,13.56,13.56,13.56,13.92-11.77,13.92-13.11c0-4.15,3.83-14.28,13.65-14.28,12.57,0,13.92,12.49,13.92,13.83s.9,13.56,13.56,13.56,13.92-11.77,13.92-13.11c0-.68.08-1.49.24-2.35.83-3.66,3.75-11.93,13.35-11.93,12.57,0,13.92,12.49,13.92,13.83s.9,13.56,13.56,13.56,13.92-11.77,13.92-13.11c0-4.15,3.83-14.28,13.65-14.28,12.58,0,13.92,12.49,13.92,13.83s.9,13.56,13.56,13.56,13.92-11.77,13.92-13.11c0-2.28.8-5.86,2.88-8.88.02-.03.04-.06.06-.08.22-.32.46-.63.71-.93.09-.11.19-.21.28-.32.16-.18.33-.35.5-.53.31-.31.63-.61.98-.88.01-.01.02-.02.04-.03,1.94-1.55,4.53-2.63,7.99-2.63,12.57,0,13.92,12.49,13.92,13.83s.9,13.56,13.56,13.56,13.92-11.77,13.92-13.11c0-4.15,3.83-14.28,13.65-14.28,12.57,0,13.92,12.49,13.92,13.83s.9,13.56,13.56,13.56,13.92-11.77,13.92-13.11c0-4.58,3.23-14.37,13.47-14.37v-13.56s-13.65.63-13.65,14.1"/>
                    <path class="cls-18" d="m396.65,214.77c0,11.95-10.96,13.47-13.56,13.47-2.88,0-13.74-2.16-13.74-13.38s-8.98-14.19-14.01-14.19c-5.37,0-13.74,4.47-13.74,14.1,0,11.95-10.96,13.47-13.56,13.47-2.87,0-13.74-2.16-13.74-13.38s-8.84-14.13-13.89-14.19h0s-.02,0-.05,0c-.02,0-.05,0-.07,0-2.37,0-5.46.88-8.11,2.87-2.29,1.6-4.36,4.09-5.11,7.96-.28,1.19-.43,2.49-.43,3.91v1.41c-1.16,10.08-10.99,11.44-13.44,11.44-2.88,0-13.74-2.16-13.74-13.38s-8.98-14.19-14.01-14.19c-5.37,0-13.74,4.47-13.74,14.1,0,11.95-10.96,13.47-13.56,13.47-2.88,0-13.74-2.16-13.74-13.38s-8.98-14.19-14.01-14.19c0,0-.01,0-.02,0h0s-.04,0-.04,0c-1.96.01-4.4.61-6.67,1.94-3.45,1.83-6.94,5.35-6.94,12.16,0,11.95-10.96,13.47-13.56,13.47-2.87,0-13.74-2.16-13.74-13.38s-8.98-14.19-14.01-14.19c-5.37,0-13.74,4.47-13.74,14.1,0,11.95-10.96,13.47-13.56,13.47-2.88,0-13.74-2.16-13.74-13.38s-8.84-14.13-13.89-14.19h0s-.02,0-.05,0c-.02,0-.05,0-.07,0-2.37,0-5.46.88-8.11,2.87-2.29,1.6-4.36,4.09-5.11,7.96-.27,1.19-.43,2.49-.43,3.91v1.41c-1.16,10.08-10.99,11.44-13.44,11.44-2.87,0-13.74-2.16-13.74-13.38s-8.98-14.19-14.01-14.19c-5.38,0-13.74,4.47-13.74,14.1,0,11.95-10.96,13.47-13.56,13.47-2.88,0-13.74-2.16-13.74-13.38s-8.98-14.19-14.01-14.19-13.65,4.04-13.65,14.73l.09,12.57s1.35-13.65,13.65-13.65,13.92,12.48,13.92,13.83.9,13.56,13.56,13.56,13.92-11.77,13.92-13.11c0-4.15,3.83-14.28,13.65-14.28,12.57,0,13.92,12.48,13.92,13.83s.9,13.56,13.56,13.56,13.92-11.77,13.92-13.11c0-2.28.8-5.86,2.88-8.88.02-.03.04-.06.06-.08.22-.32.46-.63.72-.93.09-.11.19-.21.28-.32.16-.18.33-.36.5-.53.31-.31.63-.6.98-.88.01-.01.02-.02.04-.03,1.94-1.55,4.54-2.63,7.99-2.63,12.58,0,13.92,12.48,13.92,13.83s.9,13.56,13.56,13.56,13.92-11.77,13.92-13.11c0-4.15,3.83-14.28,13.65-14.28,12.57,0,13.92,12.48,13.92,13.83s.9,13.56,13.56,13.56,13.92-11.77,13.92-13.11c0-.68.08-1.49.24-2.35.83-3.66,3.75-11.93,13.35-11.93,12.57,0,13.92,12.48,13.92,13.83s.9,13.56,13.56,13.56,13.92-11.77,13.92-13.11c0-4.15,3.83-14.28,13.65-14.28,12.58,0,13.92,12.48,13.92,13.83s.9,13.56,13.56,13.56,13.92-11.77,13.92-13.11c0-2.28.8-5.86,2.88-8.88.02-.03.04-.06.06-.08.22-.32.46-.63.72-.93.09-.11.19-.21.28-.32.16-.18.33-.36.5-.53.31-.31.63-.6.98-.88.01-.01.02-.02.04-.03,1.94-1.55,4.53-2.63,7.99-2.63,12.57,0,13.92,12.48,13.92,13.83s.9,13.56,13.56,13.56,13.92-11.77,13.92-13.11c0-4.15,3.83-14.28,13.65-14.28,12.57,0,13.92,12.48,13.92,13.83s.9,13.56,13.56,13.56,13.92-11.77,13.92-13.11c0-4.58,3.23-14.37,13.47-14.37v-13.56s-13.65.63-13.65,14.1"/>
                    <path class="cls-18" d="m396.65,187.02c0,11.95-10.96,13.47-13.56,13.47-2.88,0-13.74-2.16-13.74-13.38s-8.98-14.19-14.01-14.19c-5.37,0-13.74,4.47-13.74,14.1,0,11.95-10.96,13.47-13.56,13.47-2.87,0-13.74-2.16-13.74-13.38s-8.84-14.13-13.89-14.19h0s-.02,0-.05,0c-.02,0-.05,0-.07,0-2.37,0-5.46.88-8.11,2.87-2.29,1.6-4.36,4.09-5.11,7.95-.28,1.19-.43,2.49-.43,3.91v1.41c-1.16,10.08-10.99,11.44-13.44,11.44-2.88,0-13.74-2.16-13.74-13.38s-8.98-14.19-14.01-14.19c-5.37,0-13.74,4.47-13.74,14.1,0,11.95-10.96,13.47-13.56,13.47-2.88,0-13.74-2.16-13.74-13.38s-8.98-14.19-14.01-14.19c0,0-.01,0-.02,0h0s-.04,0-.04,0c-1.96.01-4.4.61-6.67,1.94-3.45,1.82-6.94,5.35-6.94,12.16,0,11.95-10.96,13.47-13.56,13.47-2.87,0-13.74-2.16-13.74-13.38s-8.98-14.19-14.01-14.19c-5.37,0-13.74,4.47-13.74,14.1,0,11.95-10.96,13.47-13.56,13.47-2.88,0-13.74-2.16-13.74-13.38s-8.84-14.13-13.89-14.19h0s-.02,0-.05,0c-.02,0-.05,0-.07,0-2.37,0-5.47.88-8.11,2.87-2.29,1.6-4.36,4.09-5.11,7.95-.27,1.19-.43,2.49-.43,3.91v1.41c-1.16,10.08-10.99,11.44-13.44,11.44-2.87,0-13.74-2.16-13.74-13.38s-8.98-14.19-14.01-14.19c-5.38,0-13.74,4.47-13.74,14.1,0,11.95-10.96,13.47-13.56,13.47-2.88,0-13.74-2.16-13.74-13.38s-8.98-14.19-14.01-14.19-13.65,4.04-13.65,14.73l.09,12.57s1.35-13.65,13.65-13.65,13.92,12.48,13.92,13.83.9,13.56,13.56,13.56,13.92-11.77,13.92-13.11c0-4.15,3.83-14.28,13.65-14.28,12.57,0,13.92,12.48,13.92,13.83s.9,13.56,13.56,13.56,13.92-11.77,13.92-13.11c0-2.28.8-5.86,2.88-8.87.02-.03.04-.06.06-.08.22-.32.46-.63.72-.93.09-.11.19-.21.28-.32.16-.18.33-.35.5-.53.31-.31.63-.6.98-.88.01-.01.02-.02.04-.03,1.94-1.55,4.54-2.63,7.99-2.63,12.58,0,13.92,12.48,13.92,13.83s.9,13.56,13.56,13.56,13.92-11.77,13.92-13.11c0-4.15,3.83-14.28,13.65-14.28,12.57,0,13.92,12.48,13.92,13.83s.9,13.56,13.56,13.56,13.92-11.77,13.92-13.11c0-.68.08-1.49.24-2.35.83-3.66,3.75-11.93,13.35-11.93,12.57,0,13.92,12.48,13.92,13.83s.9,13.56,13.56,13.56,13.92-11.77,13.92-13.11c0-4.15,3.83-14.28,13.65-14.28,12.58,0,13.92,12.48,13.92,13.83s.9,13.56,13.56,13.56,13.92-11.77,13.92-13.11c0-2.28.8-5.86,2.88-8.87.02-.03.04-.06.06-.08.22-.32.46-.63.71-.93.09-.11.19-.21.28-.32.16-.18.33-.35.5-.53.31-.31.63-.6.98-.88.01-.01.02-.02.04-.03,1.94-1.55,4.53-2.63,7.99-2.63,12.57,0,13.92,12.48,13.92,13.83s.9,13.56,13.56,13.56,13.92-11.77,13.92-13.11c0-4.15,3.83-14.28,13.65-14.28,12.57,0,13.92,12.48,13.92,13.83s.9,13.56,13.56,13.56,13.92-11.77,13.92-13.11c0-4.58,3.23-14.37,13.47-14.37v-13.56s-13.65.63-13.65,14.1"/>
                  </g>
                </g>
              </g>
            </g>
            <polygon class="cls-9" points="371.76 246.36 .72 248.52 1.24 -5.4 371.76 -5.4 371.76 246.36"/>
            <rect class="cls-9" x="0" y="28.64" width="216.66" height="221.18"/>
          </g>
          <circle class="cls-14" cx="297.4" cy="79.73" r="26.57"/>
          <g class="cls-5">
            <path class="cls-14" d="m17.77,212.31c-.22.48.16,3.95-.45,8.13,0,0-2.62-3.91-8.18-4.39l2.79,5.06s-3.76-1.95-9.96,1.49c0,0,6.7.15,9.81,2.1,0,0-3.9-.32-10.39,5.04v.03c.61-.19,6.31-1.95,9.09-1.8,0,0-5.87,2.95-7.5,7.37l7.35-2.47s-2.93,2.62-3.25,7.36c0,0,7.49-3.15,12.42-8.44l.06,24.98h1.56l-.06-24.99c4.95,5.26,12.46,8.39,12.46,8.39-.34-4.74-3.28-7.34-3.28-7.34l7.36,2.43c-1.64-4.41-7.53-7.33-7.53-7.33,2.94-.17,9.15,1.78,9.15,1.78-6.55-5.38-10.47-5.04-10.47-5.04,3.1-1.97,9.8-2.15,9.8-2.15-6.22-3.42-9.97-1.45-9.97-1.45l2.77-5.07c-5.55.5-8.16,4.43-8.16,4.43-2.75-3.8-5.19-7.64-5.41-8.12Zm0,0l.75-.22-.75.22Z"/>
            <path class="cls-14" d="m65.07,212.31c-.22.48.16,3.95-.45,8.13,0,0-2.62-3.91-8.18-4.39l2.79,5.06s-3.76-1.95-9.96,1.49c0,0,6.7.15,9.81,2.1,0,0-3.9-.32-10.39,5.04v.03c.61-.19,6.31-1.95,9.09-1.8,0,0-5.87,2.95-7.5,7.37l7.35-2.47s-2.93,2.62-3.25,7.36c0,0,7.49-3.15,12.42-8.44l.06,24.98h1.56l-.06-24.99c4.95,5.26,12.46,8.39,12.46,8.39-.34-4.74-3.28-7.34-3.28-7.34l7.36,2.43c-1.64-4.41-7.53-7.33-7.53-7.33,2.94-.17,9.15,1.78,9.15,1.78-6.55-5.38-10.47-5.04-10.47-5.04,3.1-1.97,9.8-2.15,9.8-2.15-6.22-3.42-9.97-1.45-9.97-1.45l2.77-5.07c-5.55.5-8.16,4.43-8.16,4.43-2.75-3.8-5.19-7.64-5.41-8.12Zm0,0l.75-.22-.75.22Z"/>
            <path class="cls-14" d="m112.38,212.31c-.22.48.16,3.95-.45,8.13,0,0-2.62-3.91-8.18-4.39l2.79,5.06s-3.76-1.95-9.96,1.49c0,0,6.7.15,9.81,2.1,0,0-3.9-.32-10.39,5.04v.03c.61-.19,6.31-1.95,9.09-1.8,0,0-5.87,2.95-7.5,7.37l7.35-2.47s-2.93,2.62-3.25,7.36c0,0,7.49-3.15,12.42-8.44l.06,24.98h1.56l-.06-24.99c4.95,5.26,12.46,8.39,12.46,8.39-.34-4.74-3.28-7.34-3.28-7.34l7.36,2.43c-1.64-4.41-7.53-7.33-7.53-7.33,2.94-.17,9.15,1.78,9.15,1.78-6.55-5.38-10.47-5.04-10.47-5.04,3.1-1.97,9.8-2.15,9.8-2.15-6.22-3.42-9.97-1.45-9.97-1.45l2.77-5.07c-5.55.5-8.16,4.43-8.16,4.43-2.75-3.8-5.19-7.64-5.41-8.12Zm0,0l.75-.22-.75.22Z"/>
            <path class="cls-14" d="m159.68,212.31c-.22.48.16,3.95-.45,8.13,0,0-2.62-3.91-8.18-4.39l2.79,5.06s-3.76-1.95-9.96,1.49c0,0,6.7.15,9.81,2.1,0,0-3.9-.32-10.39,5.04v.03c.61-.19,6.31-1.95,9.09-1.8,0,0-5.87,2.95-7.5,7.37l7.35-2.47s-2.93,2.62-3.25,7.36c0,0,7.49-3.15,12.42-8.44l.06,24.98h1.56l-.06-24.99c4.95,5.26,12.46,8.39,12.46,8.39-.34-4.74-3.28-7.34-3.28-7.34l7.36,2.43c-1.64-4.41-7.53-7.33-7.53-7.33,2.94-.17,9.15,1.78,9.15,1.78-6.55-5.38-10.47-5.04-10.47-5.04,3.1-1.97,9.8-2.15,9.8-2.15-6.22-3.42-9.97-1.45-9.97-1.45l2.77-5.07c-5.55.5-8.16,4.43-8.16,4.43-2.75-3.8-5.19-7.64-5.41-8.12Zm0,0l.75-.22-.75.22Z"/>
            <path class="cls-14" d="m206.99,212.31c-.22.48.16,3.95-.45,8.13,0,0-2.62-3.91-8.18-4.39l2.79,5.06s-3.76-1.95-9.96,1.49c0,0,6.7.15,9.81,2.1,0,0-3.9-.32-10.39,5.04v.03c.61-.19,6.31-1.95,9.09-1.8,0,0-5.87,2.95-7.5,7.37l7.35-2.47s-2.93,2.62-3.25,7.36c0,0,7.49-3.15,12.42-8.44l.06,24.98h1.56l-.06-24.99c4.95,5.26,12.46,8.39,12.46,8.39-.34-4.74-3.28-7.34-3.28-7.34l7.36,2.43c-1.64-4.41-7.53-7.33-7.53-7.33,2.94-.17,9.15,1.78,9.15,1.78-6.55-5.38-10.47-5.04-10.47-5.04,3.1-1.97,9.8-2.15,9.8-2.15-6.22-3.42-9.97-1.45-9.97-1.45l2.77-5.07c-5.55.5-8.16,4.43-8.16,4.43-2.75-3.8-5.19-7.64-5.41-8.12Zm0,0l.75-.22-.75.22Z"/>
          </g>
          <g>
            <rect class="cls-15" x="294.51" y="199.55" width="57.46" height="2.09"/>
            <rect class="cls-16" x="251.55" y="208.88" width="13.69" height="29.38"/>
            <rect class="cls-16" x="316.08" y="208.88" width="14.33" height="29.38"/>
            <g>
              <rect class="cls-15" x="344.48" y="195.76" width="7.5" height="5.88"/>
              <rect class="cls-15" x="306.46" y="195.76" width="11.32" height="5.88"/>
              <rect class="cls-15" x="328.34" y="177.52" width="8.19" height="3.64"/>
              <rect class="cls-15" x="330.06" y="195.76" width="4.97" height="5.88"/>
              <rect class="cls-15" x="339.66" y="174.47" width=".91" height="26.78" transform="translate(-32.81 296.92) rotate(-45.21)"/>
            </g>
            <g>
              <path class="cls-15" d="m398,239.67v-2.68h3.79v-27.5c0-3.64-2.95-6.59-6.59-6.59h-143.92c-3.64,0-6.59,2.95-6.59,6.59v27.5h3.79v2.68h-8.12v2.09h25.23l4.77-4.77h30.17l4.45,4.77h18.26v-3.5h-7.07v-1.26h.2v-28.06h13.73v28.06h.2v1.26h-7.06v3.5h18.25l4.45-4.77h30.17l4.77,4.77h25.23v-2.09h-8.12Zm-132.76-4.79v3.37h-13.69v-29.32h13.69v25.95Zm129.69,0v3.37h-13.69v-29.32h13.69v25.95Z"/>
              <g class="cls-4">
                <g>
                  <polygon class="cls-13" points="429.44 256.26 402.03 247.33 374.63 256.26 347.22 247.33 319.79 256.27 319.79 256.23 292.37 247.29 264.96 256.23 237.55 247.29 210.14 256.23 182.73 247.29 155.31 256.23 155.31 261.26 182.73 252.32 210.13 261.25 210.13 261.26 210.14 261.25 210.16 261.26 210.16 261.25 237.55 252.32 264.95 261.25 264.95 261.26 264.96 261.25 264.97 261.26 264.97 261.25 292.37 252.32 319.79 261.26 319.79 261.29 347.22 252.36 374.61 261.29 374.61 261.29 374.63 261.29 374.64 261.29 374.64 261.29 402.03 252.36 429.43 261.29 429.43 261.29 429.44 261.29 429.46 261.29 429.46 261.29 456.85 252.36 484.28 261.29 484.28 256.27 456.85 247.33 429.44 256.26"/>
                  <polygon class="cls-13" points="429.44 246.76 402.03 237.82 374.63 246.76 347.22 237.82 319.79 246.76 319.79 246.72 292.37 237.79 264.96 246.72 237.55 237.79 210.14 246.72 182.73 237.79 155.31 246.72 155.31 251.75 182.73 242.81 210.13 251.74 210.13 251.75 210.14 251.74 210.16 251.75 210.16 251.74 237.55 242.81 264.95 251.74 264.95 251.75 264.96 251.74 264.97 251.75 264.97 251.74 292.37 242.81 319.79 251.75 319.79 251.79 347.22 242.85 374.61 251.78 374.61 251.79 374.63 251.78 374.64 251.79 374.64 251.78 402.03 242.85 429.43 251.78 429.43 251.79 429.44 251.78 429.46 251.79 429.46 251.78 456.85 242.85 484.28 251.79 484.28 246.76 456.85 237.82 429.44 246.76"/>
                  <polygon class="cls-13" points="429.44 237.25 402.03 228.32 374.63 237.25 347.22 228.32 319.79 237.25 319.79 237.21 292.37 228.28 264.96 237.21 237.55 228.28 210.14 237.21 182.73 228.28 155.31 237.21 155.31 242.24 182.73 233.3 210.13 242.23 210.13 242.24 210.14 242.24 210.16 242.24 210.16 242.23 237.55 233.3 264.95 242.23 264.95 242.24 264.96 242.24 264.97 242.24 264.97 242.23 292.37 233.3 319.79 242.24 319.79 242.28 347.22 233.34 374.61 242.27 374.61 242.28 374.63 242.27 374.64 242.28 374.64 242.27 402.03 233.34 429.43 242.27 429.43 242.28 429.44 242.27 429.46 242.28 429.46 242.27 456.85 233.34 484.28 242.28 484.28 237.25 456.85 228.32 429.44 237.25"/>
                  <polygon class="cls-13" points="429.44 227.74 402.03 218.81 374.63 227.74 347.22 218.81 319.79 227.74 319.79 227.71 292.37 218.77 264.96 227.7 237.55 218.77 210.14 227.7 182.73 218.77 155.31 227.71 155.31 232.73 182.73 223.8 210.13 232.72 210.13 232.73 210.14 232.73 210.16 232.73 210.16 232.72 237.55 223.8 264.95 232.72 264.95 232.73 264.96 232.73 264.97 232.73 264.97 232.72 292.37 223.8 319.79 232.73 319.79 232.77 347.22 223.83 374.61 232.76 374.61 232.77 374.63 232.77 374.64 232.77 374.64 232.76 402.03 223.83 429.43 232.76 429.43 232.77 429.44 232.77 429.46 232.77 429.46 232.76 456.85 223.83 484.28 232.77 484.28 227.74 456.85 218.81 429.44 227.74"/>
                  <polygon class="cls-13" points="429.44 218.77 402.03 209.84 374.63 218.77 347.22 209.84 319.79 218.78 319.79 218.74 292.37 209.8 264.96 218.73 237.55 209.8 210.14 218.73 182.73 209.8 155.31 218.74 155.31 223.76 182.73 214.83 210.13 223.76 210.13 223.76 210.14 223.76 210.16 223.76 210.16 223.76 237.55 214.83 264.95 223.76 264.95 223.76 264.96 223.76 264.97 223.76 264.97 223.76 292.37 214.83 319.79 223.76 319.79 223.8 347.22 214.87 374.61 223.79 374.61 223.8 374.63 223.8 374.64 223.8 374.64 223.79 402.03 214.87 429.43 223.79 429.43 223.8 429.44 223.8 429.46 223.8 429.46 223.79 456.85 214.87 484.28 223.8 484.28 218.78 456.85 209.84 429.44 218.77"/>
                  <polygon class="cls-13" points="429.44 209.26 402.03 200.33 374.63 209.26 347.22 200.33 319.79 209.27 319.79 209.23 292.37 200.29 264.96 209.23 237.55 200.29 210.14 209.23 182.73 200.29 155.31 209.23 155.31 214.26 182.73 205.32 210.13 214.25 210.13 214.26 210.14 214.25 210.16 214.26 210.16 214.25 237.55 205.32 264.95 214.25 264.95 214.26 264.96 214.25 264.97 214.26 264.97 214.25 292.37 205.32 319.79 214.26 319.79 214.29 347.22 205.36 374.61 214.29 374.61 214.29 374.63 214.29 374.64 214.29 374.64 214.29 402.03 205.36 429.43 214.29 429.43 214.29 429.44 214.29 429.46 214.29 429.46 214.29 456.85 205.36 484.28 214.29 484.28 209.27 456.85 200.33 429.44 209.26"/>
                  <polygon class="cls-13" points="429.44 199.76 402.03 190.82 374.63 199.76 347.22 190.82 319.79 199.76 319.79 199.72 292.37 190.79 264.96 199.72 237.55 190.79 210.14 199.72 182.73 190.79 155.31 199.72 155.31 204.75 182.73 195.81 210.13 204.74 210.13 204.75 210.14 204.74 210.16 204.75 210.16 204.74 237.55 195.81 264.95 204.74 264.95 204.75 264.96 204.74 264.97 204.75 264.97 204.74 292.37 195.81 319.79 204.75 319.79 204.79 347.22 195.85 374.61 204.78 374.61 204.79 374.63 204.78 374.64 204.79 374.64 204.78 402.03 195.85 429.43 204.78 429.43 204.79 429.44 204.78 429.46 204.79 429.46 204.78 456.85 195.85 484.28 204.79 484.28 199.76 456.85 190.82 429.44 199.76"/>
                  <polygon class="cls-13" points="429.44 190.25 402.03 181.32 374.63 190.25 347.22 181.32 319.79 190.25 319.79 190.21 292.37 181.28 264.96 190.21 237.55 181.28 210.14 190.21 182.73 181.28 155.31 190.21 155.31 195.24 182.73 186.3 210.13 195.23 210.13 195.24 210.14 195.24 210.16 195.24 210.16 195.23 237.55 186.3 264.95 195.23 264.95 195.24 264.96 195.24 264.97 195.24 264.97 195.23 292.37 186.3 319.79 195.24 319.79 195.28 347.22 186.34 374.61 195.27 374.61 195.28 374.63 195.27 374.64 195.28 374.64 195.27 402.03 186.34 429.43 195.27 429.43 195.28 429.44 195.27 429.46 195.28 429.46 195.27 456.85 186.34 484.28 195.28 484.28 190.25 456.85 181.32 429.44 190.25"/>
                  <polygon class="cls-13" points="429.44 180.74 402.03 171.81 374.63 180.74 347.22 171.81 319.79 180.74 319.79 180.71 292.37 171.77 264.96 180.7 237.55 171.77 210.14 180.7 182.73 171.77 155.31 180.71 155.31 185.73 182.73 176.8 210.13 185.72 210.13 185.73 210.14 185.73 210.16 185.73 210.16 185.72 237.55 176.8 264.95 185.72 264.95 185.73 264.96 185.73 264.97 185.73 264.97 185.72 292.37 176.8 319.79 185.73 319.79 185.77 347.22 176.83 374.61 185.76 374.61 185.77 374.63 185.77 374.64 185.77 374.64 185.76 402.03 176.83 429.43 185.76 429.43 185.77 429.44 185.77 429.46 185.77 429.46 185.76 456.85 176.83 484.28 185.77 484.28 180.74 456.85 171.81 429.44 180.74"/>
                  <polygon class="cls-13" points="429.44 171.23 402.03 162.3 374.63 171.23 347.22 162.3 319.79 171.24 319.79 171.2 292.37 162.26 264.96 171.19 237.55 162.26 210.14 171.19 182.73 162.26 155.31 171.2 155.31 176.22 182.73 167.29 210.13 176.21 210.13 176.22 210.14 176.22 210.16 176.22 210.16 176.21 237.55 167.29 264.95 176.21 264.95 176.22 264.96 176.22 264.97 176.22 264.97 176.21 292.37 167.29 319.79 176.22 319.79 176.26 347.22 167.33 374.61 176.25 374.61 176.26 374.63 176.26 374.64 176.26 374.64 176.25 402.03 167.33 429.43 176.25 429.43 176.26 429.44 176.26 429.46 176.26 429.46 176.25 456.85 167.33 484.28 176.26 484.28 171.24 456.85 162.3 429.44 171.23"/>
                  <polygon class="cls-13" points="429.44 161.72 402.03 152.79 374.63 161.72 347.22 152.79 319.79 161.73 319.79 161.69 292.37 152.75 264.96 161.68 237.55 152.75 210.14 161.68 182.73 152.75 155.31 161.69 155.31 166.72 182.73 157.78 210.13 166.71 210.13 166.72 210.14 166.71 210.16 166.72 210.16 166.71 237.55 157.78 264.95 166.71 264.95 166.72 264.96 166.71 264.97 166.72 264.97 166.71 292.37 157.78 319.79 166.72 319.79 166.75 347.22 157.82 374.61 166.74 374.61 166.75 374.63 166.75 374.64 166.75 374.64 166.74 402.03 157.82 429.43 166.74 429.43 166.75 429.44 166.75 429.46 166.75 429.46 166.74 456.85 157.82 484.28 166.75 484.28 161.73 456.85 152.79 429.44 161.72"/>
                  <polygon class="cls-13" points="429.44 152.21 402.03 143.28 374.63 152.21 347.22 143.28 319.79 152.22 319.79 152.18 292.37 143.25 264.96 152.18 237.55 143.25 210.14 152.18 182.73 143.25 155.31 152.18 155.31 157.21 182.73 148.27 210.13 157.2 210.13 157.21 210.14 157.2 210.16 157.21 210.16 157.2 237.55 148.27 264.95 157.2 264.95 157.21 264.96 157.2 264.97 157.21 264.97 157.2 292.37 148.27 319.79 157.21 319.79 157.25 347.22 148.31 374.61 157.24 374.61 157.25 374.63 157.24 374.64 157.25 374.64 157.24 402.03 148.31 429.43 157.24 429.43 157.25 429.44 157.24 429.46 157.25 429.46 157.24 456.85 148.31 484.28 157.25 484.28 152.22 456.85 143.28 429.44 152.21"/>
                  <polygon class="cls-13" points="456.85 133.78 429.44 142.71 402.03 133.78 374.63 142.71 347.22 133.78 319.79 142.71 319.79 142.67 292.37 133.74 264.96 142.67 237.55 133.74 210.14 142.67 182.73 133.74 155.31 142.67 155.31 147.7 182.73 138.76 210.13 147.69 210.13 147.7 210.14 147.69 210.16 147.7 210.16 147.69 237.55 138.76 264.95 147.69 264.95 147.7 264.96 147.69 264.97 147.7 264.97 147.69 292.37 138.76 319.79 147.7 319.79 147.74 347.22 138.8 374.61 147.73 374.61 147.74 374.63 147.73 374.64 147.74 374.64 147.73 402.03 138.8 429.43 147.73 429.43 147.74 429.44 147.73 429.46 147.74 429.46 147.73 456.85 138.8 484.28 147.74 484.28 142.71 456.85 133.78"/>
                </g>
              </g>
            </g>
            <g>
              <rect class="cls-16" x="267.84" y="209.92" width="19.6" height="3.37"/>
              <rect class="cls-16" x="267.84" y="215.53" width="19.6" height="8.07"/>
              <rect class="cls-16" x="291.64" y="209.92" width="19.6" height="3.37"/>
              <rect class="cls-16" x="291.64" y="215.53" width="19.6" height="8.07"/>
              <rect class="cls-16" x="335.03" y="209.92" width="19.6" height="3.37"/>
              <rect class="cls-16" x="335.03" y="215.53" width="19.6" height="8.07"/>
              <rect class="cls-16" x="358.83" y="209.92" width="19.6" height="3.37"/>
              <rect class="cls-16" x="358.83" y="215.53" width="19.6" height="8.07"/>
              <rect class="cls-16" x="246.79" y="209.92" width="2.1" height="13.68"/>
            </g>
            <rect class="cls-16" x="265.24" y="225.91" width="51.13" height="1.12"/>
            <rect class="cls-16" x="330.06" y="225.91" width="51.13" height="1.12"/>
            <g>
              <path class="cls-16" d="m297.94,239.94h-4.97v2.95h-15.49v-2.95h-4.97c-2.74,0-4.97,2.22-4.97,4.97s2.22,4.97,4.97,4.97,4.97-2.22,4.97-4.97h15.49c0,2.74,2.22,4.97,4.97,4.97s4.97-2.22,4.97-4.97-2.22-4.97-4.97-4.97Z"/>
              <rect class="cls-16" x="279.31" y="239.94" width="4.97" height="1.98"/>
              <rect class="cls-16" x="285.3" y="241.17" width="6.16" height=".74"/>
              <rect class="cls-16" x="285.3" y="239.94" width="6.16" height=".74"/>
            </g>
            <g>
              <path class="cls-16" d="m374.87,239.94h-4.97v2.95h-15.49v-2.95h-4.97c-2.74,0-4.97,2.22-4.97,4.97s2.22,4.97,4.97,4.97,4.97-2.22,4.97-4.97h15.49c0,2.74,2.22,4.97,4.97,4.97s4.97-2.22,4.97-4.97-2.22-4.97-4.97-4.97Z"/>
              <rect class="cls-16" x="356.25" y="239.94" width="4.97" height="1.98"/>
              <rect class="cls-16" x="362.23" y="241.17" width="6.16" height=".74"/>
              <rect class="cls-16" x="362.23" y="239.94" width="6.16" height=".74"/>
            </g>
          </g>
          <g>
            <g>
              <path class="cls-12" d="m140.62,117.95c1-3.18,3.04-6.66,5.1-8.75h-3.04l.65-1.86h7.59v10.61h-2.43v-2.05h-4.75c-.32.72-.59,1.42-.78,2.05h-2.34Zm4.05-3.91h3.82v-4.91h-.1c-1.34,1.21-2.68,3.04-3.71,4.91Z"/>
              <path class="cls-12" d="m153.31,113.35v-6.01h2.43v5.87c0,1.77.96,2.83,2.64,2.83s2.58-1.06,2.58-2.83v-5.87h2.28v6.01c0,2.98-2.06,4.75-4.95,4.75s-4.98-1.77-4.98-4.75Z"/>
              <path class="cls-12" d="m165.58,115.15c1.21.58,2.59,1,4.36,1s2.51-.55,2.51-1.19c0-.71-.75-.88-3.15-1.21-2.92-.4-4.21-1.43-4.21-3.21,0-2.02,2-3.35,4.75-3.35,1.49,0,3.55.4,4.61.85l-.63,1.93c-.85-.46-2.51-.84-4.04-.84s-2.36.56-2.36,1.18c0,.72.81.96,2.93,1.27,3.18.46,4.44,1.36,4.44,3.12,0,2.08-2.02,3.39-4.82,3.39-1.55,0-3.64-.4-4.94-.93l.56-2.02Z"/>
              <path class="cls-12" d="m178.98,109.33h-3.54v-1.99h9.58l-.38,1.99h-3.23v8.62h-2.43v-8.62Z"/>
              <path class="cls-12" d="m186.3,107.34h4.82c2.17,0,4.41,1.21,4.41,3.61,0,1.55-.91,2.59-2.14,3.17l3.27,3.83h-3.15l-2.64-3.3h-2.14v3.3h-2.43v-10.61Zm4.32,5.39c1.25,0,2.4-.58,2.4-1.71,0-1.22-1.06-1.77-2.33-1.77h-1.96v3.48h1.89Z"/>
              <path class="cls-12" d="m196.81,117.95c1-3.18,3.04-6.66,5.1-8.75h-3.04l.65-1.86h7.59v10.61h-2.43v-2.05h-4.75c-.32.72-.59,1.42-.78,2.05h-2.34Zm4.05-3.91h3.82v-4.91h-.1c-1.34,1.21-2.68,3.04-3.71,4.91Z"/>
              <path class="cls-12" d="m209.65,107.34h2.43v8.67h5.66l-.47,1.95h-7.62v-10.61Z"/>
              <path class="cls-12" d="m221.54,117.95h-2.43v-10.61h2.43v10.61Z"/>
              <path class="cls-12" d="m222.85,117.95c1-3.18,3.04-6.66,5.1-8.75h-3.04l.65-1.86h7.59v10.61h-2.43v-2.05h-4.75c-.32.72-.59,1.42-.78,2.05h-2.34Zm4.05-3.91h3.82v-4.91h-.1c-1.34,1.21-2.68,3.04-3.71,4.91Z"/>
            </g>
            <g>
              <path class="cls-12" d="m38.88,127.95h5.91l11.21,11.41,10.13-11.41h6.29v29.77h-6.82v-17.57l.12-3.14-10.01,11.21-10.5-10.67.08,3.39v16.79h-6.41v-29.77Z"/>
              <path class="cls-12" d="m77.74,143.62c0-9.43,7.69-16.09,17.24-16.09,4.26,0,8.15.87,11,2.03l-1.78,5.29c-1.99-.99-5.04-1.86-8.85-1.86-5.33,0-9.3,2.89-10.54,7.53h15.22l-.7,5.17h-14.6c.91,4.38,5.25,6.99,11.5,6.99,3.27,0,7.11-.91,9.3-1.74l-.66,5.75c-2.07.74-5.71,1.45-8.93,1.45-9.84,0-18.19-5.21-18.19-14.51Z"/>
              <path class="cls-12" d="m111.03,127.95h6.82v24.31h15.88l-1.32,5.46h-21.38v-29.77Z"/>
              <path class="cls-12" d="m137.53,127.95h15.42c5.79,0,10.54,3.27,10.54,7.69,0,2.52-2.56,4.76-4.67,5.71,3.27,1.08,6.53,3.18,6.53,7.44,0,5.83-5.91,8.93-12.28,8.93h-15.55v-29.77Zm13.93,11.83c2.98,0,5.25-1.08,5.25-3.43,0-1.49-2.07-3.02-4.75-3.02h-7.61v6.45h7.11Zm.87,12.57c3.31,0,6.2-1.41,6.2-3.97s-2.77-3.43-6.16-3.43h-8.02v7.4h7.98Z"/>
              <path class="cls-12" d="m168.75,143.09c0-8.89,7.69-15.55,17-15.55s17.08,6.53,17.08,15.42-7.77,15.18-17,15.18-17.08-6.2-17.08-15.05Zm27.04-.12c0-5.91-4.51-9.97-10.09-9.97s-9.92,4.67-9.92,10.09c0,5.91,4.47,9.59,10.05,9.59s9.97-3.97,9.97-9.72Z"/>
              <path class="cls-12" d="m207.74,144.82v-16.87h6.82v16.46c0,4.96,2.69,7.94,7.4,7.94s7.24-2.98,7.24-7.94v-16.46h6.41v16.87c0,8.35-5.79,13.32-13.89,13.32s-13.98-4.96-13.98-13.32Z"/>
              <path class="cls-12" d="m242.31,127.95h13.52c6.08,0,12.36,3.39,12.36,10.13,0,4.34-2.56,7.28-6,8.89l9.18,10.75h-8.85l-7.4-9.26h-6v9.26h-6.82v-29.77Zm12.12,15.13c3.52,0,6.74-1.61,6.74-4.8,0-3.43-2.98-4.96-6.53-4.96h-5.5v9.76h5.29Z"/>
              <path class="cls-12" d="m275.22,127.95h5.75l17.24,19.52v-19.52h6.41v29.77h-5.83l-17.16-19.27v19.27h-6.41v-29.77Z"/>
              <path class="cls-12" d="m309.95,143.62c0-9.43,7.69-16.09,17.24-16.09,4.26,0,8.15.87,11,2.03l-1.78,5.29c-1.99-.99-5.04-1.86-8.85-1.86-5.33,0-9.3,2.89-10.54,7.53h15.22l-.7,5.17h-14.6c.91,4.38,5.25,6.99,11.5,6.99,3.27,0,7.11-.91,9.3-1.74l-.66,5.75c-2.07.74-5.71,1.45-8.93,1.45-9.84,0-18.19-5.21-18.19-14.51Z"/>
            </g>
          </g>
        </g>
      </g>
    </g>
  </g>
</svg>