<?xml version="1.0" encoding="UTF-8"?>
<svg id="Layer_1" data-name="Layer 1" xmlns="http://www.w3.org/2000/svg" xmlns:xlink="http://www.w3.org/1999/xlink" viewBox="0 0 379.78 389">
  <defs>
    <style>
      .cls-1 {
        fill: #fdeb00;
      }

      .cls-1, .cls-2, .cls-3, .cls-4, .cls-5, .cls-6, .cls-7, .cls-8, .cls-9, .cls-10, .cls-11, .cls-12, .cls-13, .cls-14 {
        stroke-width: 0px;
      }

      .cls-15 {
        clip-path: url(#clippath-2);
      }

      .cls-2 {
        fill: #e8cb57;
      }

      .cls-3 {
        fill: #d11c1e;
      }

      .cls-4 {
        fill: #69b4e2;
      }

      .cls-5 {
        fill: none;
      }

      .cls-16 {
        clip-path: url(#clippath-1);
      }

      .cls-17 {
        clip-path: url(#clippath-4);
      }

      .cls-6 {
        fill: #fff;
      }

      .cls-7 {
        fill: #b2cd7f;
      }

      .cls-8 {
        fill: #6dafdb;
      }

      .cls-18 {
        clip-path: url(#clippath);
      }

      .cls-9 {
        fill: #5d3b8b;
      }

      .cls-19 {
        clip-path: url(#clippath-3);
      }

      .cls-10 {
        fill: #c5562d;
      }

      .cls-11 {
        fill: #801625;
      }

      .cls-12 {
        fill: #a3d5ed;
      }

      .cls-13 {
        fill: #01a36e;
      }

      .cls-20 {
        clip-path: url(#clippath-5);
      }

      .cls-14 {
        fill: #f67189;
      }
    </style>
    <clipPath id="clippath">
      <rect class="cls-5" x="171.78" y="61.16" width="167.08" height="270.09" transform="translate(41.74 437.18) rotate(-85.99)"/>
    </clipPath>
    <clipPath id="clippath-1">
      <rect class="cls-5" x="212.95" y="11.34" width="284.86" height="349.26"/>
    </clipPath>
    <clipPath id="clippath-2">
      <rect class="cls-5" x="-23.81" y="175.97" width="301.55" height="183.49"/>
    </clipPath>
    <clipPath id="clippath-3">
      <path class="cls-5" d="m335.68,122.52c-.06-.03-.12-.07-.18-.1v.2c-14.36,7.56-13.28,30.26-13.28,30.26h-9.22v8.75c-30.24,0-31.35,36.76-31.35,36.76h-8.11v10.5h-5.53v60.92l67.5.35h.37l67.49-.35v-60.92h-5.53v-10.5h-8.11s-1.11-36.76-31.35-36.76v-8.75h-9.22s1.08-22.7-13.28-30.26v-.2c-.07.03-.12.07-.19.1"/>
    </clipPath>
    <clipPath id="clippath-4">
      <path class="cls-5" d="m-2.17,123.84c-1.51-.34-3.08.16-4.12,1.31-1.92,1.72-1.95,4.48.54,6.72.87.79,1.91,1.37,3.03,1.7v2.26h-4.38v6.12c-38.33,34.32-14.55,80.46-14.55,80.46v25.34h-31.16v133.9H112.46l-6.83-40.4-.36-20.45c-.48-27.19-26.4-49.1-58.44-49.41l9.37-31.45h-23.7v-17.53s24.22-47.01-15.65-81.42v-5.17h-4.38v-2.26c1.12-.33,2.16-.92,3.03-1.7,2.49-2.23,2.43-4.9.51-6.62-1.14-1.03-2.35-1.83-4.09-1.41-1.87-1.86-4.41-2.88-7.05-2.82-2.64-.06-5.18.96-7.05,2.82"/>
    </clipPath>
    <clipPath id="clippath-5">
      <path class="cls-5" d="m-48.09,416.74s199.48-95.37,203.02-95.58,42.38-10.36,46.46-10.86c4.08-.5,11.13-5.3,13.31-5.73,4.92-.66,9.49-2.94,12.99-6.47,0,0,51.49-31.94,52.57-32.37s9.39-1.45,9.93-2.3-.16-7.53.93-8.39,34.82-19.46,36.17-21.17c.89-1.13,6.35-3.17,9.74-4.36,1.52-.63,2.91-1.55,4.1-2.69.27-.64.54-8.98,2.72-10.69s6.24-4.92,7.06-4.28,13.08,11.83,13.58,12.61c1.23,1.95,12.24,17.71,14.17,20.31.69.92,1.3,13.26,2.39,14.55s9.91,5.12,11.92,5.97c2.72,1.15,7.69.39,10.73,2.14,3.86,2.23,23.35,13.9,23.35,13.9,0,0,34.78,28.83,37.64,30.59,1,.61,111.43,31.57,184.97,50.9,108.94,38.3,183.43,78.66,183.43,78.66l-340.83-2.84H116.69l-164.78-21.9Z"/>
    </clipPath>
  </defs>
  <g id="Mask_Group_24" data-name="Mask Group 24">
    <g id="Group_200" data-name="Group 200">
      <g class="cls-18">
        <g id="Group_185" data-name="Group 185">
          <path id="Path_894" data-name="Path 894" class="cls-13" d="m238.49,207.97s-47.61-36.18-67.04-61.81c0,0,35.37,17.46,56.1,33.64,0,0-26.73-31.82-32.17-40.72,0,0,39.96,21.79,49.56,32.74,0,0-17.12-20.87-18.69-41.83,0,0,33.5,36.46,62.18,64.84,0,0-17.38-29.8-16.46-52.63,17.5,27.36,38.14,52.57,61.51,75.12,0,0-44.91-55.8-54.15-96.33,0,0,24.02,29.97,31.34,41.34,0,0-7.28-22.48-8.58-34.51,0,0,40.07,64.03,76.31,107.52,0,0-27.46-31.92-19.35-69.32,0,0,28.42,57.24,57.01,107.83,0,0-133.97-.66-228.9-37.42,0,0,54.09,5.22,71.74,6.17,0,0-43.47-7.83-106.15-51.87,0,0,42.93,20.55,72.71,25.79,0,0-38.38-17.13-92.03-57.84l105.06,49.27v.02Z"/>
        </g>
      </g>
      <g id="Group_199" data-name="Group 199">
        <g class="cls-16">
          <g id="Group_198" data-name="Group 198">
            <path id="Path_922" data-name="Path 922" class="cls-9" d="m402.72,265.51v-11.36s31.7-1.79,47.84-13.16c0,0-22.13-14.95-50.24-17.94v-10.77c12.62,1,25.22-2.15,35.88-8.97,0,0-20.93-15.55-35.88-16.15v-8.97c9.2-.38,18.2-2.83,26.31-7.18,0,0-11.36-11.96-26.91-13.16v-7.18s14.95-1.2,22.13-7.18c0,0-13.16-11.36-22.13-13.16v-6.58s9.57-1.19,16.75-5.98c0,0-10.77-9.57-17.34-9.57,0,0,8.37-7.18,12.56-11.36,0,0-8.97-9.57-18.54-11.36,0,0,12.56-4.79,15.55-8.37,0,0-10.17-8.37-18.54-9.57,0,0,10.17-2.99,14.35-5.98,0,0-9.57-8.37-16.74-8.97,0,0,7.77-2.99,11.96-5.98,0,0-8.37-10.17-16.15-10.76,0,0,8.97-2.99,13.16-5.98,0,0-9.88-17.38-23.32-18.47v-.07c-.1,0-.2.03-.3.04-.1,0-.2-.03-.3-.04v.07c-13.45,1.09-23.32,18.47-23.32,18.47,4.19,2.99,13.16,5.98,13.16,5.98-7.77.6-16.15,10.76-16.15,10.76,4.19,2.99,11.96,5.98,11.96,5.98-7.18.6-16.74,8.97-16.74,8.97,4.19,2.99,14.35,5.98,14.35,5.98-8.37,1.19-18.54,9.57-18.54,9.57,2.99,3.59,15.55,8.37,15.55,8.37-9.57,1.79-18.54,11.36-18.54,11.36,4.19,4.19,12.56,11.36,12.56,11.36-6.58,0-17.34,9.57-17.34,9.57,7.18,4.79,16.74,5.98,16.74,5.98v6.58c-8.97,1.79-22.13,13.16-22.13,13.16,7.18,5.98,22.13,7.18,22.13,7.18v7.18c-15.55,1.2-26.91,13.16-26.91,13.16,8.12,4.35,17.11,6.8,26.32,7.18v8.97c-14.95.6-35.88,16.15-35.88,16.15,10.66,6.82,23.26,9.97,35.88,8.97v10.77c-28.11,2.99-50.24,17.94-50.24,17.94,16.15,11.37,47.84,13.16,47.84,13.16v11.36c-68.77-1.19-130.57,66.86-130.57,66.86l38.83,21.31,73.8,6.92h95.09v-52.03h53.23l23.92-14.35s-26.31-29.9-95.09-28.71"/>
          </g>
        </g>
      </g>
      <g id="Group_197" data-name="Group 197">
        <g class="cls-15">
          <g id="Group_196" data-name="Group 196">
            <path id="Path_921" data-name="Path 921" class="cls-14" d="m277.74,235.03h-25.51l-.02-12.92h-7.2l-18.87-9.46-19.05,9.66h-6.87v5.99h-9.52v-2.83h3.6l-10.8-10.09-11.81,10.12h3.93v2.75h-14.7l.05,4.61h-15.39l.15-12.89h-30.87v5.86l-11.88.06v-7.06h2.94v-4.26h-3.6v-12.47h2.62v-3.55h-6.87v-8.06h3.6v-4.85h-2.94s.63-9.67-8.11-9.67-8.11,9.67-8.11,9.67h-2.94v4.84h3.6v8.06h-6.87v3.55h2.62v12.47h-3.6v4.27h2.94l-.02,4.41-13.82.28v-18.04H-23.16c.98,0-.65,153.98-.65,153.98l301.55-.97v-123.47h0Z"/>
          </g>
        </g>
      </g>
      <path id="Path_893" data-name="Path 893" class="cls-1" d="m160.52,251.34v7.35h-25.15v28.34h-21.41v-4.5h-3.32v-3.85h-11.86v-9.41h-6.91v3.44h-7.02v3.53h-22.92v-15.07h-21.09v4.77h-18.83v-7.18H-1.79v-.44h-34.08v-3.71h-3.52v3.7l-54.23-.02.19,19.28h-34.11l-.18-19.3h-18.31v-6.93h-16.72v7.35h-25.15v28.34h-21.41v-4.5h-2.31v101.31H321.47v-125.51l-91.82-.03.19,19.28h-34.12l-.17-19.3h-18.31v-6.93h-16.72Z"/>
      <g id="Group_40" data-name="Group 40">
        <path id="Path_69" data-name="Path 69" class="cls-10" d="m403.38,208.89h-5.53v-10.5h-8.11s-1.11-36.76-31.35-36.76v-8.75h-9.22s1.08-22.7-13.28-30.26v-.2c-.07.03-.12.07-.18.1-.06-.03-.12-.07-.18-.1v.2c-14.36,7.55-13.28,30.26-13.28,30.26h-9.22v8.75c-30.24,0-31.35,36.76-31.35,36.76h-8.11v10.5h-5.53v60.92l67.5.35h.37l67.49-.35v-60.92h-.02Z"/>
        <g id="Group_39" data-name="Group 39">
          <g class="cls-19">
            <g id="Group_38" data-name="Group 38">
              <path id="Path_70" data-name="Path 70" class="cls-2" d="m310.06,204.71l3.87,3.67h5.47v5.19l3.86,3.67-3.86,3.67v5.19h-5.47l-3.87,3.67-3.86-3.67h-5.47v-5.19l-3.87-3.67,3.87-3.67v-5.19h5.47l3.86-3.67Z"/>
              <path id="Path_71" data-name="Path 71" class="cls-2" d="m323.26,224.58l1.6,1.52h2.26v2.15l1.6,1.52-1.6,1.52v2.15h-2.26l-1.6,1.52-1.6-1.52h-2.26v-2.15l-1.6-1.52,1.6-1.52v-2.15h2.26l1.6-1.52Z"/>
              <path id="Path_72" data-name="Path 72" class="cls-2" d="m336.46,204.71l3.87,3.67h5.46v5.19l3.87,3.67-3.87,3.67v5.19h-5.46l-3.87,3.67-3.86-3.67h-5.47v-5.19l-3.87-3.67,3.87-3.67v-5.19h5.47l3.86-3.67Z"/>
              <path id="Path_73" data-name="Path 73" class="cls-2" d="m349.66,224.58l1.6,1.52h2.26v2.15l1.6,1.52-1.6,1.52v2.15h-2.26l-1.6,1.52-1.6-1.52h-2.26v-2.15l-1.6-1.52,1.6-1.52v-2.15h2.26l1.6-1.52Z"/>
              <path id="Path_74" data-name="Path 74" class="cls-2" d="m362.86,204.71l3.86,3.67h5.47v5.19l3.87,3.67-3.87,3.67v5.19h-5.47l-3.86,3.67-3.87-3.67h-5.47v-5.19l-3.87-3.67,3.87-3.67v-5.19h5.47l3.87-3.67Z"/>
              <path id="Path_75" data-name="Path 75" class="cls-2" d="m376.05,224.58l1.6,1.52h2.26v2.15l1.6,1.52-1.6,1.52v2.15h-2.26l-1.6,1.52-1.6-1.52h-2.26v-2.15l-1.6-1.52,1.6-1.52v-2.15h2.26l1.6-1.52Z"/>
              <path id="Path_76" data-name="Path 76" class="cls-2" d="m389.25,204.71l3.87,3.67h5.47v5.19l3.86,3.67-3.86,3.67v5.19h-5.47l-3.87,3.67-3.86-3.67h-5.47v-5.19l-3.87-3.67,3.87-3.67v-5.19h5.47l3.86-3.67Z"/>
              <path id="Path_78" data-name="Path 78" class="cls-2" d="m310.06,229.76l3.87,3.67h5.47v5.19l3.86,3.67-3.86,3.67v5.19h-5.47l-3.87,3.67-3.86-3.67h-5.47v-5.19l-3.87-3.67,3.87-3.67v-5.19h5.47l3.86-3.67Z"/>
              <path id="Path_79" data-name="Path 79" class="cls-2" d="m323.26,249.64l1.6,1.52h2.26v2.15l1.6,1.52-1.6,1.52v2.15h-2.26l-1.6,1.52-1.6-1.52h-2.26v-2.15l-1.6-1.52,1.6-1.52v-2.15h2.26l1.6-1.52Z"/>
              <path id="Path_80" data-name="Path 80" class="cls-2" d="m336.46,229.76l3.87,3.67h5.46v5.19l3.87,3.67-3.87,3.67v5.19h-5.46l-3.87,3.67-3.86-3.67h-5.47v-5.19l-3.87-3.67,3.87-3.67v-5.19h5.47l3.86-3.67Z"/>
              <path id="Path_81" data-name="Path 81" class="cls-2" d="m349.66,249.64l1.6,1.52h2.26v2.15l1.6,1.52-1.6,1.52v2.15h-2.26l-1.6,1.52-1.6-1.52h-2.26v-2.15l-1.6-1.52,1.6-1.52v-2.15h2.26l1.6-1.52Z"/>
              <path id="Path_82" data-name="Path 82" class="cls-2" d="m362.86,229.76l3.86,3.67h5.47v5.19l3.87,3.67-3.87,3.67v5.19h-5.47l-3.86,3.67-3.87-3.67h-5.47v-5.19l-3.87-3.67,3.87-3.67v-5.19h5.47l3.87-3.67Z"/>
              <path id="Path_83" data-name="Path 83" class="cls-2" d="m376.05,249.64l1.6,1.52h2.26v2.15l1.6,1.52-1.6,1.52v2.15h-2.26l-1.6,1.52-1.6-1.52h-2.26v-2.15l-1.6-1.52,1.6-1.52v-2.15h2.26l1.6-1.52Z"/>
              <path id="Path_84" data-name="Path 84" class="cls-2" d="m389.25,229.76l3.87,3.67h5.47v5.19l3.86,3.67-3.86,3.67v5.19h-5.47l-3.87,3.67-3.86-3.67h-5.47v-5.19l-3.87-3.67,3.87-3.67v-5.19h5.47l3.86-3.67Z"/>
              <path id="Path_86" data-name="Path 86" class="cls-2" d="m310.06,254.82l3.87,3.67h5.47v5.19l3.86,3.67-3.86,3.67v5.19h-5.47l-3.87,3.67-3.86-3.67h-5.47v-5.19l-3.87-3.67,3.87-3.67v-5.19h5.47l3.86-3.67h0Z"/>
              <path id="Path_87" data-name="Path 87" class="cls-2" d="m336.46,254.82l3.87,3.67h5.46v5.19l3.87,3.67-3.87,3.67v5.19h-5.46l-3.87,3.67-3.86-3.67h-5.47v-5.19l-3.87-3.67,3.87-3.67v-5.19h5.47l3.86-3.67h0Z"/>
              <path id="Path_88" data-name="Path 88" class="cls-2" d="m362.86,254.82l3.86,3.67h5.47v5.19l3.87,3.67-3.87,3.67v5.19h-5.47l-3.86,3.67-3.87-3.67h-5.47v-5.19l-3.87-3.67,3.87-3.67v-5.19h5.47l3.87-3.67h0Z"/>
              <path id="Path_89" data-name="Path 89" class="cls-2" d="m389.25,254.82l3.87,3.67h5.47v5.19l3.86,3.67-3.86,3.67v5.19h-5.47l-3.87,3.67-3.86-3.67h-5.47v-5.19l-3.87-3.67,3.87-3.67v-5.19h5.47l3.86-3.67h0Z"/>
              <path id="Path_90" data-name="Path 90" class="cls-2" d="m309.92,104.45l3.87,3.67h5.47v5.19l3.86,3.67-3.86,3.67v5.19h-5.47l-3.87,3.67-3.86-3.67h-5.47v-5.19l-3.87-3.67,3.87-3.67v-5.19h5.47l3.86-3.67Z"/>
              <path id="Path_91" data-name="Path 91" class="cls-2" d="m323.12,124.32l1.6,1.52h2.26v2.15l1.6,1.52-1.6,1.52v2.15h-2.26l-1.6,1.52-1.6-1.52h-2.26v-2.15l-1.6-1.52,1.6-1.52v-2.15h2.26l1.6-1.52Z"/>
              <path id="Path_92" data-name="Path 92" class="cls-2" d="m336.32,104.45l3.87,3.67h5.47v5.19l3.87,3.67-3.87,3.67v5.19h-5.47l-3.87,3.67-3.87-3.67h-5.46v-5.19l-3.87-3.67,3.87-3.67v-5.19h5.46l3.87-3.67Z"/>
              <path id="Path_93" data-name="Path 93" class="cls-2" d="m349.51,124.32l1.6,1.52h2.26v2.15l1.6,1.52-1.6,1.52v2.15h-2.26l-1.6,1.52-1.6-1.52h-2.26v-2.15l-1.6-1.52,1.6-1.52v-2.15h2.26l1.6-1.52Z"/>
              <path id="Path_94" data-name="Path 94" class="cls-2" d="m362.72,104.45l3.86,3.67h5.47v5.19l3.87,3.67-3.87,3.67v5.19h-5.47l-3.86,3.67-3.87-3.67h-5.47v-5.19l-3.86-3.67,3.86-3.67v-5.19h5.47l3.87-3.67Z"/>
              <path id="Path_95" data-name="Path 95" class="cls-2" d="m375.91,124.32l1.6,1.52h2.26v2.15l1.6,1.52-1.6,1.52v2.15h-2.26l-1.6,1.52-1.6-1.52h-2.26v-2.15l-1.6-1.52,1.6-1.52v-2.15h2.26l1.6-1.52Z"/>
              <path id="Path_96" data-name="Path 96" class="cls-2" d="m389.11,104.45l3.87,3.67h5.47v5.19l3.87,3.67-3.87,3.67v5.19h-5.47l-3.87,3.67-3.86-3.67h-5.47v-5.19l-3.87-3.67,3.87-3.67v-5.19h5.47l3.86-3.67Z"/>
              <path id="Path_98" data-name="Path 98" class="cls-2" d="m309.92,129.5l3.87,3.67h5.47v5.19l3.86,3.67-3.86,3.67v5.19h-5.47l-3.87,3.67-3.86-3.67h-5.47v-5.19l-3.87-3.67,3.87-3.67v-5.19h5.47l3.86-3.67Z"/>
              <path id="Path_99" data-name="Path 99" class="cls-2" d="m323.12,149.38l1.6,1.52h2.26v2.15l1.6,1.52-1.6,1.52v2.15h-2.26l-1.6,1.52-1.6-1.52h-2.26v-2.15l-1.6-1.52,1.6-1.52v-2.14h2.26l1.6-1.52h0Z"/>
              <path id="Path_100" data-name="Path 100" class="cls-2" d="m336.32,129.5l3.87,3.67h5.47v5.19l3.87,3.67-3.87,3.67v5.19h-5.47l-3.87,3.67-3.87-3.67h-5.46v-5.19l-3.87-3.67,3.87-3.67v-5.19h5.46l3.87-3.67Z"/>
              <path id="Path_101" data-name="Path 101" class="cls-2" d="m349.51,149.38l1.6,1.52h2.26v2.15l1.6,1.52-1.6,1.52v2.15h-2.26l-1.6,1.52-1.6-1.52h-2.26v-2.15l-1.6-1.52,1.6-1.52v-2.14h2.26l1.6-1.52h0Z"/>
              <path id="Path_102" data-name="Path 102" class="cls-2" d="m362.72,129.5l3.86,3.67h5.47v5.19l3.87,3.67-3.87,3.67v5.19h-5.47l-3.86,3.67-3.87-3.67h-5.47v-5.19l-3.86-3.67,3.86-3.67v-5.19h5.47l3.87-3.68h0Z"/>
              <path id="Path_103" data-name="Path 103" class="cls-2" d="m375.91,149.38l1.6,1.52h2.26v2.15l1.6,1.52-1.6,1.52v2.15h-2.26l-1.6,1.52-1.6-1.52h-2.26v-2.15l-1.6-1.52,1.6-1.52v-2.14h2.26l1.6-1.52h0Z"/>
              <path id="Path_104" data-name="Path 104" class="cls-2" d="m389.11,129.5l3.87,3.67h5.47v5.19l3.87,3.67-3.87,3.67v5.19h-5.47l-3.87,3.67-3.86-3.67h-5.47v-5.19l-3.87-3.67,3.87-3.67v-5.19h5.47l3.86-3.67Z"/>
              <path id="Path_106" data-name="Path 106" class="cls-2" d="m309.92,154.56l3.87,3.67h5.47v5.19l3.86,3.67-3.86,3.67v5.19h-5.47l-3.87,3.67-3.86-3.67h-5.47v-5.19l-3.87-3.67,3.87-3.67v-5.19h5.47l3.86-3.67Z"/>
              <path id="Path_107" data-name="Path 107" class="cls-2" d="m323.12,174.43l1.6,1.52h2.26v2.15l1.6,1.52-1.6,1.52v2.15h-2.26l-1.6,1.52-1.6-1.52h-2.26v-2.15l-1.6-1.52,1.6-1.52v-2.15h2.26l1.6-1.52Z"/>
              <path id="Path_108" data-name="Path 108" class="cls-2" d="m336.32,154.56l3.87,3.67h5.47v5.19l3.87,3.67-3.87,3.67v5.19h-5.47l-3.87,3.67-3.87-3.67h-5.46v-5.19l-3.87-3.67,3.87-3.67v-5.19h5.46l3.87-3.67Z"/>
              <path id="Path_109" data-name="Path 109" class="cls-2" d="m349.51,174.43l1.6,1.52h2.26v2.15l1.6,1.52-1.6,1.52v2.15h-2.26l-1.6,1.52-1.6-1.52h-2.26v-2.15l-1.6-1.52,1.6-1.52v-2.15h2.26l1.6-1.52Z"/>
              <path id="Path_110" data-name="Path 110" class="cls-2" d="m362.72,154.56l3.86,3.67h5.47v5.19l3.87,3.67-3.87,3.67v5.19h-5.47l-3.86,3.67-3.87-3.67h-5.47v-5.19l-3.86-3.67,3.86-3.67v-5.19h5.47l3.87-3.67Z"/>
              <path id="Path_111" data-name="Path 111" class="cls-2" d="m375.91,174.43l1.6,1.52h2.26v2.15l1.6,1.52-1.6,1.52v2.15h-2.26l-1.6,1.52-1.6-1.52h-2.26v-2.15l-1.6-1.52,1.6-1.52v-2.15h2.26l1.6-1.52Z"/>
              <path id="Path_112" data-name="Path 112" class="cls-2" d="m389.11,154.56l3.87,3.67h5.47v5.19l3.87,3.67-3.87,3.67v5.19h-5.47l-3.87,3.67-3.86-3.67h-5.47v-5.19l-3.87-3.67,3.87-3.67v-5.19h5.47l3.86-3.67Z"/>
              <path id="Path_114" data-name="Path 114" class="cls-2" d="m309.92,179.62l3.87,3.67h5.47v5.19l3.86,3.67-3.86,3.67v5.19h-5.47l-3.87,3.67-3.86-3.67h-5.47v-5.19l-3.87-3.67,3.87-3.67v-5.19h5.47l3.86-3.67Z"/>
              <path id="Path_115" data-name="Path 115" class="cls-2" d="m323.12,199.49l1.6,1.52h2.26v2.15l1.6,1.52-1.6,1.52v2.15h-2.26l-1.6,1.52-1.6-1.52h-2.26v-2.15l-1.6-1.52,1.6-1.52v-2.15h2.26l1.6-1.52Z"/>
              <path id="Path_116" data-name="Path 116" class="cls-2" d="m284.13,204.71l3.86,3.67h5.47v5.19l3.87,3.67-3.87,3.67v5.19h-5.47l-3.86,3.67-3.87-3.67h-5.46v-5.19l-3.87-3.67,3.87-3.67v-5.19h5.46l3.87-3.67Z"/>
              <path id="Path_117" data-name="Path 117" class="cls-2" d="m297.33,224.58l1.6,1.52h2.26v2.15l1.6,1.52-1.6,1.52v2.15h-2.26l-1.6,1.52-1.6-1.52h-2.26v-2.15l-1.6-1.52,1.6-1.52v-2.15h2.26l1.6-1.52Z"/>
              <path id="Path_118" data-name="Path 118" class="cls-2" d="m284.13,229.76l3.86,3.67h5.47v5.19l3.87,3.67-3.87,3.67v5.19h-5.47l-3.86,3.67-3.87-3.67h-5.46v-5.19l-3.87-3.67,3.87-3.67v-5.19h5.46l3.87-3.67Z"/>
              <path id="Path_119" data-name="Path 119" class="cls-2" d="m297.33,249.64l1.6,1.52h2.26v2.15l1.6,1.52-1.6,1.52v2.15h-2.26l-1.6,1.52-1.6-1.52h-2.26v-2.15l-1.6-1.52,1.6-1.52v-2.15h2.26l1.6-1.52Z"/>
              <path id="Path_120" data-name="Path 120" class="cls-2" d="m284.13,254.82l3.86,3.67h5.47v5.19l3.87,3.67-3.87,3.67v5.19h-5.47l-3.86,3.67-3.87-3.67h-5.46v-5.19l-3.87-3.67,3.87-3.67v-5.19h5.46l3.87-3.67h0Z"/>
              <path id="Path_121" data-name="Path 121" class="cls-2" d="m283.98,154.56l3.86,3.67h5.47v5.19l3.87,3.67-3.87,3.67v5.19h-5.47l-3.86,3.67-3.87-3.67h-5.47v-5.19l-3.86-3.67,3.86-3.67v-5.19h5.47l3.87-3.67Z"/>
              <path id="Path_122" data-name="Path 122" class="cls-2" d="m297.18,174.43l1.6,1.52h2.26v2.15l1.6,1.52-1.6,1.52v2.15h-2.26l-1.6,1.52-1.6-1.52h-2.26v-2.15l-1.6-1.52,1.6-1.52v-2.15h2.26l1.61-1.52h0Z"/>
              <path id="Path_123" data-name="Path 123" class="cls-2" d="m283.98,179.62l3.86,3.67h5.47v5.19l3.87,3.67-3.87,3.67v5.19h-5.47l-3.86,3.67-3.87-3.67h-5.47v-5.19l-3.86-3.67,3.86-3.67v-5.19h5.47l3.87-3.67Z"/>
              <path id="Path_124" data-name="Path 124" class="cls-2" d="m297.18,199.49l1.6,1.52h2.26v2.15l1.6,1.52-1.6,1.52v2.15h-2.26l-1.6,1.52-1.6-1.52h-2.26v-2.15l-1.6-1.52,1.6-1.52v-2.15h2.26l1.61-1.52h0Z"/>
              <path id="Path_125" data-name="Path 125" class="cls-2" d="m257.44,204.71l3.87,3.67h5.46v5.19l3.87,3.67-3.87,3.67v5.19h-5.47l-3.87,3.67-3.87-3.67h-5.46v-5.19l-3.87-3.67,3.87-3.67v-5.19h5.46l3.87-3.67h.01Z"/>
              <path id="Path_126" data-name="Path 126" class="cls-2" d="m270.64,224.58l1.6,1.52h2.26v2.15l1.6,1.52-1.6,1.52v2.15h-2.26l-1.6,1.52-1.6-1.52h-2.26v-2.15l-1.6-1.52,1.6-1.52v-2.15h2.26l1.6-1.52Z"/>
              <path id="Path_127" data-name="Path 127" class="cls-2" d="m257.44,229.76l3.87,3.67h5.46v5.19l3.87,3.67-3.87,3.67v5.19h-5.47l-3.87,3.67-3.87-3.67h-5.46v-5.19l-3.87-3.67,3.87-3.67v-5.19h5.46l3.87-3.67h.01Z"/>
              <path id="Path_128" data-name="Path 128" class="cls-2" d="m270.64,249.64l1.6,1.52h2.26v2.15l1.6,1.52-1.6,1.52v2.15h-2.26l-1.6,1.52-1.6-1.52h-2.26v-2.15l-1.6-1.52,1.6-1.52v-2.15h2.26l1.6-1.52Z"/>
              <path id="Path_129" data-name="Path 129" class="cls-2" d="m257.44,254.82l3.87,3.67h5.46v5.19l3.87,3.67-3.87,3.67v5.19h-5.47l-3.87,3.67-3.87-3.67h-5.46v-5.19l-3.87-3.67,3.87-3.67v-5.19h5.46l3.87-3.67h.01Z"/>
              <path id="Path_130" data-name="Path 130" class="cls-2" d="m257.29,154.56l3.86,3.67h5.47v5.19l3.87,3.67-3.87,3.67v5.19h-5.47l-3.86,3.67-3.87-3.67h-5.46v-5.19l-3.87-3.67,3.87-3.67v-5.19h5.46l3.87-3.67Z"/>
              <path id="Path_131" data-name="Path 131" class="cls-2" d="m270.49,174.43l1.6,1.52h2.26v2.15l1.6,1.52-1.6,1.52v2.15h-2.26l-1.6,1.52-1.6-1.52h-2.26v-2.15l-1.6-1.52,1.6-1.52v-2.15h2.26l1.6-1.52Z"/>
              <path id="Path_132" data-name="Path 132" class="cls-2" d="m257.29,179.62l3.86,3.67h5.47v5.19l3.87,3.67-3.87,3.67v5.19h-5.47l-3.86,3.67-3.87-3.67h-5.46v-5.19l-3.87-3.67,3.87-3.67v-5.19h5.46l3.87-3.67Z"/>
              <path id="Path_133" data-name="Path 133" class="cls-2" d="m270.49,199.49l1.6,1.52h2.26v2.15l1.6,1.52-1.6,1.52v2.15h-2.26l-1.6,1.52-1.6-1.52h-2.26v-2.15l-1.6-1.52,1.6-1.52v-2.15h2.26l1.6-1.52Z"/>
              <path id="Path_134" data-name="Path 134" class="cls-2" d="m336.32,179.62l3.87,3.67h5.47v5.19l3.87,3.67-3.87,3.67v5.19h-5.47l-3.87,3.67-3.87-3.67h-5.46v-5.19l-3.87-3.67,3.87-3.67v-5.19h5.46l3.87-3.67Z"/>
              <path id="Path_135" data-name="Path 135" class="cls-2" d="m349.51,199.49l1.6,1.52h2.26v2.15l1.6,1.52-1.6,1.52v2.15h-2.26l-1.6,1.52-1.6-1.52h-2.26v-2.15l-1.6-1.52,1.6-1.52v-2.15h2.26l1.6-1.52Z"/>
              <path id="Path_136" data-name="Path 136" class="cls-2" d="m362.72,179.62l3.86,3.67h5.47v5.19l3.87,3.67-3.87,3.67v5.19h-5.47l-3.86,3.67-3.87-3.67h-5.47v-5.19l-3.86-3.67,3.86-3.67v-5.19h5.47l3.87-3.67Z"/>
              <path id="Path_137" data-name="Path 137" class="cls-2" d="m375.91,199.49l1.6,1.52h2.26v2.15l1.6,1.52-1.6,1.52v2.15h-2.26l-1.6,1.52-1.6-1.52h-2.26v-2.15l-1.6-1.52,1.6-1.52v-2.15h2.26l1.6-1.52Z"/>
              <path id="Path_138" data-name="Path 138" class="cls-2" d="m389.11,179.62l3.87,3.67h5.47v5.19l3.87,3.67-3.87,3.67v5.19h-5.47l-3.87,3.67-3.86-3.67h-5.47v-5.19l-3.87-3.67,3.87-3.67v-5.19h5.47l3.86-3.67Z"/>
            </g>
          </g>
        </g>
      </g>
      <g id="Group_37" data-name="Group 37">
        <g id="Group_34" data-name="Group 34">
          <path id="Path_65" data-name="Path 65" class="cls-11" d="m105.63,341.26l-.36-20.45c-.48-27.19-26.4-49.1-58.44-49.41l9.37-31.45h-23.7v-17.53s24.22-47.01-15.65-81.42v-5.17h-4.38v-2.26c1.12-.34,2.16-.92,3.03-1.7,2.49-2.23,2.43-4.9.51-6.62-1.14-1.03-2.35-1.83-4.09-1.41-1.87-1.86-4.41-2.88-7.05-2.82-2.63-.06-5.18.96-7.05,2.82-1.51-.34-3.08.16-4.12,1.31-1.92,1.72-1.95,4.48.54,6.72.87.78,1.91,1.36,3.03,1.7v2.26h-4.38v6.13c-38.33,34.32-14.55,80.46-14.55,80.46v25.33h-31.15v133.9H112.46l-6.83-40.4h0Z"/>
        </g>
        <g id="Group_36" data-name="Group 36">
          <g class="cls-17">
            <g id="Group_35" data-name="Group 35">
              <rect id="Rectangle_23" data-name="Rectangle 23" class="cls-3" x="-85.36" y="120.84" width="215.5" height="13.5"/>
              <rect id="Rectangle_24" data-name="Rectangle 24" class="cls-3" x="-85.36" y="150.14" width="215.5" height="13.5"/>
              <rect id="Rectangle_25" data-name="Rectangle 25" class="cls-3" x="-85.36" y="179.44" width="215.5" height="13.5"/>
              <rect id="Rectangle_26" data-name="Rectangle 26" class="cls-3" x="-85.36" y="208.74" width="215.5" height="13.5"/>
              <rect id="Rectangle_27" data-name="Rectangle 27" class="cls-3" x="-85.36" y="238.05" width="215.5" height="13.5"/>
              <rect id="Rectangle_28" data-name="Rectangle 28" class="cls-3" x="-85.36" y="238.08" width="215.5" height="13.5"/>
              <rect id="Rectangle_29" data-name="Rectangle 29" class="cls-3" x="-85.36" y="267.38" width="215.5" height="13.5"/>
              <rect id="Rectangle_30" data-name="Rectangle 30" class="cls-3" x="-85.36" y="296.68" width="215.5" height="13.5"/>
              <rect id="Rectangle_31" data-name="Rectangle 31" class="cls-3" x="-85.36" y="325.99" width="215.5" height="13.5"/>
              <rect id="Rectangle_32" data-name="Rectangle 32" class="cls-3" x="-85.36" y="355.29" width="215.5" height="13.5"/>
            </g>
          </g>
        </g>
      </g>
      <path id="Path_141" data-name="Path 141" class="cls-7" d="m82.37,262.48c7.91-.44,24.61,4.81,24.61,4.81-17.58-14.44-28.13-13.57-28.13-13.57,8.35-5.25,26.37-5.69,26.37-5.69-16.7-9.19-26.81-3.94-26.81-3.94l7.47-13.57c-8.67.64-16.66,4.93-21.98,11.82-1.66-11.19-7.26-23.53-7.85-24.82v-.13s-.03.04-.04.06l-.02-.06v.13c-.6,1.28-6.2,13.63-7.86,24.82-5.31-6.88-13.3-11.18-21.98-11.82l7.47,13.57s-10.11-5.25-26.81,3.94c0,0,18.02.44,26.37,5.69,0,0-10.55-.88-28.13,13.57,0,0,16.7-5.25,24.61-4.81,0,0-15.82,7.88-20.21,19.69l19.78-6.57c-5.23,5.27-8.36,12.28-8.79,19.69,0,0,20.18-8.41,33.47-22.53v84.8h4.2v-84.81c13.29,14.13,33.48,22.54,33.48,22.54-.43-7.42-3.56-14.42-8.79-19.69l19.78,6.57c-4.4-11.82-20.22-19.69-20.22-19.69"/>
      <g id="Mask_Group_1" data-name="Mask Group 1">
        <g id="Group_33" data-name="Group 33">
          <g id="Group_28" data-name="Group 28">
            <g class="cls-20">
              <g id="Group_27" data-name="Group 27">
                <rect id="Rectangle_19" data-name="Rectangle 19" class="cls-6" x="-358.53" y="-12.17" width="1440.4" height="700.06"/>
                <path id="Path_55" data-name="Path 55" class="cls-8" d="m274.58,273.35s3.8,19.4,4.89,22.18c1.09,2.78,7.75,3.05,12.64,2.63s4.74,5.77-7.48,7.27c-7.32.9-45.12,2.59-45.12,2.59l18.78-32.1,16.29-2.56h0Z"/>
                <path id="Path_56" data-name="Path 56" class="cls-4" d="m351.2,211.97c-5.97-4.3-12.49-8.15-10.32-14.14,2.17-5.99,1.27-18.1-5.54-15.54-4.19,1.58-16.73,15.54-16.73,15.54-.14,2.23.36,4.46,1.45,6.42,3.29,6.12,2.56,17.8,3.26,25.22.24,2.61-3.58.92-3.26,3.29l-28.95,13.62-26.95,7.34-144.03,47.83s66.32,15.13,84.38,15c24.63-.17,78.87,13.28,64.69-.73-17.85-17.65,82.9,1.63,106.79-30.85,7.72-10.49-35.58-21.16-44.8-26.91-12.8-7.98-.42-21.66,8.42-26.52,17.33-9.52,14.91-17.18,11.59-19.58h0Z"/>
              </g>
            </g>
          </g>
          <rect id="Rectangle_20" data-name="Rectangle 20" class="cls-5" x="77.55" y="223.42" width="506.54" height="341.17"/>
          <g id="Group_32" data-name="Group 32">
            <g id="Group_31" data-name="Group 31">
              <g id="Group_29" data-name="Group 29">
                <path id="Path_58" data-name="Path 58" class="cls-6" d="m1037.11,539.08l-296.71-181.85-49.34,19.75-22.06-19.75-63.27-40.87-338.42,222.72-69.66-52.44v59.83h839.45v-7.4h.01Z"/>
                <path id="Path_60" data-name="Path 60" class="cls-6" d="m691.06,376.98l74.88,98.18-99.22-82.18-185.42,102.2,23.19-31.21-167.5,22.89,95.25-56.56,173.32-113.72,61.84,37.03,23.67,23.38h-.01Z"/>
              </g>
              <g id="Group_30" data-name="Group 30">
                <path id="Path_62" data-name="Path 62" class="cls-6" d="m-267.56,494.7L-48.79,360.61l36.38,14.56,16.26-14.56,46.65-30.13,249.53,164.21,78.19-3.21,101.3,135.68H-267.56v-132.47h0Z"/>
                <path id="Path_63" data-name="Path 63" class="cls-6" d="m-12.41,375.18l21,3.7,27.44,47.05,76.67,43.35-21.64-56.34,223.64,83.49-125.07-81.95-138.99-83.84-45.59,27.3-17.45,17.24h0Z"/>
                <path id="Path_64" data-name="Path 64" class="cls-12" d="m40.71,354.04l43.87,29.89-30.96-34.98,15.4,9.54-17.17-20.86s-11.14,16.41-11.14,16.41Z"/>
              </g>
            </g>
          </g>
        </g>
      </g>
    </g>
  </g>
</svg>