<?xml version="1.0" encoding="UTF-8"?>
<svg id="OUTLINED" xmlns="http://www.w3.org/2000/svg" xmlns:xlink="http://www.w3.org/1999/xlink" viewBox="0 0 375 250">
  <defs>
    <style>
      .cls-1 {
        clip-path: url(#clippath-4);
      }

      .cls-1, .cls-2, .cls-3, .cls-4, .cls-5, .cls-6, .cls-7, .cls-8, .cls-9, .cls-10 {
        fill: none;
      }

      .cls-2 {
        clip-path: url(#clippath-2);
      }

      .cls-11 {
        fill: #fff;
      }

      .cls-3 {
        clip-path: url(#clippath-6);
      }

      .cls-12 {
        fill: #d9252a;
      }

      .cls-13 {
        fill: #fcee10;
      }

      .cls-14 {
        fill: #f05078;
      }

      .cls-15 {
        fill: #fdb515;
      }

      .cls-4 {
        clip-path: url(#clippath-5);
      }

      .cls-5 {
        stroke-width: .75px;
      }

      .cls-5, .cls-8 {
        stroke: #ef3654;
        stroke-miterlimit: 10;
      }

      .cls-16 {
        fill: #f696ae;
      }

      .cls-17 {
        fill: #7e1828;
      }

      .cls-6 {
        clip-path: url(#clippath-3);
      }

      .cls-9 {
        clip-path: url(#clippath);
      }

      .cls-10 {
        clip-path: url(#clippath-1);
      }
    </style>
    <clipPath id="clippath">
      <rect class="cls-7" width="375" height="250"/>
    </clipPath>
    <clipPath id="clippath-1">
      <path class="cls-16" d="m310.69-32.95c-28.01,0-50.71,18.72-50.71,41.81,0,19.93,19.04,49.2,40.41,69.27h20.6c21.37-20.07,40.41-49.35,40.41-69.27,0-23.09-22.71-41.81-50.71-41.81Z"/>
    </clipPath>
    <clipPath id="clippath-2">
      <path class="cls-12" d="m121.77,19.09c-15.43,0-27.93,10.31-27.93,23.03,0,10.97,10.49,27.1,22.26,38.16h11.35c11.77-11.05,22.26-27.18,22.26-38.16,0-12.72-12.51-23.03-27.93-23.03Z"/>
    </clipPath>
    <clipPath id="clippath-3">
      <path class="cls-12" d="m44.46,50.89c-11.36,0-20.56,7.59-20.56,16.95,0,8.08,7.72,19.95,16.39,28.09h8.35c8.67-8.14,16.39-20.01,16.39-28.09,0-9.36-9.21-16.95-20.56-16.95Z"/>
    </clipPath>
    <clipPath id="clippath-4">
      <rect class="cls-7" x="-.11" y="57.46" width="375.8" height="192.91"/>
    </clipPath>
    <clipPath id="clippath-5">
      <polygon class="cls-7" points="183.49 202.51 183.49 206.05 167.62 206.05 167.62 219.72 154.11 219.72 154.11 217.55 152.02 217.55 152.02 215.7 144.54 215.7 144.54 211.16 140.18 211.16 140.18 212.82 135.75 212.82 135.75 214.52 121.28 214.52 121.28 207.25 107.98 207.25 107.98 209.55 96.1 209.55 96.1 206.09 88.27 206.09 88.27 205.88 86.19 205.87 86.19 196.88 73.9 196.88 73.9 205.87 39.68 205.86 39.8 213.85 2.46 213.84 2.35 205.85 -9.92 205.85 -9.92 196.61 -27.66 196.61 -27.66 206.05 -36.34 206.05 -36.34 219.72 -49.85 219.72 -49.85 217.55 -51.3 217.55 -51.3 266.4 285.04 266.4 285.04 205.88 227.11 205.86 227.23 215.16 205.7 215.16 205.59 205.85 194.04 205.85 194.04 202.51 183.49 202.51"/>
    </clipPath>
    <clipPath id="clippath-6">
      <polygon class="cls-7" points="-25.24 268.09 285.74 260.81 285.74 69.41 -20.52 69.41 -25.24 268.09"/>
    </clipPath>
  </defs>
  <g id="Headers_OUTLINED" data-name="Headers OUTLINED">
    <g class="cls-9">
      <rect class="cls-12" x="0" width="375" height="251.86"/>
      <path class="cls-16" d="m186.91,62.09c-9.16,0-18.37.26-27.61.75C91.81,66.44,3.66,96.45-14.91,103v123.61h404.81v-108.95c-64.72-40.44-132.73-55.57-203-55.57"/>
      <g>
        <polyline class="cls-8" points="300.38 77.14 307.42 88.38 310.69 88.38"/>
        <polyline class="cls-8" points="320.99 77.14 313.95 88.38 310.69 88.38"/>
        <polyline class="cls-8" points="304.38 95.62 307.42 88.38 310.69 88.38"/>
        <polyline class="cls-8" points="316.99 95.62 313.95 88.38 310.69 88.38"/>
        <rect class="cls-12" x="303.01" y="95.13" width="15.35" height="12.28"/>
        <rect class="cls-14" x="303.01" y="93.8" width="15.35" height="1.82"/>
        <g>
          <path class="cls-16" d="m310.69-32.95c-28.01,0-50.71,18.72-50.71,41.81,0,19.93,19.04,49.2,40.41,69.27h20.6c21.37-20.07,40.41-49.35,40.41-69.27,0-23.09-22.71-41.81-50.71-41.81Z"/>
          <g class="cls-10">
            <g>
              <path class="cls-12" d="m645.09,4.51c-4.83-3-9.66-5.99-14.48-9-8.65-5.38-14.53-5.2-22.88.83-2.59,1.87-5.07,3.89-7.61,5.84-10.67,8.21-17.41,8.17-28.25,0-2.87-2.16-5.87-4.17-8.97-6-5.55-3.27-11.26-3.44-16.62.32-4.32,3.04-8.34,6.5-12.51,9.75-8.47,6.6-14.61,6.87-23.49.96-2.83-1.89-5.56-3.92-8.35-5.87-9.46-6.63-16.56-6.31-25.49,1.05-3.54,2.92-7.08,5.87-10.83,8.51-5.58,3.93-11.56,4.1-17.42.63-4.21-2.49-8.18-5.37-12.29-8.02-9.09-5.87-15.5-5.57-24.05,1.13-3.46,2.71-6.81,5.57-10.35,8.18-6.29,4.64-12.86,4.88-19.49.69-4.14-2.61-8.21-5.32-12.31-8-7.28-4.75-14.41-4.6-21.34.7-3.42,2.61-6.74,5.34-10.18,7.91-8.32,6.2-13.96,6.49-22.79,1.1-3.58-2.18-7.03-4.57-10.53-6.89-7.74-5.13-15.19-4.5-22.42,1.04-3.41,2.61-6.72,5.37-10.22,7.84-8.04,5.69-15.12,5.56-23.19-.19-3.42-2.43-6.82-4.91-10.35-7.17-6.52-4.17-13.02-3.95-19.22.69-3.35,2.51-6.49,5.32-9.78,7.92-3.93,3.1-7.89,5.99-13.31,6-4.69.01-8.37-2.26-12.06-4.61-2.19-1.4-4.21-3.07-6.35-4.54-4.4-3.01-8.91-5.75-14.57-5.79l-.27-6.7c3.25,1.06,6.31,1.59,8.88,3,4.01,2.21,7.75,4.94,11.51,7.58,9.95,6.97,16.9,6.67,26.16-1.18,3.12-2.65,6.26-5.3,9.53-7.76,6.18-4.65,12.65-4.92,19.18-.74,3.2,2.05,6.35,4.18,9.41,6.44,9.36,6.92,16.78,6.83,26.08-.34,3.8-2.93,7.54-5.96,11.55-8.56,5.16-3.35,10.78-3.59,16.18-.6,4.62,2.56,8.96,5.63,13.47,8.39,8.62,5.27,14.83,5,22.9-1.05,3.52-2.64,6.86-5.5,10.4-8.11,6.77-5.01,13.76-5.25,20.86-.62,3.93,2.56,7.87,5.11,11.78,7.69,7.34,4.84,14.44,4.32,21.3-.95,3.64-2.79,7.23-5.67,10.82-8.54,6.97-5.57,14.16-5.58,21.5-.8,4.01,2.62,7.92,5.4,11.96,7.98,6.79,4.35,13.51,4.31,19.98-.67,3.96-3.04,7.77-6.28,11.77-9.26,7.61-5.66,13.14-5.86,21.18-.83,3.13,1.96,6.11,4.17,9.18,6.23,10.85,7.31,17.26,6.83,27.07-1.75,3.22-2.82,6.61-5.5,10.13-7.94,5.47-3.81,11.23-3.71,16.84-.31,3.76,2.28,7.38,4.79,10.96,7.33,8.83,6.26,15.6,6.3,24.35-.09,3.71-2.71,7.29-5.59,11.01-8.28,6.35-4.59,12.96-4.67,19.59-.68,4.11,2.47,8.04,5.23,12.12,7.75,1.22.76,2.68,1.14,4.03,1.7l.27,6.62Z"/>
              <path class="cls-12" d="m645.58,16.54c-4.83-3-9.66-5.99-14.48-9-8.53-5.31-14.56-5.18-22.66.62-2.68,1.92-5.21,4.03-7.82,6.04-10.67,8.21-17.4,8.17-28.25.01-2.87-2.16-5.87-4.17-8.97-5.99-5.55-3.27-11.27-3.45-16.62.31-4.32,3.04-8.34,6.5-12.51,9.76-8.45,6.59-14.62,6.86-23.49.96-2.83-1.88-5.56-3.92-8.35-5.87-9.45-6.63-16.57-6.3-25.49,1.05-3.54,2.92-7.08,5.88-10.83,8.52-5.58,3.93-11.56,4.1-17.42.64-4.21-2.49-8.18-5.37-12.29-8.03-9.09-5.87-15.5-5.57-24.05,1.13-3.46,2.71-6.81,5.57-10.35,8.18-6.29,4.64-12.86,4.88-19.49.69-4.14-2.61-8.21-5.32-12.31-8-7.28-4.75-14.41-4.6-21.34.7-3.42,2.61-6.74,5.34-10.18,7.91-8.31,6.19-13.98,6.48-22.79,1.1-3.58-2.18-7.04-4.57-10.53-6.89-7.74-5.14-15.19-4.5-22.42,1.04-3.41,2.61-6.72,5.37-10.22,7.84-8.04,5.69-15.12,5.56-23.19-.19-3.42-2.43-6.82-4.91-10.35-7.17-6.52-4.17-13.02-3.96-19.22.69-3.35,2.51-6.49,5.32-9.78,7.92-3.93,3.1-7.89,5.99-13.31,6-4.69.01-8.37-2.27-12.06-4.62-2.19-1.4-4.21-3.07-6.36-4.54-4.4-3.01-8.91-5.75-14.57-5.79l-.27-6.71c3.25,1.06,6.31,1.59,8.88,3.01,4.01,2.2,7.75,4.94,11.51,7.58,9.95,6.97,16.9,6.67,26.16-1.18,3.12-2.65,6.26-5.29,9.53-7.76,6.18-4.65,12.65-4.92,19.18-.74,3.2,2.04,6.35,4.18,9.41,6.44,9.37,6.92,16.77,6.84,26.08-.34,3.8-2.93,7.53-5.96,11.55-8.56,5.16-3.35,10.78-3.59,16.18-.6,4.62,2.56,8.96,5.63,13.47,8.39,8.62,5.27,14.83,4.99,22.9-1.05,3.52-2.63,6.86-5.5,10.4-8.11,6.77-5.01,13.76-5.25,20.86-.62,3.93,2.56,7.87,5.11,11.78,7.69,7.34,4.84,14.44,4.31,21.31-.94,3.64-2.8,7.23-5.67,10.82-8.54,6.97-5.57,14.16-5.58,21.5-.8,4.01,2.62,7.92,5.4,11.96,7.98,6.78,4.35,13.51,4.31,19.98-.67,3.96-3.04,7.77-6.28,11.77-9.26,7.63-5.67,13.13-5.87,21.18-.83,3.13,1.96,6.11,4.17,9.18,6.23,10.86,7.31,17.26,6.83,27.07-1.75,3.23-2.82,6.61-5.5,10.13-7.94,5.46-3.81,11.23-3.71,16.84-.31,3.76,2.28,7.38,4.79,10.96,7.34,8.83,6.26,15.6,6.3,24.35-.09,3.71-2.71,7.29-5.59,11.01-8.28,6.35-4.59,12.96-4.67,19.59-.68,4.11,2.47,8.04,5.23,12.12,7.75,1.22.76,2.68,1.14,4.03,1.7l.27,6.62Z"/>
              <path class="cls-12" d="m647.05,52.65c-4.83-3-9.66-5.99-14.48-9-8.65-5.38-14.54-5.19-22.88.83-2.59,1.87-5.07,3.89-7.61,5.84-10.56,8.13-17.43,8.14-28.02.21-2.96-2.21-6.02-4.31-9.19-6.19-5.55-3.28-11.26-3.45-16.62.31-4.32,3.04-8.34,6.5-12.51,9.75-8.57,6.68-14.64,6.89-23.73.78-2.74-1.84-5.4-3.79-8.1-5.69-9.45-6.62-16.58-6.3-25.49,1.05-3.54,2.92-7.08,5.87-10.83,8.52-5.59,3.93-11.56,4.1-17.42.64-4.21-2.49-8.18-5.37-12.29-8.03-9.09-5.87-15.5-5.57-24.05,1.13-3.46,2.71-6.81,5.57-10.35,8.18-6.29,4.64-12.86,4.88-19.49.69-4.14-2.61-8.21-5.32-12.31-8-7.28-4.75-14.41-4.6-21.34.7-3.41,2.61-6.73,5.34-10.18,7.91-8.31,6.19-13.98,6.48-22.79,1.1-3.58-2.18-7.04-4.57-10.53-6.89-7.74-5.14-15.19-4.5-22.42,1.04-3.41,2.61-6.72,5.37-10.22,7.84-8.04,5.69-15.13,5.56-23.19-.19-3.42-2.44-6.82-4.91-10.35-7.17-6.52-4.17-13.02-3.95-19.22.69-3.35,2.51-6.49,5.32-9.78,7.92-3.92,3.1-7.89,5.99-13.31,6-4.69.01-8.38-2.26-12.06-4.61-2.27-1.45-4.37-3.18-6.6-4.71-4.32-2.95-8.79-5.57-14.32-5.63l-.27-6.7c3.25,1.06,6.3,1.59,8.88,3,4.01,2.21,7.75,4.94,11.51,7.58,9.95,6.97,16.89,6.67,26.16-1.18,3.12-2.65,6.26-5.29,9.53-7.75,6.18-4.65,12.65-4.92,19.18-.74,3.2,2.04,6.35,4.18,9.4,6.44,9.38,6.92,16.79,6.84,26.08-.33,3.8-2.93,7.54-5.96,11.55-8.56,5.16-3.35,10.78-3.59,16.18-.6,4.62,2.56,8.96,5.63,13.47,8.39,8.63,5.28,14.83,5,22.9-1.05,3.52-2.64,6.87-5.5,10.4-8.11,6.77-5.02,13.76-5.25,20.86-.62,3.93,2.56,7.87,5.11,11.78,7.69,7.34,4.84,14.44,4.32,21.31-.94,3.64-2.8,7.23-5.67,10.82-8.54,6.97-5.57,14.16-5.58,21.5-.8,4.01,2.62,7.92,5.4,11.96,7.98,6.79,4.35,13.51,4.31,19.98-.67,3.96-3.04,7.77-6.28,11.77-9.26,7.62-5.67,13.12-5.87,21.18-.83,3.13,1.96,6.11,4.17,9.18,6.23,10.86,7.31,17.25,6.84,27.07-1.75,3.23-2.82,6.61-5.49,10.13-7.94,5.47-3.81,11.23-3.71,16.84-.31,3.76,2.28,7.38,4.79,10.96,7.34,8.83,6.26,15.61,6.3,24.35-.09,3.71-2.71,7.29-5.59,11.01-8.28,6.35-4.59,12.96-4.67,19.59-.68,4.11,2.47,8.04,5.23,12.12,7.75,1.23.76,2.68,1.14,4.03,1.7l.27,6.62Z"/>
              <path class="cls-12" d="m644.11-19.57c-4.83-3-9.66-5.99-14.48-9-8.65-5.38-14.53-5.19-22.88.83-2.59,1.87-5.07,3.89-7.61,5.84-10.68,8.22-17.39,8.18-28.25,0-2.87-2.16-5.87-4.17-8.97-6-5.55-3.27-11.27-3.44-16.62.32-4.32,3.04-8.34,6.5-12.51,9.76-8.46,6.6-14.62,6.87-23.49.96-2.83-1.89-5.56-3.92-8.35-5.87-9.45-6.62-16.58-6.3-25.49,1.05-3.54,2.92-7.08,5.88-10.83,8.52-5.58,3.93-11.56,4.1-17.42.63-4.21-2.49-8.18-5.37-12.29-8.02-9.1-5.87-15.5-5.57-24.05,1.13-3.46,2.71-6.81,5.58-10.35,8.18-6.29,4.64-12.86,4.89-19.5.69-4.22-2.67-8.37-5.45-12.56-8.16-6.98-4.49-13.9-4.42-20.62.48-3.63,2.65-7.04,5.59-10.65,8.28-8.31,6.2-13.97,6.49-22.79,1.1-3.58-2.18-7.03-4.57-10.53-6.89-7.74-5.13-15.19-4.5-22.42,1.04-3.41,2.62-6.72,5.37-10.22,7.85-8.04,5.69-15.11,5.56-23.19-.19-3.42-2.43-6.82-4.91-10.35-7.17-6.52-4.17-13.02-3.95-19.21.69-3.36,2.51-6.49,5.32-9.78,7.92-3.92,3.1-7.89,5.99-13.31,6.01-4.69.01-8.37-2.26-12.06-4.61-2.19-1.4-4.2-3.08-6.36-4.53-4.41-2.98-8.89-5.82-14.57-5.75l-.27-6.75c3.25,1.06,6.3,1.59,8.88,3,4.01,2.21,7.75,4.94,11.51,7.58,9.95,6.97,16.9,6.67,26.16-1.18,3.12-2.65,6.26-5.29,9.53-7.76,6.18-4.65,12.65-4.92,19.18-.74,3.2,2.04,6.35,4.18,9.41,6.44,9.37,6.92,16.78,6.84,26.08-.33,3.8-2.93,7.54-5.96,11.55-8.56,5.16-3.35,10.78-3.59,16.18-.6,4.62,2.56,8.96,5.63,13.47,8.39,8.63,5.27,14.83,4.99,22.9-1.05,3.52-2.63,6.86-5.5,10.4-8.11,6.77-5.02,13.76-5.25,20.86-.63,3.93,2.56,7.87,5.11,11.78,7.69,7.34,4.84,14.44,4.32,21.31-.94,3.64-2.79,7.23-5.67,10.82-8.54,6.98-5.57,14.16-5.58,21.5-.8,4.01,2.62,7.92,5.4,11.96,7.98,6.79,4.35,13.51,4.31,19.98-.67,3.96-3.04,7.77-6.28,11.77-9.26,7.62-5.66,13.15-5.86,21.18-.83,3.13,1.96,6.11,4.17,9.18,6.23,10.86,7.31,17.26,6.83,27.07-1.75,3.23-2.82,6.61-5.49,10.13-7.94,5.47-3.81,11.23-3.71,16.84-.31,3.76,2.28,7.38,4.79,10.96,7.34,8.83,6.27,15.58,6.3,24.35-.09,3.71-2.7,7.29-5.59,11.01-8.28,6.35-4.59,12.96-4.67,19.59-.68,4.11,2.47,8.04,5.23,12.12,7.75,1.22.76,2.68,1.14,4.03,1.7l.27,6.62Z"/>
              <path class="cls-12" d="m644.6-7.53c-4.83-3-9.66-5.99-14.48-9-8.65-5.38-14.52-5.2-22.87.83-2.59,1.87-5.07,3.88-7.61,5.83-10.67,8.21-17.4,8.17-28.25.01-2.87-2.16-5.87-4.17-8.97-5.99-5.55-3.27-11.26-3.45-16.62.32-4.32,3.04-8.34,6.5-12.51,9.76-8.47,6.61-14.61,6.87-23.49.96-2.83-1.89-5.56-3.92-8.35-5.87-9.45-6.63-16.57-6.3-25.49,1.06-3.54,2.92-7.08,5.88-10.83,8.51-5.58,3.93-11.56,4.1-17.42.63-4.21-2.49-8.18-5.37-12.29-8.02-9.11-5.87-15.5-5.57-24.05,1.13-3.46,2.71-6.81,5.57-10.35,8.18-6.29,4.64-12.86,4.88-19.49.69-4.14-2.61-8.21-5.32-12.31-8-7.28-4.75-14.41-4.6-21.34.7-3.41,2.61-6.73,5.34-10.18,7.9-8.31,6.19-13.97,6.48-22.79,1.1-3.58-2.18-7.03-4.57-10.53-6.89-7.74-5.13-15.19-4.5-22.42,1.04-3.41,2.62-6.72,5.37-10.22,7.85-8.05,5.69-15.12,5.56-23.19-.19-3.42-2.44-6.82-4.91-10.35-7.17-6.52-4.17-13.02-3.95-19.21.69-3.36,2.51-6.49,5.32-9.78,7.92-3.92,3.1-7.89,5.99-13.31,6.01-4.69.01-8.37-2.26-12.06-4.61-2.19-1.39-4.21-3.07-6.35-4.54-4.4-3.01-8.92-5.75-14.57-5.79l-.27-6.71c3.25,1.06,6.31,1.59,8.88,3,4.01,2.21,7.75,4.94,11.51,7.58,9.95,6.97,16.89,6.67,26.16-1.18,3.13-2.65,6.26-5.29,9.53-7.76,6.18-4.65,12.65-4.92,19.18-.74,3.2,2.05,6.35,4.18,9.41,6.44,9.36,6.92,16.76,6.84,26.08-.34,3.8-2.92,7.54-5.96,11.55-8.56,5.16-3.35,10.78-3.59,16.18-.6,4.62,2.56,8.96,5.63,13.47,8.39,8.62,5.27,14.83,4.99,22.9-1.05,3.52-2.64,6.86-5.5,10.4-8.11,6.77-5.01,13.76-5.25,20.86-.62,3.93,2.56,7.87,5.11,11.78,7.69,7.34,4.84,14.44,4.32,21.31-.95,3.64-2.79,7.13-5.8,10.84-8.51,7.69-5.62,13.4-5.83,21.47-.81,4.07,2.53,7.93,5.38,11.96,7.97,6.79,4.35,13.51,4.31,19.98-.67,3.96-3.04,7.77-6.28,11.77-9.26,7.62-5.66,13.13-5.86,21.18-.83,3.13,1.96,6.11,4.17,9.18,6.23,10.86,7.31,17.27,6.83,27.07-1.75,3.22-2.82,6.61-5.5,10.13-7.94,5.47-3.81,11.23-3.71,16.84-.31,3.76,2.28,7.38,4.79,10.96,7.33,8.83,6.26,15.6,6.3,24.35-.09,3.71-2.71,7.29-5.59,11.01-8.28,6.35-4.59,12.96-4.67,19.59-.68,4.11,2.47,8.04,5.23,12.12,7.75,1.22.76,2.68,1.14,4.03,1.7l.27,6.62Z"/>
              <path class="cls-12" d="m646.56,40.62c-4.83-3-9.66-6-14.48-9-8.66-5.38-14.52-5.2-22.88.83-2.59,1.87-5.07,3.89-7.61,5.84-10.66,8.21-17.42,8.16-28.25,0-2.87-2.16-5.87-4.17-8.97-5.99-5.55-3.27-11.26-3.44-16.62.32-4.32,3.04-8.34,6.5-12.51,9.76-8.46,6.6-14.62,6.86-23.49.96-2.83-1.89-5.56-3.92-8.34-5.87-9.45-6.63-16.57-6.3-25.49,1.06-3.54,2.92-7.08,5.88-10.83,8.51-5.58,3.93-11.56,4.1-17.42.63-4.21-2.49-8.18-5.37-12.29-8.02-9.09-5.87-15.49-5.56-24.05,1.14-3.46,2.71-6.81,5.57-10.35,8.18-6.29,4.64-12.86,4.88-19.49.69-4.22-2.67-8.36-5.45-12.56-8.16-6.98-4.49-13.91-4.42-20.62.49-3.63,2.65-7.04,5.59-10.64,8.28-8.31,6.2-13.97,6.48-22.79,1.1-3.58-2.18-7.03-4.58-10.53-6.89-7.73-5.13-15.19-4.5-22.42,1.05-3.41,2.62-6.72,5.37-10.22,7.85-8.04,5.69-15.12,5.55-23.19-.19-3.42-2.44-6.82-4.91-10.35-7.17-6.52-4.17-13.02-3.95-19.22.69-3.35,2.51-6.49,5.32-9.78,7.92-3.93,3.1-7.89,5.99-13.31,6-4.69.01-8.37-2.27-12.06-4.62-2.19-1.4-4.21-3.07-6.36-4.54-4.4-3.01-8.91-5.75-14.57-5.79l-.27-6.71c3.25,1.06,6.31,1.59,8.88,3.01,4.01,2.2,7.75,4.94,11.51,7.58,9.95,6.97,16.89,6.67,26.16-1.18,3.13-2.65,6.26-5.29,9.53-7.76,6.18-4.65,12.65-4.92,19.18-.74,3.2,2.04,6.35,4.18,9.4,6.44,9.36,6.92,16.77,6.83,26.08-.34,3.8-2.93,7.54-5.96,11.55-8.56,5.16-3.35,10.78-3.59,16.18-.59,4.62,2.56,8.96,5.63,13.47,8.39,8.62,5.27,14.83,5,22.9-1.05,3.52-2.63,6.86-5.5,10.4-8.11,6.77-5.02,13.76-5.24,20.86-.62,3.93,2.56,7.87,5.11,11.78,7.69,7.34,4.84,14.44,4.31,21.31-.95,3.64-2.79,7.23-5.67,10.82-8.54,6.98-5.57,14.16-5.58,21.5-.8,4.01,2.62,7.92,5.4,11.96,7.98,6.79,4.35,13.51,4.31,19.98-.67,3.96-3.04,7.77-6.28,11.77-9.26,7.62-5.66,13.14-5.86,21.18-.83,3.13,1.96,6.11,4.17,9.19,6.23,10.85,7.31,17.25,6.83,27.07-1.75,3.23-2.82,6.61-5.49,10.13-7.94,5.47-3.81,11.23-3.71,16.84-.31,3.76,2.28,7.38,4.79,10.96,7.33,8.83,6.26,15.58,6.3,24.35-.09,3.71-2.7,7.29-5.59,11.01-8.28,6.35-4.59,12.96-4.67,19.59-.68,4.11,2.47,8.04,5.23,12.12,7.75,1.22.76,2.68,1.14,4.03,1.7l.27,6.62Z"/>
              <path class="cls-12" d="m647.54,64.69c-4.83-3-9.66-5.99-14.48-9-8.65-5.38-14.55-5.19-22.88.83-2.59,1.87-5.07,3.89-7.61,5.84-10.67,8.21-17.42,8.17-28.25,0-2.87-2.16-5.87-4.17-8.97-6-5.55-3.27-11.26-3.44-16.62.32-4.32,3.04-8.34,6.5-12.51,9.75-8.57,6.68-14.64,6.89-23.73.78-2.74-1.84-5.4-3.8-8.1-5.69-9.46-6.63-16.57-6.31-25.49,1.05-3.54,2.92-7.08,5.87-10.83,8.51-5.58,3.93-11.56,4.1-17.42.64-4.21-2.49-8.18-5.37-12.29-8.03-9.09-5.87-15.5-5.57-24.05,1.13-3.46,2.71-6.81,5.57-10.35,8.18-6.29,4.64-12.86,4.89-19.49.69-4.13-2.61-8.21-5.32-12.31-8-7.28-4.75-14.41-4.6-21.34.69-3.42,2.61-6.73,5.34-10.18,7.91-8.32,6.2-13.97,6.48-22.79,1.1-3.58-2.18-7.03-4.57-10.53-6.89-7.74-5.13-15.19-4.51-22.42,1.04-3.41,2.62-6.72,5.37-10.22,7.85-8.05,5.69-15.12,5.56-23.19-.19-3.42-2.44-6.82-4.91-10.35-7.17-6.52-4.17-13.02-3.96-19.21.68-3.36,2.51-6.49,5.32-9.78,7.92-3.92,3.1-7.89,5.99-13.31,6.01-4.69.01-8.37-2.26-12.06-4.61-2.19-1.4-4.21-3.07-6.36-4.54-4.4-3.01-8.91-5.76-14.57-5.79l-.27-6.71c3.25,1.06,6.3,1.59,8.88,3,4.01,2.21,7.75,4.94,11.51,7.58,9.94,6.97,16.9,6.67,26.16-1.18,3.12-2.65,6.26-5.3,9.53-7.76,6.18-4.65,12.65-4.92,19.18-.74,3.2,2.05,6.35,4.18,9.41,6.44,9.37,6.92,16.78,6.83,26.08-.34,3.79-2.93,7.53-5.96,11.55-8.56,5.16-3.35,10.78-3.59,16.18-.6,4.62,2.56,8.96,5.63,13.47,8.39,8.62,5.27,14.84,5,22.9-1.05,3.52-2.64,6.86-5.5,10.4-8.11,6.77-5.01,13.76-5.25,20.86-.62,3.93,2.56,7.87,5.11,11.78,7.69,7.34,4.84,14.44,4.31,21.31-.95,3.65-2.79,7.23-5.67,10.82-8.54,6.98-5.57,14.16-5.58,21.5-.8,4.01,2.62,7.92,5.4,11.96,7.98,6.79,4.35,13.51,4.31,19.98-.67,3.96-3.04,7.77-6.28,11.77-9.26,7.62-5.66,13.13-5.87,21.18-.83,3.13,1.96,6.11,4.17,9.18,6.23,10.85,7.31,17.26,6.83,27.07-1.75,3.22-2.82,6.61-5.49,10.13-7.94,5.47-3.81,11.23-3.71,16.84-.31,3.76,2.28,7.38,4.79,10.96,7.33,8.83,6.26,15.6,6.3,24.35-.09,3.71-2.71,7.29-5.59,11.01-8.28,6.35-4.59,12.96-4.67,19.59-.68,4.11,2.47,8.04,5.23,12.12,7.75,1.23.76,2.68,1.14,4.03,1.7l.27,6.62Z"/>
              <path class="cls-12" d="m646.07,28.58c-4.83-3-9.66-5.99-14.48-9-8.65-5.38-14.52-5.19-22.88.83-2.59,1.87-5.07,3.89-7.6,5.84-10.67,8.2-17.42,8.16-28.25.01-2.87-2.16-5.87-4.17-8.97-6-5.55-3.27-11.26-3.45-16.62.31-4.32,3.04-8.34,6.5-12.51,9.76-8.46,6.6-14.61,6.87-23.49.96-2.83-1.89-5.56-3.92-8.35-5.87-9.45-6.63-16.55-6.31-25.49,1.05-3.55,2.92-7.08,5.88-10.83,8.52-5.58,3.93-11.56,4.1-17.42.64-4.21-2.49-8.18-5.37-12.29-8.03-9.1-5.87-15.5-5.57-24.05,1.13-3.46,2.71-6.81,5.57-10.35,8.18-6.29,4.64-12.86,4.88-19.49.69-4.14-2.61-8.21-5.32-12.31-7.99-7.28-4.75-14.41-4.6-21.34.7-3.41,2.61-6.73,5.34-10.18,7.91-8.31,6.19-13.98,6.48-22.79,1.1-3.58-2.18-7.03-4.57-10.53-6.89-7.74-5.13-15.19-4.5-22.42,1.05-3.41,2.62-6.72,5.37-10.22,7.85-8.04,5.69-15.12,5.56-23.19-.19-3.42-2.44-6.82-4.91-10.35-7.17-6.52-4.17-13.02-3.95-19.22.69-3.35,2.51-6.49,5.32-9.78,7.92-3.93,3.1-7.89,5.99-13.31,6-4.69.01-8.37-2.26-12.06-4.61-2.19-1.4-4.2-3.08-6.36-4.54-4.41-2.98-8.89-5.82-14.57-5.75l-.27-6.75c3.25,1.06,6.31,1.59,8.88,3,4.01,2.21,7.75,4.94,11.51,7.58,9.96,6.97,16.9,6.67,26.16-1.18,3.12-2.65,6.26-5.29,9.53-7.76,6.18-4.65,12.65-4.92,19.18-.74,3.2,2.04,6.35,4.18,9.41,6.44,9.36,6.92,16.78,6.84,26.08-.33,3.8-2.93,7.53-5.96,11.55-8.56,5.16-3.35,10.78-3.59,16.18-.6,4.62,2.56,8.96,5.63,13.47,8.39,8.62,5.27,14.83,5,22.9-1.05,3.52-2.64,6.87-5.5,10.4-8.11,6.77-5.02,13.76-5.25,20.86-.62,3.93,2.56,7.87,5.11,11.78,7.69,7.34,4.84,14.44,4.32,21.31-.94,3.64-2.79,7.13-5.8,10.83-8.51,7.69-5.62,13.4-5.83,21.47-.81,4.07,2.53,7.93,5.38,11.97,7.97,6.79,4.35,13.51,4.31,19.98-.67,3.96-3.04,7.77-6.28,11.77-9.26,7.61-5.66,13.14-5.86,21.18-.83,3.13,1.96,6.11,4.17,9.18,6.23,10.86,7.31,17.26,6.83,27.07-1.75,3.23-2.82,6.61-5.49,10.13-7.94,5.47-3.81,11.23-3.71,16.84-.31,3.76,2.28,7.38,4.79,10.96,7.33,8.83,6.26,15.59,6.3,24.35-.09,3.71-2.71,7.29-5.59,11.01-8.28,6.35-4.59,12.96-4.67,19.59-.68,4.11,2.47,8.04,5.23,12.12,7.75,1.22.76,2.68,1.14,4.03,1.7l.27,6.62Z"/>
            </g>
          </g>
        </g>
      </g>
      <g>
        <polyline class="cls-8" points="116.09 79.73 119.97 85.92 121.77 85.92"/>
        <polyline class="cls-8" points="127.44 79.73 123.57 85.92 121.77 85.92"/>
        <polyline class="cls-8" points="118.3 89.91 119.97 85.92 121.77 85.92"/>
        <polyline class="cls-8" points="125.24 89.91 123.57 85.92 121.77 85.92"/>
        <rect class="cls-14" x="117.54" y="89.64" width="8.46" height="6.76"/>
        <rect class="cls-14" x="117.54" y="88.91" width="8.46" height="1"/>
        <g>
          <path class="cls-12" d="m121.77,19.09c-15.43,0-27.93,10.31-27.93,23.03,0,10.97,10.49,27.1,22.26,38.16h11.35c11.77-11.05,22.26-27.18,22.26-38.16,0-12.72-12.51-23.03-27.93-23.03Z"/>
          <g class="cls-2">
            <g>
              <path class="cls-16" d="m276.05,11.08c0,4.96-4.55,5.6-5.63,5.6-1.19,0-5.71-.9-5.71-5.56s-3.73-5.9-5.82-5.9c-2.23,0-5.71,1.86-5.71,5.86,0,4.96-4.55,5.6-5.63,5.6-1.19,0-5.71-.9-5.71-5.56s-3.67-5.87-5.77-5.89h0s0,0-.02,0c0,0-.02,0-.03,0-.98,0-2.27.37-3.37,1.19-.95.66-1.81,1.7-2.12,3.31-.11.49-.18,1.03-.18,1.62v.58c-.48,4.19-4.57,4.75-5.58,4.75-1.19,0-5.71-.9-5.71-5.56s-3.73-5.9-5.82-5.9c-2.23,0-5.71,1.86-5.71,5.86,0,4.96-4.55,5.6-5.63,5.6-1.19,0-5.71-.9-5.71-5.56s-3.73-5.9-5.82-5.9h0s-.02,0-.02,0c-.81,0-1.83.26-2.77.81-1.43.76-2.88,2.22-2.88,5.05,0,4.96-4.55,5.6-5.63,5.6-1.19,0-5.71-.9-5.71-5.56s-3.73-5.9-5.82-5.9c-2.23,0-5.71,1.86-5.71,5.86,0,4.96-4.55,5.6-5.63,5.6-1.19,0-5.71-.9-5.71-5.56s-3.67-5.87-5.77-5.89h0s0,0-.02,0c-.01,0-.02,0-.03,0-.98,0-2.27.37-3.37,1.19-.95.66-1.81,1.7-2.12,3.31-.11.49-.18,1.03-.18,1.62v.58c-.48,4.19-4.57,4.75-5.58,4.75-1.19,0-5.71-.9-5.71-5.56s-3.73-5.9-5.82-5.9c-2.23,0-5.71,1.86-5.71,5.86,0,4.96-4.55,5.6-5.63,5.6-1.19,0-5.71-.9-5.71-5.56s-3.73-5.9-5.82-5.9-5.67,1.68-5.67,6.12l.04,5.22s.56-5.67,5.67-5.67,5.79,5.19,5.79,5.75.37,5.64,5.63,5.64,5.78-4.89,5.78-5.45c0-1.73,1.59-5.93,5.67-5.93,5.22,0,5.78,5.19,5.78,5.75s.37,5.64,5.64,5.64,5.78-4.89,5.78-5.45c0-.95.33-2.44,1.2-3.69,0-.01.02-.02.02-.03.09-.13.19-.26.3-.39.04-.05.08-.09.12-.13.06-.07.14-.15.21-.22.13-.13.26-.25.41-.37,0,0,0,0,.01-.01.81-.64,1.88-1.09,3.32-1.09,5.23,0,5.79,5.19,5.79,5.75s.37,5.64,5.64,5.64,5.78-4.89,5.78-5.45c0-1.73,1.59-5.93,5.67-5.93,5.22,0,5.78,5.19,5.78,5.75s.37,5.64,5.63,5.64,5.78-4.89,5.78-5.45c0-.28.03-.62.1-.98.34-1.52,1.56-4.96,5.54-4.96,5.22,0,5.78,5.19,5.78,5.75s.37,5.64,5.64,5.64,5.78-4.89,5.78-5.45c0-1.73,1.59-5.93,5.67-5.93,5.23,0,5.79,5.19,5.79,5.75s.37,5.64,5.63,5.64,5.78-4.89,5.78-5.45c0-.95.33-2.44,1.2-3.69,0-.01.02-.02.02-.03.09-.13.19-.26.3-.39.04-.05.08-.09.12-.13.07-.07.14-.15.21-.22.13-.13.26-.25.41-.37,0,0,0,0,.01-.01.81-.64,1.88-1.09,3.32-1.09,5.22,0,5.78,5.19,5.78,5.75s.37,5.64,5.63,5.64,5.79-4.89,5.79-5.45c0-1.73,1.59-5.93,5.67-5.93,5.22,0,5.78,5.19,5.78,5.75s.37,5.64,5.64,5.64,5.78-4.89,5.78-5.45c0-1.9,1.34-5.97,5.6-5.97v-5.63h0s-5.67.26-5.67,5.86"/>
              <path class="cls-16" d="m276.05-.45c0,4.96-4.55,5.6-5.63,5.6-1.19,0-5.71-.9-5.71-5.56s-3.73-5.9-5.82-5.9c-2.23,0-5.71,1.86-5.71,5.86,0,4.96-4.55,5.6-5.63,5.6-1.19,0-5.71-.9-5.71-5.56s-3.67-5.87-5.77-5.89h0s0,0-.02,0c0,0-.02,0-.03,0-.98,0-2.27.37-3.37,1.19-.95.66-1.81,1.7-2.12,3.31-.11.5-.18,1.03-.18,1.62V.4c-.48,4.19-4.57,4.75-5.58,4.75-1.19,0-5.71-.9-5.71-5.56s-3.73-5.9-5.82-5.9c-2.23,0-5.71,1.86-5.71,5.86,0,4.96-4.55,5.6-5.63,5.6-1.19,0-5.71-.9-5.71-5.56s-3.73-5.9-5.82-5.9c0,0,0,0,0,0h0s-.02,0-.02,0c-.81,0-1.83.26-2.77.81-1.43.76-2.88,2.22-2.88,5.05,0,4.96-4.55,5.6-5.63,5.6-1.19,0-5.71-.9-5.71-5.56s-3.73-5.9-5.82-5.9c-2.23,0-5.71,1.86-5.71,5.86,0,4.96-4.55,5.6-5.63,5.6-1.19,0-5.71-.9-5.71-5.56s-3.67-5.87-5.77-5.89h0s0,0-.02,0c-.01,0-.02,0-.03,0-.98,0-2.27.37-3.37,1.19-.95.66-1.81,1.7-2.12,3.31-.11.5-.18,1.03-.18,1.62V.4c-.48,4.19-4.57,4.75-5.58,4.75-1.19,0-5.71-.9-5.71-5.56s-3.73-5.9-5.82-5.9c-2.23,0-5.71,1.86-5.71,5.86,0,4.96-4.55,5.6-5.63,5.6-1.19,0-5.71-.9-5.71-5.56s-3.73-5.9-5.82-5.9-5.67,1.68-5.67,6.12l.04,5.22s.56-5.67,5.67-5.67,5.79,5.19,5.79,5.75.37,5.64,5.63,5.64,5.78-4.89,5.78-5.45c0-1.72,1.59-5.93,5.67-5.93,5.22,0,5.78,5.19,5.78,5.75s.37,5.64,5.64,5.64,5.78-4.89,5.78-5.45c0-.95.33-2.43,1.2-3.69,0-.01.02-.02.02-.03.09-.13.19-.26.3-.39.04-.04.08-.09.12-.13.06-.07.14-.15.21-.22.13-.13.26-.25.41-.37,0,0,.01,0,.02-.01.81-.64,1.88-1.09,3.32-1.09,5.23,0,5.79,5.19,5.79,5.75s.37,5.64,5.64,5.64,5.78-4.89,5.78-5.45c0-1.72,1.59-5.93,5.67-5.93,5.22,0,5.78,5.19,5.78,5.75s.37,5.64,5.63,5.64,5.78-4.89,5.78-5.45c0-.28.03-.62.1-.98.34-1.52,1.56-4.96,5.54-4.96,5.22,0,5.78,5.19,5.78,5.75s.37,5.64,5.64,5.64,5.78-4.89,5.78-5.45c0-1.72,1.59-5.93,5.67-5.93,5.23,0,5.79,5.19,5.79,5.75s.37,5.64,5.63,5.64,5.78-4.89,5.78-5.45c0-.95.33-2.43,1.2-3.69,0-.01.02-.02.02-.03.09-.13.19-.26.3-.39.04-.04.08-.09.12-.13.07-.07.14-.15.21-.22.13-.13.26-.25.41-.37,0,0,.01,0,.02-.01.81-.64,1.88-1.09,3.32-1.09,5.22,0,5.78,5.19,5.78,5.75s.37,5.64,5.63,5.64,5.79-4.89,5.79-5.45c0-1.72,1.59-5.93,5.67-5.93,5.22,0,5.78,5.19,5.78,5.75s.37,5.64,5.64,5.64,5.78-4.89,5.78-5.45c0-1.9,1.34-5.97,5.6-5.97v-5.63s-5.67.26-5.67,5.86"/>
              <path class="cls-16" d="m276.05,45.66c0,4.96-4.55,5.6-5.63,5.6-1.19,0-5.71-.9-5.71-5.56s-3.73-5.9-5.82-5.9c-2.23,0-5.71,1.86-5.71,5.86,0,4.96-4.55,5.6-5.63,5.6-1.19,0-5.71-.9-5.71-5.56s-3.67-5.87-5.77-5.89h0s0,0-.02,0c0,0-.02,0-.03,0-.98,0-2.27.37-3.37,1.19-.95.67-1.81,1.7-2.12,3.3-.11.5-.18,1.03-.18,1.62v.58c-.48,4.19-4.57,4.75-5.58,4.75-1.19,0-5.71-.9-5.71-5.56s-3.73-5.9-5.82-5.9c-2.23,0-5.71,1.86-5.71,5.86,0,4.96-4.55,5.6-5.63,5.6-1.19,0-5.71-.9-5.71-5.56s-3.73-5.9-5.82-5.9c0,0,0,0,0,0h0s-.02,0-.02,0c-.81,0-1.83.26-2.77.81-1.43.76-2.88,2.22-2.88,5.05,0,4.96-4.55,5.6-5.63,5.6-1.19,0-5.71-.9-5.71-5.56s-3.73-5.9-5.82-5.9c-2.23,0-5.71,1.86-5.71,5.86,0,4.96-4.55,5.6-5.63,5.6-1.19,0-5.71-.9-5.71-5.56s-3.67-5.87-5.77-5.89h0s0,0-.02,0c-.01,0-.02,0-.03,0-.99,0-2.27.37-3.37,1.19-.95.67-1.81,1.7-2.12,3.3-.11.5-.18,1.03-.18,1.62v.58c-.48,4.19-4.57,4.75-5.58,4.75-1.19,0-5.71-.9-5.71-5.56s-3.73-5.9-5.82-5.9c-2.23,0-5.71,1.86-5.71,5.86,0,4.96-4.55,5.6-5.63,5.6-1.19,0-5.71-.9-5.71-5.56s-3.73-5.9-5.82-5.9-5.67,1.68-5.67,6.12l.04,5.22s.56-5.67,5.67-5.67,5.79,5.19,5.79,5.75.37,5.63,5.63,5.63,5.78-4.89,5.78-5.45c0-1.73,1.59-5.93,5.67-5.93,5.22,0,5.78,5.19,5.78,5.75s.37,5.63,5.64,5.63,5.78-4.89,5.78-5.45c0-.95.33-2.43,1.2-3.69,0-.01.02-.02.02-.03.09-.13.19-.26.3-.39.04-.05.08-.09.12-.13.06-.07.14-.15.21-.22.13-.13.26-.25.41-.37,0,0,.01,0,.02-.01.81-.64,1.88-1.09,3.32-1.09,5.23,0,5.79,5.19,5.79,5.75s.37,5.63,5.64,5.63,5.78-4.89,5.78-5.45c0-1.73,1.59-5.93,5.67-5.93,5.22,0,5.78,5.19,5.78,5.75s.37,5.63,5.63,5.63,5.78-4.89,5.78-5.45c0-.28.03-.62.1-.98.34-1.52,1.56-4.96,5.54-4.96,5.22,0,5.78,5.19,5.78,5.75s.37,5.63,5.64,5.63,5.78-4.89,5.78-5.45c0-1.73,1.59-5.93,5.67-5.93,5.23,0,5.79,5.19,5.79,5.75s.37,5.63,5.63,5.63,5.78-4.89,5.78-5.45c0-.95.33-2.43,1.2-3.69,0-.01.02-.02.02-.03.09-.13.19-.26.3-.39.04-.05.08-.09.12-.13.07-.07.14-.15.21-.22.13-.13.26-.25.41-.37,0,0,.01,0,.02-.01.81-.64,1.88-1.09,3.32-1.09,5.22,0,5.78,5.19,5.78,5.75s.37,5.63,5.63,5.63,5.79-4.89,5.79-5.45c0-1.73,1.59-5.93,5.67-5.93,5.22,0,5.78,5.19,5.78,5.75s.37,5.63,5.64,5.63,5.78-4.89,5.78-5.45c0-1.9,1.34-5.97,5.6-5.97v-5.63s-5.67.26-5.67,5.86"/>
              <path class="cls-16" d="m276.05,34.14c0,4.96-4.55,5.6-5.63,5.6-1.19,0-5.71-.9-5.71-5.56s-3.73-5.9-5.82-5.9c-2.23,0-5.71,1.86-5.71,5.86,0,4.96-4.55,5.6-5.63,5.6-1.19,0-5.71-.9-5.71-5.56s-3.67-5.87-5.77-5.89h0s0,0-.02,0c0,0-.02,0-.03,0-.98,0-2.27.37-3.37,1.19-.95.67-1.81,1.7-2.12,3.31-.11.49-.18,1.03-.18,1.62v.58c-.48,4.19-4.57,4.75-5.58,4.75-1.19,0-5.71-.9-5.71-5.56s-3.73-5.9-5.82-5.9c-2.23,0-5.71,1.86-5.71,5.86,0,4.96-4.55,5.6-5.63,5.6-1.19,0-5.71-.9-5.71-5.56s-3.73-5.9-5.82-5.9c0,0,0,0,0,0h0s-.02,0-.02,0c-.81,0-1.83.26-2.77.81-1.43.76-2.88,2.22-2.88,5.05,0,4.96-4.55,5.6-5.63,5.6-1.19,0-5.71-.9-5.71-5.56s-3.73-5.9-5.82-5.9c-2.23,0-5.71,1.86-5.71,5.86,0,4.96-4.55,5.6-5.63,5.6-1.19,0-5.71-.9-5.71-5.56s-3.67-5.87-5.77-5.89h0s0,0-.02,0c-.01,0-.02,0-.03,0-.98,0-2.27.37-3.37,1.19-.95.67-1.81,1.7-2.12,3.31-.11.49-.18,1.03-.18,1.62v.58c-.48,4.19-4.57,4.75-5.58,4.75-1.19,0-5.71-.9-5.71-5.56s-3.73-5.9-5.82-5.9c-2.23,0-5.71,1.86-5.71,5.86,0,4.96-4.55,5.6-5.63,5.6-1.19,0-5.71-.9-5.71-5.56s-3.73-5.9-5.82-5.9-5.67,1.68-5.67,6.12l.04,5.22s.56-5.67,5.67-5.67,5.79,5.19,5.79,5.75.37,5.63,5.63,5.63,5.78-4.89,5.78-5.45c0-1.72,1.59-5.93,5.67-5.93,5.22,0,5.78,5.19,5.78,5.75s.37,5.63,5.64,5.63,5.78-4.89,5.78-5.45c0-.95.33-2.43,1.2-3.69,0-.01.02-.02.02-.03.09-.13.19-.26.3-.39.04-.04.08-.09.12-.13.07-.07.14-.15.21-.22.13-.13.26-.25.41-.37,0,0,.01,0,.02-.01.81-.64,1.88-1.09,3.32-1.09,5.23,0,5.79,5.19,5.79,5.75s.37,5.63,5.64,5.63,5.78-4.89,5.78-5.45c0-1.72,1.59-5.93,5.67-5.93,5.22,0,5.78,5.19,5.78,5.75s.37,5.63,5.63,5.63,5.78-4.89,5.78-5.45c0-.28.03-.62.1-.98.34-1.52,1.56-4.96,5.54-4.96,5.22,0,5.78,5.19,5.78,5.75s.37,5.63,5.64,5.63,5.78-4.89,5.78-5.45c0-1.72,1.59-5.93,5.67-5.93,5.23,0,5.79,5.19,5.79,5.75s.37,5.63,5.63,5.63,5.78-4.89,5.78-5.45c0-.95.33-2.43,1.2-3.69,0-.01.02-.02.02-.03.09-.13.19-.26.3-.39.04-.04.08-.09.12-.13.07-.07.14-.15.21-.22.13-.13.26-.25.41-.37,0,0,.01,0,.02-.01.81-.64,1.88-1.09,3.32-1.09,5.22,0,5.78,5.19,5.78,5.75s.37,5.63,5.63,5.63,5.79-4.89,5.79-5.45c0-1.72,1.59-5.93,5.67-5.93,5.22,0,5.78,5.19,5.78,5.75s.37,5.63,5.64,5.63,5.78-4.89,5.78-5.45c0-1.9,1.34-5.97,5.6-5.97v-5.64s-5.67.26-5.67,5.86"/>
              <path class="cls-16" d="m276.05,22.61c0,4.96-4.55,5.6-5.63,5.6-1.19,0-5.71-.9-5.71-5.56s-3.73-5.9-5.82-5.9c-2.23,0-5.71,1.86-5.71,5.86,0,4.96-4.55,5.6-5.63,5.6-1.19,0-5.71-.9-5.71-5.56s-3.67-5.87-5.77-5.89h0s0,0-.02,0c0,0-.02,0-.03,0-.98,0-2.27.37-3.37,1.19-.95.67-1.81,1.7-2.12,3.31-.11.49-.18,1.03-.18,1.62v.58c-.48,4.19-4.57,4.75-5.58,4.75-1.19,0-5.71-.9-5.71-5.56s-3.73-5.9-5.82-5.9c-2.23,0-5.71,1.86-5.71,5.86,0,4.96-4.55,5.6-5.63,5.6-1.19,0-5.71-.9-5.71-5.56s-3.73-5.9-5.82-5.9h0s-.02,0-.02,0c-.81,0-1.83.26-2.77.81-1.43.76-2.88,2.22-2.88,5.05,0,4.96-4.55,5.6-5.63,5.6-1.19,0-5.71-.9-5.71-5.56s-3.73-5.9-5.82-5.9c-2.23,0-5.71,1.86-5.71,5.86,0,4.96-4.55,5.6-5.63,5.6-1.19,0-5.71-.9-5.71-5.56s-3.67-5.87-5.77-5.89h0s0,0-.02,0c-.01,0-.02,0-.03,0-.99,0-2.27.37-3.37,1.19-.95.67-1.81,1.7-2.12,3.31-.11.49-.18,1.03-.18,1.62v.58c-.48,4.19-4.57,4.75-5.58,4.75-1.19,0-5.71-.9-5.71-5.56s-3.73-5.9-5.82-5.9c-2.23,0-5.71,1.86-5.71,5.86,0,4.96-4.55,5.6-5.63,5.6-1.19,0-5.71-.9-5.71-5.56s-3.73-5.9-5.82-5.9-5.67,1.68-5.67,6.12l.04,5.22s.56-5.67,5.67-5.67,5.79,5.19,5.79,5.75.37,5.63,5.63,5.63,5.78-4.89,5.78-5.45c0-1.73,1.59-5.93,5.67-5.93,5.22,0,5.78,5.19,5.78,5.75s.37,5.63,5.64,5.63,5.78-4.89,5.78-5.45c0-.95.33-2.44,1.2-3.69,0-.01.02-.02.02-.03.09-.13.19-.26.3-.39.04-.05.08-.09.12-.13.06-.08.14-.15.21-.22.13-.13.26-.25.41-.37,0,0,.01,0,.02-.01.81-.64,1.88-1.09,3.32-1.09,5.23,0,5.79,5.19,5.79,5.75s.37,5.63,5.64,5.63,5.78-4.89,5.78-5.45c0-1.73,1.59-5.93,5.67-5.93,5.22,0,5.78,5.19,5.78,5.75s.37,5.63,5.63,5.63,5.78-4.89,5.78-5.45c0-.28.03-.62.1-.98.34-1.52,1.56-4.96,5.54-4.96,5.22,0,5.78,5.19,5.78,5.75s.37,5.63,5.64,5.63,5.78-4.89,5.78-5.45c0-1.73,1.59-5.93,5.67-5.93,5.23,0,5.79,5.19,5.79,5.75s.37,5.63,5.63,5.63,5.78-4.89,5.78-5.45c0-.95.33-2.44,1.2-3.69,0-.01.02-.02.02-.03.09-.13.19-.26.3-.39.04-.05.08-.09.12-.13.07-.08.14-.15.21-.22.13-.13.26-.25.41-.37,0,0,.01,0,.02-.01.81-.64,1.88-1.09,3.32-1.09,5.22,0,5.78,5.19,5.78,5.75s.37,5.63,5.63,5.63,5.79-4.89,5.79-5.45c0-1.73,1.59-5.93,5.67-5.93,5.22,0,5.78,5.19,5.78,5.75s.37,5.63,5.64,5.63,5.78-4.89,5.78-5.45c0-1.9,1.34-5.97,5.6-5.97v-5.63s-5.67.26-5.67,5.86"/>
              <path class="cls-16" d="m276.05,68.72c0,4.96-4.55,5.6-5.63,5.6-1.19,0-5.71-.9-5.71-5.56s-3.73-5.9-5.82-5.9c-2.23,0-5.71,1.86-5.71,5.86,0,4.96-4.55,5.6-5.63,5.6-1.19,0-5.71-.9-5.71-5.56s-3.67-5.87-5.77-5.89h0s0,0-.02,0c0,0-.02,0-.03,0-.98,0-2.27.37-3.37,1.19-.95.67-1.81,1.7-2.12,3.31-.11.49-.18,1.03-.18,1.62v.58c-.48,4.19-4.57,4.75-5.58,4.75-1.19,0-5.71-.9-5.71-5.56s-3.73-5.9-5.82-5.9c-2.23,0-5.71,1.86-5.71,5.86,0,4.96-4.55,5.6-5.63,5.6-1.19,0-5.71-.9-5.71-5.56s-3.73-5.9-5.82-5.9h0s-.02,0-.02,0c-.81,0-1.83.26-2.77.81-1.43.76-2.88,2.22-2.88,5.05,0,4.96-4.55,5.6-5.63,5.6-1.19,0-5.71-.9-5.71-5.56s-3.73-5.9-5.82-5.9c-2.23,0-5.71,1.86-5.71,5.86,0,4.96-4.55,5.6-5.63,5.6-1.19,0-5.71-.9-5.71-5.56s-3.67-5.87-5.77-5.89h0s0,0-.02,0c-.01,0-.02,0-.03,0-.99,0-2.27.37-3.37,1.19-.95.67-1.81,1.7-2.12,3.31-.11.49-.18,1.03-.18,1.62v.58c-.48,4.19-4.57,4.75-5.58,4.75-1.19,0-5.71-.9-5.71-5.56s-3.73-5.9-5.82-5.9c-2.23,0-5.71,1.86-5.71,5.86,0,4.96-4.55,5.6-5.63,5.6-1.19,0-5.71-.9-5.71-5.56s-3.73-5.9-5.82-5.9-5.67,1.68-5.67,6.12l.04,5.22s.56-5.67,5.67-5.67,5.79,5.19,5.79,5.75.37,5.63,5.63,5.63,5.78-4.89,5.78-5.45c0-1.73,1.59-5.93,5.67-5.93,5.22,0,5.78,5.19,5.78,5.75s.37,5.63,5.64,5.63,5.78-4.89,5.78-5.45c0-.95.33-2.43,1.2-3.69,0-.01.02-.02.02-.03.09-.13.19-.26.3-.39.04-.05.08-.09.12-.13.07-.07.14-.15.21-.22.13-.13.26-.25.41-.37,0,0,0,0,.01-.01.81-.64,1.88-1.09,3.32-1.09,5.23,0,5.79,5.19,5.79,5.75s.37,5.63,5.64,5.63,5.78-4.89,5.78-5.45c0-1.73,1.59-5.93,5.67-5.93,5.22,0,5.78,5.19,5.78,5.75s.37,5.63,5.63,5.63,5.78-4.89,5.78-5.45c0-.28.03-.62.1-.98.34-1.52,1.56-4.96,5.54-4.96,5.22,0,5.78,5.19,5.78,5.75s.37,5.63,5.64,5.63,5.78-4.89,5.78-5.45c0-1.73,1.59-5.93,5.67-5.93,5.23,0,5.79,5.19,5.79,5.75s.37,5.63,5.63,5.63,5.78-4.89,5.78-5.45c0-.95.33-2.43,1.2-3.69,0-.01.02-.02.02-.03.09-.13.19-.26.3-.39.04-.05.08-.09.12-.13.07-.07.14-.15.21-.22.13-.13.26-.25.41-.37,0,0,0,0,.01-.01.81-.64,1.88-1.09,3.32-1.09,5.22,0,5.78,5.19,5.78,5.75s.37,5.63,5.63,5.63,5.79-4.89,5.79-5.45c0-1.73,1.59-5.93,5.67-5.93,5.22,0,5.78,5.19,5.78,5.75s.37,5.63,5.64,5.63,5.78-4.89,5.78-5.45c0-1.9,1.34-5.97,5.6-5.97v-5.63s-5.67.26-5.67,5.86"/>
              <path class="cls-16" d="m276.05,57.19c0,4.96-4.55,5.6-5.63,5.6-1.19,0-5.71-.9-5.71-5.56s-3.73-5.9-5.82-5.9c-2.23,0-5.71,1.86-5.71,5.86,0,4.96-4.55,5.6-5.63,5.6-1.19,0-5.71-.9-5.71-5.56s-3.67-5.87-5.77-5.89h0s0,0-.02,0c0,0-.02,0-.03,0-.98,0-2.27.37-3.37,1.19-.95.67-1.81,1.7-2.12,3.31-.11.49-.18,1.03-.18,1.62v.59c-.48,4.19-4.57,4.75-5.58,4.75-1.19,0-5.71-.9-5.71-5.56s-3.73-5.9-5.82-5.9c-2.23,0-5.71,1.86-5.71,5.86,0,4.96-4.55,5.6-5.63,5.6-1.19,0-5.71-.9-5.71-5.56s-3.73-5.9-5.82-5.9h0s-.02,0-.02,0c-.81,0-1.83.26-2.77.81-1.43.76-2.88,2.22-2.88,5.05,0,4.96-4.55,5.6-5.63,5.6-1.19,0-5.71-.9-5.71-5.56s-3.73-5.9-5.82-5.9c-2.23,0-5.71,1.86-5.71,5.86,0,4.96-4.55,5.6-5.63,5.6-1.19,0-5.71-.9-5.71-5.56s-3.67-5.87-5.77-5.89h0s0,0-.02,0c-.01,0-.02,0-.03,0-.98,0-2.27.37-3.37,1.19-.95.67-1.81,1.7-2.12,3.31-.11.49-.18,1.03-.18,1.62v.59c-.48,4.19-4.57,4.75-5.58,4.75-1.19,0-5.71-.9-5.71-5.56s-3.73-5.9-5.82-5.9c-2.23,0-5.71,1.86-5.71,5.86,0,4.96-4.55,5.6-5.63,5.6-1.19,0-5.71-.9-5.71-5.56s-3.73-5.9-5.82-5.9-5.67,1.68-5.67,6.12l.04,5.22s.56-5.67,5.67-5.67,5.79,5.19,5.79,5.75.37,5.64,5.63,5.64,5.78-4.89,5.78-5.45c0-1.73,1.59-5.93,5.67-5.93,5.22,0,5.78,5.19,5.78,5.75s.37,5.64,5.64,5.64,5.78-4.89,5.78-5.45c0-.95.33-2.43,1.2-3.69,0-.01.02-.02.02-.03.09-.13.19-.26.3-.39.04-.04.08-.09.12-.13.06-.07.14-.15.21-.22.13-.13.26-.25.41-.37,0,0,.01,0,.02-.01.81-.64,1.88-1.09,3.32-1.09,5.23,0,5.79,5.19,5.79,5.75s.37,5.64,5.64,5.64,5.78-4.89,5.78-5.45c0-1.73,1.59-5.93,5.67-5.93,5.22,0,5.78,5.19,5.78,5.75s.37,5.64,5.63,5.64,5.78-4.89,5.78-5.45c0-.28.03-.62.1-.98.34-1.52,1.56-4.96,5.54-4.96,5.22,0,5.78,5.19,5.78,5.75s.37,5.64,5.64,5.64,5.78-4.89,5.78-5.45c0-1.73,1.59-5.93,5.67-5.93,5.23,0,5.79,5.19,5.79,5.75s.37,5.64,5.63,5.64,5.78-4.89,5.78-5.45c0-.95.33-2.43,1.2-3.69,0-.01.02-.02.02-.03.09-.13.19-.26.3-.39.04-.04.08-.09.12-.13.07-.07.14-.15.21-.22.13-.13.26-.25.41-.37,0,0,.01,0,.02-.01.81-.64,1.88-1.09,3.32-1.09,5.22,0,5.78,5.19,5.78,5.75s.37,5.64,5.63,5.64,5.79-4.89,5.79-5.45c0-1.73,1.59-5.93,5.67-5.93,5.22,0,5.78,5.19,5.78,5.75s.37,5.64,5.64,5.64,5.78-4.89,5.78-5.45c0-1.9,1.34-5.97,5.6-5.97v-5.63s-5.67.26-5.67,5.86"/>
            </g>
          </g>
        </g>
      </g>
      <g>
        <polyline class="cls-5" points="40.29 95.53 43.14 100.09 44.46 100.09"/>
        <polyline class="cls-5" points="48.64 95.53 45.79 100.09 44.46 100.09"/>
        <polyline class="cls-5" points="41.91 103.02 43.14 100.09 44.46 100.09"/>
        <polyline class="cls-5" points="47.02 103.02 45.79 100.09 44.46 100.09"/>
        <rect class="cls-14" x="41.35" y="102.82" width="6.23" height="4.98"/>
        <rect class="cls-14" x="41.35" y="102.29" width="6.23" height=".74"/>
        <g>
          <path class="cls-12" d="m44.46,50.89c-11.36,0-20.56,7.59-20.56,16.95,0,8.08,7.72,19.95,16.39,28.09h8.35c8.67-8.14,16.39-20.01,16.39-28.09,0-9.36-9.21-16.95-20.56-16.95Z"/>
          <g class="cls-6">
            <g>
              <polygon class="cls-16" points="157.23 208.29 143.9 203.94 130.57 208.29 117.24 203.94 103.9 208.29 103.9 208.27 90.56 203.93 77.23 208.27 63.9 203.93 50.57 208.27 37.24 203.93 23.9 208.27 23.9 210.72 37.24 206.37 50.56 210.71 50.56 210.72 50.57 210.71 50.58 210.72 50.58 210.71 63.9 206.37 77.22 210.71 77.22 210.72 77.23 210.71 77.24 210.72 77.24 210.71 90.56 206.37 103.9 210.72 103.9 210.74 117.24 206.39 130.56 210.73 130.56 210.74 130.57 210.73 130.58 210.74 130.58 210.73 143.9 206.39 157.22 210.73 157.22 210.74 157.23 210.73 157.24 210.74 157.24 210.73 170.56 206.39 183.9 210.74 183.9 208.29 170.56 203.94 157.23 208.29"/>
              <polygon class="cls-16" points="157.23 203.66 143.9 199.32 130.57 203.66 117.24 199.32 103.9 203.67 103.9 203.65 90.56 199.3 77.23 203.65 63.9 199.3 50.57 203.65 37.24 199.3 23.9 203.65 23.9 206.09 37.24 201.75 50.56 206.09 50.56 206.09 50.57 206.09 50.58 206.09 50.58 206.09 63.9 201.75 77.22 206.09 77.22 206.09 77.23 206.09 77.24 206.09 77.24 206.09 90.56 201.75 103.9 206.09 103.9 206.11 117.24 201.77 130.56 206.11 130.56 206.11 130.57 206.11 130.58 206.11 130.58 206.11 143.9 201.77 157.22 206.11 157.22 206.11 157.23 206.11 157.24 206.11 157.24 206.11 170.56 201.77 183.9 206.11 183.9 203.67 170.56 199.32 157.23 203.66"/>
              <polygon class="cls-16" points="157.23 199.04 143.9 194.7 130.57 199.04 117.24 194.7 103.9 199.04 103.9 199.02 90.56 194.68 77.23 199.02 63.9 194.68 50.57 199.02 37.24 194.68 23.9 199.02 23.9 201.47 37.24 197.12 50.56 201.46 50.56 201.47 50.57 201.47 50.58 201.47 50.58 201.46 63.9 197.12 77.22 201.46 77.22 201.47 77.23 201.47 77.24 201.47 77.24 201.46 90.56 197.12 103.9 201.47 103.9 201.49 117.24 197.14 130.56 201.48 130.56 201.49 130.57 201.48 130.58 201.49 130.58 201.48 143.9 197.14 157.22 201.48 157.22 201.49 157.23 201.48 157.24 201.49 157.24 201.48 170.56 197.14 183.9 201.49 183.9 199.04 170.56 194.7 157.23 199.04"/>
              <polygon class="cls-16" points="157.23 194.42 143.9 190.07 130.57 194.42 117.24 190.07 103.9 194.42 103.9 194.4 90.56 190.05 77.23 194.4 63.9 190.05 50.57 194.4 37.24 190.05 23.9 194.4 23.9 196.84 37.24 192.5 50.56 196.84 50.56 196.84 50.57 196.84 50.58 196.84 50.58 196.84 63.9 192.5 77.22 196.84 77.22 196.84 77.23 196.84 77.24 196.84 77.24 196.84 90.56 192.5 103.9 196.84 103.9 196.86 117.24 192.52 130.56 196.86 130.56 196.86 130.57 196.86 130.58 196.86 130.58 196.86 143.9 192.52 157.22 196.86 157.22 196.86 157.23 196.86 157.24 196.86 157.24 196.86 170.56 192.52 183.9 196.86 183.9 194.42 170.56 190.07 157.23 194.42"/>
              <polygon class="cls-16" points="157.23 189.79 143.9 185.45 130.57 189.79 117.24 185.45 103.9 189.79 103.9 189.77 90.56 185.43 77.23 189.77 63.9 185.43 50.57 189.77 37.24 185.43 23.9 189.77 23.9 192.22 37.24 187.87 50.56 192.21 50.56 192.22 50.57 192.22 50.58 192.22 50.58 192.21 63.9 187.87 77.22 192.21 77.22 192.22 77.23 192.22 77.24 192.22 77.24 192.21 90.56 187.87 103.9 192.22 103.9 192.24 117.24 187.89 130.56 192.23 130.56 192.24 130.57 192.24 130.58 192.24 130.58 192.23 143.9 187.89 157.22 192.23 157.22 192.24 157.23 192.24 157.24 192.24 157.24 192.23 170.56 187.89 183.9 192.24 183.9 189.79 170.56 185.45 157.23 189.79"/>
              <polygon class="cls-16" points="157.23 185.17 143.9 180.82 130.57 185.17 117.24 180.82 103.9 185.17 103.9 185.15 90.56 180.8 77.23 185.15 63.9 180.8 50.57 185.15 37.24 180.8 23.9 185.15 23.9 187.59 37.24 183.25 50.56 187.59 50.56 187.59 50.57 187.59 50.58 187.59 50.58 187.59 63.9 183.25 77.22 187.59 77.22 187.59 77.23 187.59 77.24 187.59 77.24 187.59 90.56 183.25 103.9 187.59 103.9 187.61 117.24 183.27 130.56 187.61 130.56 187.61 130.57 187.61 130.58 187.61 130.58 187.61 143.9 183.27 157.22 187.61 157.22 187.61 157.23 187.61 157.24 187.61 157.24 187.61 170.56 183.27 183.9 187.61 183.9 185.17 170.56 180.82 157.23 185.17"/>
              <polygon class="cls-16" points="157.23 180.54 143.9 176.2 130.57 180.54 117.24 176.2 103.9 180.54 103.9 180.53 90.56 176.18 77.23 180.52 63.9 176.18 50.57 180.52 37.24 176.18 23.9 180.53 23.9 182.97 37.24 178.62 50.56 182.97 50.56 182.97 50.57 182.97 50.58 182.97 50.58 182.97 63.9 178.62 77.22 182.97 77.22 182.97 77.23 182.97 77.24 182.97 77.24 182.97 90.56 178.62 103.9 182.97 103.9 182.99 117.24 178.64 130.56 182.98 130.56 182.99 130.57 182.99 130.58 182.99 130.58 182.98 143.9 178.64 157.22 182.98 157.22 182.99 157.23 182.99 157.24 182.99 157.24 182.98 170.56 178.64 183.9 182.99 183.9 180.54 170.56 176.2 157.23 180.54"/>
              <polygon class="cls-16" points="157.23 175.92 143.9 171.57 130.57 175.92 117.24 171.57 103.9 175.92 103.9 175.9 90.56 171.56 77.23 175.9 63.9 171.56 50.57 175.9 37.24 171.56 23.9 175.9 23.9 178.35 37.24 174 50.56 178.34 50.56 178.35 50.57 178.34 50.58 178.35 50.58 178.34 63.9 174 77.22 178.34 77.22 178.35 77.23 178.34 77.24 178.35 77.24 178.34 90.56 174 103.9 178.35 103.9 178.36 117.24 174.02 130.56 178.36 130.56 178.36 130.57 178.36 130.58 178.36 130.58 178.36 143.9 174.02 157.22 178.36 157.22 178.36 157.23 178.36 157.24 178.36 157.24 178.36 170.56 174.02 183.9 178.36 183.9 175.92 170.56 171.57 157.23 175.92"/>
              <polygon class="cls-16" points="157.23 171.29 143.9 166.95 130.57 171.29 117.24 166.95 103.9 171.3 103.9 171.28 90.56 166.93 77.23 171.27 63.9 166.93 50.57 171.27 37.24 166.93 23.9 171.28 23.9 173.72 37.24 169.38 50.56 173.72 50.56 173.72 50.57 173.72 50.58 173.72 50.58 173.72 63.9 169.38 77.22 173.72 77.22 173.72 77.23 173.72 77.24 173.72 77.24 173.72 90.56 169.38 103.9 173.72 103.9 173.74 117.24 169.39 130.56 173.74 130.56 173.74 130.57 173.74 130.58 173.74 130.58 173.74 143.9 169.39 157.22 173.74 157.22 173.74 157.23 173.74 157.24 173.74 157.24 173.74 170.56 169.39 183.9 173.74 183.9 171.3 170.56 166.95 157.23 171.29"/>
              <polygon class="cls-16" points="157.23 166.93 143.9 162.59 130.57 166.93 117.24 162.59 103.9 166.93 103.9 166.92 90.56 162.57 77.23 166.91 63.9 162.57 50.57 166.91 37.24 162.57 23.9 166.92 23.9 169.36 37.24 165.01 50.56 169.36 50.56 169.36 50.57 169.36 50.58 169.36 50.58 169.36 63.9 165.01 77.22 169.36 77.22 169.36 77.23 169.36 77.24 169.36 77.24 169.36 90.56 165.01 103.9 169.36 103.9 169.38 117.24 165.03 130.56 169.37 130.56 169.38 130.57 169.38 130.58 169.38 130.58 169.37 143.9 165.03 157.22 169.37 157.22 169.38 157.23 169.38 157.24 169.38 157.24 169.37 170.56 165.03 183.9 169.38 183.9 166.93 170.56 162.59 157.23 166.93"/>
              <polygon class="cls-16" points="157.23 162.31 143.9 157.96 130.57 162.31 117.24 157.96 103.9 162.31 103.9 162.29 90.56 157.94 77.23 162.29 63.9 157.94 50.57 162.29 37.24 157.94 23.9 162.29 23.9 164.74 37.24 160.39 50.56 164.73 50.56 164.74 50.57 164.73 50.58 164.74 50.58 164.73 63.9 160.39 77.22 164.73 77.22 164.74 77.23 164.73 77.24 164.74 77.24 164.73 90.56 160.39 103.9 164.74 103.9 164.75 117.24 160.41 130.56 164.75 130.56 164.75 130.57 164.75 130.58 164.75 130.58 164.75 143.9 160.41 157.22 164.75 157.22 164.75 157.23 164.75 157.24 164.75 157.24 164.75 170.56 160.41 183.9 164.75 183.9 162.31 170.56 157.96 157.23 162.31"/>
              <polygon class="cls-16" points="157.23 157.68 143.9 153.34 130.57 157.68 117.24 153.34 103.9 157.68 103.9 157.67 90.56 153.32 77.23 157.66 63.9 153.32 50.57 157.66 37.24 153.32 23.9 157.67 23.9 160.11 37.24 155.76 50.56 160.11 50.56 160.11 50.57 160.11 50.58 160.11 50.58 160.11 63.9 155.76 77.22 160.11 77.22 160.11 77.23 160.11 77.24 160.11 77.24 160.11 90.56 155.76 103.9 160.11 103.9 160.13 117.24 155.78 130.56 160.12 130.56 160.13 130.57 160.13 130.58 160.13 130.58 160.12 143.9 155.78 157.22 160.12 157.22 160.13 157.23 160.13 157.24 160.13 157.24 160.12 170.56 155.78 183.9 160.13 183.9 157.68 170.56 153.34 157.23 157.68"/>
              <polygon class="cls-16" points="157.23 153.06 143.9 148.71 130.57 153.06 117.24 148.71 103.9 153.06 103.9 153.04 90.56 148.7 77.23 153.04 63.9 148.7 50.57 153.04 37.24 148.7 23.9 153.04 23.9 155.49 37.24 151.14 50.56 155.48 50.56 155.49 50.57 155.48 50.58 155.49 50.58 155.48 63.9 151.14 77.22 155.48 77.22 155.49 77.23 155.48 77.24 155.49 77.24 155.48 90.56 151.14 103.9 155.49 103.9 155.51 117.24 151.16 130.56 155.5 130.56 155.51 130.57 155.5 130.58 155.51 130.58 155.5 143.9 151.16 157.22 155.5 157.22 155.51 157.23 155.5 157.24 155.51 157.24 155.5 170.56 151.16 183.9 155.51 183.9 153.06 170.56 148.71 157.23 153.06"/>
              <polygon class="cls-16" points="157.23 148.43 143.9 144.09 130.57 148.43 117.24 144.09 103.9 148.44 103.9 148.42 90.56 144.07 77.23 148.42 63.9 144.07 50.57 148.42 37.24 144.07 23.9 148.42 23.9 150.86 37.24 146.52 50.56 150.86 50.56 150.86 50.57 150.86 50.58 150.86 50.58 150.86 63.9 146.52 77.22 150.86 77.22 150.86 77.23 150.86 77.24 150.86 77.24 150.86 90.56 146.52 103.9 150.86 103.9 150.88 117.24 146.53 130.56 150.88 130.56 150.88 130.57 150.88 130.58 150.88 130.58 150.88 143.9 146.53 157.22 150.88 157.22 150.88 157.23 150.88 157.24 150.88 157.24 150.88 170.56 146.53 183.9 150.88 183.9 148.44 170.56 144.09 157.23 148.43"/>
              <polygon class="cls-16" points="157.23 143.81 143.9 139.47 130.57 143.81 117.24 139.47 103.9 143.81 103.9 143.79 90.56 139.45 77.23 143.79 63.9 139.45 50.57 143.79 37.24 139.45 23.9 143.79 23.9 146.24 37.24 141.89 50.56 146.23 50.56 146.24 50.57 146.24 50.58 146.24 50.58 146.23 63.9 141.89 77.22 146.23 77.22 146.24 77.23 146.24 77.24 146.24 77.24 146.23 90.56 141.89 103.9 146.24 103.9 146.26 117.24 141.91 130.56 146.25 130.56 146.26 130.57 146.25 130.58 146.26 130.58 146.25 143.9 141.91 157.22 146.25 157.22 146.26 157.23 146.25 157.24 146.26 157.24 146.25 170.56 141.91 183.9 146.26 183.9 143.81 170.56 139.47 157.23 143.81"/>
              <polygon class="cls-16" points="157.23 139.18 143.9 134.84 130.57 139.18 117.24 134.84 103.9 139.19 103.9 139.17 90.56 134.82 77.23 139.17 63.9 134.82 50.57 139.17 37.24 134.82 23.9 139.17 23.9 141.61 37.24 137.27 50.56 141.61 50.56 141.61 50.57 141.61 50.58 141.61 50.58 141.61 63.9 137.27 77.22 141.61 77.22 141.61 77.23 141.61 77.24 141.61 77.24 141.61 90.56 137.27 103.9 141.61 103.9 141.63 117.24 137.29 130.56 141.63 130.56 141.63 130.57 141.63 130.58 141.63 130.58 141.63 143.9 137.29 157.22 141.63 157.22 141.63 157.23 141.63 157.24 141.63 157.24 141.63 170.56 137.29 183.9 141.63 183.9 139.19 170.56 134.84 157.23 139.18"/>
              <polygon class="cls-16" points="157.23 134.56 143.9 130.22 130.57 134.56 117.24 130.22 103.9 134.56 103.9 134.54 90.56 130.2 77.23 134.54 63.9 130.2 50.57 134.54 37.24 130.2 23.9 134.54 23.9 136.99 37.24 132.64 50.56 136.98 50.56 136.99 50.57 136.99 50.58 136.99 50.58 136.98 63.9 132.64 77.22 136.98 77.22 136.99 77.23 136.99 77.24 136.99 77.24 136.98 90.56 132.64 103.9 136.99 103.9 137.01 117.24 132.66 130.56 137 130.56 137.01 130.57 137 130.58 137.01 130.58 137 143.9 132.66 157.22 137 157.22 137.01 157.23 137 157.24 137.01 157.24 137 170.56 132.66 183.9 137.01 183.9 134.56 170.56 130.22 157.23 134.56"/>
              <polygon class="cls-16" points="157.23 129.94 143.9 125.59 130.57 129.94 117.24 125.59 103.9 129.94 103.9 129.92 90.56 125.57 77.23 129.92 63.9 125.57 50.57 129.92 37.24 125.57 23.9 129.92 23.9 132.36 37.24 128.02 50.56 132.36 50.56 132.36 50.57 132.36 50.58 132.36 50.58 132.36 63.9 128.02 77.22 132.36 77.22 132.36 77.23 132.36 77.24 132.36 77.24 132.36 90.56 128.02 103.9 132.36 103.9 132.38 117.24 128.04 130.56 132.38 130.56 132.38 130.57 132.38 130.58 132.38 130.58 132.38 143.9 128.04 157.22 132.38 157.22 132.38 157.23 132.38 157.24 132.38 157.24 132.38 170.56 128.04 183.9 132.38 183.9 129.94 170.56 125.59 157.23 129.94"/>
              <polygon class="cls-16" points="157.23 125.3 143.9 120.96 130.57 125.3 117.24 120.96 103.9 125.31 103.9 125.29 90.56 120.94 77.23 125.29 63.9 120.94 50.57 125.29 37.24 120.94 23.9 125.29 23.9 127.73 37.24 123.39 50.56 127.73 50.56 127.73 50.57 127.73 50.58 127.73 50.58 127.73 63.9 123.39 77.22 127.73 77.22 127.73 77.23 127.73 77.24 127.73 77.24 127.73 90.56 123.39 103.9 127.73 103.9 127.75 117.24 123.41 130.56 127.75 130.56 127.75 130.57 127.75 130.58 127.75 130.58 127.75 143.9 123.41 157.22 127.75 157.22 127.75 157.23 127.75 157.24 127.75 157.24 127.75 170.56 123.41 183.9 127.75 183.9 125.31 170.56 120.96 157.23 125.3"/>
              <polygon class="cls-16" points="157.23 120.68 143.9 116.34 130.57 120.68 117.24 116.34 103.9 120.68 103.9 120.66 90.56 116.32 77.23 120.66 63.9 116.32 50.57 120.66 37.24 116.32 23.9 120.66 23.9 123.11 37.24 118.76 50.56 123.1 50.56 123.11 50.57 123.11 50.58 123.11 50.58 123.1 63.9 118.76 77.22 123.1 77.22 123.11 77.23 123.11 77.24 123.11 77.24 123.1 90.56 118.76 103.9 123.11 103.9 123.13 117.24 118.78 130.56 123.12 130.56 123.13 130.57 123.12 130.58 123.13 130.58 123.12 143.9 118.78 157.22 123.12 157.22 123.13 157.23 123.12 157.24 123.13 157.24 123.12 170.56 118.78 183.9 123.13 183.9 120.68 170.56 116.34 157.23 120.68"/>
              <polygon class="cls-16" points="157.23 116.06 143.9 111.71 130.57 116.06 117.24 111.71 103.9 116.06 103.9 116.04 90.56 111.69 77.23 116.04 63.9 111.69 50.57 116.04 37.24 111.69 23.9 116.04 23.9 118.48 37.24 114.14 50.56 118.48 50.56 118.48 50.57 118.48 50.58 118.48 50.58 118.48 63.9 114.14 77.22 118.48 77.22 118.48 77.23 118.48 77.24 118.48 77.24 118.48 90.56 114.14 103.9 118.48 103.9 118.5 117.24 114.16 130.56 118.5 130.56 118.5 130.57 118.5 130.58 118.5 130.58 118.5 143.9 114.16 157.22 118.5 157.22 118.5 157.23 118.5 157.24 118.5 157.24 118.5 170.56 114.16 183.9 118.5 183.9 116.06 170.56 111.71 157.23 116.06"/>
              <polygon class="cls-16" points="157.23 111.43 143.9 107.09 130.57 111.43 117.24 107.09 103.9 111.43 103.9 111.42 90.56 107.07 77.23 111.41 63.9 107.07 50.57 111.41 37.24 107.07 23.9 111.42 23.9 113.86 37.24 109.51 50.56 113.86 50.56 113.86 50.57 113.86 50.58 113.86 50.58 113.86 63.9 109.51 77.22 113.86 77.22 113.86 77.23 113.86 77.24 113.86 77.24 113.86 90.56 109.51 103.9 113.86 103.9 113.88 117.24 109.53 130.56 113.87 130.56 113.88 130.57 113.88 130.58 113.88 130.58 113.87 143.9 109.53 157.22 113.87 157.22 113.88 157.23 113.88 157.24 113.88 157.24 113.87 170.56 109.53 183.9 113.88 183.9 111.43 170.56 107.09 157.23 111.43"/>
              <polygon class="cls-16" points="157.23 106.81 143.9 102.46 130.57 106.81 117.24 102.46 103.9 106.81 103.9 106.79 90.56 102.44 77.23 106.79 63.9 102.44 50.57 106.79 37.24 102.44 23.9 106.79 23.9 109.24 37.24 104.89 50.56 109.23 50.56 109.24 50.57 109.23 50.58 109.24 50.58 109.23 63.9 104.89 77.22 109.23 77.22 109.24 77.23 109.23 77.24 109.24 77.24 109.23 90.56 104.89 103.9 109.24 103.9 109.25 117.24 104.91 130.56 109.25 130.56 109.25 130.57 109.25 130.58 109.25 130.58 109.25 143.9 104.91 157.22 109.25 157.22 109.25 157.23 109.25 157.24 109.25 157.24 109.25 170.56 104.91 183.9 109.25 183.9 106.81 170.56 102.46 157.23 106.81"/>
              <polygon class="cls-16" points="157.23 102.18 143.9 97.84 130.57 102.18 117.24 97.84 103.9 102.18 103.9 102.17 90.56 97.82 77.23 102.16 63.9 97.82 50.57 102.16 37.24 97.82 23.9 102.17 23.9 104.61 37.24 100.26 50.56 104.61 50.56 104.61 50.57 104.61 50.58 104.61 50.58 104.61 63.9 100.26 77.22 104.61 77.22 104.61 77.23 104.61 77.24 104.61 77.24 104.61 90.56 100.26 103.9 104.61 103.9 104.63 117.24 100.28 130.56 104.62 130.56 104.63 130.57 104.63 130.58 104.63 130.58 104.62 143.9 100.28 157.22 104.62 157.22 104.63 157.23 104.63 157.24 104.63 157.24 104.62 170.56 100.28 183.9 104.63 183.9 102.18 170.56 97.84 157.23 102.18"/>
              <polygon class="cls-16" points="157.23 97.56 143.9 93.21 130.57 97.56 117.24 93.21 103.9 97.56 103.9 97.54 90.56 93.2 77.23 97.54 63.9 93.2 50.57 97.54 37.24 93.2 23.9 97.54 23.9 99.99 37.24 95.64 50.56 99.98 50.56 99.99 50.57 99.98 50.58 99.99 50.58 99.98 63.9 95.64 77.22 99.98 77.22 99.99 77.23 99.98 77.24 99.99 77.24 99.98 90.56 95.64 103.9 99.99 103.9 100.01 117.24 95.66 130.56 100 130.56 100.01 130.57 100 130.58 100.01 130.58 100 143.9 95.66 157.22 100 157.22 100.01 157.23 100 157.24 100.01 157.24 100 170.56 95.66 183.9 100.01 183.9 97.56 170.56 93.21 157.23 97.56"/>
              <polygon class="cls-16" points="157.23 92.93 143.9 88.59 130.57 92.93 117.24 88.59 103.9 92.94 103.9 92.92 90.56 88.57 77.23 92.91 63.9 88.57 50.57 92.91 37.24 88.57 23.9 92.92 23.9 95.36 37.24 91.02 50.56 95.36 50.56 95.36 50.57 95.36 50.58 95.36 50.58 95.36 63.9 91.02 77.22 95.36 77.22 95.36 77.23 95.36 77.24 95.36 77.24 95.36 90.56 91.02 103.9 95.36 103.9 95.38 117.24 91.03 130.56 95.38 130.56 95.38 130.57 95.38 130.58 95.38 130.58 95.38 143.9 91.03 157.22 95.38 157.22 95.38 157.23 95.38 157.24 95.38 157.24 95.38 170.56 91.03 183.9 95.38 183.9 92.94 170.56 88.59 157.23 92.93"/>
              <polygon class="cls-16" points="157.23 88.31 143.9 83.97 130.57 88.31 117.24 83.97 103.9 88.31 103.9 88.29 90.56 83.95 77.23 88.29 63.9 83.95 50.57 88.29 37.24 83.95 23.9 88.29 23.9 90.74 37.24 86.39 50.56 90.73 50.56 90.74 50.57 90.74 50.58 90.74 50.58 90.73 63.9 86.39 77.22 90.73 77.22 90.74 77.23 90.74 77.24 90.74 77.24 90.73 90.56 86.39 103.9 90.74 103.9 90.76 117.24 86.41 130.56 90.75 130.56 90.76 130.57 90.75 130.58 90.76 130.58 90.75 143.9 86.41 157.22 90.75 157.22 90.76 157.23 90.75 157.24 90.76 157.24 90.75 170.56 86.41 183.9 90.76 183.9 88.31 170.56 83.97 157.23 88.31"/>
              <polygon class="cls-16" points="157.23 83.95 143.9 79.6 130.57 83.95 117.24 79.6 103.9 83.95 103.9 83.93 90.56 79.59 77.23 83.93 63.9 79.59 50.57 83.93 37.24 79.59 23.9 83.93 23.9 86.38 37.24 82.03 50.56 86.37 50.56 86.38 50.57 86.37 50.58 86.38 50.58 86.37 63.9 82.03 77.22 86.37 77.22 86.38 77.23 86.37 77.24 86.38 77.24 86.37 90.56 82.03 103.9 86.38 103.9 86.39 117.24 82.05 130.56 86.39 130.56 86.39 130.57 86.39 130.58 86.39 130.58 86.39 143.9 82.05 157.22 86.39 157.22 86.39 157.23 86.39 157.24 86.39 157.24 86.39 170.56 82.05 183.9 86.39 183.9 83.95 170.56 79.6 157.23 83.95"/>
              <polygon class="cls-16" points="157.23 79.32 143.9 74.98 130.57 79.32 117.24 74.98 103.9 79.33 103.9 79.31 90.56 74.96 77.23 79.3 63.9 74.96 50.57 79.3 37.24 74.96 23.9 79.31 23.9 81.75 37.24 77.41 50.56 81.75 50.56 81.75 50.57 81.75 50.58 81.75 50.58 81.75 63.9 77.41 77.22 81.75 77.22 81.75 77.23 81.75 77.24 81.75 77.24 81.75 90.56 77.41 103.9 81.75 103.9 81.77 117.24 77.42 130.56 81.77 130.56 81.77 130.57 81.77 130.58 81.77 130.58 81.77 143.9 77.42 157.22 81.77 157.22 81.77 157.23 81.77 157.24 81.77 157.24 81.77 170.56 77.42 183.9 81.77 183.9 79.33 170.56 74.98 157.23 79.32"/>
              <polygon class="cls-16" points="157.23 74.7 143.9 70.35 130.57 74.7 117.24 70.35 103.9 74.7 103.9 74.68 90.56 70.34 77.23 74.68 63.9 70.34 50.57 74.68 37.24 70.34 23.9 74.68 23.9 77.13 37.24 72.78 50.56 77.12 50.56 77.13 50.57 77.12 50.58 77.13 50.58 77.12 63.9 72.78 77.22 77.12 77.22 77.13 77.23 77.12 77.24 77.13 77.24 77.12 90.56 72.78 103.9 77.13 103.9 77.15 117.24 72.8 130.56 77.14 130.56 77.15 130.57 77.14 130.58 77.15 130.58 77.14 143.9 72.8 157.22 77.14 157.22 77.15 157.23 77.14 157.24 77.15 157.24 77.14 170.56 72.8 183.9 77.15 183.9 74.7 170.56 70.35 157.23 74.7"/>
              <polygon class="cls-16" points="157.23 70.07 143.9 65.73 130.57 70.07 117.24 65.73 103.9 70.08 103.9 70.06 90.56 65.71 77.23 70.06 63.9 65.71 50.57 70.06 37.24 65.71 23.9 70.06 23.9 72.5 37.24 68.16 50.56 72.5 50.56 72.5 50.57 72.5 50.58 72.5 50.58 72.5 63.9 68.16 77.22 72.5 77.22 72.5 77.23 72.5 77.24 72.5 77.24 72.5 90.56 68.16 103.9 72.5 103.9 72.52 117.24 68.17 130.56 72.52 130.56 72.52 130.57 72.52 130.58 72.52 130.58 72.52 143.9 68.17 157.22 72.52 157.22 72.52 157.23 72.52 157.24 72.52 157.24 72.52 170.56 68.17 183.9 72.52 183.9 70.08 170.56 65.73 157.23 70.07"/>
              <polygon class="cls-16" points="157.23 65.45 143.9 61.11 130.57 65.45 117.24 61.11 103.9 65.45 103.9 65.43 90.56 61.09 77.23 65.43 63.9 61.09 50.57 65.43 37.24 61.09 23.9 65.43 23.9 67.88 37.24 63.53 50.56 67.87 50.56 67.88 50.57 67.88 50.58 67.88 50.58 67.87 63.9 63.53 77.22 67.87 77.22 67.88 77.23 67.88 77.24 67.88 77.24 67.87 90.56 63.53 103.9 67.88 103.9 67.9 117.24 63.55 130.56 67.89 130.56 67.9 130.57 67.89 130.58 67.9 130.58 67.89 143.9 63.55 157.22 67.89 157.22 67.9 157.23 67.89 157.24 67.9 157.24 67.89 170.56 63.55 183.9 67.9 183.9 65.45 170.56 61.11 157.23 65.45"/>
              <polygon class="cls-16" points="157.23 60.83 143.9 56.48 130.57 60.83 117.24 56.48 103.9 60.83 103.9 60.81 90.56 56.46 77.23 60.81 63.9 56.46 50.57 60.81 37.24 56.46 23.9 60.81 23.9 63.25 37.24 58.91 50.56 63.25 50.56 63.25 50.57 63.25 50.58 63.25 50.58 63.25 63.9 58.91 77.22 63.25 77.22 63.25 77.23 63.25 77.24 63.25 77.24 63.25 90.56 58.91 103.9 63.25 103.9 63.27 117.24 58.93 130.56 63.27 130.56 63.27 130.57 63.27 130.58 63.27 130.58 63.27 143.9 58.93 157.22 63.27 157.22 63.27 157.23 63.27 157.24 63.27 157.24 63.27 170.56 58.93 183.9 63.27 183.9 60.83 170.56 56.48 157.23 60.83"/>
              <polygon class="cls-16" points="157.23 56.2 143.9 51.86 130.57 56.2 117.24 51.86 103.9 56.2 103.9 56.18 90.56 51.84 77.23 56.18 63.9 51.84 50.57 56.18 37.24 51.84 23.9 56.18 23.9 58.63 37.24 54.28 50.56 58.62 50.56 58.63 50.57 58.63 50.58 58.63 50.58 58.62 63.9 54.28 77.22 58.62 77.22 58.63 77.23 58.63 77.24 58.63 77.24 58.62 90.56 54.28 103.9 58.63 103.9 58.65 117.24 54.3 130.56 58.64 130.56 58.65 130.57 58.65 130.58 58.65 130.58 58.64 143.9 54.3 157.22 58.64 157.22 58.65 157.23 58.65 157.24 58.65 157.24 58.64 170.56 54.3 183.9 58.65 183.9 56.2 170.56 51.86 157.23 56.2"/>
              <polygon class="cls-16" points="157.23 51.58 143.9 47.23 130.57 51.58 117.24 47.23 103.9 51.58 103.9 51.56 90.56 47.21 77.23 51.56 63.9 47.21 50.57 51.56 37.24 47.21 23.9 51.56 23.9 54 37.24 49.66 50.56 54 50.56 54 50.57 54 50.58 54 50.58 54 63.9 49.66 77.22 54 77.22 54 77.23 54 77.24 54 77.24 54 90.56 49.66 103.9 54 103.9 54.02 117.24 49.68 130.56 54.02 130.56 54.02 130.57 54.02 130.58 54.02 130.58 54.02 143.9 49.68 157.22 54.02 157.22 54.02 157.23 54.02 157.24 54.02 157.24 54.02 170.56 49.68 183.9 54.02 183.9 51.58 170.56 47.23 157.23 51.58"/>
              <polygon class="cls-16" points="170.56 42.61 157.23 46.95 143.9 42.61 130.57 46.95 117.24 42.61 103.9 46.95 103.9 46.94 90.56 42.59 77.23 46.93 63.9 42.59 50.57 46.93 37.24 42.59 23.9 46.94 23.9 49.38 37.24 45.03 50.56 49.38 50.56 49.38 50.57 49.38 50.58 49.38 50.58 49.38 63.9 45.03 77.22 49.38 77.22 49.38 77.23 49.38 77.24 49.38 77.24 49.38 90.56 45.03 103.9 49.38 103.9 49.4 117.24 45.05 130.56 49.39 130.56 49.4 130.57 49.4 130.58 49.4 130.58 49.39 143.9 45.05 157.22 49.39 157.22 49.4 157.23 49.4 157.24 49.4 157.24 49.39 170.56 45.05 183.9 49.4 183.9 46.95 170.56 42.61"/>
            </g>
          </g>
        </g>
      </g>
      <g class="cls-1">
        <path class="cls-12" d="m-38.59,310.11l2.33-105.59S.79,195.94,29.23,174.52c0,0,5.25,1.28,9.21-.21,2.45-.92,5.64-1.53,7.06-.85,3.18,1.53,3.18,3.92,32.27,18.73l14.27-4.1,12.12,4.79,24.07-11.92,4.38,1.99,4.92-1.49,4.92,2.99,8.21-.5s5.35,1.76,11.86,3.9c16.44,5.4,34.58,6.29,50.45-.37,11.29-4.74,24.19-11.3,35.68-19.96,0,0,5.25,1.28,9.21-.21,2.45-.92,5.64-1.53,7.06-.85,3.18,1.53,3.18-1.08,32.27,13.73l14.27-9.1,12.12,4.79,24.07-3.42,4.38,1.99,4.92-1.49,4.92,2.99,8.21-.5s23.16,8.64,33.37,10.96c20.79,4.72,10.68,120.15,10.68,120.15l-233.31,3.54.06-3.33-219.49,3.33Z"/>
        <g class="cls-4">
          <g class="cls-3">
            <rect class="cls-13" x="-26.63" y="69.41" width="317.99" height="191.4"/>
            <g>
              <polygon class="cls-15" points="244.08 257.62 216.67 248.69 189.26 257.62 161.85 248.69 134.43 257.62 134.43 257.58 107 248.65 79.59 257.58 52.19 248.65 24.78 257.58 -2.63 248.65 -30.06 257.58 -30.06 262.61 -2.63 253.67 24.76 262.6 24.76 262.61 24.78 262.61 24.79 262.61 24.79 262.6 52.19 253.67 79.58 262.6 79.58 262.61 79.59 262.61 79.61 262.61 79.61 262.6 107 253.67 134.43 262.61 134.43 262.65 161.85 253.71 189.25 262.64 189.25 262.65 189.26 262.64 189.28 262.65 189.28 262.64 216.67 253.71 244.06 262.64 244.06 262.65 244.08 262.64 244.09 262.65 244.09 262.64 271.49 253.71 298.91 262.65 298.91 257.62 271.49 248.69 244.08 257.62"/>
              <polygon class="cls-15" points="244.08 248.11 216.67 239.18 189.26 248.11 161.85 239.18 134.43 248.11 134.43 248.08 107 239.14 79.59 248.07 52.19 239.14 24.78 248.07 -2.63 239.14 -30.06 248.08 -30.06 253.1 -2.63 244.17 24.76 253.09 24.76 253.1 24.78 253.1 24.79 253.1 24.79 253.09 52.19 244.17 79.58 253.09 79.58 253.1 79.59 253.1 79.61 253.1 79.61 253.09 107 244.17 134.43 253.1 134.43 253.14 161.85 244.21 189.25 253.13 189.25 253.14 189.26 253.14 189.28 253.14 189.28 253.13 216.67 244.21 244.06 253.13 244.06 253.14 244.08 253.14 244.09 253.14 244.09 253.13 271.49 244.21 298.91 253.14 298.91 248.11 271.49 239.18 244.08 248.11"/>
              <polygon class="cls-15" points="244.08 238.6 216.67 229.67 189.26 238.6 161.85 229.67 134.43 238.61 134.43 238.57 107 229.63 79.59 238.56 52.19 229.63 24.78 238.56 -2.63 229.63 -30.06 238.57 -30.06 243.59 -2.63 234.66 24.76 243.58 24.76 243.59 24.78 243.59 24.79 243.59 24.79 243.58 52.19 234.66 79.58 243.58 79.58 243.59 79.59 243.59 79.61 243.59 79.61 243.58 107 234.66 134.43 243.59 134.43 243.63 161.85 234.7 189.25 243.62 189.25 243.63 189.26 243.63 189.28 243.63 189.28 243.62 216.67 234.7 244.06 243.62 244.06 243.63 244.08 243.63 244.09 243.63 244.09 243.62 271.49 234.7 298.91 243.63 298.91 238.61 271.49 229.67 244.08 238.6"/>
              <polygon class="cls-15" points="244.08 229.09 216.67 220.16 189.26 229.09 161.85 220.16 134.43 229.1 134.43 229.06 107 220.12 79.59 229.05 52.19 220.12 24.78 229.05 -2.63 220.12 -30.06 229.06 -30.06 234.09 -2.63 225.15 24.76 234.08 24.76 234.09 24.78 234.08 24.79 234.09 24.79 234.08 52.19 225.15 79.58 234.08 79.58 234.09 79.59 234.08 79.61 234.09 79.61 234.08 107 225.15 134.43 234.09 134.43 234.12 161.85 225.19 189.25 234.11 189.25 234.12 189.26 234.12 189.28 234.12 189.28 234.11 216.67 225.19 244.06 234.11 244.06 234.12 244.08 234.12 244.09 234.12 244.09 234.11 271.49 225.19 298.91 234.12 298.91 229.1 271.49 220.16 244.08 229.09"/>
              <polygon class="cls-15" points="244.08 220.13 216.67 211.19 189.26 220.13 161.85 211.19 134.43 220.13 134.43 220.09 107 211.16 79.59 220.09 52.19 211.16 24.78 220.09 -2.63 211.16 -30.06 220.09 -30.06 225.12 -2.63 216.18 24.76 225.11 24.76 225.12 24.78 225.11 24.79 225.12 24.79 225.11 52.19 216.18 79.58 225.11 79.58 225.12 79.59 225.11 79.61 225.12 79.61 225.11 107 216.18 134.43 225.12 134.43 225.16 161.85 216.22 189.25 225.15 189.25 225.16 189.26 225.15 189.28 225.16 189.28 225.15 216.67 216.22 244.06 225.15 244.06 225.16 244.08 225.15 244.09 225.16 244.09 225.15 271.49 216.22 298.91 225.16 298.91 220.13 271.49 211.19 244.08 220.13"/>
              <polygon class="cls-15" points="244.08 210.62 216.67 201.69 189.26 210.62 161.85 201.69 134.43 210.62 134.43 210.58 107 201.65 79.59 210.58 52.19 201.65 24.78 210.58 -2.63 201.65 -30.06 210.58 -30.06 215.61 -2.63 206.68 24.76 215.6 24.76 215.61 24.78 215.61 24.79 215.61 24.79 215.6 52.19 206.68 79.58 215.6 79.58 215.61 79.59 215.61 79.61 215.61 79.61 215.6 107 206.68 134.43 215.61 134.43 215.65 161.85 206.71 189.25 215.64 189.25 215.65 189.26 215.64 189.28 215.65 189.28 215.64 216.67 206.71 244.06 215.64 244.06 215.65 244.08 215.64 244.09 215.65 244.09 215.64 271.49 206.71 298.91 215.65 298.91 210.62 271.49 201.69 244.08 210.62"/>
              <polygon class="cls-15" points="244.08 201.11 216.67 192.18 189.26 201.11 161.85 192.18 134.43 201.11 134.43 201.08 107 192.14 79.59 201.07 52.19 192.14 24.78 201.07 -2.63 192.14 -30.06 201.08 -30.06 206.1 -2.63 197.17 24.76 206.09 24.76 206.1 24.78 206.1 24.79 206.1 24.79 206.09 52.19 197.17 79.58 206.09 79.58 206.1 79.59 206.1 79.61 206.1 79.61 206.09 107 197.17 134.43 206.1 134.43 206.14 161.85 197.21 189.25 206.13 189.25 206.14 189.26 206.14 189.28 206.14 189.28 206.13 216.67 197.21 244.06 206.13 244.06 206.14 244.08 206.14 244.09 206.14 244.09 206.13 271.49 197.21 298.91 206.14 298.91 201.11 271.49 192.18 244.08 201.11"/>
              <polygon class="cls-15" points="244.08 191.6 216.67 182.67 189.26 191.6 161.85 182.67 134.43 191.61 134.43 191.57 107 182.63 79.59 191.56 52.19 182.63 24.78 191.56 -2.63 182.63 -30.06 191.57 -30.06 196.59 -2.63 187.66 24.76 196.59 24.76 196.59 24.78 196.59 24.79 196.59 24.79 196.59 52.19 187.66 79.58 196.59 79.58 196.59 79.59 196.59 79.61 196.59 79.61 196.59 107 187.66 134.43 196.59 134.43 196.63 161.85 187.7 189.25 196.62 189.25 196.63 189.26 196.63 189.28 196.63 189.28 196.62 216.67 187.7 244.06 196.62 244.06 196.63 244.08 196.63 244.09 196.63 244.09 196.62 271.49 187.7 298.91 196.63 298.91 191.61 271.49 182.67 244.08 191.6"/>
              <polygon class="cls-15" points="244.08 182.09 216.67 173.16 189.26 182.09 161.85 173.16 134.43 182.1 134.43 182.06 107 173.12 79.59 182.06 52.19 173.12 24.78 182.06 -2.63 173.12 -30.06 182.06 -30.06 187.09 -2.63 178.15 24.76 187.08 24.76 187.09 24.78 187.08 24.79 187.09 24.79 187.08 52.19 178.15 79.58 187.08 79.58 187.09 79.59 187.08 79.61 187.09 79.61 187.08 107 178.15 134.43 187.09 134.43 187.12 161.85 178.19 189.25 187.12 189.25 187.12 189.26 187.12 189.28 187.12 189.28 187.12 216.67 178.19 244.06 187.12 244.06 187.12 244.08 187.12 244.09 187.12 244.09 187.12 271.49 178.19 298.91 187.12 298.91 182.1 271.49 173.16 244.08 182.09"/>
              <polygon class="cls-15" points="244.08 172.59 216.67 163.65 189.26 172.59 161.85 163.65 134.43 172.59 134.43 172.55 107 163.62 79.59 172.55 52.19 163.62 24.78 172.55 -2.63 163.62 -30.06 172.55 -30.06 177.58 -2.63 168.64 24.76 177.57 24.76 177.58 24.78 177.57 24.79 177.58 24.79 177.57 52.19 168.64 79.58 177.57 79.58 177.58 79.59 177.57 79.61 177.58 79.61 177.57 107 168.64 134.43 177.58 134.43 177.62 161.85 168.68 189.25 177.61 189.25 177.62 189.26 177.61 189.28 177.62 189.28 177.61 216.67 168.68 244.06 177.61 244.06 177.62 244.08 177.61 244.09 177.62 244.09 177.61 271.49 168.68 298.91 177.62 298.91 172.59 271.49 163.65 244.08 172.59"/>
              <polygon class="cls-15" points="244.08 163.08 216.67 154.15 189.26 163.08 161.85 154.15 134.43 163.08 134.43 163.04 107 154.11 79.59 163.04 52.19 154.11 24.78 163.04 -2.63 154.11 -30.06 163.04 -30.06 168.07 -2.63 159.13 24.76 168.06 24.76 168.07 24.78 168.07 24.79 168.07 24.79 168.06 52.19 159.13 79.58 168.06 79.58 168.07 79.59 168.07 79.61 168.07 79.61 168.06 107 159.13 134.43 168.07 134.43 168.11 161.85 159.17 189.25 168.1 189.25 168.11 189.26 168.1 189.28 168.11 189.28 168.1 216.67 159.17 244.06 168.1 244.06 168.11 244.08 168.1 244.09 168.11 244.09 168.1 271.49 159.17 298.91 168.11 298.91 163.08 271.49 154.15 244.08 163.08"/>
              <polygon class="cls-15" points="244.08 153.57 216.67 144.64 189.26 153.57 161.85 144.64 134.43 153.57 134.43 153.54 107 144.6 79.59 153.53 52.19 144.6 24.78 153.53 -2.63 144.6 -30.06 153.54 -30.06 158.56 -2.63 149.63 24.76 158.55 24.76 158.56 24.78 158.56 24.79 158.56 24.79 158.55 52.19 149.63 79.58 158.55 79.58 158.56 79.59 158.56 79.61 158.56 79.61 158.55 107 149.63 134.43 158.56 134.43 158.6 161.85 149.66 189.25 158.59 189.25 158.6 189.26 158.6 189.28 158.6 189.28 158.59 216.67 149.66 244.06 158.59 244.06 158.6 244.08 158.6 244.09 158.6 244.09 158.59 271.49 149.66 298.91 158.6 298.91 153.57 271.49 144.64 244.08 153.57"/>
              <polygon class="cls-15" points="271.49 135.13 244.08 144.06 216.67 135.13 189.26 144.06 161.85 135.13 134.43 144.07 134.43 144.03 107 135.09 79.59 144.02 52.19 135.09 24.78 144.02 -2.63 135.09 -30.06 144.03 -30.06 149.05 -2.63 140.12 24.76 149.04 24.76 149.05 24.78 149.05 24.79 149.05 24.79 149.04 52.19 140.12 79.58 149.04 79.58 149.05 79.59 149.05 79.61 149.05 79.61 149.04 107 140.12 134.43 149.05 134.43 149.09 161.85 140.16 189.25 149.08 189.25 149.09 189.26 149.09 189.28 149.09 189.28 149.08 216.67 140.16 244.06 149.08 244.06 149.09 244.08 149.09 244.09 149.09 244.09 149.08 271.49 140.16 298.91 149.09 298.91 144.07 271.49 135.13"/>
            </g>
          </g>
        </g>
        <g>
          <rect class="cls-17" x="75.23" y="219.78" width="11" height="10.19"/>
          <circle class="cls-17" cx="80.73" cy="219.78" r="5.5"/>
        </g>
        <g>
          <rect class="cls-17" x="102.67" y="219.78" width="11" height="10.19"/>
          <circle class="cls-17" cx="108.17" cy="219.78" r="5.5"/>
        </g>
        <g>
          <rect class="cls-17" x="184.33" y="219.78" width="11" height="10.19"/>
          <circle class="cls-17" cx="189.83" cy="219.78" r="5.5"/>
        </g>
        <g>
          <rect class="cls-17" x="239.91" y="219.78" width="11" height="10.19"/>
          <circle class="cls-17" cx="245.41" cy="219.78" r="5.5"/>
        </g>
        <g>
          <rect class="cls-17" x="267.32" y="219.78" width="11" height="10.19"/>
          <circle class="cls-17" cx="272.82" cy="219.78" r="5.5"/>
        </g>
        <path class="cls-14" d="m436.86,162.49s-29.23,2.21-61.17,14.68c-72.42,28.29-104.71,67.71-174.38,65.82-27.04-.73-66-4.14-86.27-5.74-43.24-3.41-83.61,34.76-120.82-40.83-14.93-30.33-1.35-4.61-13.91-8.87l-6.84,110.64,464.92,52.55-1.54-188.25Z"/>
      </g>
      <g>
        <rect class="cls-17" x="46.79" y="216.78" width="11" height="10.19"/>
        <circle class="cls-17" cx="52.29" cy="216.78" r="5.5"/>
      </g>
      <g>
        <g>
          <path class="cls-11" d="m150.68,111.16h-3.54v-1.99h9.58l-.38,1.99h-3.23v8.62h-2.43v-8.62Z"/>
          <path class="cls-11" d="m157.85,115.19v-6.01h2.43v5.87c0,1.77.96,2.83,2.64,2.83s2.58-1.06,2.58-2.83v-5.87h2.28v6.01c0,2.98-2.06,4.75-4.95,4.75s-4.98-1.77-4.98-4.75Z"/>
          <path class="cls-11" d="m170.18,109.17h4.82c2.17,0,4.41,1.21,4.41,3.61,0,1.55-.91,2.59-2.14,3.17l3.27,3.83h-3.15l-2.64-3.3h-2.14v3.3h-2.43v-10.61Zm4.32,5.39c1.25,0,2.4-.58,2.4-1.71,0-1.22-1.06-1.77-2.33-1.77h-1.96v3.48h1.89Z"/>
          <path class="cls-11" d="m189.27,119.78l-3.24-4.33-1.68,1.74v2.59h-2.43v-10.61h2.43v5.1l4.72-5.1h3.07l-4.48,4.61,4.67,6h-3.05Z"/>
          <path class="cls-11" d="m192.12,114.76c0-3.36,2.74-5.73,6.15-5.73,1.52,0,2.9.31,3.92.72l-.63,1.89c-.71-.35-1.8-.66-3.15-.66-1.9,0-3.32,1.03-3.76,2.68h5.42l-.25,1.84h-5.2c.32,1.56,1.87,2.49,4.1,2.49,1.16,0,2.54-.32,3.32-.62l-.24,2.05c-.74.27-2.03.52-3.18.52-3.51,0-6.49-1.86-6.49-5.17Z"/>
          <path class="cls-11" d="m207.58,115.79l-4.83-6.62h2.79l3.27,4.6,3.23-4.6h2.49l-4.78,6.6v3.99h-2.17v-3.98Z"/>
        </g>
        <g>
          <path class="cls-11" d="m30.15,145.62c0-10.13,8.23-16.25,17-16.25,3.47,0,7.98.83,10.83,1.98l-1.74,5.46c-2.07-.91-5.09-1.86-8.77-1.86-5.67,0-10.3,4.38-10.3,9.97s5.09,9.47,10.54,9.47c3.72,0,6.37-.83,9.43-2.19l-.66,5.95c-1.99.95-5.75,1.82-9.06,1.82-8.77,0-17.28-5.67-17.28-14.35Z"/>
          <path class="cls-11" d="m59.13,159.56c2.81-8.93,8.52-18.69,14.31-24.56h-8.52l1.82-5.21h21.3v29.77h-6.82v-5.75h-13.32c-.91,2.03-1.65,3.97-2.19,5.75h-6.58Zm11.37-10.96h10.71v-13.77h-.29c-3.76,3.39-7.53,8.52-10.42,13.77Z"/>
          <path class="cls-11" d="m95.15,129.78h12.74c7.03,0,13.15,3.47,13.15,10.13s-6.12,10.38-13.15,10.38h-5.91v9.26h-6.82v-29.77Zm12.32,15.13c3.93,0,6.53-1.82,6.53-4.96,0-2.94-2.56-4.8-6.53-4.8h-5.5v9.76h5.5Z"/>
          <path class="cls-11" d="m125.66,129.78h12.74c7.03,0,13.15,3.47,13.15,10.13s-6.12,10.38-13.15,10.38h-5.91v9.26h-6.82v-29.77Zm12.32,15.13c3.93,0,6.53-1.82,6.53-4.96,0-2.94-2.56-4.8-6.53-4.8h-5.5v9.76h5.5Z"/>
          <path class="cls-11" d="m150.43,159.56c2.81-8.93,8.52-18.69,14.31-24.56h-8.52l1.82-5.21h21.3v29.77h-6.82v-5.75h-13.32c-.91,2.03-1.65,3.97-2.19,5.75h-6.58Zm11.37-10.96h10.71v-13.77h-.29c-3.76,3.39-7.53,8.52-10.42,13.77Z"/>
          <path class="cls-11" d="m186.44,129.78h11.66c9.14,0,17.99,4.88,17.99,14.39s-8.44,15.38-17.99,15.38h-11.66v-29.77Zm11.25,24.31c6.62,0,11.37-3.89,11.37-9.92s-5.17-8.93-11.37-8.93h-4.42v18.86h4.42Z"/>
          <path class="cls-11" d="m219.69,144.92c0-8.89,7.69-15.55,17-15.55s17.08,6.53,17.08,15.42-7.77,15.18-17,15.18-17.08-6.2-17.08-15.05Zm27.04-.12c0-5.91-4.51-9.97-10.09-9.97s-9.92,4.67-9.92,10.09c0,5.91,4.47,9.59,10.05,9.59s9.97-3.97,9.97-9.72Z"/>
          <path class="cls-11" d="m257.31,145.62c0-10.13,8.23-16.25,17-16.25,3.47,0,7.98.83,10.83,1.98l-1.74,5.46c-2.07-.91-5.09-1.86-8.77-1.86-5.67,0-10.3,4.38-10.3,9.97s5.09,9.47,10.54,9.47c3.72,0,6.37-.83,9.43-2.19l-.66,5.95c-1.99.95-5.75,1.82-9.06,1.82-8.77,0-17.28-5.67-17.28-14.35Z"/>
          <path class="cls-11" d="m296.55,159.56h-6.82v-29.77h6.82v29.77Z"/>
          <path class="cls-11" d="m300.23,159.56c2.81-8.93,8.52-18.69,14.31-24.56h-8.52l1.82-5.21h21.3v29.77h-6.82v-5.75h-13.32c-.91,2.03-1.65,3.97-2.19,5.75h-6.58Zm11.37-10.96h10.71v-13.77h-.29c-3.76,3.39-7.53,8.52-10.42,13.77Z"/>
        </g>
      </g>
    </g>
  </g>
</svg>