<?xml version="1.0" encoding="UTF-8"?>
<svg id="OUTLINED" xmlns="http://www.w3.org/2000/svg" xmlns:xlink="http://www.w3.org/1999/xlink" viewBox="0 0 375 250">
  <defs>
    <style>
      .cls-1 {
        clip-path: url(#clippath-4);
      }

      .cls-1, .cls-2, .cls-3, .cls-4, .cls-5, .cls-6, .cls-7, .cls-8 {
        fill: none;
      }

      .cls-2 {
        clip-path: url(#clippath-2);
      }

      .cls-3 {
        clip-path: url(#clippath-6);
      }

      .cls-9 {
        fill: #d65627;
      }

      .cls-10 {
        fill: #48a474;
      }

      .cls-11 {
        fill: #fcee10;
      }

      .cls-12 {
        fill: #f07530;
      }

      .cls-13 {
        fill: #fdb515;
      }

      .cls-4 {
        clip-path: url(#clippath-5);
      }

      .cls-5 {
        clip-path: url(#clippath-3);
      }

      .cls-14 {
        fill: #6db6e2;
      }

      .cls-15 {
        fill: #034676;
      }

      .cls-7 {
        clip-path: url(#clippath);
      }

      .cls-16 {
        fill: #ffec2a;
      }

      .cls-8 {
        clip-path: url(#clippath-1);
      }

      .cls-17 {
        fill: #00ace5;
      }
    </style>
    <clipPath id="clippath">
      <rect class="cls-6" width="375" height="250"/>
    </clipPath>
    <clipPath id="clippath-1">
      <rect class="cls-6" x="-.24" y="28" width="211.5" height="225.03"/>
    </clipPath>
    <clipPath id="clippath-2">
      <polygon class="cls-6" points="204.13 207.93 204.13 211.48 188.26 211.48 188.26 225.14 174.75 225.14 174.75 222.97 172.66 222.97 172.66 221.12 165.18 221.12 165.18 216.58 160.82 216.58 160.82 218.24 156.38 218.24 156.38 219.95 141.92 219.95 141.92 212.68 128.62 212.68 128.62 214.98 116.73 214.98 116.73 211.52 108.9 211.52 108.9 211.3 106.83 211.3 106.83 202.3 94.54 202.3 94.54 211.3 60.32 211.29 60.44 219.27 23.1 219.27 22.99 211.28 10.72 211.27 10.72 202.03 -7.02 202.03 -7.02 211.48 -15.7 211.48 -15.7 225.14 -29.21 225.14 -29.21 222.97 -30.67 222.97 -30.67 271.83 305.68 271.83 305.68 211.3 247.74 211.29 247.86 220.58 226.34 220.58 226.23 211.28 214.68 211.27 214.68 207.93 204.13 207.93"/>
    </clipPath>
    <clipPath id="clippath-3">
      <polygon class="cls-6" points="-4.6 273.51 306.38 266.23 306.38 74.83 .12 74.83 -4.6 273.51"/>
    </clipPath>
    <clipPath id="clippath-4">
      <path class="cls-6" d="m292.75,222.07l-83.52.36c-41.12-.43-63.67,64.45-65.05,78.35h176.28l62.6.71v-142.79s-7.18-.62-7.18-.62c-4.28,74.99-80.57,63.76-80.57,63.76m80.57-63.76c.1-2.11.15-4.28.15-6.52l-.15,6.52Z"/>
    </clipPath>
    <clipPath id="clippath-5">
      <rect class="cls-6" x="-484.35" y="151.35" width="1385.96" height="1385.96"/>
    </clipPath>
    <clipPath id="clippath-6">
      <path class="cls-12" d="m56.82,177.68v13.87c-2.64,9.48-10.58,16.74-20.42,18.43v47.6H6.27v-72.96s0,0,0,0c0-14.22,11.53-25.75,25.75-25.75,11.82,0,21.78,7.96,24.8,18.81"/>
    </clipPath>
  </defs>
  <g id="Headers_OUTLINED" data-name="Headers OUTLINED">
    <g class="cls-7">
      <g>
        <rect class="cls-11" x="-1" y="29.54" width="375" height="221.18"/>
        <rect class="cls-11" x="-16.39" y=".16" width="403.78" height="253.16"/>
        <path class="cls-13" d="m609.31,325.06l-11.07-158.54s-59.75-16.6-105.82-13.5c0,0-4.3-.55-9.49-1.8,0,0-11.87,2.36-24.72,2.18l-27.71-7.66-11.86,2.73-19.63,1.22-4.99,3.17-26.52.04s-27.14,5.6-29.68,6.08c-2.55.48-22.55,12.79-22.55,12.79l-13.94-2.44c-2.07-.36-4.48-.31-6.6.16l-14.98,3.26-25.19-.37c-1.48-.02-2.98.12-4.37.4-4.15.86-13.22,2.67-15.2,2.48-2.1-.21-27.15-5.07-36.35-6.85-2.16-.42-4.66-.45-7.02-.1-6.94,1.05-21.61,3.23-25.21,3.54-16.05,1.38-66.64-5.2-82.49-5.63-5.93-.16-17.13-6.9-20.72-7.34-.56-.07-12.82-.1-13.41-.11l-11.98-3.1c-3.85-3.73-16.25-4.76-28.97-4.64-12.73.12-33.39-5.2-47.26-8.36-13.87-3.16-28.27-3.11-28.27-3.11,0,0-4.16-3.14-6.91-4.76-2.75-1.61-1.9-5.26-3.98-6.76-2.07-1.5-8.06-.37-9.37.12-1.32.49-7.9,3.23-7.9,3.23-2.18-3.95-3.49-3.32-4.56-4.71-1.07-1.4-6.91-4.9-11.59-4.56s-5.46,5.29-9.77,6.49c-4.3,1.2-4.83,4.54-9.04,7.91-4.21,3.36-21.53,5.7-32.89,6.19-11.37.49-39.45,9.51-46.78,10.41-7.33.89-8.07-.81-15.01,1.37-6.94,2.18-25.25,4.85-30.59,5.37l.82,49.91,16.74-.73c6.97-.3,12.73,1.87,12.93,4.88l1.05,16.34c.25,3.97,179.66,70.71,188.86,70.31l147.05-6.37c7.94-.34,14.17-3.47,13.72-6.88l-.8-5.94c-.33-2.45,4.15-4.7,9.86-4.94l34.39-1.49s12.16-1.14,12.31,2.44c.12,2.81,5.05,2.94,9.99,2.73l13.47-.58c6.33-.27,11.56,1.71,11.68,4.44.08,1.75.17,3.65.23,5.18.18,4.14,5.51,3.97,11.55,3.83.93-.02,32.22,42.72,32.22,42.72l-.53-12.3,348.83,1.66Z"/>
        <path class="cls-10" d="m70.79,39.49s45.14,25.64,64.24,44.6c0,0-32.94-11.7-52.62-23.2,0,0,26.07,23.39,31.53,30.04,0,0-37.34-14.83-46.68-22.85,0,0,16.73,15.36,19.46,31.64,0,0-32.45-26.64-60.06-47.23,0,0,17.52,22.32,18.14,40.2,0,0-23.64-29-60.1-55.29,0,0,43.94,41.12,54.82,72.26,0,0-23.51-22.09-30.82-30.57,0,0,7.97,17.16,9.9,26.48,0,0-40.11-47.8-75.47-79.79,0,0,26.73,23.43,21.79,53.07,0,0-29.19-43.14-58.12-81.09,0,0,120.62-6.82,208.39,16.68,0,0-49.01-1.11-64.96-.89,0,0,39.62,3.73,98.82,34.69,0,0-39.94-13.7-67.07-16.16,0,0,35.63,11.28,86.48,40.13l-97.67-32.72Z"/>
        <polygon class="cls-6" points="370.76 248.57 -.28 250.73 .24 -3.2 370.76 -3.2 370.76 248.57"/>
        <g>
          <path class="cls-9" d="m231.52,205.82c-9.58,0-17.35,7.77-17.35,17.35s7.77,17.35,17.35,17.35,17.35-7.77,17.35-17.35-7.77-17.35-17.35-17.35Zm0,28.91c-6.38,0-11.57-5.19-11.57-11.57s5.19-11.57,11.57-11.57,11.57,5.19,11.57,11.57-5.19,11.57-11.57,11.57Z"/>
          <path class="cls-9" d="m266.22,205.82c-9.58,0-17.35,7.77-17.35,17.35s7.77,17.35,17.35,17.35,17.35-7.77,17.35-17.35-7.77-17.35-17.35-17.35Zm0,28.91c-6.38,0-11.57-5.19-11.57-11.57s5.19-11.57,11.57-11.57,11.57,5.19,11.57,11.57-5.19,11.57-11.57,11.57Z"/>
          <path class="cls-9" d="m300.92,205.82c-9.58,0-17.35,7.77-17.35,17.35s7.77,17.35,17.35,17.35,17.35-7.77,17.35-17.35-7.77-17.35-17.35-17.35Zm0,28.91c-6.38,0-11.57-5.19-11.57-11.57s5.19-11.57,11.57-11.57,11.57,5.19,11.57,11.57-5.19,11.57-11.57,11.57Z"/>
        </g>
        <g class="cls-8">
          <g>
            <polygon class="cls-9" points="149.72 187.28 147.81 187.28 147.81 180.38 147.2 180.38 147.2 187.28 145.29 187.28 144.26 188.75 150.75 188.75 149.72 187.28"/>
            <path class="cls-9" d="m207.59,229.11h-3.01v-38.99h-1.63v-5.76l-12.66-8.68h0s-12.85,8.68-12.85,8.68v5.76h-1.63v27.9l-2.8,1.9v-14.42h-14.12v13.64h-.34l-3.39-8.14h.79v-.71h-.85v-9.06h-.54v-4.22h.39v-1.58h-2.59v-6.66h-9.71v6.66h-2.59v1.58h.38v36.99h-.3v-12.25h-.99v-9.81h-7.59v-15.6h-1.03v-12.62h-.94v-9.31h-10.19v9.31h-.94v12.62h-1.03v27.11l-.7-.96-5.18,6.94v3.57h-.71v.81l-2.29,2.04v-60.34h-4.88l-9.25,13.1v33.14h-1.18v13.29h-1.08v3.31l-5.44.83v-7.31h-1.18v-35.53h-14.12v35.53h-2.99l-3-.81v-34.72h-1.03v-12.62h-1.15l-1.84-5.52h-.46l-1.03-3.08h-1.3v-1.78c.44-.11.77-.47.77-.91s-.33-.81-.77-.91v-2.87h-.51v2.87c-.44.11-.77.47-.77.91s.33.81.77.91v1.78h-1.3l-1.03,3.08h-.46l-1.84,5.52h-1.15v12.62h-1.03v34.29l-3.57-.1-2.82,4h-.42v-28.53h.39v-1.26h-.39v-.61h.39v-1.26h-.39v-.62h.39v-1.26h-.39v-.62h.39v-1.26h-.39v-.62h.39v-1.26h-.39v-.62h.39v-1.26h-14.89v1.26h.38v.62h-.38v1.26h.38v.62h-.38v1.26h.38v.62h-.38v1.26h.38v.62h-.38v1.26h.38v.61h-.38v1.26h.38v17.72l-2.25,3.18v7.47l-2.16-.02v-.26h-2.73v-7.02h-1.75v-.03h.05l-.05-.07v-1.24h-.54v-16.65h-1.01v-14.67h-.59v-3.39l-4.84-6.59-4.92,6.59v3.39h-.67v14.67h-1.01v16.65h-.54v9.32H-6.89v35.26l-3.76,8.73h-.3v.69l-3.2,7.42-7.4,5.38-10.02,5.28-3.94,27.64-3.91,2.14-3.03,11.52H246.09s0,0,0,0h11.79s44.37-.01,44.37-.01l.06-.04,305.89-.3-.76-10.12-4.69-2.66-.33-18.11-13.38-14.43-12.31-56.88-3.8.35v-33.97h-1.73v-9.6h-36.96v9.6h-1.73v33.94h-.01v-7.1h-4v-33.41h-14.12v33.41h-3.69l-1.31-45.29h-1.67v-3.23h-.64l-3.22-7.72h.75v-.67h-.8v-8.6h-.73v8.6h-.8v.67h.7l-3.22,7.72h-.64v3.23h-1.68l-1.31,45.29h-2.99v-39.64h-1.63v-5.76l-12.66-8.68h0s-12.85,8.68-12.85,8.68v5.76h-1.63v28.56l-2.8,1.9v-15.07h-14.12v14.3h-.34l-3.39-8.14h.79v-.71h-.85v-9.06h-.54v-4.88h.39v-1.58h-2.59v-6.66h-9.71v6.66h-2.59v1.58h.38v36.99h-.3v-11.59h-.99v-9.81h-7.59v-16.26h-1.03v-12.62h-.94v-9.31h-10.19v9.31h-.94v12.62h-1.03v27.77l-.7-.96-5.18,6.94v3.11h-.02s-.52.46-.52.46h-.17v.15l-2.29,2.04v-60.34h-4.88l-9.24,13.1v33.8h-1.18v13.29h-1.08v2.65l-5.44.83v-6.65h-1.18v-36.19h-14.12v36.19h-.55l-5.43-1.47v-34.72h-1.03v-12.62h-1.15l-1.84-5.52h-.46l-1.03-3.07h-1.3v-1.78c.44-.11.77-.47.77-.92s-.33-.81-.77-.91v-2.87h-.51v2.87c-.44.11-.77.47-.77.91s.33.81.77.92v1.78h-1.3l-1.03,3.07h-.46l-1.84,5.52h-1.15v12.62h-1.03v34.29l-3.57-.1-2.82,4h-.42v-28.54h.38v-1.26h-.38v-.61h.38v-1.26h-.38v-.61h.38v-1.26h-.38v-.62h.38v-1.26h-.38v-.62h.38v-1.26h-.38v-.62h.38v-1.26h-14.89v1.26h.38v.62h-.38v1.26h.38v.62h-.38v1.26h.38v.62h-.38v1.26h.38v.61h-.38v1.26h.38v.61h-.38v1.26h.38v18.38l-2.25,3.18v6.81l-4.88-.05v-6.6h-1.75v-.03h.05l-.05-.07v-1.9h-.54v-16.65h-1.01v-14.67h-.59v-3.39l-4.84-6.59-4.92,6.59v3.39h-.67v14.67h-1.01v16.65h-.54v9.53l-1.21.45h-10.32v-32.78h-1.73v-9.6h-36.96v9.6h-1.73v33.94h-.01v-7.76h-4v-32.75h-14.12v32.75h-3.71m281.65-54.5l2.77,6.64h-2.77v-6.64Zm-.73-.11v6.74h-2.81l2.81-6.74Zm-59.41,38.3l2.91,7h-2.91v-7Zm-288.53-.66l2.92,7h-2.92v-7Z"/>
          </g>
          <g class="cls-2">
            <g class="cls-5">
              <rect class="cls-16" x="-6" y="74.83" width="317.99" height="191.4"/>
              <g>
                <polygon class="cls-9" points="264.72 253.53 237.31 244.6 209.9 253.53 182.49 244.6 155.07 253.54 155.07 253.5 127.64 244.56 100.23 253.5 72.82 244.56 45.41 253.5 18.01 244.56 -9.42 253.5 -9.42 258.53 18.01 249.59 45.4 258.52 45.4 258.53 45.41 258.52 45.43 258.53 45.43 258.52 72.82 249.59 100.22 258.52 100.22 258.53 100.23 258.52 100.25 258.53 100.25 258.52 127.64 249.59 155.07 258.53 155.07 258.56 182.49 249.63 209.88 258.55 209.88 258.56 209.9 258.56 209.91 258.56 209.91 258.55 237.31 249.63 264.7 258.55 264.7 258.56 264.72 258.56 264.73 258.56 264.73 258.55 292.12 249.63 319.55 258.56 319.55 253.54 292.12 244.6 264.72 253.53"/>
                <polygon class="cls-9" points="264.72 244.03 237.31 235.09 209.9 244.03 182.49 235.09 155.07 244.03 155.07 243.99 127.64 235.06 100.23 243.99 72.82 235.06 45.41 243.99 18.01 235.06 -9.42 243.99 -9.42 249.02 18.01 240.08 45.4 249.01 45.4 249.02 45.41 249.01 45.43 249.02 45.43 249.01 72.82 240.08 100.22 249.01 100.22 249.02 100.23 249.01 100.25 249.02 100.25 249.01 127.64 240.08 155.07 249.02 155.07 249.06 182.49 240.12 209.88 249.05 209.88 249.06 209.9 249.05 209.91 249.06 209.91 249.05 237.31 240.12 264.7 249.05 264.7 249.06 264.72 249.05 264.73 249.06 264.73 249.05 292.12 240.12 319.55 249.06 319.55 244.03 292.12 235.09 264.72 244.03"/>
                <polygon class="cls-9" points="264.72 234.52 237.31 225.59 209.9 234.52 182.49 225.59 155.07 234.52 155.07 234.48 127.64 225.55 100.23 234.48 72.82 225.55 45.41 234.48 18.01 225.55 -9.42 234.48 -9.42 239.51 18.01 230.57 45.4 239.5 45.4 239.51 45.41 239.51 45.43 239.51 45.43 239.5 72.82 230.57 100.22 239.5 100.22 239.51 100.23 239.51 100.25 239.51 100.25 239.5 127.64 230.57 155.07 239.51 155.07 239.55 182.49 230.61 209.88 239.54 209.88 239.55 209.9 239.54 209.91 239.55 209.91 239.54 237.31 230.61 264.7 239.54 264.7 239.55 264.72 239.54 264.73 239.55 264.73 239.54 292.12 230.61 319.55 239.55 319.55 234.52 292.12 225.59 264.72 234.52"/>
                <polygon class="cls-9" points="264.72 225.55 237.31 216.62 209.9 225.55 182.49 216.62 155.07 225.55 155.07 225.52 127.64 216.58 100.23 225.51 72.82 216.58 45.41 225.51 18.01 216.58 -9.42 225.52 -9.42 230.54 18.01 221.61 45.4 230.53 45.4 230.54 45.41 230.54 45.43 230.54 45.43 230.53 72.82 221.61 100.22 230.53 100.22 230.54 100.23 230.54 100.25 230.54 100.25 230.53 127.64 221.61 155.07 230.54 155.07 230.58 182.49 221.64 209.88 230.57 209.88 230.58 209.9 230.58 209.91 230.58 209.91 230.57 237.31 221.64 264.7 230.57 264.7 230.58 264.72 230.58 264.73 230.58 264.73 230.57 292.12 221.64 319.55 230.58 319.55 225.55 292.12 216.62 264.72 225.55"/>
                <polygon class="cls-9" points="264.72 216.04 237.31 207.11 209.9 216.04 182.49 207.11 155.07 216.05 155.07 216.01 127.64 207.07 100.23 216 72.82 207.07 45.41 216 18.01 207.07 -9.42 216.01 -9.42 221.03 18.01 212.1 45.4 221.02 45.4 221.03 45.41 221.03 45.43 221.03 45.43 221.02 72.82 212.1 100.22 221.02 100.22 221.03 100.23 221.03 100.25 221.03 100.25 221.02 127.64 212.1 155.07 221.03 155.07 221.07 182.49 212.14 209.88 221.06 209.88 221.07 209.9 221.07 209.91 221.07 209.91 221.06 237.31 212.14 264.7 221.06 264.7 221.07 264.72 221.07 264.73 221.07 264.73 221.06 292.12 212.14 319.55 221.07 319.55 216.05 292.12 207.11 264.72 216.04"/>
                <polygon class="cls-9" points="264.72 206.53 237.31 197.6 209.9 206.53 182.49 197.6 155.07 206.54 155.07 206.5 127.64 197.56 100.23 206.5 72.82 197.56 45.41 206.5 18.01 197.56 -9.42 206.5 -9.42 211.53 18.01 202.59 45.4 211.52 45.4 211.53 45.41 211.52 45.43 211.53 45.43 211.52 72.82 202.59 100.22 211.52 100.22 211.53 100.23 211.52 100.25 211.53 100.25 211.52 127.64 202.59 155.07 211.53 155.07 211.56 182.49 202.63 209.88 211.55 209.88 211.56 209.9 211.56 209.91 211.56 209.91 211.55 237.31 202.63 264.7 211.55 264.7 211.56 264.72 211.56 264.73 211.56 264.73 211.55 292.12 202.63 319.55 211.56 319.55 206.54 292.12 197.6 264.72 206.53"/>
                <polygon class="cls-9" points="264.72 197.03 237.31 188.09 209.9 197.03 182.49 188.09 155.07 197.03 155.07 196.99 127.64 188.06 100.23 196.99 72.82 188.06 45.41 196.99 18.01 188.06 -9.42 196.99 -9.42 202.02 18.01 193.08 45.4 202.01 45.4 202.02 45.41 202.01 45.43 202.02 45.43 202.01 72.82 193.08 100.22 202.01 100.22 202.02 100.23 202.01 100.25 202.02 100.25 202.01 127.64 193.08 155.07 202.02 155.07 202.06 182.49 193.12 209.88 202.05 209.88 202.06 209.9 202.05 209.91 202.06 209.91 202.05 237.31 193.12 264.7 202.05 264.7 202.06 264.72 202.05 264.73 202.06 264.73 202.05 292.12 193.12 319.55 202.06 319.55 197.03 292.12 188.09 264.72 197.03"/>
                <polygon class="cls-9" points="264.72 187.52 237.31 178.59 209.9 187.52 182.49 178.59 155.07 187.52 155.07 187.48 127.64 178.55 100.23 187.48 72.82 178.55 45.41 187.48 18.01 178.55 -9.42 187.48 -9.42 192.51 18.01 183.57 45.4 192.5 45.4 192.51 45.41 192.51 45.43 192.51 45.43 192.5 72.82 183.57 100.22 192.5 100.22 192.51 100.23 192.51 100.25 192.51 100.25 192.5 127.64 183.57 155.07 192.51 155.07 192.55 182.49 183.61 209.88 192.54 209.88 192.55 209.9 192.54 209.91 192.55 209.91 192.54 237.31 183.61 264.7 192.54 264.7 192.55 264.72 192.54 264.73 192.55 264.73 192.54 292.12 183.61 319.55 192.55 319.55 187.52 292.12 178.59 264.72 187.52"/>
                <polygon class="cls-9" points="264.72 178.01 237.31 169.08 209.9 178.01 182.49 169.08 155.07 178.01 155.07 177.98 127.64 169.04 100.23 177.97 72.82 169.04 45.41 177.97 18.01 169.04 -9.42 177.98 -9.42 183 18.01 174.07 45.4 182.99 45.4 183 45.41 183 45.43 183 45.43 182.99 72.82 174.07 100.22 182.99 100.22 183 100.23 183 100.25 183 100.25 182.99 127.64 174.07 155.07 183 155.07 183.04 182.49 174.1 209.88 183.03 209.88 183.04 209.9 183.04 209.91 183.04 209.91 183.03 237.31 174.1 264.7 183.03 264.7 183.04 264.72 183.04 264.73 183.04 264.73 183.03 292.12 174.1 319.55 183.04 319.55 178.01 292.12 169.08 264.72 178.01"/>
                <polygon class="cls-9" points="264.72 168.5 237.31 159.57 209.9 168.5 182.49 159.57 155.07 168.51 155.07 168.47 127.64 159.53 100.23 168.46 72.82 159.53 45.41 168.46 18.01 159.53 -9.42 168.47 -9.42 173.49 18.01 164.56 45.4 173.48 45.4 173.49 45.41 173.49 45.43 173.49 45.43 173.48 72.82 164.56 100.22 173.48 100.22 173.49 100.23 173.49 100.25 173.49 100.25 173.48 127.64 164.56 155.07 173.49 155.07 173.53 182.49 164.6 209.88 173.52 209.88 173.53 209.9 173.53 209.91 173.53 209.91 173.52 237.31 164.6 264.7 173.52 264.7 173.53 264.72 173.53 264.73 173.53 264.73 173.52 292.12 164.6 319.55 173.53 319.55 168.51 292.12 159.57 264.72 168.5"/>
                <polygon class="cls-9" points="264.72 158.99 237.31 150.06 209.9 158.99 182.49 150.06 155.07 159 155.07 158.96 127.64 150.02 100.23 158.95 72.82 150.02 45.41 158.95 18.01 150.02 -9.42 158.96 -9.42 163.99 18.01 155.05 45.4 163.98 45.4 163.99 45.41 163.98 45.43 163.99 45.43 163.98 72.82 155.05 100.22 163.98 100.22 163.99 100.23 163.98 100.25 163.99 100.25 163.98 127.64 155.05 155.07 163.99 155.07 164.02 182.49 155.09 209.88 164.01 209.88 164.02 209.9 164.02 209.91 164.02 209.91 164.01 237.31 155.09 264.7 164.01 264.7 164.02 264.72 164.02 264.73 164.02 264.73 164.01 292.12 155.09 319.55 164.02 319.55 159 292.12 150.06 264.72 158.99"/>
                <polygon class="cls-9" points="292.12 140.55 264.72 149.49 237.31 140.55 209.9 149.49 182.49 140.55 155.07 149.49 155.07 149.45 127.64 140.52 100.23 149.45 72.82 140.52 45.41 149.45 18.01 140.52 -9.42 149.45 -9.42 154.48 18.01 145.54 45.4 154.47 45.4 154.48 45.41 154.47 45.43 154.48 45.43 154.47 72.82 145.54 100.22 154.47 100.22 154.48 100.23 154.47 100.25 154.48 100.25 154.47 127.64 145.54 155.07 154.48 155.07 154.52 182.49 145.58 209.88 154.51 209.88 154.52 209.9 154.51 209.91 154.52 209.91 154.51 237.31 145.58 264.7 154.51 264.7 154.52 264.72 154.51 264.73 154.52 264.73 154.51 292.12 145.58 319.55 154.52 319.55 149.49 292.12 140.55"/>
              </g>
            </g>
          </g>
        </g>
        <g class="cls-1">
          <g>
            <rect class="cls-17" x="-70.41" y="150.63" width="453.47" height="156.22"/>
            <g class="cls-4">
              <g>
                <path class="cls-14" d="m369.4,127.15c0,11.95-10.96,13.47-13.56,13.47-2.88,0-13.74-2.16-13.74-13.38s-8.98-14.19-14.01-14.19c-5.37,0-13.74,4.47-13.74,14.1,0,11.95-10.96,13.47-13.56,13.47-2.87,0-13.74-2.16-13.74-13.38s-8.84-14.13-13.89-14.19h0s-.02,0-.05,0c-.02,0-.05,0-.07,0-2.37,0-5.46.88-8.11,2.87-2.29,1.6-4.36,4.09-5.11,7.96-.28,1.19-.43,2.49-.43,3.91v1.41c-1.16,10.08-10.99,11.44-13.44,11.44-2.88,0-13.74-2.16-13.74-13.38s-8.98-14.19-14.01-14.19c-5.37,0-13.74,4.47-13.74,14.1,0,11.95-10.96,13.47-13.56,13.47-2.88,0-13.74-2.16-13.74-13.38s-8.98-14.19-14.01-14.19c0,0-.01,0-.02,0h0s-.04,0-.04,0c-1.96.01-4.4.61-6.67,1.94-3.45,1.82-6.94,5.35-6.94,12.16,0,11.95-10.96,13.47-13.56,13.47-2.87,0-13.74-2.16-13.74-13.38s-8.98-14.19-14.01-14.19c-5.37,0-13.74,4.47-13.74,14.1,0,11.95-10.96,13.47-13.56,13.47-2.88,0-13.74-2.16-13.74-13.38s-8.84-14.13-13.89-14.19h0s-.02,0-.05,0c-.02,0-.05,0-.07,0-2.37,0-5.46.88-8.11,2.87-2.29,1.6-4.36,4.09-5.11,7.96-.27,1.19-.43,2.49-.43,3.91v1.41c-1.16,10.08-10.99,11.44-13.44,11.44-2.87,0-13.74-2.16-13.74-13.38s-8.98-14.19-14.01-14.19c-5.38,0-13.74,4.47-13.74,14.1,0,11.95-10.96,13.47-13.56,13.47-2.88,0-13.74-2.16-13.74-13.38s-8.98-14.19-14.01-14.19-13.65,4.04-13.65,14.73l.09,12.57s1.35-13.65,13.65-13.65,13.92,12.48,13.92,13.83.9,13.56,13.56,13.56,13.92-11.77,13.92-13.11c0-4.15,3.83-14.28,13.65-14.28,12.57,0,13.92,12.48,13.92,13.83s.9,13.56,13.56,13.56,13.92-11.77,13.92-13.11c0-2.28.8-5.86,2.88-8.87.02-.03.04-.06.06-.08.22-.32.46-.63.72-.93.09-.11.19-.21.28-.32.16-.18.33-.35.5-.53.31-.31.63-.6.98-.88.01-.01.02-.02.04-.03,1.94-1.55,4.54-2.63,7.99-2.63,12.58,0,13.92,12.48,13.92,13.83s.9,13.56,13.56,13.56,13.92-11.77,13.92-13.11c0-4.15,3.83-14.28,13.65-14.28,12.57,0,13.92,12.48,13.92,13.83s.9,13.56,13.56,13.56,13.92-11.77,13.92-13.11c0-.68.08-1.49.24-2.35.83-3.66,3.75-11.93,13.35-11.93,12.57,0,13.92,12.48,13.92,13.83s.9,13.56,13.56,13.56,13.92-11.77,13.92-13.11c0-4.15,3.83-14.28,13.65-14.28,12.58,0,13.92,12.48,13.92,13.83s.9,13.56,13.56,13.56,13.92-11.77,13.92-13.11c0-2.28.8-5.86,2.88-8.87.02-.03.04-.06.06-.08.22-.32.46-.63.72-.93.09-.11.19-.21.28-.32.16-.18.33-.35.5-.53.31-.31.63-.6.98-.88.01-.01.02-.02.04-.03,1.94-1.55,4.53-2.63,7.99-2.63,12.57,0,13.92,12.48,13.92,13.83s.9,13.56,13.56,13.56,13.92-11.77,13.92-13.11c0-4.15,3.83-14.28,13.65-14.28,12.57,0,13.92,12.48,13.92,13.83s.9,13.56,13.56,13.56,13.92-11.77,13.92-13.11c0-4.58,3.23-14.37,13.47-14.37v-13.56s-13.65.63-13.65,14.1"/>
                <path class="cls-14" d="m369.4,210.39c0,11.95-10.96,13.47-13.56,13.47-2.88,0-13.74-2.16-13.74-13.38s-8.98-14.19-14.01-14.19c-5.37,0-13.74,4.47-13.74,14.1,0,11.95-10.96,13.47-13.56,13.47-2.87,0-13.74-2.16-13.74-13.38s-8.84-14.13-13.89-14.19h0s-.02,0-.05,0c-.02,0-.05,0-.07,0-2.37,0-5.46.88-8.11,2.87-2.29,1.6-4.36,4.09-5.11,7.96-.28,1.19-.43,2.48-.43,3.91h0s.01,1.41.01,1.41c-1.17,10.08-11,11.43-13.45,11.43-2.88,0-13.74-2.16-13.74-13.38s-8.98-14.19-14.01-14.19c-5.37,0-13.74,4.47-13.74,14.1,0,11.95-10.96,13.47-13.56,13.47-2.88,0-13.74-2.16-13.74-13.38s-8.98-14.19-14.01-14.19c0,0-.01,0-.02,0h0s-.04,0-.04,0c-1.96.01-4.4.61-6.67,1.94-3.45,1.82-6.94,5.35-6.94,12.16,0,11.95-10.96,13.47-13.56,13.47-2.87,0-13.74-2.16-13.74-13.38s-8.98-14.19-14.01-14.19c-5.37,0-13.74,4.47-13.74,14.1,0,11.95-10.96,13.47-13.56,13.47-2.88,0-13.74-2.16-13.74-13.38s-8.84-14.13-13.89-14.19h0s-.02,0-.05,0c-.02,0-.05,0-.07,0-2.37,0-5.46.88-8.11,2.87-2.29,1.6-4.36,4.09-5.11,7.96-.27,1.19-.43,2.48-.43,3.91h0s.01,1.41.01,1.41c-1.17,10.08-11,11.43-13.45,11.43-2.87,0-13.74-2.16-13.74-13.38s-8.98-14.19-14.01-14.19c-5.38,0-13.74,4.47-13.74,14.1,0,11.95-10.96,13.47-13.56,13.47-2.88,0-13.74-2.16-13.74-13.38s-8.98-14.19-14.01-14.19-13.65,4.04-13.65,14.73h0s.09,12.57.09,12.57c0,0,1.35-13.65,13.65-13.65s13.92,12.48,13.92,13.83.9,13.56,13.56,13.56,13.92-11.77,13.92-13.11c0-4.15,3.83-14.28,13.65-14.28,12.57,0,13.92,12.48,13.92,13.83s.9,13.56,13.56,13.56,13.92-11.77,13.92-13.11c0-2.28.8-5.86,2.88-8.88.02-.03.04-.05.06-.08.22-.32.46-.63.72-.93.09-.11.19-.21.28-.32.16-.18.33-.35.5-.52.31-.31.63-.61.98-.89.01-.01.02-.02.03-.03,1.94-1.55,4.54-2.63,7.99-2.63,12.58,0,13.92,12.48,13.92,13.83s.9,13.56,13.56,13.56,13.92-11.77,13.92-13.11c0-4.15,3.83-14.28,13.65-14.28,12.57,0,13.92,12.48,13.92,13.83s.9,13.56,13.56,13.56,13.92-11.77,13.92-13.11c0-.68.08-1.49.24-2.35.83-3.66,3.75-11.93,13.35-11.93,12.57,0,13.92,12.48,13.92,13.83s.9,13.56,13.56,13.56,13.92-11.77,13.92-13.11c0-4.15,3.83-14.28,13.65-14.28,12.58,0,13.92,12.48,13.92,13.83s.9,13.56,13.56,13.56,13.92-11.77,13.92-13.11c0-2.28.8-5.86,2.88-8.88.02-.03.04-.05.06-.08.22-.32.46-.63.71-.93.09-.11.19-.21.28-.32.16-.18.33-.35.5-.52.31-.31.63-.61.98-.89.01-.01.02-.02.03-.03,1.94-1.55,4.53-2.63,7.99-2.63,12.57,0,13.92,12.48,13.92,13.83s.9,13.56,13.56,13.56,13.92-11.77,13.92-13.11c0-4.15,3.83-14.28,13.65-14.28,12.57,0,13.92,12.48,13.92,13.83s.9,13.56,13.56,13.56,13.92-11.77,13.92-13.11c0-4.58,3.23-14.37,13.47-14.37v-13.56h0s-13.65.63-13.65,14.1"/>
                <path class="cls-14" d="m369.4,182.64c0,11.95-10.96,13.47-13.56,13.47-2.88,0-13.74-2.16-13.74-13.38s-8.98-14.19-14.01-14.19c-5.37,0-13.74,4.47-13.74,14.1,0,11.95-10.96,13.47-13.56,13.47-2.87,0-13.74-2.16-13.74-13.38s-8.84-14.13-13.89-14.19h0s-.02,0-.05,0c-.02,0-.05,0-.07,0-2.37,0-5.46.88-8.11,2.87-2.29,1.6-4.36,4.09-5.11,7.96-.28,1.19-.43,2.49-.43,3.91v1.41c-1.16,10.08-10.99,11.44-13.44,11.44-2.88,0-13.74-2.16-13.74-13.38s-8.98-14.19-14.01-14.19c-5.37,0-13.74,4.47-13.74,14.1,0,11.95-10.96,13.47-13.56,13.47-2.88,0-13.74-2.16-13.74-13.38s-8.98-14.19-14.01-14.19h-.02s-.04,0-.04,0c-1.96.01-4.4.61-6.67,1.94-3.45,1.82-6.94,5.35-6.94,12.16,0,11.95-10.96,13.47-13.56,13.47-2.87,0-13.74-2.16-13.74-13.38s-8.98-14.19-14.01-14.19c-5.37,0-13.74,4.47-13.74,14.1,0,11.95-10.96,13.47-13.56,13.47-2.88,0-13.74-2.16-13.74-13.38s-8.84-14.13-13.89-14.19h0s-.02,0-.05,0c-.02,0-.05,0-.07,0-2.37,0-5.46.88-8.11,2.87-2.29,1.6-4.36,4.09-5.11,7.96-.27,1.19-.43,2.49-.43,3.91v1.41c-1.16,10.08-10.99,11.44-13.44,11.44-2.87,0-13.74-2.16-13.74-13.38s-8.98-14.19-14.01-14.19c-5.38,0-13.74,4.47-13.74,14.1,0,11.95-10.96,13.47-13.56,13.47-2.88,0-13.74-2.16-13.74-13.38s-8.98-14.19-14.01-14.19-13.65,4.04-13.65,14.73l.09,12.57s1.35-13.65,13.65-13.65,13.92,12.48,13.92,13.83.9,13.56,13.56,13.56,13.92-11.77,13.92-13.11c0-4.15,3.83-14.28,13.65-14.28,12.57,0,13.92,12.48,13.92,13.83s.9,13.56,13.56,13.56,13.92-11.77,13.92-13.11c0-2.28.8-5.86,2.88-8.87.02-.03.04-.06.06-.08.22-.32.46-.63.72-.93.09-.11.19-.21.28-.32.16-.18.33-.35.5-.53.31-.31.63-.6.98-.88.01-.01.02-.02.04-.03,1.94-1.55,4.54-2.63,7.99-2.63,12.58,0,13.92,12.48,13.92,13.83s.9,13.56,13.56,13.56,13.92-11.77,13.92-13.11c0-4.15,3.83-14.28,13.65-14.28,12.57,0,13.92,12.48,13.92,13.83s.9,13.56,13.56,13.56,13.92-11.77,13.92-13.11c0-.68.08-1.49.24-2.35.83-3.66,3.75-11.93,13.35-11.93,12.57,0,13.92,12.48,13.92,13.83s.9,13.56,13.56,13.56,13.92-11.77,13.92-13.11c0-4.15,3.83-14.28,13.65-14.28,12.58,0,13.92,12.48,13.92,13.83s.9,13.56,13.56,13.56,13.92-11.77,13.92-13.11c0-2.28.8-5.86,2.88-8.87.02-.03.04-.06.06-.08.22-.32.46-.63.71-.93.09-.11.19-.21.28-.32.16-.18.33-.35.5-.53.31-.31.63-.6.98-.88.01-.01.02-.02.04-.03,1.94-1.55,4.53-2.63,7.99-2.63,12.57,0,13.92,12.48,13.92,13.83s.9,13.56,13.56,13.56,13.92-11.77,13.92-13.11c0-4.15,3.83-14.28,13.65-14.28,12.57,0,13.92,12.48,13.92,13.83s.9,13.56,13.56,13.56,13.92-11.77,13.92-13.11c0-4.58,3.23-14.37,13.47-14.37v-13.56s-13.65.63-13.65,14.1"/>
                <path class="cls-14" d="m369.4,154.9c0,11.95-10.96,13.47-13.56,13.47-2.88,0-13.74-2.16-13.74-13.38s-8.98-14.19-14.01-14.19c-5.37,0-13.74,4.47-13.74,14.1,0,11.95-10.96,13.47-13.56,13.47-2.87,0-13.74-2.16-13.74-13.38s-8.84-14.13-13.89-14.19h0s-.02,0-.05,0c-.02,0-.05,0-.07,0-2.37,0-5.46.88-8.11,2.87-2.29,1.6-4.36,4.09-5.11,7.96-.28,1.19-.43,2.48-.43,3.91v1.41c-1.16,10.08-10.99,11.44-13.44,11.44-2.88,0-13.74-2.16-13.74-13.38s-8.98-14.19-14.01-14.19c-5.37,0-13.74,4.47-13.74,14.1,0,11.95-10.96,13.47-13.56,13.47-2.88,0-13.74-2.16-13.74-13.38s-8.98-14.19-14.01-14.19h-.02s-.04,0-.04,0c-1.96.01-4.4.61-6.67,1.94-3.45,1.82-6.94,5.35-6.94,12.16,0,11.95-10.96,13.47-13.56,13.47-2.87,0-13.74-2.16-13.74-13.38s-8.98-14.19-14.01-14.19c-5.37,0-13.74,4.47-13.74,14.1,0,11.95-10.96,13.47-13.56,13.47-2.88,0-13.74-2.16-13.74-13.38s-8.84-14.13-13.89-14.19h0s-.02,0-.05,0c-.02,0-.05,0-.07,0-2.37,0-5.47.88-8.11,2.87-2.29,1.6-4.36,4.09-5.11,7.96-.27,1.19-.43,2.48-.43,3.91v1.41c-1.16,10.08-10.99,11.44-13.44,11.44-2.87,0-13.74-2.16-13.74-13.38s-8.98-14.19-14.01-14.19c-5.38,0-13.74,4.47-13.74,14.1,0,11.95-10.96,13.47-13.56,13.47-2.88,0-13.74-2.16-13.74-13.38s-8.98-14.19-14.01-14.19-13.65,4.04-13.65,14.73l.09,12.57s1.35-13.65,13.65-13.65,13.92,12.48,13.92,13.83.9,13.56,13.56,13.56,13.92-11.77,13.92-13.11c0-4.15,3.83-14.28,13.65-14.28,12.57,0,13.92,12.48,13.92,13.83s.9,13.56,13.56,13.56,13.92-11.77,13.92-13.11c0-2.28.8-5.86,2.88-8.88.02-.03.04-.06.06-.08.22-.32.46-.63.72-.93.09-.11.19-.21.28-.32.16-.18.33-.35.5-.53.31-.31.63-.61.98-.89.01-.01.02-.02.03-.03,1.94-1.55,4.54-2.63,7.99-2.63,12.58,0,13.92,12.48,13.92,13.83s.9,13.56,13.56,13.56,13.92-11.77,13.92-13.11c0-4.15,3.83-14.28,13.65-14.28,12.57,0,13.92,12.48,13.92,13.83s.9,13.56,13.56,13.56,13.92-11.77,13.92-13.11c0-.68.08-1.49.24-2.35.83-3.66,3.75-11.93,13.35-11.93,12.57,0,13.92,12.48,13.92,13.83s.9,13.56,13.56,13.56,13.92-11.77,13.92-13.11c0-4.15,3.83-14.28,13.65-14.28,12.58,0,13.92,12.48,13.92,13.83s.9,13.56,13.56,13.56,13.92-11.77,13.92-13.11c0-2.28.8-5.86,2.88-8.88.02-.03.04-.06.06-.08.22-.32.46-.63.72-.93.09-.11.19-.21.28-.32.16-.18.33-.35.5-.53.31-.31.63-.61.98-.89.01-.01.02-.02.03-.03,1.94-1.55,4.53-2.63,7.99-2.63,12.57,0,13.92,12.48,13.92,13.83s.9,13.56,13.56,13.56,13.92-11.77,13.92-13.11c0-4.15,3.83-14.28,13.65-14.28,12.57,0,13.92,12.48,13.92,13.83s.9,13.56,13.56,13.56,13.92-11.77,13.92-13.11c0-4.58,3.23-14.37,13.47-14.37v-13.56s-13.65.63-13.65,14.1"/>
                <path class="cls-14" d="m369.4,238.14c0,11.95-10.96,13.47-13.56,13.47-2.88,0-13.74-2.16-13.74-13.38s-8.98-14.19-14.01-14.19c-5.37,0-13.74,4.47-13.74,14.1,0,11.95-10.96,13.47-13.56,13.47-2.87,0-13.74-2.16-13.74-13.38s-8.84-14.13-13.89-14.19h0s-.02,0-.05,0c-.02,0-.05,0-.07,0-2.37,0-5.46.88-8.11,2.87-2.29,1.6-4.36,4.09-5.11,7.95-.28,1.19-.43,2.49-.43,3.91v1.41c-1.16,10.08-10.99,11.44-13.44,11.44-2.88,0-13.74-2.16-13.74-13.38s-8.98-14.19-14.01-14.19c-5.37,0-13.74,4.47-13.74,14.1,0,11.95-10.96,13.47-13.56,13.47-2.88,0-13.74-2.16-13.74-13.38s-8.98-14.19-14.01-14.19c0,0-.01,0-.02,0h0s-.04,0-.04,0c-1.96.01-4.4.61-6.67,1.94-3.45,1.82-6.94,5.35-6.94,12.16,0,11.95-10.96,13.47-13.56,13.47-2.87,0-13.74-2.16-13.74-13.38s-8.98-14.19-14.01-14.19c-5.37,0-13.74,4.47-13.74,14.1,0,11.95-10.96,13.47-13.56,13.47-2.88,0-13.74-2.16-13.74-13.38s-8.84-14.13-13.89-14.19h0s-.02,0-.05,0c-.02,0-.05,0-.07,0-2.37,0-5.47.88-8.11,2.87-2.29,1.6-4.36,4.09-5.11,7.95-.27,1.19-.43,2.49-.43,3.91v1.41c-1.16,10.08-10.99,11.44-13.44,11.44-2.87,0-13.74-2.16-13.74-13.38s-8.98-14.19-14.01-14.19c-5.38,0-13.74,4.47-13.74,14.1,0,11.95-10.96,13.47-13.56,13.47-2.88,0-13.74-2.16-13.74-13.38s-8.98-14.19-14.01-14.19-13.65,4.04-13.65,14.73l.09,12.57s1.35-13.65,13.65-13.65,13.92,12.48,13.92,13.83.9,13.56,13.56,13.56,13.92-11.77,13.92-13.11c0-4.15,3.83-14.28,13.65-14.28,12.57,0,13.92,12.48,13.92,13.83s.9,13.56,13.56,13.56,13.92-11.77,13.92-13.11c0-2.28.8-5.86,2.88-8.87.02-.03.04-.06.06-.08.22-.32.46-.63.72-.93.09-.11.19-.21.28-.32.16-.18.33-.35.5-.53.31-.31.63-.6.98-.88.01-.01.02-.02.04-.03,1.94-1.55,4.54-2.63,7.99-2.63,12.58,0,13.92,12.48,13.92,13.83s.9,13.56,13.56,13.56,13.92-11.77,13.92-13.11c0-4.15,3.83-14.28,13.65-14.28,12.57,0,13.92,12.48,13.92,13.83s.9,13.56,13.56,13.56,13.92-11.77,13.92-13.11c0-.68.08-1.49.24-2.35.83-3.66,3.75-11.93,13.35-11.93,12.57,0,13.92,12.48,13.92,13.83s.9,13.56,13.56,13.56,13.92-11.77,13.92-13.11c0-4.15,3.83-14.28,13.65-14.28,12.58,0,13.92,12.48,13.92,13.83s.9,13.56,13.56,13.56,13.92-11.77,13.92-13.11c0-2.28.8-5.86,2.88-8.87.02-.03.04-.06.06-.08.22-.32.46-.63.71-.93.09-.11.19-.21.28-.32.16-.18.33-.35.5-.53.31-.31.63-.6.98-.88.01-.01.02-.02.04-.03,1.94-1.55,4.53-2.63,7.99-2.63,12.57,0,13.92,12.48,13.92,13.83s.9,13.56,13.56,13.56,13.92-11.77,13.92-13.11c0-4.15,3.83-14.28,13.65-14.28,12.57,0,13.92,12.48,13.92,13.83s.9,13.56,13.56,13.56,13.92-11.77,13.92-13.11c0-4.58,3.23-14.37,13.47-14.37v-13.56s-13.65.63-13.65,14.1"/>
              </g>
            </g>
          </g>
        </g>
        <g>
          <path class="cls-12" d="m56.82,177.68v13.87c-2.64,9.48-10.58,16.74-20.42,18.43v47.6H6.27v-72.96s0,0,0,0c0-14.22,11.53-25.75,25.75-25.75,11.82,0,21.78,7.96,24.8,18.81"/>
          <g class="cls-3">
            <path class="cls-9" d="m13.29,178.38l7.52-4.91,7.53,4.91-7.53,4.91-7.52-4.91Zm0,9.86l7.52-4.91,7.53,4.91-7.53,4.91-7.52-4.91Zm0,9.86l7.52-4.91,7.53,4.91-7.53,4.91-7.52-4.91Zm.18,9.75l7.35-4.8,7.35,4.8-7.35,4.8-7.35-4.8Zm-.18,9.75l7.52-4.91,7.53,4.91-7.53,4.91-7.52-4.91Zm0,9.86l7.52-4.91,7.53,4.91-7.53,4.91-7.52-4.91Zm0,9.86l7.52-4.91,7.53,4.91-7.53,4.91-7.52-4.91Zm15.05,9.86l-7.53,4.91-7.52-4.91,7.52-4.91,7.53,4.91Zm15.05,0l-7.53,4.91-7.52-4.91,7.52-4.91,7.53,4.91Zm15.05,0l-7.52,4.91-7.53-4.91,7.53-4.91,7.52,4.91Zm0-9.86l-7.52,4.91-7.53-4.91,7.53-4.91,7.52,4.91Zm0-9.86l-7.52,4.91-7.53-4.91,7.53-4.91,7.52,4.91Zm0-9.86l-7.52,4.91-7.53-4.91,7.53-4.91,7.52,4.91Zm-.18-9.75l-7.35,4.8-7.35-4.8,7.35-4.8,7.35,4.8Zm.18-9.75l-7.52,4.91-7.53-4.91,7.53-4.91,7.52,4.91Zm0-9.86l-7.52,4.91-7.53-4.91,7.53-4.91,7.52,4.91Zm0-9.86l-7.52,4.91-7.53-4.91,7.53-4.91,7.52,4.91Zm-15.05-9.86l7.53-4.91,7.52,4.91-7.52,4.91-7.53-4.91Zm-15.05,0l7.52-4.91,7.53,4.91-7.53,4.91-7.52-4.91Zm0,19.72l7.52-4.91,7.53,4.91-7.53,4.91-7.52-4.91Zm0,9.86l7.52-4.91,7.53,4.91-7.53,4.91-7.52-4.91Zm.18,9.75l7.35-4.8,7.35,4.8-7.35,4.8-7.35-4.8Zm-.18,9.75l7.52-4.91,7.53,4.91-7.53,4.91-7.52-4.91Zm0,9.86l7.52-4.91,7.53,4.91-7.53,4.91-7.52-4.91Zm15.05-49.08l-7.53,4.91-7.52-4.91,7.52-4.91,7.53,4.91Zm-15.05,58.94l7.52-4.91,7.53,4.91-7.53,4.91-7.52-4.91Zm-15.05-68.8l7.52-4.91,7.53,4.91-7.53,4.91-7.52-4.91Zm-7.56,4.93l7.55,4.93-7.55,4.93,7.55,4.93-7.55,4.93,7.55,4.93-7.55,4.93,7.38,4.82-7.38,4.82,7.55,4.93-7.55,4.93,7.55,4.93-7.55,4.93,7.55,4.93-7.55,4.93,7.55,4.93-7.55,4.93,7.55,4.93,7.53-4.92,7.53,4.92,7.53-4.92,7.53,4.92,7.53-4.92,7.53,4.92,7.55-4.93-7.55-4.93,7.55-4.93-7.55-4.93,7.55-4.93-7.55-4.93,7.55-4.93-7.55-4.93,7.55-4.93-7.38-4.82,7.38-4.82-7.55-4.93,7.55-4.93-7.55-4.93,7.55-4.93-7.55-4.93,7.55-4.93-7.55-4.93,7.55-4.93-7.55-4.93-7.53,4.92-7.53-4.92-7.53,4.92-7.53-4.92-7.53,4.92-7.53-4.92-7.55,4.93,7.55,4.93-7.55,4.93Z"/>
          </g>
        </g>
      </g>
      <path class="cls-10" d="m325.07,177.54c-.22.48.16,3.95-.45,8.13,0,0-2.62-3.91-8.18-4.39l2.79,5.06s-3.76-1.95-9.96,1.49c0,0,6.7.15,9.81,2.1,0,0-3.9-.32-10.39,5.04v.03c.61-.19,6.31-1.95,9.09-1.8,0,0-5.87,2.95-7.5,7.37l7.35-2.47s-2.93,2.62-3.25,7.36c0,0,7.49-3.15,12.42-8.44l.06,24.98h1.56l-.06-24.99c4.95,5.26,12.46,8.39,12.46,8.39-.34-4.74-3.28-7.34-3.28-7.34l7.36,2.43c-1.64-4.41-7.53-7.33-7.53-7.33,2.94-.17,9.15,1.78,9.15,1.78-6.55-5.38-10.47-5.04-10.47-5.04,3.1-1.97,9.8-2.15,9.8-2.15-6.22-3.42-9.97-1.45-9.97-1.45l2.77-5.07c-5.55.5-8.16,4.43-8.16,4.43-2.75-3.8-5.19-7.64-5.41-8.12Zm0,0l.75-.22-.75.22Z"/>
      <circle class="cls-13" cx="297.5" cy="76.35" r="26.57"/>
      <g>
        <g>
          <path class="cls-15" d="m149.11,107.41h2.67l3.33,7.49,3.32-7.49h2.33l-5,10.61h-1.65l-5-10.61Z"/>
          <path class="cls-15" d="m164.45,118.02h-2.43v-10.61h2.43v10.61Z"/>
          <path class="cls-15" d="m166.35,113c0-3.36,2.74-5.73,6.15-5.73,1.52,0,2.9.31,3.92.72l-.63,1.89c-.71-.35-1.8-.66-3.15-.66-1.9,0-3.32,1.03-3.76,2.68h5.42l-.25,1.84h-5.2c.32,1.56,1.87,2.49,4.1,2.49,1.16,0,2.54-.32,3.32-.62l-.24,2.05c-.74.27-2.03.52-3.18.52-3.51,0-6.49-1.86-6.49-5.17Z"/>
          <path class="cls-15" d="m180.69,109.4h-3.54v-1.99h9.58l-.38,1.99h-3.23v8.62h-2.43v-8.62Z"/>
          <path class="cls-15" d="m188.01,107.41h2.05l6.15,6.96v-6.96h2.29v10.61h-2.08l-6.12-6.87v6.87h-2.29v-10.61Z"/>
          <path class="cls-15" d="m199.8,118.02c1-3.18,3.04-6.66,5.1-8.75h-3.04l.65-1.86h7.59v10.61h-2.43v-2.05h-4.75c-.32.72-.59,1.42-.78,2.05h-2.34Zm4.05-3.91h3.82v-4.91h-.1c-1.34,1.21-2.68,3.04-3.71,4.91Z"/>
          <path class="cls-15" d="m212.65,107.41h2.11l4,4.07,3.61-4.07h2.24v10.61h-2.43v-6.26l.04-1.12-3.57,4-3.74-3.8.03,1.21v5.98h-2.29v-10.61Z"/>
        </g>
        <g>
          <path class="cls-15" d="m80.47,128.03h11.66c9.14,0,17.99,4.88,17.99,14.39s-8.44,15.38-17.99,15.38h-11.66v-29.77Zm11.25,24.31c6.62,0,11.37-3.89,11.37-9.92s-5.17-8.93-11.37-8.93h-4.42v18.86h4.42Z"/>
          <path class="cls-15" d="m110.94,157.8c2.81-8.93,8.52-18.69,14.31-24.56h-8.52l1.82-5.21h21.3v29.77h-6.82v-5.75h-13.32c-.91,2.03-1.65,3.97-2.19,5.75h-6.58Zm11.37-10.96h10.71v-13.77h-.29c-3.76,3.39-7.53,8.52-10.42,13.77Z"/>
          <path class="cls-15" d="m158.87,128.03h5.75l17.24,19.52v-19.52h6.41v29.77h-5.83l-17.16-19.27v19.27h-6.41v-29.77Z"/>
          <path class="cls-15" d="m191.94,157.8c2.81-8.93,8.52-18.69,14.31-24.56h-8.52l1.82-5.21h21.3v29.77h-6.82v-5.75h-13.32c-.91,2.03-1.65,3.97-2.19,5.75h-6.58Zm11.37-10.96h10.71v-13.77h-.29c-3.76,3.39-7.53,8.52-10.42,13.77Z"/>
          <path class="cls-15" d="m227.96,128.03h5.75l17.24,19.52v-19.52h6.41v29.77h-5.83l-17.16-19.27v19.27h-6.41v-29.77Z"/>
          <path class="cls-15" d="m262.69,143.66c0-9.26,7.86-16.04,17.2-16.04,4.42,0,9.01,1.03,11.83,2.36l-1.61,5.33c-2.15-1.2-5.91-2.23-9.84-2.23-5.79,0-10.54,4.47-10.54,10.09s5.09,9.59,10.59,9.59c5.21,0,8.97-2.4,9.51-6.45h-10.3l.91-5.21h15.84c.12.5.33,1.98.33,3.02,0,7.53-5.87,14.1-16.42,14.1-9.1,0-17.49-5.75-17.49-14.56Z"/>
        </g>
      </g>
    </g>
  </g>
</svg>